<?xml version="1.0" encoding="UTF-8" standalone="no"?>
<svg
   width="17mm"
   height="17mm"
   inkscape:version="1.2 (1:1.2+202206011327+fc4e4096c5)"
   sodipodi:docname="consolidate_special.svg"
   version="1.1"
   viewBox="0 0 17 17"
   id="svg19471"
   xmlns:inkscape="http://www.inkscape.org/namespaces/inkscape"
   xmlns:sodipodi="http://sodipodi.sourceforge.net/DTD/sodipodi-0.dtd"
   xmlns="http://www.w3.org/2000/svg"
   xmlns:svg="http://www.w3.org/2000/svg">
  <defs
     id="defs19473">
		
	
			
			
			
			
			
			
		
				
			
				
			
				
			
				
			
				
			
				
			
					
				
					
				
					
				
					
				
					
				
					
				</defs>
  <sodipodi:namedview
     bordercolor="#666666"
     borderopacity="1.0"
     inkscape:current-layer="g19469"
     inkscape:cx="44.213911"
     inkscape:cy="43.539462"
     inkscape:deskcolor="#d1d1d1"
     inkscape:document-units="mm"
     inkscape:pagecheckerboard="0"
     inkscape:pageopacity="0.0"
     inkscape:showpageshadow="2"
     inkscape:window-height="1016"
     inkscape:window-maximized="1"
     inkscape:window-width="1848"
     inkscape:window-x="72"
     inkscape:window-y="27"
     inkscape:zoom="6.6721082"
     pagecolor="#ffffff"
     showgrid="true"
     showguides="false"
     id="namedview19463">
    <inkscape:grid
       dotted="false"
       originx="0"
       originy="0"
       spacingx="0.5"
       spacingy="0.5"
       type="xygrid"
       units="mm"
       id="grid19461" />
  </sodipodi:namedview>
  <g
     inkscape:groupmode="layer"
     inkscape:label="Layer 1"
     id="g19469">
   <g
       id="g102555">
    <ellipse
       cx="8.5"
       cy="8.5"
       fill="#fce94f"
       stop-color="#000000"
       style="paint-order:fill markers stroke;fill:#cccccc"
       id="ellipse19465"
       ry="8.5"
       rx="8.5" />
    <path
       id="path153025"
       style="stroke-width:0.264583"
       d="M 8.5080078 1.5564941 A 0.88662672 0.88662672 0 0 0 7.6212402 2.4432617 A 0.88662672 0.88662672 0 0 0 8.5080078 3.3295125 A 0.88662672 0.88662672 0 0 0 9.3942586 2.4432617 A 0.88662672 0.88662672 0 0 0 8.5080078 1.5564941 z M 4.7656006 2.7755412 A 0.73880559 0.73880559 0 0 0 4.0266276 3.5139974 A 0.73880559 0.73880559 0 0 0 4.7656006 4.2529704 A 0.73880559 0.73880559 0 0 0 5.5040568 3.5139974 A 0.73880559 0.73880559 0 0 0 4.7656006 2.7755412 z M 12.18892 2.7755412 A 0.73880559 0.73880559 0 0 0 11.449947 3.5139974 A 0.73880559 0.73880559 0 0 0 12.18892 4.2529704 A 0.73880559 0.73880559 0 0 0 12.927376 3.5139974 A 0.73880559 0.73880559 0 0 0 12.18892 2.7755412 z M 8.4992228 3.6845296 L 8.4992228 3.6860799 C 8.3650539 3.6938758 8.2522086 3.7920474 8.2279215 3.9263753 C 7.928382 5.6096733 7.6261764 6.4631714 7.3297852 6.4631714 C 7.1204974 6.4631714 6.6598284 6.1479064 5.6523682 4.6457113 C 5.5742599 4.5293736 5.4241479 4.4845372 5.2947673 4.5392578 C 5.1655365 4.5936788 5.0930835 4.7318441 5.122168 4.8694702 C 5.4148112 6.2590756 5.4667945 7.0833424 5.275647 7.3184163 C 5.254508 7.3448023 5.2243367 7.3726766 5.1319865 7.3726766 C 4.6649868 7.3726766 3.6297177 6.6688934 2.8918132 6.1396769 C 2.7751757 6.055872 2.6152542 6.0697039 2.5140584 6.1711995 C 2.4127127 6.2722454 2.3993974 6.4321669 2.4830526 6.5489543 C 4.1700986 8.7065981 3.852478 11.183297 3.852478 11.183297 C 3.846328 11.217627 3.8426595 11.25235 3.8426595 11.289233 C 3.8426595 11.897609 4.6949251 12.138565 5.4368774 12.280387 C 6.2543894 12.437054 7.3308979 12.524402 8.4749349 12.527401 C 8.4858789 12.527401 8.4970638 12.5277 8.5080078 12.527401 C 8.5189518 12.5277 8.5298367 12.527401 8.5410807 12.527401 C 9.6848179 12.524301 10.761927 12.436906 11.579138 12.280387 C 12.32124 12.138565 13.172839 11.897159 13.172839 11.289233 C 13.172839 11.252353 13.169638 11.21778 13.163538 11.183297 C 13.163538 11.183297 12.846218 8.7061484 14.532963 6.5489543 C 14.616773 6.4323168 14.603814 6.2722454 14.502474 6.1711995 C 14.400626 6.0700037 14.240623 6.0560218 14.123686 6.1396769 C 13.38608 6.6687435 12.351029 7.3726766 11.884029 7.3726766 C 11.791529 7.3726766 11.761441 7.3446523 11.739852 7.3184163 C 11.549154 7.0833423 11.601055 6.2590756 11.893848 4.8694702 C 11.922783 4.7318441 11.85033 4.5936788 11.721248 4.5392578 C 11.592169 4.4845372 11.441905 4.5293736 11.363647 4.6457113 C 10.356037 6.1480563 9.8948517 6.4631714 9.6857137 6.4631714 C 9.3890227 6.4631714 9.0873337 5.6096733 8.7880941 3.9263753 C 8.7642568 3.7920474 8.6509039 3.6938758 8.516276 3.6860799 L 8.516276 3.6845296 C 8.513426 3.6845296 8.5108578 3.6850464 8.5080078 3.6850464 C 8.5051578 3.6850464 8.5019228 3.6845296 8.4992228 3.6845296 z M 1.9140951 5.1211344 A 0.49803415 0.49803415 0 0 0 1.416451 5.6192952 A 0.49803415 0.49803415 0 0 0 1.9140951 6.1174561 A 0.49803415 0.49803415 0 0 0 2.4122559 5.6192952 A 0.49803415 0.49803415 0 0 0 1.9140951 5.1211344 z M 15.085901 5.1211344 A 0.49803415 0.49803415 0 0 0 14.58774 5.6192952 A 0.49803415 0.49803415 0 0 0 15.085901 6.1174561 A 0.49803415 0.49803415 0 0 0 15.583545 5.6192952 A 0.49803415 0.49803415 0 0 0 15.085901 5.1211344 z M 8.4744181 10.890808 L 8.479069 10.890808 L 8.507491 10.890808 L 8.5359131 10.890808 L 8.540564 10.890808 C 10.35849 10.895908 11.560168 11.107897 12.090735 11.28975 C 11.560468 11.471303 10.35849 11.682411 8.540564 11.687659 L 8.5384969 11.687659 C 8.5280029 11.687659 8.517835 11.688175 8.507491 11.688175 C 8.4969972 11.688175 8.4874968 11.687659 8.477002 11.687659 L 8.4744181 11.687659 C 6.6563422 11.682459 5.454663 11.471303 4.9242472 11.28975 C 5.454663 11.107897 6.6563422 10.895905 8.4744181 10.890808 z M 8.5002563 12.948047 C 8.4758044 12.948047 8.4531267 12.961694 8.4423787 12.983704 L 7.9219971 14.038936 L 6.7577271 14.207918 C 6.7334701 14.211418 6.7137066 14.228483 6.7060506 14.251843 C 6.6985206 14.275073 6.7045023 14.300432 6.7220703 14.317472 L 7.5643962 15.138611 L 7.3654419 16.297713 C 7.3613219 16.321843 7.3715261 16.346348 7.3912801 16.360758 C 7.4111611 16.375298 7.4374223 16.377436 7.4589762 16.365926 L 8.5002563 15.818156 L 9.5410197 16.365926 C 9.5504197 16.370926 9.560762 16.373161 9.570992 16.373161 C 9.584312 16.373161 9.5974558 16.368948 9.6087158 16.360758 C 9.6285358 16.346348 9.638734 16.321843 9.634554 16.297713 L 9.4355998 15.138611 L 10.277926 14.317472 C 10.295426 14.300292 10.301535 14.275073 10.293945 14.251843 C 10.286345 14.228553 10.266529 14.211458 10.242269 14.207918 L 9.0779989 14.03842 L 8.5576172 12.983704 C 8.5468092 12.961704 8.5247083 12.948047 8.5002563 12.948047 z " />
  </g>
  </g>
</svg>
