<?xml version="1.0" encoding="UTF-8" standalone="no"?>
<svg
   width="17mm"
   height="17mm"
   inkscape:version="1.2 (1:1.2+202206011327+fc4e4096c5)"
   sodipodi:docname="defense_special.svg"
   version="1.1"
   viewBox="0 0 17 17"
   id="svg19471"
   xmlns:inkscape="http://www.inkscape.org/namespaces/inkscape"
   xmlns:sodipodi="http://sodipodi.sourceforge.net/DTD/sodipodi-0.dtd"
   xmlns="http://www.w3.org/2000/svg"
   xmlns:svg="http://www.w3.org/2000/svg">
  <defs
     id="defs19473" />
  <sodipodi:namedview
     bordercolor="#666666"
     borderopacity="1.0"
     inkscape:current-layer="g102555"
     inkscape:cx="39.305141"
     inkscape:cy="39.823451"
     inkscape:deskcolor="#d1d1d1"
     inkscape:document-units="mm"
     inkscape:pagecheckerboard="0"
     inkscape:pageopacity="0.0"
     inkscape:showpageshadow="2"
     inkscape:window-height="1016"
     inkscape:window-maximized="1"
     inkscape:window-width="1848"
     inkscape:window-x="72"
     inkscape:window-y="27"
     inkscape:zoom="5.7880469"
     pagecolor="#ffffff"
     showgrid="true"
     showguides="false"
     id="namedview19463">
    <inkscape:grid
       dotted="false"
       originx="0"
       originy="0"
       spacingx="0.5"
       spacingy="0.5"
       type="xygrid"
       units="mm"
       id="grid19461" />
  </sodipodi:namedview>
  <g
     inkscape:groupmode="layer"
     inkscape:label="Layer 1"
     id="g19469">
    <g
       id="g102555">
      <ellipse
         cx="8.5"
         cy="8.5"
         fill="#fce94f"
         stop-color="#000000"
         style="paint-order:fill markers stroke;fill:#cccccc"
         id="ellipse19465"
         ry="8.5"
         rx="8.5" />
      <path
         id="path152367"
         style="stroke-width:0.264584"
         d="M 8.4997396 2.2045166 C 6.3560738 2.2045166 4.9445854 3.4181985 4.6183228 6.0859334 C 4.417826 7.7253536 3.8384201 10.414163 3.6023641 11.477852 C 3.5451722 11.735576 3.6919685 11.995349 3.942395 12.078849 L 6.3298462 12.874666 C 6.4816645 12.925306 6.6482505 12.903048 6.7809814 12.813688 C 6.9137125 12.724328 6.997597 12.578068 7.007841 12.418363 L 7.216097 9.1673991 C 7.2295484 8.9574683 7.1143052 8.7602562 6.9246419 8.6692383 L 5.3702148 7.9235474 C 5.1681336 7.8265607 5.0830585 7.5840594 5.1800456 7.3819784 L 5.5464315 6.6187174 C 5.5930114 6.5216935 5.6763854 6.4471649 5.7779419 6.411495 C 5.8794975 6.375827 5.9909395 6.3819762 6.0880005 6.4285482 L 7.6543132 7.1804403 C 7.8331791 7.2662992 7.9473185 7.4471324 7.9473185 7.6455282 L 7.9473185 9.6154338 C 7.9473185 9.6921637 7.9896951 9.7628101 8.0573893 9.7988851 L 8.4020711 9.9828532 C 8.4631651 10.015433 8.5368287 10.015433 8.5979248 9.9828532 L 8.9426066 9.7988851 C 9.0102945 9.7627751 9.0526774 9.6921557 9.0526774 9.6154338 L 9.0526774 7.6455282 C 9.0526774 7.4471324 9.1663001 7.2662992 9.345166 7.1804403 L 10.911995 6.4285482 C 11.009015 6.3819682 11.120497 6.37582 11.222054 6.411495 C 11.323607 6.4471629 11.406988 6.5216935 11.453564 6.6187174 L 11.81995 7.3819784 C 11.91694 7.5840594 11.831861 7.8265607 11.629781 7.9235474 L 10.075354 8.6692383 C 9.8856914 8.7602532 9.7704129 8.9574683 9.7838989 9.1673991 L 9.9921549 12.418363 C 10.002395 12.578067 10.086245 12.724329 10.219014 12.813688 C 10.351782 12.903048 10.518368 12.925268 10.67015 12.874666 L 13.057601 12.078849 C 13.308545 11.995169 13.454415 11.736091 13.397115 11.477852 C 13.161022 10.414127 12.581654 7.7253537 12.381156 6.0859334 C 12.054895 3.4181985 10.643405 2.2045166 8.4997396 2.2045166 z M 15.435234 6.6827962 C 15.004846 6.6827962 14.771756 6.9513279 14.732951 7.025411 L 14.775326 7.3251343 C 14.877631 7.1910791 15.050624 6.9969889 15.350484 6.9969889 C 15.608011 6.9969889 15.780949 7.1378873 15.780949 7.3954142 C 15.780949 7.5859136 15.681941 7.8755821 14.754138 9.2020223 L 16.214514 9.2020223 L 16.214514 8.8981649 L 15.360819 8.8981649 C 15.914679 8.1114729 16.11943 7.6883565 16.11943 7.3602743 C 16.11943 7.0498308 15.953815 6.6827962 15.435234 6.6827962 z M 13.730945 7.6072876 L 13.730945 8.0589396 L 13.219348 8.0589396 L 13.219348 8.3622803 L 13.730945 8.3622803 L 13.730945 8.8418376 L 14.013098 8.8418376 L 14.013098 8.3622803 L 14.524695 8.3622803 L 14.524695 8.0589396 L 14.013098 8.0589396 L 14.013098 7.6072876 L 13.730945 7.6072876 z M 8.5002563 12.837459 C 8.4752464 12.837459 8.4518184 12.85164 8.4408285 12.87415 L 7.9085612 13.953153 L 6.7179362 14.12627 C 6.6931262 14.12987 6.6725395 14.147338 6.6647095 14.171228 C 6.6570095 14.194988 6.6632959 14.220967 6.6812459 14.238407 L 7.5432088 15.078149 L 7.3396037 16.264124 C 7.3354037 16.288804 7.3452119 16.313979 7.3654419 16.328719 C 7.3857819 16.343589 7.4131551 16.34515 7.4352051 16.33337 L 8.5002563 15.773714 L 9.5647909 16.33337 C 9.5743908 16.33847 9.5853367 16.341121 9.5957967 16.341121 C 9.6094167 16.341121 9.623034 16.337089 9.634554 16.328719 C 9.654824 16.313979 9.6646722 16.288804 9.6603923 16.264124 L 9.4573039 15.078149 L 10.31875 14.238407 C 10.33665 14.220837 10.343046 14.194988 10.335286 14.171228 C 10.327486 14.147398 10.30687 14.12989 10.28206 14.12627 L 9.0914347 13.953153 L 8.5591675 12.87415 C 8.5481075 12.85164 8.5252663 12.837459 8.5002563 12.837459 z " />
    </g>
  </g>
</svg>
