<?xml version="1.0" encoding="UTF-8" standalone="no"?>
<svg
   width="17mm"
   height="17mm"
   inkscape:version="1.2 (1:1.2+202206011327+fc4e4096c5)"
   sodipodi:docname="defense.svg"
   version="1.1"
   viewBox="0 0 17 17"
   id="svg19471"
   xmlns:inkscape="http://www.inkscape.org/namespaces/inkscape"
   xmlns:sodipodi="http://sodipodi.sourceforge.net/DTD/sodipodi-0.dtd"
   xmlns="http://www.w3.org/2000/svg"
   xmlns:svg="http://www.w3.org/2000/svg">
  <defs
     id="defs19473" />
  <sodipodi:namedview
     bordercolor="#666666"
     borderopacity="1.0"
     inkscape:current-layer="g102555"
     inkscape:cx="19.327105"
     inkscape:cy="63.101079"
     inkscape:deskcolor="#d1d1d1"
     inkscape:document-units="mm"
     inkscape:pagecheckerboard="0"
     inkscape:pageopacity="0.0"
     inkscape:showpageshadow="2"
     inkscape:window-height="1016"
     inkscape:window-maximized="1"
     inkscape:window-width="1848"
     inkscape:window-x="72"
     inkscape:window-y="27"
     inkscape:zoom="3.9064308"
     pagecolor="#ffffff"
     showgrid="true"
     showguides="false"
     id="namedview19463">
    <inkscape:grid
       dotted="false"
       originx="0"
       originy="0"
       spacingx="0.5"
       spacingy="0.5"
       type="xygrid"
       units="mm"
       id="grid19461" />
  </sodipodi:namedview>
  <g
     inkscape:groupmode="layer"
     inkscape:label="Layer 1"
     id="g19469">
    <g
       id="g102555">
      <ellipse
         cx="8.5"
         cy="8.5"
         rx="8.5"
         ry="8.5"
         fill="#fce94f"
         stop-color="#000000"
         style="paint-order:fill markers stroke;fill:#cccccc"
         id="ellipse19465" />
      <path
         id="path152367"
         style="stroke-width:0.264584"
         d="M 8.4997396 2.2045166 C 6.3560738 2.2045166 4.9445854 3.4181985 4.6183228 6.0859334 C 4.417826 7.7253536 3.8384201 10.414163 3.6023641 11.477852 C 3.5451722 11.735576 3.6919685 11.995349 3.942395 12.078849 L 6.3298462 12.874666 C 6.4816645 12.925306 6.6482505 12.903048 6.7809814 12.813688 C 6.9137125 12.724328 6.997597 12.578068 7.007841 12.418363 L 7.216097 9.1673991 C 7.2295484 8.9574683 7.1143052 8.7602562 6.9246419 8.6692383 L 5.3702148 7.9235474 C 5.1681336 7.8265607 5.0830585 7.5840594 5.1800456 7.3819784 L 5.5464315 6.6187174 C 5.5930114 6.5216935 5.6763854 6.4471649 5.7779419 6.411495 C 5.8794975 6.375827 5.9909395 6.3819762 6.0880005 6.4285482 L 7.6543132 7.1804403 C 7.8331791 7.2662992 7.9473185 7.4471324 7.9473185 7.6455282 L 7.9473185 9.6154338 C 7.9473185 9.6921637 7.9896951 9.7628101 8.0573893 9.7988851 L 8.4020711 9.9828532 C 8.4631651 10.015433 8.5368287 10.015433 8.5979248 9.9828532 L 8.9426066 9.7988851 C 9.0102945 9.7627751 9.0526774 9.6921557 9.0526774 9.6154338 L 9.0526774 7.6455282 C 9.0526774 7.4471324 9.1663001 7.2662992 9.345166 7.1804403 L 10.911995 6.4285482 C 11.009015 6.3819682 11.120497 6.37582 11.222054 6.411495 C 11.323607 6.4471629 11.406988 6.5216935 11.453564 6.6187174 L 11.81995 7.3819784 C 11.91694 7.5840594 11.831861 7.8265607 11.629781 7.9235474 L 10.075354 8.6692383 C 9.8856914 8.7602532 9.7704129 8.9574683 9.7838989 9.1673991 L 9.9921549 12.418363 C 10.002395 12.578067 10.086245 12.724329 10.219014 12.813688 C 10.351782 12.903048 10.518368 12.925268 10.67015 12.874666 L 13.057601 12.078849 C 13.308545 11.995169 13.454415 11.736091 13.397115 11.477852 C 13.161022 10.414127 12.581654 7.7253537 12.381156 6.0859334 C 12.054895 3.4181985 10.643405 2.2045166 8.4997396 2.2045166 z M 9.2872884 13.650846 C 9.1814554 13.816651 8.9589564 13.971819 8.768457 14.035319 L 8.8247843 14.348995 C 8.9235618 14.317245 9.0223542 14.271604 9.191687 14.134021 L 9.191687 16.119946 L 9.544637 16.119946 L 9.544637 13.650846 L 9.2872884 13.650846 z M 7.7845378 14.525728 L 7.7845378 14.97738 L 7.2729411 14.97738 L 7.2729411 15.280721 L 7.7845378 15.280721 L 7.7845378 15.760278 L 8.0666911 15.760278 L 8.0666911 15.280721 L 8.5782878 15.280721 L 8.5782878 14.97738 L 8.0666911 14.97738 L 8.0666911 14.525728 L 7.7845378 14.525728 z " />
    </g>
  </g>
</svg>
