<?xml version="1.0" encoding="UTF-8" standalone="no"?>
<svg
   width="17mm"
   height="17mm"
   inkscape:version="1.2 (1:1.2+202206011327+fc4e4096c5)"
   sodipodi:docname="march.svg"
   version="1.1"
   viewBox="0 0 17 17"
   id="svg19471"
   xmlns:inkscape="http://www.inkscape.org/namespaces/inkscape"
   xmlns:sodipodi="http://sodipodi.sourceforge.net/DTD/sodipodi-0.dtd"
   xmlns="http://www.w3.org/2000/svg"
   xmlns:svg="http://www.w3.org/2000/svg">
  <defs
     id="defs19473" />
  <sodipodi:namedview
     bordercolor="#666666"
     borderopacity="1.0"
     inkscape:current-layer="g102555"
     inkscape:cx="16.858317"
     inkscape:cy="49.299185"
     inkscape:deskcolor="#d1d1d1"
     inkscape:document-units="mm"
     inkscape:pagecheckerboard="0"
     inkscape:pageopacity="0.0"
     inkscape:showpageshadow="2"
     inkscape:window-height="1016"
     inkscape:window-maximized="1"
     inkscape:window-width="1848"
     inkscape:window-x="72"
     inkscape:window-y="27"
     inkscape:zoom="5.4869061"
     pagecolor="#ffffff"
     showgrid="true"
     showguides="false"
     id="namedview19463">
    <inkscape:grid
       dotted="false"
       originx="0"
       originy="0"
       spacingx="0.5"
       spacingy="0.5"
       type="xygrid"
       units="mm"
       id="grid19461" />
  </sodipodi:namedview>
  <g
     inkscape:groupmode="layer"
     inkscape:label="Layer 1"
     id="g19469">
    <g
       id="g102555">
      <ellipse
         cx="8.5"
         cy="8.5"
         rx="8.5"
         ry="8.5"
         fill="#fce94f"
         stop-color="#000000"
         style="paint-order:fill markers stroke;fill:#cccccc"
         id="ellipse19465" />
      <path
         id="path151838"
         style="stroke-width:6.73983"
         d="M 93.171853 0.091972902 C 83.358898 -0.4643449 74.057812 1.5184063 66.304695 6.1867766 C 65.584696 6.6207762 65.165106 7.413482 65.212106 8.2534811 C 65.259106 9.0934803 65.763479 9.8385488 66.528478 10.188548 L 66.528478 10.201712 C 75.348469 14.233708 81.632718 22.32521 83.351716 31.8692 C 85.045714 41.279191 82.082148 50.907086 75.427155 57.749079 L 27.116292 9.4382162 C 25.790293 8.1112175 24.117203 7.1871438 22.285205 6.7791442 L 5.8173878 3.1196292 C 5.0593886 2.9506294 4.2733553 3.176161 3.7243559 3.7251604 C 3.1753564 4.2741599 2.9498248 5.0611931 3.1188246 5.8181924 L 6.7783396 22.28601 C 7.1863392 24.117008 8.111413 25.791097 9.4374116 27.117096 L 57.748275 75.427959 C 50.908282 82.080953 41.275386 85.046519 31.868396 83.352521 C 22.326405 81.634522 14.230904 75.346274 10.200908 66.529283 L 10.187744 66.529283 C 9.8377442 65.763283 9.0926757 65.247747 8.2526766 65.199747 C 7.4126774 65.152747 6.6199716 65.5845 6.1859721 66.305499 C -6.2620155 86.980479 0.37198099 118.661 23.390958 141.68098 C 46.409935 164.70095 78.10462 171.33395 98.779599 158.88596 C 99.500599 158.45196 99.919188 157.65826 99.872188 156.81926 C 99.825188 155.97926 99.320815 155.23419 98.555816 154.88419 L 98.542652 154.88419 C 89.722661 150.8522 83.438413 142.76069 81.719414 133.2167 C 80.025416 123.80671 83.001146 114.16465 89.657139 107.32366 L 178.69656 196.37625 C 176.80856 204.22924 178.89932 212.84736 185.02831 218.97836 L 194.9011 228.83799 L 228.83718 194.90191 L 218.97755 185.02912 C 212.84756 178.89912 204.22943 176.80837 196.37544 178.69737 L 107.33602 89.657944 C 114.17501 83.004951 123.79574 80.039384 133.20273 81.733383 C 142.74473 83.451381 150.85339 89.725466 154.88339 98.543457 L 154.88339 98.556621 C 155.23339 99.32262 155.97845 99.825993 156.81845 99.872993 C 157.65845 99.919993 158.45116 99.501403 158.88516 98.780404 C 171.33315 78.105425 164.71231 46.41174 141.69334 23.391763 C 127.30648 9.0042769 109.52678 1.0191692 93.171853 0.091972902 z M 239.44714 205.49871 L 205.51107 239.44795 L 250.62314 284.56003 C 255.30914 289.24602 261.44819 291.58945 267.59118 291.58945 C 273.73418 291.58945 279.87223 289.24602 284.55922 284.56003 C 293.93021 275.18704 293.93121 259.98378 284.55922 250.61078 L 239.44714 205.49871 z M 112.90427 210.7642 C 110.20835 214.9878 104.54056 218.95361 99.687896 220.57117 L 101.13591 228.56155 C 103.65211 227.75277 106.16867 226.59016 110.48215 223.08544 L 110.48215 273.67363 L 119.45981 273.67363 L 119.45981 210.7642 L 112.90427 210.7642 z M 65.001486 244.55547 L 65.001486 252.28258 L 92.855924 252.28258 L 92.855924 244.55547 L 65.001486 244.55547 z "
         transform="matrix(0.0392567,0,0,0.0392567,2.7301042,3.1083443)" />
    </g>
  </g>
</svg>
