<?xml version="1.0" encoding="UTF-8" standalone="no"?>
<svg
   width="17mm"
   height="17mm"
   inkscape:version="1.2 (1:1.2+202206011327+fc4e4096c5)"
   sodipodi:docname="march_p0.svg"
   version="1.1"
   viewBox="0 0 17 17"
   id="svg19471"
   xmlns:inkscape="http://www.inkscape.org/namespaces/inkscape"
   xmlns:sodipodi="http://sodipodi.sourceforge.net/DTD/sodipodi-0.dtd"
   xmlns="http://www.w3.org/2000/svg"
   xmlns:svg="http://www.w3.org/2000/svg">
  <defs
     id="defs19473" />
  <sodipodi:namedview
     bordercolor="#666666"
     borderopacity="1.0"
     inkscape:current-layer="g102555"
     inkscape:cx="16.858317"
     inkscape:cy="49.299185"
     inkscape:deskcolor="#d1d1d1"
     inkscape:document-units="mm"
     inkscape:pagecheckerboard="0"
     inkscape:pageopacity="0.0"
     inkscape:showpageshadow="2"
     inkscape:window-height="1016"
     inkscape:window-maximized="1"
     inkscape:window-width="1848"
     inkscape:window-x="72"
     inkscape:window-y="27"
     inkscape:zoom="5.4869061"
     pagecolor="#ffffff"
     showgrid="true"
     showguides="false"
     id="namedview19463">
    <inkscape:grid
       dotted="false"
       originx="0"
       originy="0"
       spacingx="0.5"
       spacingy="0.5"
       type="xygrid"
       units="mm"
       id="grid19461" />
  </sodipodi:namedview>
  <g
     inkscape:groupmode="layer"
     inkscape:label="Layer 1"
     id="g19469">
    <g
       id="g102555">
      <ellipse
         cx="8.5"
         cy="8.5"
         rx="8.5"
         ry="8.5"
         fill="#fce94f"
         stop-color="#000000"
         style="paint-order:fill markers stroke;fill:#cccccc"
         id="ellipse19465" />
      <path
         id="path152089"
         style="font-size:3.52777px;line-height:1.25;font-family:cabin;-inkscape-font-specification:cabin;text-align:center;text-anchor:middle;stroke-width:0.264583"
         d="M 6.3877238 3.1119548 C 6.0025 3.0901156 5.6373693 3.167952 5.3330078 3.3512166 C 5.3047431 3.368254 5.2882713 3.3993731 5.2901164 3.4323486 C 5.2919614 3.4653242 5.3117615 3.4945732 5.3417928 3.508313 L 5.3417928 3.5088298 C 5.6880362 3.6671125 5.9347355 3.9847587 6.0022176 4.3594238 C 6.0687183 4.7288287 5.9523783 5.1067887 5.6911255 5.3753825 L 3.7946004 3.4788574 C 3.7425461 3.4267639 3.676866 3.3904877 3.6049479 3.374471 L 2.9584757 3.2308105 C 2.9287192 3.2241762 2.8978621 3.2330298 2.8763102 3.2545817 C 2.8547583 3.2761336 2.8459047 3.30703 2.8525391 3.3367472 L 2.9961995 3.9832194 C 3.0122162 4.0550983 3.0485317 4.1208176 3.1005859 4.1728719 L 4.997111 6.069397 C 4.7285957 6.3305713 4.3504394 6.4469898 3.9811523 6.3804891 C 3.6065656 6.3130462 3.2887625 6.0661899 3.1305583 5.7200643 L 3.1300415 5.7200643 C 3.1163015 5.6899937 3.0870527 5.6697554 3.0540771 5.6678711 C 3.0211016 5.666026 2.9899825 5.6829753 2.9729451 5.7112793 C 2.4842787 6.52291 2.7447079 7.7665843 3.6483561 8.6702718 C 4.5520043 9.573959 5.7962348 9.8343493 6.6078654 9.3456828 C 6.6361694 9.3286454 6.6526019 9.2974871 6.6507568 9.2645508 C 6.6489118 9.2315752 6.6291117 9.2023263 6.5990804 9.1885864 L 6.5985636 9.1885864 C 6.2523202 9.030304 6.005621 8.7126575 5.9381388 8.3379924 C 5.8716381 7.9685876 5.9884557 7.5900714 6.2497477 7.3215169 L 9.7451416 10.817428 C 9.671025 11.12571 9.7531016 11.464029 9.9937052 11.704712 L 10.381278 12.091768 L 11.713497 10.75955 L 11.32644 10.371977 C 11.085797 10.131333 10.747478 10.049257 10.439156 10.123413 L 6.9437622 6.6280192 C 7.2122381 6.3668449 7.5899171 6.2504263 7.9592041 6.3169271 C 8.3337912 6.3843699 8.6521106 6.6306702 8.8103149 6.9768351 L 8.8103149 6.9773519 C 8.8240548 7.0074225 8.8533037 7.0271833 8.8862793 7.0290283 C 8.9192549 7.0308734 8.9503739 7.0144409 8.9674113 6.9861369 C 9.4560778 6.1745064 9.196165 4.930315 8.2925171 4.0266276 C 7.727737 3.4618229 7.0297636 3.1483534 6.3877238 3.1119548 z M 12.130009 11.175545 L 10.797791 12.50828 L 12.568742 14.279232 C 12.752699 14.463188 12.993698 14.555184 13.234851 14.555184 C 13.476005 14.555184 13.716965 14.463188 13.90096 14.279232 C 14.268834 13.911279 14.268873 13.314449 13.90096 12.946497 L 12.130009 11.175545 z M 7.1546021 11.998751 C 6.5784439 12.01486 6.1236572 12.536477 6.1236572 13.324768 C 6.1236572 14.083237 6.5363678 14.566553 7.1396159 14.566553 C 7.7710861 14.566553 8.1979492 14.058909 8.1979492 13.258105 C 8.1979492 12.503163 7.7605443 11.998751 7.1819906 11.998751 C 7.1727853 11.998751 7.1637474 11.998495 7.1546021 11.998751 z M 7.1577026 12.302091 C 7.1633635 12.301926 7.1690784 12.302091 7.1747559 12.302091 C 7.5416436 12.302091 7.8486165 12.626635 7.8486165 13.258105 C 7.8486165 13.94602 7.5595993 14.263212 7.1468506 14.263212 C 6.7552685 14.263212 6.4797078 13.959765 6.4797078 13.324768 C 6.4797078 12.651074 6.8010689 12.312511 7.1577026 12.302091 z M 4.9418172 12.922725 L 4.9418172 13.374377 L 4.4302205 13.374377 L 4.4302205 13.677718 L 4.9418172 13.677718 L 4.9418172 14.157275 L 5.2239705 14.157275 L 5.2239705 13.677718 L 5.7355672 13.677718 L 5.7355672 13.374377 L 5.2239705 13.374377 L 5.2239705 12.922725 L 4.9418172 12.922725 z " />
    </g>
  </g>
</svg>
