<?xml version="1.0" encoding="UTF-8" standalone="no"?>
<svg
   width="17mm"
   height="17mm"
   inkscape:version="1.2 (1:1.2+202206011327+fc4e4096c5)"
   sodipodi:docname="march_special.svg"
   version="1.1"
   viewBox="0 0 17 17"
   id="svg19471"
   xmlns:inkscape="http://www.inkscape.org/namespaces/inkscape"
   xmlns:sodipodi="http://sodipodi.sourceforge.net/DTD/sodipodi-0.dtd"
   xmlns="http://www.w3.org/2000/svg"
   xmlns:svg="http://www.w3.org/2000/svg">
  <defs
     id="defs19473" />
  <sodipodi:namedview
     bordercolor="#666666"
     borderopacity="1.0"
     inkscape:current-layer="g102555"
     inkscape:cx="-1.0023864"
     inkscape:cy="49.299185"
     inkscape:deskcolor="#d1d1d1"
     inkscape:document-units="mm"
     inkscape:pagecheckerboard="0"
     inkscape:pageopacity="0.0"
     inkscape:showpageshadow="2"
     inkscape:window-height="1016"
     inkscape:window-maximized="1"
     inkscape:window-width="1848"
     inkscape:window-x="72"
     inkscape:window-y="27"
     inkscape:zoom="5.4869061"
     pagecolor="#ffffff"
     showgrid="true"
     showguides="false"
     id="namedview19463">
    <inkscape:grid
       dotted="false"
       originx="0"
       originy="0"
       spacingx="0.5"
       spacingy="0.5"
       type="xygrid"
       units="mm"
       id="grid19461" />
  </sodipodi:namedview>
  <g
     inkscape:groupmode="layer"
     inkscape:label="Layer 1"
     id="g19469">
    <g
       id="g102555">
      <ellipse
         cx="8.5"
         cy="8.5"
         rx="8.5"
         ry="8.5"
         fill="#fce94f"
         stop-color="#000000"
         style="paint-order:fill markers stroke;fill:#cccccc"
         id="ellipse19465" />
      <path
         id="path152089"
         style="font-size:3.52777px;line-height:1.25;font-family:cabin;-inkscape-font-specification:cabin;text-align:center;text-anchor:middle;stroke-width:0.264583"
         d="M 6.2440633 3.1083374 C 5.9119446 3.1111108 5.5993236 3.1908605 5.3330078 3.3512166 C 5.3047428 3.3682536 5.2882714 3.3993738 5.2901164 3.4323486 C 5.2919664 3.4653246 5.3117618 3.494574 5.3417928 3.508313 L 5.3417928 3.5088298 C 5.6880356 3.6671121 5.9347357 3.9847595 6.0022176 4.3594238 C 6.0687184 4.7288281 5.952378 5.1067893 5.6911255 5.3753825 L 3.7946004 3.4788574 C 3.7425463 3.4267641 3.6768658 3.3904877 3.6049479 3.374471 L 2.9584757 3.2308105 C 2.9287199 3.2241807 2.8978622 3.2330307 2.8763102 3.2545817 C 2.8547582 3.2761337 2.8459051 3.3070304 2.8525391 3.3367472 L 2.9961995 3.9832194 C 3.0122165 4.0550982 3.0485317 4.1208178 3.1005859 4.1728719 L 4.997111 6.069397 C 4.7285963 6.3305707 4.3504388 6.4469896 3.9811523 6.3804891 C 3.6065664 6.3130464 3.2887621 6.0661891 3.1305583 5.7200643 L 3.1300415 5.7200643 C 3.1163015 5.6899933 3.0870521 5.6697551 3.0540771 5.6678711 C 3.0211013 5.6660211 2.9899821 5.6829753 2.9729451 5.7112793 C 2.4842797 6.5229084 2.7447097 7.7665861 3.6483561 8.6702718 C 4.5520025 9.5739572 5.7962364 9.8343483 6.6078654 9.3456828 C 6.6361694 9.3286458 6.6526018 9.2974866 6.6507568 9.2645508 C 6.6489068 9.2315748 6.6291114 9.2023254 6.5990804 9.1885864 L 6.5985636 9.1885864 C 6.252321 9.030304 6.005621 8.7126567 5.9381388 8.3379924 C 5.8716383 7.9685882 5.9884563 7.590071 6.2497477 7.3215169 L 9.7451416 10.817428 C 9.6710248 11.125708 9.7531022 11.464029 9.9937052 11.704712 L 10.381278 12.091768 L 11.713497 10.75955 L 11.32644 10.371977 C 11.085799 10.131333 10.747478 10.049257 10.439156 10.123413 L 6.9437622 6.6280192 C 7.2122375 6.3668455 7.5899179 6.2504263 7.9592041 6.3169271 C 8.3337904 6.3843699 8.652111 6.630671 8.8103149 6.9768351 L 8.8103149 6.9773519 C 8.8240549 7.0074229 8.8533043 7.0271833 8.8862793 7.0290283 C 8.9192553 7.0308783 8.9503743 7.0144409 8.9674113 6.9861369 C 9.4560772 6.174508 9.1961632 4.9303132 8.2925171 4.0266276 C 7.7277382 3.4618241 7.0297624 3.1483532 6.3877238 3.1119548 C 6.3395709 3.1092249 6.2915089 3.1079412 6.2440633 3.1083374 z M 12.998173 5.0859945 C 12.89234 5.2517995 12.670358 5.4069673 12.479858 5.4704671 L 12.536186 5.7846598 C 12.634963 5.7529099 12.733756 5.706752 12.903088 5.5691691 L 12.903088 7.5556112 L 13.256038 7.5556112 L 13.256038 5.0859945 L 12.998173 5.0859945 z M 11.495422 5.9608765 L 11.495422 6.4125285 L 10.983826 6.4125285 L 10.983826 6.7158691 L 11.495422 6.7158691 L 11.495422 7.1954264 L 11.777576 7.1954264 L 11.777576 6.7158691 L 12.289172 6.7158691 L 12.289172 6.4125285 L 11.777576 6.4125285 L 11.777576 5.9608765 L 11.495422 5.9608765 z M 12.130009 11.175545 L 10.797791 12.50828 L 12.568742 14.279232 C 12.752699 14.463188 12.993698 14.555184 13.234851 14.555184 C 13.476005 14.555184 13.716965 14.463184 13.90096 14.279232 C 14.268834 13.911279 14.268873 13.314447 13.90096 12.946497 L 12.130009 11.175545 z M 5.94434 11.585339 C 5.918405 11.585339 5.8947548 11.60023 5.8833618 11.62358 L 5.3309408 12.742375 L 4.0963908 12.921692 C 4.0706598 12.925492 4.049219 12.943421 4.041097 12.968201 C 4.033107 12.992841 4.04004 13.019874 4.058667 13.037964 L 4.9521525 13.908712 L 4.7407959 15.138611 C 4.7364259 15.164211 4.7472284 15.189983 4.7681844 15.205273 C 4.7892734 15.220693 4.8171498 15.222641 4.8400146 15.210441 L 5.94434 14.630115 L 7.0486654 15.210441 C 7.0586254 15.215641 7.0698568 15.218193 7.0807048 15.218193 C 7.0948306 15.218193 7.1085576 15.213913 7.1204956 15.205273 C 7.1415176 15.189983 7.1523201 15.164201 7.1478841 15.138611 L 6.9370443 13.909229 L 7.8305298 13.037964 C 7.8490988 13.019744 7.855638 12.992841 7.847583 12.968201 C 7.839533 12.943491 7.8180202 12.925442 7.7922892 12.921692 L 6.5577393 12.742375 L 6.0053182 11.62358 C 5.9938492 11.60024 5.970275 11.585339 5.94434 11.585339 z " />
    </g>
  </g>
</svg>
