<?xml version="1.0" encoding="UTF-8" standalone="no"?>
<svg
   width="17mm"
   height="17mm"
   inkscape:version="1.2 (1:1.2+202206011327+fc4e4096c5)"
   sodipodi:docname="march_m1.svg"
   version="1.1"
   viewBox="0 0 17 17"
   id="svg19471"
   xmlns:inkscape="http://www.inkscape.org/namespaces/inkscape"
   xmlns:sodipodi="http://sodipodi.sourceforge.net/DTD/sodipodi-0.dtd"
   xmlns="http://www.w3.org/2000/svg"
   xmlns:svg="http://www.w3.org/2000/svg">
  <defs
     id="defs19473" />
  <sodipodi:namedview
     bordercolor="#666666"
     borderopacity="1.0"
     inkscape:current-layer="g102555"
     inkscape:cx="-1.0023864"
     inkscape:cy="49.299185"
     inkscape:deskcolor="#d1d1d1"
     inkscape:document-units="mm"
     inkscape:pagecheckerboard="0"
     inkscape:pageopacity="0.0"
     inkscape:showpageshadow="2"
     inkscape:window-height="1016"
     inkscape:window-maximized="1"
     inkscape:window-width="1848"
     inkscape:window-x="72"
     inkscape:window-y="27"
     inkscape:zoom="5.4869061"
     pagecolor="#ffffff"
     showgrid="true"
     showguides="false"
     id="namedview19463">
    <inkscape:grid
       dotted="false"
       originx="0"
       originy="0"
       spacingx="0.5"
       spacingy="0.5"
       type="xygrid"
       units="mm"
       id="grid19461" />
  </sodipodi:namedview>
  <g
     inkscape:groupmode="layer"
     inkscape:label="Layer 1"
     id="g19469">
    <g
       id="g102555">
      <ellipse
         cx="8.5"
         cy="8.5"
         rx="8.5"
         ry="8.5"
         fill="#fce94f"
         stop-color="#000000"
         style="paint-order:fill markers stroke;fill:#cccccc"
         id="ellipse19465" />
      <path
         id="path151838"
         style="stroke-width:0.264583"
         d="m 6.3877237,3.1119549 c -0.3852242,-0.021839 -0.7503542,0.055997 -1.054716,0.2392618 -0.028265,0.017037 -0.044736,0.048156 -0.042891,0.081132 0.00184,0.032976 0.021645,0.062225 0.051676,0.075964 v 5.166e-4 C 5.6880364,3.6671125 5.9347353,3.9847582 6.0022175,4.3594238 6.0687183,4.728829 5.9523785,5.1067883 5.6911254,5.3753824 L 3.7946003,3.4788575 C 3.742546,3.4267639 3.676866,3.3904878 3.6049478,3.3744711 L 2.9584756,3.2308106 c -0.029756,-0.00663 -0.060614,0.00222 -0.082165,0.023771 -0.021552,0.021552 -0.030406,0.052448 -0.023771,0.082165 L 2.9962,3.9832188 C 3.012217,4.0550978 3.048532,4.120817 3.1005864,4.1728713 L 4.9971109,6.0693971 C 4.7285954,6.3305716 4.3504396,6.44699 3.9811523,6.3804892 3.6065652,6.3130462 3.2887625,6.0661904 3.1305582,5.7200644 h -5.166e-4 c -0.01374,-0.030071 -0.042989,-0.050309 -0.075965,-0.052193 -0.032976,-0.00185 -0.064095,0.015104 -0.081132,0.043408 -0.488667,0.8116315 -0.2282382,2.0553042 0.6754109,2.9589926 0.9036491,0.9036881 2.1478778,1.1640778 2.9595093,0.6754108 0.028304,-0.017037 0.044736,-0.048196 0.042891,-0.081132 -0.00184,-0.032976 -0.021645,-0.062225 -0.051676,-0.075964 H 6.5985637 C 6.2523199,9.0303039 6.0056211,8.7126579 5.9381389,8.3379923 5.8716381,7.9685872 5.9884554,7.5900717 6.2497478,7.321517 l 3.4953938,3.495911 c -0.074117,0.308282 0.00796,0.646601 0.2485636,0.887284 l 0.3875728,0.387057 1.332219,-1.332219 -0.387057,-0.387573 c -0.240643,-0.240644 -0.578962,-0.32272 -0.887284,-0.248564 L 6.9437621,6.6280193 C 7.2122383,6.3668448 7.5899164,6.2504264 7.9592038,6.3169272 8.3337912,6.3843701 8.6521105,6.63067 8.810315,6.9768352 v 5.166e-4 c 0.01374,0.030071 0.042988,0.049831 0.075964,0.051677 0.032976,0.00184 0.064095,-0.014587 0.081132,-0.042892 C 9.4560783,6.1745055 9.1961659,4.9303161 8.2925171,4.0266277 7.7277365,3.4618225 7.0297641,3.1483535 6.3877237,3.1119549 Z m 5.7422853,8.0635911 -1.332218,1.332735 1.770951,1.770951 c 0.183957,0.183957 0.424955,0.275952 0.666109,0.275952 0.241154,0 0.482113,-0.092 0.666109,-0.275952 0.367874,-0.367953 0.367914,-0.964782 0,-1.332735 z m -4.9676557,0.206705 c -0.105833,0.165805 -0.3283317,0.321489 -0.5188313,0.38499 l 0.056844,0.313675 c 0.098778,-0.03175 0.1975695,-0.07739 0.3669025,-0.214974 v 1.985926 H 7.4197021 V 11.382251 Z M 5.281848,12.708785 v 0.303341 h 1.0934734 v -0.303341 z" />
    </g>
  </g>
</svg>
