<?xml version="1.0" encoding="UTF-8" standalone="no"?>
<svg
   width="17mm"
   height="17mm"
   inkscape:version="1.2 (1:1.2+202206011327+fc4e4096c5)"
   sodipodi:docname="raid_special.svg"
   version="1.1"
   viewBox="0 0 17 17"
   id="svg19471"
   xmlns:inkscape="http://www.inkscape.org/namespaces/inkscape"
   xmlns:sodipodi="http://sodipodi.sourceforge.net/DTD/sodipodi-0.dtd"
   xmlns="http://www.w3.org/2000/svg"
   xmlns:svg="http://www.w3.org/2000/svg">
  <defs
     id="defs19473" />
  <sodipodi:namedview
     bordercolor="#666666"
     borderopacity="1.0"
     inkscape:current-layer="g102555"
     inkscape:cx="56.445758"
     inkscape:cy="42.322704"
     inkscape:deskcolor="#d1d1d1"
     inkscape:document-units="mm"
     inkscape:pagecheckerboard="0"
     inkscape:pageopacity="0.0"
     inkscape:showpageshadow="2"
     inkscape:window-height="1016"
     inkscape:window-maximized="1"
     inkscape:window-width="1848"
     inkscape:window-x="72"
     inkscape:window-y="27"
     inkscape:zoom="10.762545"
     pagecolor="#ffffff"
     showgrid="true"
     showguides="false"
     id="namedview19463">
    <inkscape:grid
       dotted="false"
       originx="0"
       originy="0"
       spacingx="0.5"
       spacingy="0.5"
       type="xygrid"
       units="mm"
       id="grid19461" />
  </sodipodi:namedview>
  <g
     inkscape:groupmode="layer"
     inkscape:label="Layer 1"
     id="g19469">
    <g
       id="g102555">
      <ellipse
         cx="8.5"
         cy="8.5"
         rx="8.5"
         ry="8.5"
         fill="#fce94f"
         stop-color="#000000"
         style="paint-order:fill markers stroke;fill:#cccccc"
         id="ellipse19465" />
      <path
         id="path151416"
         style="stroke-width:0.264583"
         d="M 8.612911 3.12229 C 8.612911 3.12229 8.0579061 3.6691288 8.0579061 4.02146 C 8.0579061 4.4517381 8.7405518 5.1185506 8.7405518 5.1185506 C 8.4099393 4.4344014 8.3715889 3.7895466 8.612911 3.12229 z M 12.205973 3.2535482 C 12.205973 3.2535482 12.293164 3.8604035 12.247314 4.1589193 C 12.213524 4.3741792 12.025106 4.7733521 12.025106 4.7733521 C 12.025106 4.7733521 12.80953 4.4297087 12.845728 4.0715861 C 12.879518 3.7272187 12.205973 3.2535482 12.205973 3.2535482 z M 11.067025 3.5599894 C 11.064525 3.7308457 11.045521 3.9026289 11.011731 4.067452 C 10.927271 4.4492246 10.775242 4.7996726 10.500134 5.0002116 C 10.302254 5.1454878 10.007858 5.2009763 9.7182699 5.0730754 C 9.4962551 4.973892 9.2621551 4.7912602 8.9870483 4.4999837 C 8.9556783 4.7381694 8.9796633 5.026316 9.1534465 5.3407593 L 9.4480021 5.8740601 L 8.8805949 5.6446167 C 8.5403274 5.5070631 8.277199 5.2200288 8.0093302 4.8901408 C 7.997263 5.3696484 8.0001735 5.8863196 8.0894287 6.3448324 C 8.2173295 6.9964035 8.4824042 7.4981114 9.1436279 7.7008219 C 8.996422 7.4377807 8.9943427 7.1384651 9.163265 6.8078532 C 9.6555617 7.4063329 9.7518859 6.8757965 9.9642497 6.7696126 C 10.104217 6.6996287 10.193411 6.3855775 10.101709 5.7484863 C 10.282701 6.0694455 10.478372 6.5206483 10.81381 6.6026978 C 11.262671 6.7137056 11.605094 6.2745593 11.935706 5.7629557 C 11.935706 5.7629557 11.764367 6.5355049 11.935706 6.8057861 C 12.010515 6.9240343 12.075982 7.0085383 12.488643 6.9964722 C 12.107354 7.4501584 11.745317 7.727304 11.062374 8.0434367 C 12.317252 7.9758658 13.427146 7.1336407 14.093197 6.3034912 C 13.777064 6.3879531 13.576823 6.407541 13.260689 6.3954753 L 12.703101 6.3758382 L 13.127881 6.0141032 C 13.410229 5.7703674 13.603414 5.2925266 13.692704 4.7929891 C 13.748204 4.4896465 13.762483 4.1845585 13.755233 3.9222412 C 13.574241 4.1013018 13.374354 4.2948988 13.154753 4.4932658 C 12.785528 4.8246013 12.399145 5.1403156 12.039575 5.302002 L 11.802897 5.4084554 L 11.740369 5.1573079 C 11.602818 4.5996127 11.400049 3.9948529 11.067025 3.5599894 z M 9.046993 8.1302531 C 8.8973724 8.2436744 8.7308575 8.3742367 8.5498657 8.5214437 C 7.9272535 9.0233945 7.1456664 9.6869661 6.3613688 10.36991 C 5.5794835 11.052853 4.7929367 11.755127 4.1671875 12.336715 C 3.6261422 12.841078 3.2095453 13.25348 3.0220378 13.465845 L 3.6700602 13.229683 L 3.0711304 13.712341 C 3.1049163 13.770261 3.1503618 13.828217 3.2147909 13.895793 C 3.2536428 13.934413 3.3022604 13.980162 3.3589681 14.026017 L 5.4492798 12.384774 L 4.9640381 12.927893 L 3.7284546 14.306104 C 3.8232915 14.373673 3.9275709 14.445922 4.0431641 14.523145 C 6.0960945 12.505689 8.1762687 10.488086 10.398848 8.468217 C 10.176832 8.4561497 9.981267 8.4319022 9.7833822 8.3860514 L 8.4175741 9.4795247 L 9.406661 8.27288 C 9.2932363 8.2342673 9.1748938 8.1857575 9.046993 8.1302531 z M 11.500073 11.722282 C 11.481833 11.722282 11.465202 11.732734 11.457182 11.749154 L 11.068575 12.536186 L 10.200411 12.662276 C 10.182311 12.664976 10.167374 12.677412 10.161654 12.694832 C 10.156054 12.712162 10.160399 12.731195 10.173539 12.743925 L 10.801925 13.356807 L 10.653613 14.221354 C 10.650513 14.239354 10.657974 14.25763 10.672734 14.26838 C 10.687564 14.27923 10.707306 14.280537 10.723376 14.271997 L 11.500073 13.863753 L 12.27677 14.271997 C 12.28377 14.275697 12.291361 14.277681 12.298991 14.277681 C 12.308891 14.277681 12.319013 14.27448 12.327413 14.26838 C 12.342193 14.25763 12.349653 14.239364 12.346533 14.221354 L 12.198222 13.356807 L 12.826607 12.743925 C 12.839667 12.731105 12.844153 12.712162 12.838493 12.694832 C 12.832793 12.677452 12.817835 12.664916 12.799736 12.662276 L 11.931571 12.536186 L 11.542965 11.749154 C 11.534865 11.732734 11.518313 11.722282 11.500073 11.722282 z " />
    </g>
  </g>
</svg>
