<?xml version="1.0" encoding="UTF-8" standalone="no"?>
<svg
   width="17mm"
   height="17mm"
   inkscape:version="1.2 (1:1.2+202206011327+fc4e4096c5)"
   sodipodi:docname="raid.svg"
   version="1.1"
   viewBox="0 0 17 17"
   id="svg19471"
   xmlns:inkscape="http://www.inkscape.org/namespaces/inkscape"
   xmlns:sodipodi="http://sodipodi.sourceforge.net/DTD/sodipodi-0.dtd"
   xmlns="http://www.w3.org/2000/svg"
   xmlns:svg="http://www.w3.org/2000/svg">
  <defs
     id="defs19473" />
  <sodipodi:namedview
     bordercolor="#666666"
     borderopacity="1.0"
     inkscape:current-layer="g102555"
     inkscape:cx="80.910044"
     inkscape:cy="36.17024"
     inkscape:deskcolor="#d1d1d1"
     inkscape:document-units="mm"
     inkscape:pagecheckerboard="0"
     inkscape:pageopacity="0.0"
     inkscape:showpageshadow="2"
     inkscape:window-height="1016"
     inkscape:window-maximized="1"
     inkscape:window-width="1848"
     inkscape:window-x="72"
     inkscape:window-y="27"
     inkscape:zoom="4.4926437"
     pagecolor="#ffffff"
     showgrid="true"
     showguides="false"
     id="namedview19463">
    <inkscape:grid
       dotted="false"
       originx="0"
       originy="0"
       spacingx="0.5"
       spacingy="0.5"
       type="xygrid"
       units="mm"
       id="grid19461" />
  </sodipodi:namedview>
  <g
     inkscape:groupmode="layer"
     inkscape:label="Layer 1"
     id="g19469">
    <g
       id="g102555">
      <ellipse
         cx="8.5"
         cy="8.5"
         rx="8.5"
         ry="8.5"
         fill="#fce94f"
         stop-color="#000000"
         style="paint-order:fill markers stroke;fill:#cccccc"
         id="ellipse19465" />
      <path
         fill="#000000"
         d="m 8.6128599,3.122268 c 0,0 -0.5550422,0.546837 -0.5550422,0.8991685 0,0.4302786 0.6829431,1.0972945 0.6829431,1.0972945 C 8.410148,4.4345811 8.3715376,3.7895252 8.6128599,3.122268 Z m 3.5932961,0.131521 c 0,0 0.08687,0.6064438 0.04102,0.9049599 -0.03379,0.2152601 -0.222017,0.6144078 -0.222017,0.6144078 0,0 0.784299,-0.3434023 0.820497,-0.7015253 C 12.879446,3.7272637 12.20615,3.253789 12.20615,3.253789 Z m -1.139043,0.3062383 c -0.0025,0.1708565 -0.02172,0.3426782 -0.05551,0.5075015 C 10.927143,4.4493018 10.775108,4.7994608 10.5,5 10.30212,5.1452764 10.007706,5.2007806 9.718118,5.0728795 9.496103,4.973696 9.2620182,4.7910147 8.9869112,4.4997379 8.9555411,4.7379238 8.9796404,5.026304 9.1534237,5.3407476 L 9.447837,5.8740711 8.880729,5.6448144 C 8.5404612,5.5072607 8.2774202,5.2200867 8.0095512,4.8901984 7.9974839,5.3697065 7.9999349,5.8861373 8.0891902,6.3446505 8.2170911,6.9962223 8.4825455,7.4981737 9.1437699,7.7008844 8.9965638,7.4378429 8.9941504,7.1386027 9.1630728,6.8079905 9.65537,7.4064708 9.7519,6.8755615 9.964264,6.7693775 c 0.139967,-0.069984 0.229256,-0.3837031 0.137554,-1.0207949 0.180992,0.3209595 0.376463,0.7722329 0.711902,0.8542824 0.448861,0.111008 0.791539,-0.3281989 1.122151,-0.839803 0,0 -0.171339,0.7722328 0,1.0425143 0.07481,0.1182483 0.139967,0.2027112 0.552629,0.1906451 -0.38129,0.4536867 -0.743274,0.7312075 -1.426218,1.0473405 1.254879,-0.067571 2.364963,-0.9097867 3.031014,-1.739937 -0.316133,0.084462 -0.51643,0.1037688 -0.832564,0.091703 l -0.557455,-0.019306 0.424728,-0.3619843 c 0.282348,-0.243736 0.475406,-0.7215548 0.564696,-1.2210928 0.0555,-0.3033429 0.06999,-0.6086163 0.06274,-0.8709339 -0.180992,0.1790608 -0.381291,0.3730846 -0.600893,0.5714518 -0.369225,0.3313358 -0.755341,0.6469859 -1.114911,0.8086724 L 11.80314,5.4083173 11.7404,5.1573413 C 11.602849,4.5996455 11.400138,3.9948912 11.067113,3.5600273 Z M 9.0472415,8.130439 C 8.8976207,8.2438604 8.7311082,8.374175 8.5501162,8.5213821 7.9275034,9.0233334 7.1456172,9.6869707 6.3613188,10.369915 5.5794327,11.052859 4.7927208,11.755108 4.166971,12.336696 3.6259252,12.84106 3.2094017,13.253722 3.021894,13.466087 L 3.6698457,13.22959 3.071365,13.712236 c 0.033786,0.05792 0.079158,0.115829 0.1435871,0.183405 0.038852,0.03862 0.087121,0.08446 0.1438288,0.130315 l 2.0903374,-1.640996 -0.4850581,0.542976 -1.235573,1.377953 c 0.094837,0.06757 0.1988502,0.139968 0.3144435,0.217191 C 6.0958632,12.505622 8.176066,10.488162 10.398648,8.4682912 10.176631,8.4562239 9.981161,8.4320918 9.783276,8.386241 L 8.4173884,9.4794335 9.406812,8.2728194 C 9.2933872,8.2342066 9.1751424,8.1859435 9.0472415,8.130439 Z"
         id="path151416"
         style="stroke-width:0.264583" />
    </g>
  </g>
</svg>
