<?xml version="1.0" encoding="UTF-8" standalone="no"?>
<svg
   width="17mm"
   height="17mm"
   inkscape:version="1.2 (1:1.2+202206011327+fc4e4096c5)"
   sodipodi:docname="support.svg"
   version="1.1"
   viewBox="0 0 17 17"
   id="svg19471"
   xmlns:inkscape="http://www.inkscape.org/namespaces/inkscape"
   xmlns:sodipodi="http://sodipodi.sourceforge.net/DTD/sodipodi-0.dtd"
   xmlns="http://www.w3.org/2000/svg"
   xmlns:svg="http://www.w3.org/2000/svg">
  <defs
     id="defs19473" />
  <sodipodi:namedview
     bordercolor="#666666"
     borderopacity="1.0"
     inkscape:current-layer="g102555"
     inkscape:cx="44.213911"
     inkscape:cy="43.539462"
     inkscape:deskcolor="#d1d1d1"
     inkscape:document-units="mm"
     inkscape:pagecheckerboard="0"
     inkscape:pageopacity="0.0"
     inkscape:showpageshadow="2"
     inkscape:window-height="1016"
     inkscape:window-maximized="1"
     inkscape:window-width="1848"
     inkscape:window-x="72"
     inkscape:window-y="27"
     inkscape:zoom="6.6721082"
     pagecolor="#ffffff"
     showgrid="true"
     showguides="false"
     id="namedview19463">
    <inkscape:grid
       dotted="false"
       originx="0"
       originy="0"
       spacingx="0.5"
       spacingy="0.5"
       type="xygrid"
       units="mm"
       id="grid19461" />
  </sodipodi:namedview>
  <g
     inkscape:groupmode="layer"
     inkscape:label="Layer 1"
     id="g19469">
    <g
       id="g102555">
      <ellipse
         cx="8.5"
         cy="8.5"
         fill="#fce94f"
         stop-color="#000000"
         style="paint-order:fill markers stroke;fill:#cccccc"
         id="ellipse19465"
         ry="8.5"
         rx="8.5" />
      <path
         fill="#000000"
         d="m 7.728217,2.2969209 c -0.043351,0 -0.087036,0.00115 -0.1308099,0.00368 C 7.2375673,2.321153 6.8746265,2.4252524 6.6694002,2.5558508 l -1.873e-4,1.7188363 c 0.067767,-0.00218 0.1357447,-0.00345 0.2038636,-0.00333 0.5494168,8.445e-4 1.1068238,0.077212 1.608869,0.2235319 L 8.4821811,2.4386967 C 8.3169004,2.3560385 8.0315472,2.297007 7.7282193,2.2969369 Z M 9.6254002,2.5121571 C 9.3451933,2.515719 9.0831495,2.5677107 8.9212527,2.6436484 l -1.873e-4,1.8234469 v 0.179944 c 0.9043228,0.3682044 1.5229616,0.998171 1.3801216,1.8507515 l -0.02256,0.1346406 -0.130692,0.03933 C 9.737909,6.7951935 9.3285375,6.899757 8.9207862,6.9850992 V 7.5780339 C 9.521426,7.5614885 10.126838,7.5148971 10.733493,7.4347461 l 4.71e-4,-4.6507995 C 10.539311,2.6532309 10.181587,2.5432625 9.8212773,2.5177677 9.75567,2.5131717 9.6900674,2.5113333 9.6254025,2.5121376 Z M 5.7543389,2.8730069 c -0.027633,-3.551e-4 -0.055783,-2.31e-4 -0.084313,4.71e-4 -0.098101,0.0023 -0.200504,0.01103 -0.3031878,0.02707 C 4.998634,2.9582039 4.6272102,3.1018035 4.4174017,3.2624549 L 4.4171708,4.9767101 C 4.8591102,4.6052162 5.5145947,4.3859137 6.2299977,4.3060935 L 6.2301666,2.9440418 C 6.1169109,2.9028736 5.9477743,2.8755277 5.7543435,2.8730115 Z m 6.0715951,0.081302 c -0.253866,0.00276 -0.486914,0.045351 -0.635441,0.1093835 l -4.7e-4,4.3043064 c 0.589175,-0.094458 1.17863,-0.2211582 1.765173,-0.3843706 l 0.04676,-3.7230971 c -0.19625,-0.1386356 -0.555667,-0.2590598 -0.917575,-0.2949633 -0.0869,-0.00862 -0.173834,-0.012145 -0.258472,-0.01126 z M 6.5912943,4.6978648 C 5.3290126,4.7143642 4.2084906,5.1763903 4.2912016,6.2627943 4.6633068,6.1707374 5.0158619,6.1243241 5.3471758,6.1194593 6.1658267,6.1074753 6.8560163,6.3474792 7.3989242,6.7682945 8.2121232,6.695219 9.040267,6.5333198 9.8758357,6.2909674 9.8791677,5.3208294 8.1347228,4.6777047 6.5912943,4.6978418 Z M 5.4428106,6.545938 c -0.030448,-7.01e-5 -0.061161,2.815e-4 -0.092114,0.00106 -0.4054718,0.010226 -0.8564813,0.0947 -1.352653,0.2593414 0.1360493,1.2643498 0.6185698,2.500361 1.3745998,3.3682616 0.1462948,0.168007 0.3020825,0.322196 0.4670105,0.460902 0.6885453,0.218103 1.6274319,0.303516 2.5972655,0.285259 C 8.5256668,9.6094844 8.2320914,8.3746485 7.5864768,7.5667371 7.086803,6.9414699 6.3866034,6.5471835 5.4427589,6.545915 Z m 3.0388283,0.5235692 c -0.2198887,0.038468 -0.4391671,0.07087 -0.6578101,0.097515 0.036182,0.040881 0.071501,0.082716 0.1057872,0.1256176 0.073926,0.092505 0.1431937,0.1894357 0.208493,0.289817 0.2330008,0.00333 0.4668472,0.00299 0.7015622,-0.00253 H 8.4816181 v -0.510434 z m 4.5072061,0.3605211 c -1.536873,0.4188655 -3.0890185,0.59707 -4.6019712,0.5948375 0.3994097,0.8257936 0.5598967,1.8349846 0.4937518,2.8807842 0.998217,-0.04888 1.9979854,-0.193384 2.7770894,-0.375559 0.627218,-0.7702466 1.113074,-1.8120741 1.33113,-3.1000627 z m -1.188923,3.5168357 c -0.900751,0.214885 -2.0665986,0.377276 -3.2161635,0.410125 -1.1201222,0.03195 -2.2166534,-0.05235 -3.041695,-0.358618 l -2.309e-4,1.854652 c 0.6388253,0.295316 1.7955323,0.474765 2.9916462,0.47695 1.2036316,0.0022 2.4487592,-0.168547 3.2661422,-0.488111 l 2.84e-4,-1.894998 z"
         id="path152766"
         style="stroke-width:0.264583" />
    </g>
  </g>
</svg>
