<?xml version="1.0" encoding="UTF-8" standalone="no"?>
<svg
   width="17mm"
   height="17mm"
   inkscape:version="1.2 (1:1.2+202206011327+fc4e4096c5)"
   sodipodi:docname="support_special.svg"
   version="1.1"
   viewBox="0 0 17 17"
   id="svg19471"
   xmlns:inkscape="http://www.inkscape.org/namespaces/inkscape"
   xmlns:sodipodi="http://sodipodi.sourceforge.net/DTD/sodipodi-0.dtd"
   xmlns="http://www.w3.org/2000/svg"
   xmlns:svg="http://www.w3.org/2000/svg">
  <defs
     id="defs19473" />
  <sodipodi:namedview
     bordercolor="#666666"
     borderopacity="1.0"
     inkscape:current-layer="g102555"
     inkscape:cx="21.077872"
     inkscape:cy="50.825511"
     inkscape:deskcolor="#d1d1d1"
     inkscape:document-units="mm"
     inkscape:pagecheckerboard="0"
     inkscape:pageopacity="0.0"
     inkscape:showpageshadow="2"
     inkscape:window-height="1016"
     inkscape:window-maximized="1"
     inkscape:window-width="1848"
     inkscape:window-x="72"
     inkscape:window-y="27"
     inkscape:zoom="6.2862133"
     pagecolor="#ffffff"
     showgrid="true"
     showguides="false"
     id="namedview19463">
    <inkscape:grid
       dotted="false"
       originx="0"
       originy="0"
       spacingx="0.5"
       spacingy="0.5"
       type="xygrid"
       units="mm"
       id="grid19461" />
  </sodipodi:namedview>
  <g
     inkscape:groupmode="layer"
     inkscape:label="Layer 1"
     id="g19469">
    <g
       id="g102555">
      <ellipse
         cx="8.5"
         cy="8.5"
         fill="#fce94f"
         stop-color="#000000"
         style="paint-order:fill markers stroke;fill:#cccccc"
         id="ellipse19465"
         ry="8.5"
         rx="8.5" />
      <path
         id="path152766"
         style="stroke-width:0.264583"
         d="M 7.7282104 2.2970174 C 7.6848596 2.2970174 7.6412428 2.2981048 7.5974691 2.3006348 C 7.2376299 2.3211867 6.8745861 2.4253183 6.6693604 2.5559163 L 6.6693604 4.2746745 C 6.7371272 4.2724945 6.8048468 4.2714539 6.8729655 4.2715739 C 7.4223811 4.2724184 7.9801254 4.3484964 8.4821696 4.4948161 L 8.4821696 2.4386108 C 8.3168893 2.3559528 8.0315377 2.2970875 7.7282104 2.2970174 z M 9.6252523 2.5119914 C 9.345046 2.5155533 9.0833157 2.5678288 8.9214193 2.6437663 L 8.9209025 4.4669108 L 8.9209025 4.6472616 C 9.8252235 5.0154652 10.44402 5.6452157 10.30118 6.4977946 L 10.278442 6.6326701 L 10.147701 6.6719442 C 9.7376758 6.7953759 9.328653 6.8997612 8.9209025 6.9851034 L 8.9209025 7.577832 C 9.5215411 7.5612866 10.127057 7.5148391 10.733712 7.4346883 L 10.733712 2.7838094 C 10.539059 2.6530939 10.181415 2.5431706 9.821106 2.5176758 C 9.7554987 2.5130798 9.689917 2.5111871 9.6252523 2.5119914 z M 5.7541707 2.8732096 C 5.7265379 2.8728545 5.698468 2.8730244 5.6699382 2.8737264 C 5.5718372 2.8760264 5.4692811 2.8845583 5.3665975 2.9005981 C 4.9983942 2.9582541 4.6271095 3.101682 4.4173014 3.2623332 L 4.4173014 4.9769572 C 4.85924 4.6054641 5.5147091 4.3860171 6.2301107 4.3061971 L 6.2301107 2.9440063 C 6.1168552 2.9028383 5.9476011 2.8757258 5.7541707 2.8732096 z M 11.826152 2.9543416 C 11.572286 2.9571016 11.339058 2.9998632 11.190531 3.0638957 L 11.190015 7.3680257 C 11.779188 7.2735679 12.368739 7.1467651 12.955282 6.9835531 L 13.00179 3.2607829 C 12.805542 3.1221475 12.44644 3.0016139 12.084534 2.9657104 C 11.997634 2.9570906 11.910788 2.9534566 11.826152 2.9543416 z M 6.5913289 4.6979045 C 5.3290498 4.7144037 4.2085001 5.176265 4.2912109 6.2626668 C 4.6633155 6.1706101 5.0156473 6.1243879 5.3469604 6.1195231 C 6.1656097 6.1075391 6.8561247 6.347248 7.3990316 6.7680623 C 8.212229 6.694987 9.0403159 6.5334407 9.875883 6.2910889 C 9.879215 5.3209527 8.1347544 4.6777674 6.5913289 4.6979045 z M 5.4425618 6.5458537 C 5.412114 6.5457836 5.3815308 6.5461087 5.3505778 6.5468872 C 4.9451068 6.5571132 4.4943763 6.6416619 3.9982056 6.8063029 C 4.1342545 8.0706501 4.6167701 9.3066736 5.3727987 10.174573 C 5.5190931 10.34258 5.6745092 10.496821 5.8394368 10.635527 C 6.5279809 10.853628 7.4668627 10.939037 8.4366943 10.92078 C 8.5254415 9.6095058 8.2322304 8.3748898 7.586617 7.56698 C 7.0869442 6.941714 6.3864045 6.5471222 5.4425618 6.5458537 z M 8.4816528 7.0693359 C 8.2617647 7.1078039 8.0424544 7.1403594 7.8238118 7.1670044 C 7.8599938 7.2078854 7.8954625 7.2496767 7.9297485 7.2925781 C 8.0036745 7.3850829 8.0727053 7.4821018 8.1380046 7.5824829 C 8.3710048 7.5858129 8.6050559 7.5854191 8.8397705 7.5798991 L 8.4816528 7.5798991 L 8.4816528 7.0693359 z M 12.988871 7.4300374 C 11.452002 7.8489021 9.9000345 8.0270657 8.387085 8.0248332 C 8.7864939 8.850625 8.9467396 9.859997 8.8805949 10.905794 C 9.8788099 10.856914 10.878584 10.71228 11.657686 10.530107 C 12.284904 9.7598612 12.770815 8.7180234 12.988871 7.4300374 z M 14.969629 9.0237386 C 14.863796 9.1895436 14.641297 9.3447115 14.450798 9.4082113 L 14.507125 9.7218872 C 14.605902 9.6901373 14.704695 9.6444961 14.874028 9.5069132 L 14.874028 11.492839 L 15.226978 11.492839 L 15.226978 9.0237386 L 14.969629 9.0237386 z M 13.466878 9.8986206 L 13.466878 10.349756 L 12.955282 10.349756 L 12.955282 10.653097 L 13.466878 10.653097 L 13.466878 11.133171 L 13.749032 11.133171 L 13.749032 10.653097 L 14.260628 10.653097 L 14.260628 10.349756 L 13.749032 10.349756 L 13.749032 9.8986206 L 13.466878 9.8986206 z M 11.799797 10.946619 C 10.899046 11.161502 9.7335347 11.324081 8.5839722 11.35693 C 7.4638522 11.388878 6.3673372 11.304563 5.5422974 10.998295 L 5.5417806 12.852962 C 6.1806047 13.148278 7.3372178 13.327751 8.5333293 13.329936 C 9.7369585 13.332136 10.982414 13.161674 11.799797 12.84211 L 11.799797 10.946619 z M 8.5002563 13.957804 C 8.4826525 13.957804 8.4661364 13.967803 8.4583984 13.983643 L 8.0837443 14.742769 L 7.2455526 14.864726 C 7.2280846 14.867226 7.2133448 14.879438 7.2078288 14.896248 C 7.2023988 14.912968 7.2070887 14.931501 7.2197144 14.943791 L 7.8263957 15.534969 L 7.683252 16.369543 C 7.680312 16.386913 7.6871327 16.404639 7.7013387 16.415019 C 7.7156557 16.425489 7.7349153 16.426956 7.7504313 16.418636 L 8.5002563 16.024345 L 9.2495646 16.418636 C 9.2563346 16.422236 9.2638977 16.423804 9.2712687 16.423804 C 9.2808587 16.423804 9.2905502 16.420919 9.2986572 16.415019 C 9.3129242 16.404639 9.319753 16.386913 9.316744 16.369543 L 9.1736003 15.534969 L 9.7802816 14.943791 C 9.7928816 14.931421 9.7971204 14.912978 9.7916504 14.896248 L 9.7921672 14.896248 C 9.7866672 14.879478 9.7719102 14.867276 9.7544434 14.864726 L 8.9162516 14.742769 L 8.5415975 13.983643 C 8.5338175 13.967793 8.5178653 13.957804 8.5002563 13.957804 z " />
    </g>
  </g>
</svg>
