<?xml version="1.0" encoding="UTF-8" standalone="no"?>
<!-- Created with Inkscape (http://www.inkscape.org/) -->

<svg
   width="38.293751mm"
   height="50.793751mm"
   viewBox="0 0 38.293751 50.793751"
   version="1.1"
   id="svg204"
   inkscape:export-filename="wec_12.svg"
   inkscape:export-xdpi="96"
   inkscape:export-ydpi="96"
   xmlns:inkscape="http://www.inkscape.org/namespaces/inkscape"
   xmlns:sodipodi="http://sodipodi.sourceforge.net/DTD/sodipodi-0.dtd"
   xmlns="http://www.w3.org/2000/svg"
   xmlns:svg="http://www.w3.org/2000/svg">
  <sodipodi:namedview
     id="namedview206"
     pagecolor="#ffffff"
     bordercolor="#000000"
     borderopacity="0.25"
     inkscape:showpageshadow="2"
     inkscape:pageopacity="0.0"
     inkscape:pagecheckerboard="0"
     inkscape:deskcolor="#d1d1d1"
     inkscape:document-units="mm"
     showgrid="false" />
  <defs
     id="defs201" />
  <g
     inkscape:label="Calque 1"
     inkscape:groupmode="layer"
     id="layer1"
     transform="translate(-66.383662,-122.0127)">
    <g
       id="g3200-2-5-5-3-7-3-2-2-1"
       inkscape:label="wec_ffc"
       transform="translate(111.38366,212.0127)"
       style="stroke:none">
      <rect
         style="fill:#803300;stroke:#000000;stroke-width:0.79375;stroke-linecap:round;paint-order:fill markers stroke;stop-color:#000000"
         id="rect901-3-5-0-9-3-6-6-6-3-2"
         width="37.5"
         height="50"
         x="-44.603123"
         y="-89.603127"
         rx="1.3228769"
         ry="1.3228769"
         inkscape:label="wec_ffc_area" />
      <g
         id="g163222-4-4-6-3-4-7-1-7-9"
         transform="translate(-41.853124,-89.085954)"
         inkscape:label="v_ffc_image"
         style="display:inline">
        <rect
           style="fill:#ffffff;stroke:#ffffff;stroke-width:0.79375;stroke-linecap:round;paint-order:fill markers stroke;stop-color:#000000"
           id="rect8977-7-8-2-8-3-5-8-5-3"
           width="27.103125"
           height="24.603125"
           x="-39.154686"
           y="-86.603127"
           rx="1.3228769"
           ry="1.322877"
           inkscape:label="wec_ffc_image_area"
           transform="translate(41.853124,89.085954)" />
        <circle
           cx="16.077732"
           cy="15.012169"
           fill="#fce94f"
           stop-color="#000000"
           style="fill:#000000;stroke:none;paint-order:fill markers stroke"
           id="ellipse19465-0"
           r="8.5" />
        <path
           id="path153025"
           style="fill:#ffffff;stroke:none;stroke-width:0.264583"
           d="m 16.08575,8.0686563 a 0.88662672,0.88662672 0 0 0 -0.88677,0.88677 0.88662672,0.88662672 0 0 0 0.88677,0.88625 0.88662672,0.88662672 0 0 0 0.88625,-0.88625 0.88662672,0.88662672 0 0 0 -0.88625,-0.88677 z m -3.74241,1.21905 a 0.73880559,0.73880559 0 0 0 -0.73897,0.7384597 0.73880559,0.73880559 0 0 0 0.73897,0.73897 0.73880559,0.73880559 0 0 0 0.73846,-0.73897 0.73880559,0.73880559 0 0 0 -0.73846,-0.7384597 z m 7.42332,0 a 0.73880559,0.73880559 0 0 0 -0.73897,0.7384597 0.73880559,0.73880559 0 0 0 0.73897,0.73897 0.73880559,0.73880559 0 0 0 0.73846,-0.73897 0.73880559,0.73880559 0 0 0 -0.73846,-0.7384597 z m -3.6897,0.9089897 v 0.002 c -0.13417,0.008 -0.24701,0.10597 -0.2713,0.2403 -0.29954,1.68329 -0.60174,2.53679 -0.89813,2.53679 -0.20929,0 -0.66996,-0.31526 -1.67742,-1.81746 -0.0781,-0.11634 -0.22822,-0.16117 -0.3576,-0.10645 -0.12923,0.0544 -0.20169,0.19258 -0.1726,0.33021 0.29264,1.38961 0.34462,2.21387 0.15348,2.44895 -0.0211,0.0264 -0.0513,0.0543 -0.14366,0.0543 -0.467,0 -1.50227,-0.70379 -2.24018,-1.233 -0.11663,-0.0838 -0.27656,-0.07 -0.37775,0.0315 -0.1013501,0.10105 -0.1146601,0.26097 -0.031,0.37775 1.68705,2.15765 1.36943,4.63435 1.36943,4.63435 -0.006,0.0343 -0.01,0.0691 -0.01,0.10593 0,0.60838 0.85226,0.84933 1.59422,0.99116 0.81751,0.15666 1.89402,0.24401 3.03805,0.24701 0.011,0 0.0221,3e-4 0.0331,0 0.0109,3e-4 0.0218,0 0.0331,0 1.14374,-0.003 2.22084,-0.0905 3.03806,-0.24701 0.7421,-0.14183 1.5937,-0.38323 1.5937,-0.99116 0,-0.0369 -0.003,-0.0714 -0.009,-0.10593 0,0 -0.31733,-2.47715 1.36942,-4.63435 0.0838,-0.11663 0.0709,-0.2767 -0.0305,-0.37775 -0.10185,-0.1012 -0.26185,-0.11518 -0.37879,-0.0315 -0.7376,0.52906 -1.77265,1.233 -2.23965,1.233 -0.0925,0 -0.12259,-0.028 -0.14418,-0.0543 -0.1907,-0.23508 -0.1388,-1.05934 0.154,-2.44895 0.0289,-0.13763 -0.0435,-0.27579 -0.1726,-0.33021 -0.12908,-0.0547 -0.27935,-0.01 -0.3576,0.10645 -1.00761,1.50235 -1.4688,1.81746 -1.67794,1.81746 -0.29669,0 -0.59838,-0.8535 -0.89762,-2.53679 -0.0238,-0.13433 -0.13719,-0.2325 -0.27181,-0.2403 v -0.002 c -0.003,0 -0.005,5.2e-4 -0.008,5.2e-4 -0.003,0 -0.006,-5.2e-4 -0.009,-5.2e-4 z m -6.5851201,1.4366 a 0.49803415,0.49803415 0 0 0 -0.49765,0.49817 0.49803415,0.49803415 0 0 0 0.49765,0.49816 0.49803415,0.49803415 0 0 0 0.49816,-0.49816 0.49803415,0.49803415 0 0 0 -0.49816,-0.49817 z m 13.1718001,0 a 0.49803415,0.49803415 0 0 0 -0.49816,0.49817 0.49803415,0.49803415 0 0 0 0.49816,0.49816 0.49803415,0.49803415 0 0 0 0.49764,-0.49816 0.49803415,0.49803415 0 0 0 -0.49764,-0.49817 z m -6.61148,5.76968 h 0.005 0.0284 0.0284 0.005 c 1.81793,0.005 3.01961,0.21709 3.55017,0.39894 -0.53026,0.18155 -1.73224,0.39266 -3.55017,0.39791 h -0.002 c -0.0105,0 -0.0207,5.2e-4 -0.031,5.2e-4 -0.0105,0 -0.02,-5.2e-4 -0.0305,-5.2e-4 h -0.003 c -1.81808,-0.005 -3.01976,-0.21636 -3.55017,-0.39791 0.53041,-0.18185 1.73209,-0.39385 3.55017,-0.39894 z" />
        <path
           style="display:inline;fill:#ffffff;stroke:#ffffff;stroke-width:3;stroke-linecap:butt;stroke-linejoin:miter;stroke-dasharray:none;stroke-opacity:1"
           d="M 9.0429654,23.542359 24.042965,6.0423595"
           id="path1621-2-4" />
      </g>
      <g
         id="g10269-6-7-5-8-0-9-7-8-7"
         inkscape:label="wec_ffc_name">
        <rect
           style="fill:#ffb380;stroke:#ffffff;stroke-width:0.79375;stroke-linecap:round;paint-order:fill markers stroke;stop-color:#000000"
           id="rect8979-6-1-3-8-9-3-9-9-8"
           width="32.103127"
           height="15"
           x="-41.706249"
           y="-57.103127"
           rx="1.3228769"
           ry="1.322877"
           inkscape:label="wec_ffc_name_area" />
        <text
           xml:space="preserve"
           style="font-size:3.52777px;line-height:1.25;font-family:cabin;-inkscape-font-specification:cabin;text-align:center;text-anchor:middle;stroke-width:0.264583"
           x="-25.674089"
           y="-48.721184"
           id="text10262-4-1-8-9-2-6-2-7-4"
           inkscape:label="wec_ffc_name_text"><tspan
             sodipodi:role="line"
             style="stroke-width:0.264583"
             x="-25.674089"
             y="-48.721184"
             id="tspan1060-3-5">Feast for Crows</tspan></text>
      </g>
    </g>
  </g>
</svg>
