<?xml version="1.0" encoding="UTF-8" standalone="no"?>
<!-- Created with Inkscape (http://www.inkscape.org/) -->

<svg
   width="38.293751mm"
   height="50.793751mm"
   viewBox="0 0 38.293751 50.793751"
   version="1.1"
   id="svg627"
   inkscape:export-filename="wec_2.svg"
   inkscape:export-xdpi="96"
   inkscape:export-ydpi="96"
   xmlns:inkscape="http://www.inkscape.org/namespaces/inkscape"
   xmlns:sodipodi="http://sodipodi.sourceforge.net/DTD/sodipodi-0.dtd"
   xmlns="http://www.w3.org/2000/svg"
   xmlns:svg="http://www.w3.org/2000/svg">
  <sodipodi:namedview
     id="namedview629"
     pagecolor="#ffffff"
     bordercolor="#000000"
     borderopacity="0.25"
     inkscape:showpageshadow="2"
     inkscape:pageopacity="0.0"
     inkscape:pagecheckerboard="0"
     inkscape:deskcolor="#d1d1d1"
     inkscape:document-units="mm"
     showgrid="false" />
  <defs
     id="defs624" />
  <g
     inkscape:label="Calque 1"
     inkscape:groupmode="layer"
     id="layer1"
     transform="translate(-76.673992,-92.206248)">
    <g
       id="g3200-2-5"
       inkscape:label="wec_tob"
       transform="translate(121.67399,182.20625)"
       style="stroke:none">
      <rect
         style="fill:#803300;stroke:#000000;stroke-width:0.79375;stroke-linecap:round;paint-order:fill markers stroke;stop-color:#000000"
         id="rect901-3-5-0"
         width="37.5"
         height="50"
         x="-44.603123"
         y="-89.603127"
         rx="1.3228769"
         ry="1.3228769"
         inkscape:label="wec_tob_area" />
      <g
         id="g163222-4-4"
         transform="translate(-41.853124,-89.085954)"
         inkscape:label="wec_tob_image"
         style="display:inline">
        <rect
           style="fill:#ffffff;stroke:#ffffff;stroke-width:0.79375;stroke-linecap:round;paint-order:fill markers stroke;stop-color:#000000"
           id="rect8977-7-8"
           width="27.103125"
           height="24.603125"
           x="-39.154686"
           y="-86.603127"
           rx="1.3228769"
           ry="1.322877"
           inkscape:label="wec_tob_image_area"
           transform="translate(41.853124,89.085954)" />
        <g
           id="g12353"
           transform="matrix(1.2500745,0,0,1.2500745,-1.8589245,0.16529635)"
           style="stroke-width:0.799952">
          <path
             id="rect11177-9"
             style="fill:#010002;stroke:none;stroke-width:0.211655"
             d="m 91.762491,7.6218133 v 0.3484044 h 0.0619 V 7.6218133 Z m 0.10207,0.01198 v 0.2448514 l 0.49693,-0.2448514 z m -1.31583,0.4017401 0.008,0.030853 c 0.003,0.013184 0.31818,1.3285757 0.0604,1.656357 -0.0366,0.046712 -0.0823,0.069418 -0.13982,0.069418 h -0.10487 v 0.049725 h 1.36818 v 0.2745546 h -1.2551 c -0.1478,0 -0.2706,-0.1202401 -0.27374,-0.2681545 l -0.002,-0.073521 -0.0435,0.059408 c -0.0743,0.1017738 -0.11372,0.2218385 -0.11372,0.3470915 v 0.100271 c 0,0.325086 0.26439,0.589481 0.58948,0.589481 h 2.24583 c 0.32515,0 0.58965,-0.264395 0.58965,-0.589481 v -0.100271 c 0,-0.2937589 -0.21953,-0.5447699 -0.51071,-0.5835732 l -0.0788,-0.010503 0.0588,0.0535 c 0.0566,0.051856 0.0891,0.1253505 0.0891,0.2016905 0,0.1510502 -0.12278,0.2740627 -0.2739,0.2740627 h -0.97202 V 9.841887 h 0.69452 c 0.13981,0 0.24543,-0.051431 0.31443,-0.1529501 0.28748,-0.4231522 -0.16825,-1.5883025 -0.18791,-1.6376485 l -0.006,-0.015754 z"
             transform="translate(-84.999997)" />
          <path
             d="m 91.443501,6.6822189 c 0.0465,-0.08817 0.13399,-0.3063232 -0.0224,-0.5263456 -0.19835,-0.279076 -0.47494,-1.1081943 -0.29112,-1.6730443 h 0.18008 v -1.11625 h -0.21518 v 0.22863 h -0.21518 v -0.22863 h -0.24208 v 0.22863 h -0.21518 v -0.22863 h -0.22863 v 0.22863 h -0.21519 v -0.22863 h -0.22862 v 1.11625 h 0.18905 c 0.18382,0.56485 -0.0939,1.3939683 -0.29225,1.6730443 -0.15639,0.2200089 -0.0723,0.4398564 -0.0257,0.5280268 -0.0547,0.00512 -0.0997,0.049411 -0.0997,0.1053982 v 0.2420784 c 0,0.059417 0.0526,0.1143148 0.11207,0.1143148 h 0.009 V 7.374321 h 1.77524 V 7.1456915 h 0.018 c 0.0594,0 0.10311,-0.054898 0.10311,-0.1143148 V 6.7892983 c 0,-0.055974 -0.0405,-0.1019419 -0.0952,-0.1070794 z"
             id="path10606-7"
             style="stroke:none;stroke-width:0.211654"
             transform="translate(-84.999997)" />
          <path
             d="m 96.908661,9.1987169 h -0.0809 c 0.0356,-0.052045 0.14746,-0.2461441 -0.01,-0.4403936 -0.1821,-0.2247853 -0.54439,-0.897885 -0.37315,-1.3486029 h 0.0133 c 0.0603,0 0.1047,-0.048917 0.1047,-0.1092517 v -0.013656 c 0,-0.060334 -0.0444,-0.1092517 -0.1047,-0.1092517 h -0.0167 c 0.14909,-0.1429286 0.24206,-0.3439244 0.24206,-0.5667432 0,-0.4336746 -0.35157,-0.7852465 -0.78525,-0.7852465 -0.43367,0 -0.78524,0.3515719 -0.78524,0.7852465 0,0.2228188 0.093,0.4238146 0.24206,0.5667432 h -0.0304 c -0.0603,0 -0.1138,0.048917 -0.1138,0.1092517 v 0.013656 c 0,0.060334 0.0535,0.1092517 0.1138,0.1092517 h 0.027 c 0.17124,0.4507179 -0.19105,1.1238176 -0.37315,1.3486029 -0.15738,0.1942495 -0.0455,0.3883488 -0.01,0.4403936 h -0.0946 c -0.0603,0 -0.1138,0.048917 -0.1138,0.1092517 v 0.2458163 c 0,0.060334 0.0535,0.1092517 0.1138,0.1092517 h 0.009 V 9.88154 h 2.02115 V 9.6630366 c 0.0683,0 0.10925,-0.048917 0.10925,-0.1092517 V 9.3079686 c 0,-0.060334 -0.0444,-0.1092517 -0.1047,-0.1092517 z"
             id="path10795-7"
             style="stroke:none;stroke-width:0.211654"
             transform="translate(-84.999997)" />
          <path
             d="m 94.784851,5.225661 c 0.20309,0 0.36822,-0.164629 0.36822,-0.367719 0,-0.20309 -0.14906,-0.340658 -0.36723,-0.417648 -0.15435,-0.05448 -0.24539,-0.147401 -0.31336,-0.264376 -0.068,-0.116976 -0.21779,-0.298561 -0.41527,-0.298561 -0.0794,0 -0.26963,0 -0.26963,0 V 3.64583 c -1.45726,0.545178 -0.98561,2.5059385 -0.98561,2.5059385 h 0.29103 v 0.1906692 h -0.0867 c -0.0602,0 -0.11755,0.048784 -0.11755,0.1089538 v 0.013619 c 0,0.044794 0.0313,0.083227 0.07,0.099979 -0.11944,0.2049694 -0.0193,0.4055126 0.0104,0.4584097 h -0.0718 c -0.0602,0 -0.11755,0.048784 -0.11755,0.1089538 v 0.2451461 c 0,0.06017 0.0545,0.1089539 0.10896,0.1089539 v 0.2179075 h 1.79774 V 7.4855131 c 0.0545,-0.00671 0.0953,-0.052475 0.0953,-0.1080141 V 7.132353 c 0,-0.06017 -0.0402,-0.1089538 -0.10036,-0.1089538 h -0.0582 c 0.0297,-0.052897 0.12124,-0.2534403 0.002,-0.4584097 0.0386,-0.016752 0.0614,-0.055185 0.0614,-0.099979 v -0.013619 c 0,-0.06017 -0.0402,-0.1089539 -0.10037,-0.1089539 h -0.10393 V 6.1517684 h 0.32867 C 94.586271,5.41633 93.907591,5.021372 93.907591,5.021372 h 0.54724 c 0.0605,0.121062 0.18585,0.204289 0.33023,0.204289 z"
             id="path10984-6"
             style="stroke:none;stroke-width:0.211654"
             transform="translate(-84.999997)" />
        </g>
        <path
           id="path14194-7"
           style="fill:#000000;stroke-width:0.0264583"
           d="m 16.103633,13.684565 c -0.0747,0.08035 -0.07754,0.341223 -0.0028,0.418772 0.04303,0.04872 0.04879,0.117596 0.04879,0.493581 v 0.436255 l -0.293175,-0.01423 c -0.163699,-0.0057 -0.341751,-0.01744 -0.396411,-0.02318 -0.08619,-0.0085 -0.103459,0.0031 -0.126444,0.06912 -0.02299,0.06019 -0.01736,0.08862 0.01992,0.131731 0.04303,0.04885 0.08319,0.05173 0.350467,0.04025 l 0.301679,-0.01423 v 0.129291 c 0,0.109044 0.01448,0.140327 0.109368,0.232154 l 0.108962,0.106116 0.106116,-0.108962 c 0.089,-0.09183 0.106522,-0.129256 0.106522,-0.232561 v -0.126038 l 0.330139,0.01423 c 0.295864,0.01148 0.336167,0.0057 0.379334,-0.04025 0.03729,-0.04297 0.04304,-0.07181 0.01992,-0.132137 -0.02299,-0.06593 -0.04025,-0.07725 -0.126445,-0.06871 -0.05452,0.0057 -0.238349,0.01703 -0.407794,0.02277 l -0.310217,0.01463 v -0.450485 c 0,-0.390262 0.0057,-0.459098 0.05164,-0.50781 0.06321,-0.07167 0.06317,-0.272731 -0.0028,-0.373236 -0.06307,-0.09757 -0.186265,-0.103164 -0.266714,-0.01707 z m 2.706972,0.352094 c -0.05207,-0.0172 -0.114308,-6.74e-4 -0.176046,0.05245 -0.08619,0.07461 -0.129519,0.229631 -0.09799,0.347214 0.01724,0.06887 -0.09174,0.464762 -0.243944,0.872103 -0.01724,0.04591 -0.525743,-0.1205 -0.614741,-0.200848 -0.089,-0.08315 -0.218222,-0.03998 -0.229714,0.07481 -0.0115,0.103305 0.03729,0.163443 0.134983,0.163443 0.04022,0 0.17481,0.03423 0.298425,0.0744 0.203923,0.06887 0.224088,0.08044 0.209792,0.137828 -0.05171,0.172175 -0.04852,0.215356 0.0089,0.330139 0.03448,0.06313 0.06585,0.1175 0.0744,0.1175 0.03742,0 0.272811,-0.129056 0.272811,-0.149213 0,-0.01428 0.01726,-0.06915 0.04025,-0.123598 l 0.0431,-0.09758 0.206946,0.06912 c 0.114926,0.04017 0.223957,0.08615 0.238253,0.100424 0.03448,0.03444 0.132109,0.03732 0.17808,0.0057 0.01724,-0.01148 0.04055,-0.04891 0.05204,-0.08335 0.02592,-0.08315 -0.06907,-0.183555 -0.152465,-0.160597 -0.07751,0.02002 -0.614903,-0.160721 -0.597664,-0.203694 0.0057,-0.01722 0.06928,-0.203577 0.138235,-0.415926 0.09769,-0.298437 0.14055,-0.390123 0.189464,-0.41308 0.08045,-0.03444 0.166603,-0.249648 0.140674,-0.347214 -0.02011,-0.08175 -0.06177,-0.132826 -0.113841,-0.150026 z m -4.979723,0.04391 c -0.06859,-0.06385 -0.160678,-0.07456 -0.238253,0.0028 -0.103433,0.103304 -0.06017,0.332761 0.08335,0.459022 0.06321,0.05445 0.112008,0.163339 0.212638,0.464715 l 0.129291,0.393157 -0.270372,0.08904 c -0.152206,0.05165 -0.298603,0.08579 -0.330138,0.07724 -0.02873,-0.0087 -0.08343,0.0087 -0.117907,0.0374 -0.05452,0.04297 -0.05998,0.06326 -0.037,0.132137 0.03153,0.09183 0.157913,0.128949 0.226869,0.07156 0.05452,-0.04592 0.444992,-0.175015 0.459429,-0.152059 0.0057,0.01148 0.02586,0.06594 0.0431,0.123193 0.02579,0.07741 0.06336,0.11473 0.16385,0.163443 0.07176,0.03444 0.140566,0.05737 0.152059,0.05163 0.01149,-0.0087 0.04617,-0.07429 0.07197,-0.14596 0.04023,-0.103305 0.04571,-0.149507 0.01992,-0.221176 -0.01724,-0.04872 -0.0313,-0.09753 -0.0313,-0.111808 0,-0.02576 0.413761,-0.163349 0.528547,-0.174827 0.103433,-0.01148 0.146134,-0.07446 0.120346,-0.174828 -0.02579,-0.103304 -0.140675,-0.132342 -0.226868,-0.05773 -0.05171,0.04871 -0.594347,0.252672 -0.608642,0.229715 -0.0029,-0.0029 -0.06634,-0.18636 -0.138236,-0.407388 -0.106238,-0.327134 -0.128951,-0.427589 -0.114656,-0.533834 0.01584,-0.13487 -0.02939,-0.251653 -0.09798,-0.315501 z m -2.542309,1.411625 c -0.06601,0.03724 -0.06596,0.177685 -0.0057,0.28379 0.05452,0.08889 0.18098,0.172387 0.261428,0.172387 0.02873,0 0.189462,0.137635 0.361851,0.30981 l 0.307366,0.306963 -0.19231,0.19231 c -0.109179,0.106105 -0.229687,0.206492 -0.275657,0.22077 -0.09769,0.03737 -0.123529,0.100483 -0.0805,0.19231 0.04303,0.100365 0.201173,0.08903 0.25289,-0.01707 0.01724,-0.04017 0.100434,-0.135137 0.178079,-0.215485 l 0.146367,-0.140268 0.09473,0.09189 c 0.08045,0.08035 0.115129,0.09148 0.244351,0.09148 h 0.149213 v -0.149212 c 0,-0.129062 -0.01144,-0.16319 -0.09189,-0.243539 l -0.09189,-0.09473 0.169542,-0.172388 c 0.09474,-0.09463 0.183651,-0.171981 0.203693,-0.171981 0.04877,0 0.126445,-0.09747 0.126445,-0.160597 0,-0.08035 -0.05433,-0.126444 -0.149213,-0.126444 -0.06321,0 -0.08913,0.0204 -0.11506,0.07765 -0.01724,0.04592 -0.123691,0.174697 -0.235814,0.289481 l -0.203693,0.20654 -0.322007,-0.321194 c -0.20112,-0.200872 -0.324446,-0.344541 -0.324446,-0.381774 2.8e-4,-0.172035 -0.261334,-0.32678 -0.407794,-0.240694 z m 9.741116,0.06871 c -0.05454,-0.02294 -0.128558,-0.01278 -0.206134,0.0374 -0.109179,0.07167 -0.160906,0.149319 -0.163849,0.235407 0,0.05445 -0.08366,0.154692 -0.316315,0.387058 l -0.315908,0.31591 -0.189463,-0.186618 c -0.103434,-0.103305 -0.206827,-0.229698 -0.226869,-0.28135 -0.03153,-0.07167 -0.05755,-0.09189 -0.120753,-0.09189 -0.04597,0 -0.09786,0.0144 -0.117906,0.03455 -0.07176,0.07167 -0.03143,0.149143 0.18987,0.355753 l 0.221176,0.206946 -0.09473,0.100017 c -0.08619,0.08889 -0.09488,0.111992 -0.08619,0.238253 l 0.0085,0.140675 0.140675,0.0085 c 0.126418,0.0087 0.149255,-1.06e-4 0.238253,-0.08619 l 0.100423,-0.09473 0.224023,0.235407 c 0.24709,0.261062 0.345088,0.301136 0.405355,0.169135 0.03742,-0.08315 -0.0086,-0.189463 -0.08335,-0.189463 -0.05171,0 -0.465528,-0.395674 -0.465528,-0.444386 0,-0.05165 0.586242,-0.61718 0.640761,-0.61718 0.149404,0 0.307371,-0.160638 0.307371,-0.312656 1.4e-4,-0.08175 -0.03491,-0.137658 -0.08945,-0.160597 z m -4.995174,0.186618 c -0.0088,0 -0.01433,0.160621 -0.01138,0.355753 v 0.358598 l -0.143927,0.01707 c -0.249894,0.03149 -0.617504,0.126597 -0.84161,0.215484 -0.117728,0.04885 -0.223956,0.08579 -0.238253,0.08579 -0.0143,0 -0.07791,-0.163326 -0.143927,-0.367136 -0.06895,-0.200871 -0.132028,-0.375988 -0.143521,-0.387466 -0.0086,-0.01148 -0.04282,0.02876 -0.07156,0.09189 l -0.05204,0.114654 -0.111808,-0.05732 c -0.06321,-0.03164 -0.120742,-0.05163 -0.129291,-0.0431 -0.0086,0.0087 0.04884,0.206687 0.129291,0.444792 l 0.14352,0.430562 -0.189463,0.143521 c -0.106236,0.07755 -0.27036,0.220736 -0.365104,0.315502 l -0.172383,0.174833 -0.393565,-0.392751 -0.39641,-0.396003 v 0.152059 0.149212 h -0.134987 -0.137829 l 0.614741,0.613928 0.611894,0.611081 0.06912,0.341523 c 0.03728,0.186452 0.06582,0.34712 0.06302,0.358598 -0.0057,0.01148 -0.31893,-0.224058 -0.695242,-0.525294 -0.528521,-0.418958 -0.723784,-0.559117 -0.844457,-0.599291 -0.169445,-0.05739 -0.264273,-0.06904 -0.264273,-0.02887 0,0.01148 0.04865,0.09768 0.106116,0.183771 0.08619,0.132001 0.267158,0.289524 0.959515,0.837544 l 0.8534,0.674507 0.03131,0.149212 c 0.01724,0.08035 0.02892,0.149166 0.02318,0.154905 -0.0029,0.0057 -0.273026,-0.146345 -0.594818,-0.338676 -0.390748,-0.229567 -0.643444,-0.358724 -0.746877,-0.384619 -0.324595,-0.08035 -0.358871,-0.03996 -0.157751,0.180925 0.09769,0.111843 0.28746,0.238053 0.853399,0.567985 0.399297,0.232366 0.732593,0.427262 0.738339,0.433002 0.0115,0.01148 0.09163,0.390623 0.08294,0.402102 -0.0057,0.0029 -0.272663,-0.13479 -0.597258,-0.306965 -0.568743,-0.301236 -0.59486,-0.313062 -0.770052,-0.313062 h -0.181335 l 0.0431,0.07766 c 0.089,0.169234 0.232816,0.266637 0.902188,0.622465 0.382059,0.200871 0.695146,0.369983 0.698089,0.369983 0,0.0029 0.05464,0.344368 0.123599,0.757448 l 0.120345,0.755009 h -0.324446 -0.324446 v 0.272404 0.272405 h 2.240631 2.240632 v -0.272405 -0.269965 l -0.324446,-0.0085 -0.324446,-0.0085 0.126444,-0.774524 0.126445,-0.77493 0.646047,-0.344369 c 0.482548,-0.258262 0.675416,-0.375687 0.758667,-0.464714 0.169446,-0.183653 0.155096,-0.218112 -0.0805,-0.203694 -0.180938,0.01428 -0.232628,0.03456 -0.706627,0.289888 -0.281568,0.155236 -0.514262,0.278503 -0.520008,0.278503 -0.0115,0 0.06316,-0.370061 0.08335,-0.401696 0.0057,-0.01148 0.318887,-0.200683 0.692397,-0.418771 0.517165,-0.301236 0.706657,-0.430574 0.804204,-0.536679 0.198177,-0.220887 0.163731,-0.260867 -0.161004,-0.180519 -0.103433,0.02296 -0.347201,0.149189 -0.700528,0.358599 -0.298667,0.174975 -0.546072,0.318348 -0.548875,0.318348 -0.0028,0 0.0088,-0.07726 0.02887,-0.174828 0.02298,-0.106104 0.0571,-0.189681 0.08863,-0.212638 0.03167,-0.02002 0.390975,-0.303965 0.801765,-0.628157 0.71254,-0.568178 0.873077,-0.723274 0.942033,-0.915606 0.02299,-0.06593 -0.04002,-0.06277 -0.243944,0.0061 -0.123616,0.04297 -0.310176,0.174922 -0.795667,0.559445 -0.34758,0.27828 -0.640707,0.504966 -0.646453,0.504966 -0.0029,0 0.02605,-0.166625 0.06627,-0.373235 l 0.0744,-0.37283 0.517163,-0.516756 0.517163,-0.51635 H 19.58839 19.453001 v -0.149212 -0.152059 l -0.327292,0.327292 -0.330545,0.327293 -0.229715,-0.215485 c -0.126418,-0.120523 -0.289952,-0.255312 -0.361851,-0.298426 -0.0719,-0.04592 -0.129291,-0.100189 -0.129291,-0.120346 0,-0.02016 0.05754,-0.209581 0.129291,-0.42487 0.07176,-0.215149 0.12619,-0.398802 0.1175,-0.404542 -0.0057,-0.0057 -0.06599,0.01435 -0.132136,0.04879 l -0.1175,0.06058 -0.04635,-0.11506 c -0.02593,-0.06593 -0.05447,-0.1175 -0.06302,-0.1175 -0.0115,0 -0.07741,0.17227 -0.146367,0.384619 l -0.129291,0.38462 -0.172387,-0.07197 c -0.218359,-0.09183 -0.631966,-0.19772 -0.88186,-0.223617 l -0.195563,-0.02033 v -0.355709 c 0,-0.195132 -0.0057,-0.355752 -0.01423,-0.355752 -0.0086,0 -0.0516,0.04304 -0.09758,0.09189 l -0.08619,0.09433 -0.09473,-0.09433 c -0.05452,-0.04871 -0.103622,-0.09189 -0.109369,-0.09189 z m 0.660684,1.466107 c 0.534405,0.06593 1.011312,0.306764 1.252655,0.636696 0.06895,0.09463 0.134972,0.198126 0.143521,0.23256 0.0115,0.04592 -0.677731,3.939354 -0.809895,4.584941 l -0.01748,0.0805 h -0.999768 -0.99936 l -0.01748,-0.0805 c -0.132164,-0.645587 -0.821389,-4.539027 -0.809896,-4.584941 0.0087,-0.03444 0.07456,-0.137934 0.143521,-0.23256 0.370425,-0.504907 1.194921,-0.754279 2.114186,-0.636696 z m -0.430969,0.944066 c -0.0115,0 -0.08914,0.120388 -0.172388,0.263867 -0.08325,0.146278 -0.163643,0.281254 -0.178079,0.301271 -0.01724,0.02296 -0.100314,-0.01405 -0.284196,-0.126038 -0.140714,-0.08889 -0.264262,-0.152106 -0.272811,-0.146367 -0.0115,0.01148 0.09736,0.430486 0.20654,0.803392 0.01444,0.04872 0.07178,0.05164 0.700934,0.05164 0.629149,0 0.686639,-0.0029 0.700934,-0.05164 0.10918,-0.373046 0.218439,-0.791913 0.206947,-0.803392 -0.0086,-0.0057 -0.132097,0.05748 -0.272812,0.146367 -0.183881,0.111844 -0.266956,0.148995 -0.284195,0.126038 -0.0143,-0.02016 -0.09523,-0.154993 -0.178487,-0.301271 -0.08325,-0.143479 -0.160894,-0.263867 -0.172387,-0.263867 z m -3.470113,3.357085 -0.158157,0.470407 c -0.08619,0.261061 -0.149364,0.479211 -0.140675,0.487889 0.02018,0.02296 1.829872,0.02286 1.849914,0.0028 0.0086,-0.0085 -0.02879,-0.201043 -0.0805,-0.42487 -0.05452,-0.223828 -0.103258,-0.436019 -0.111808,-0.473253 l -0.01423,-0.06302 h -0.672474 z m 6.268158,0 c -0.370565,0 -0.672067,0.0028 -0.672067,0.0085 0,0.0057 -0.0459,0.212239 -0.100424,0.459022 -0.05466,0.246784 -0.100424,0.461727 -0.100424,0.478945 0,0.03149 1.812547,0.04343 1.844221,0.01179 0.0086,-0.0085 -0.05448,-0.226687 -0.140674,-0.487889 L 19.73475,21.514742 Z m -0.241098,1.230701 v 1.351453 1.348607 h 0.847301 c 0.465449,0 0.847805,-0.0088 0.844861,-0.02317 0,-0.01148 -0.250111,-0.613729 -0.551721,-1.339663 l -0.551721,-1.320147 -0.29558,-0.0085 z m -5.400935,0.0028 c -0.241344,0 -0.290034,0.0086 -0.310216,0.04879 -0.02299,0.04312 -1.031441,2.456158 -1.085961,2.599637 -0.01724,0.04592 0.04303,0.04879 0.833071,0.04879 H 13.70769 V 24.096917 22.74831 Z m 0.603356,0.918045 v 1.076202 1.075796 l -1.240864,0.0057 -1.244118,0.0085 -0.134983,0.272812 c -0.07176,0.149218 -0.134983,0.281255 -0.134983,0.292733 -0.0029,0.01428 0.617885,0.02277 1.376254,0.02277 h 1.378694 v 0.171981 0.172387 h -1.643373 -1.645814 l -0.152465,0.287042 -0.152059,0.287042 0.129291,0.0024 h 5.661955 5.691229 l 0.157751,-0.0024 -0.152059,-0.287042 -0.152466,-0.287042 H 20.136851 18.504862 V 26.59282 26.420839 h 1.36487 1.364464 l -0.04025,-0.09189 c -0.02004,-0.05165 -0.08327,-0.186535 -0.134982,-0.295579 l -0.09758,-0.200848 -1.226635,-0.0085 -1.229888,-0.0057 v -1.075796 -1.076202 h -2.240632 z" />
        <path
           id="path14136-1"
           style="stroke:none;stroke-width:0.264583"
           d="m 23.770832,6.982826 c -0.191574,0 -0.375295,0.076483 -0.509074,0.2134784 -0.115729,0.1185269 -0.224137,0.2482633 -0.325172,0.3858219 h 0.638483 C 23.676244,7.3561269 23.79064,7.1597076 23.916303,6.982826 Z m 0.698383,0 c -0.153792,0.15715 -0.295346,0.3535702 -0.419751,0.5993003 h 0.861719 V 6.982826 Z m 0.874329,0 v 0.5993003 h 0.866372 C 26.085092,7.3363962 25.943667,7.139976 25.790015,6.982826 Z m 0.999083,0 c 0.125523,0.1768816 0.240059,0.3733009 0.341235,0.5993003 h 0.638632 C 27.221459,7.4445677 27.112891,7.3148313 26.997022,7.1963044 26.863522,7.0593055 26.679672,6.982826 26.488098,6.982826 Z m -3.674915,1.0315105 c -0.337809,0.6189436 -0.536097,1.3749321 -0.536097,2.1906275 0,0.790507 0.186084,1.52323 0.50472,2.132378 h 0.771644 c -0.208507,-0.609148 -0.328474,-1.355744 -0.328474,-2.161502 0,-0.8057605 0.119967,-1.5425599 0.328474,-2.1615035 z m 1.195897,0 c -0.22222,0.599212 -0.356547,1.352805 -0.356547,2.1615035 0,0.808558 0.134467,1.56229 0.356547,2.161502 h 1.047574 V 8.0143365 Z m 1.479634,0 v 4.3230055 h 1.052528 c 0.221941,-0.599492 0.356397,-1.352664 0.356397,-2.161502 0,-0.8086985 -0.134456,-1.5622915 -0.356397,-2.1615035 z m 1.507858,0 c 0.208507,0.6189436 0.328624,1.355743 0.328624,2.1615035 0,0.805758 -0.119837,1.552354 -0.328624,2.161502 h 0.771944 c 0.318357,-0.609288 0.50427,-1.341871 0.50427,-2.132378 -1.4e-4,-0.8156954 -0.197988,-1.5716839 -0.535797,-2.1906275 z m -3.95625,4.7553665 c 0.110551,0.15715 0.231159,0.307246 0.360601,0.440467 0.13392,0.137838 0.317872,0.217982 0.510426,0.217982 h 0.189908 c -0.141337,-0.186677 -0.269197,-0.412569 -0.380867,-0.658299 z m 1.154463,0 c 0.139937,0.274836 0.300866,0.501019 0.476347,0.658449 h 0.385372 v -0.658449 z m 1.29408,0 v 0.658449 h 0.390175 c 0.175481,-0.15743 0.33626,-0.383053 0.476197,-0.658449 z m 1.340468,0 c -0.111531,0.24531 -0.239241,0.471772 -0.380718,0.658449 h 0.189908 c 0.192274,0 0.376226,-0.07986 0.510426,-0.217982 0.129442,-0.133221 0.24989,-0.283317 0.3603,-0.440467 z" />
        <g
           id="g14686">
          <path
             id="path12672"
             style="display:inline;fill:none;stroke:#000000;stroke-width:0.793748;stroke-linecap:round;paint-order:fill markers stroke;stop-color:#000000"
             d="M 20.182821,6.2089982 A 1.9328172,1.7261722 0 0 1 18.250004,7.9351704 1.9328172,1.7261722 0 0 1 16.317187,6.2089982 1.9328172,1.7261722 0 0 1 18.250004,4.482826 1.9328172,1.7261722 0 0 1 20.182821,6.2089982 Z"
             transform="translate(-0.50000088,1.2738279)" />
          <path
             style="display:inline;fill:none;stroke:#000000;stroke-width:0.264583px;stroke-linecap:butt;stroke-linejoin:miter;stroke-opacity:1"
             d="M 16.000002,8.2328265 20.500004,4.1078252"
             id="path12778"
             transform="translate(-0.50000088,1.2738279)" />
        </g>
        <path
           d="m -16.285871,-76.915486 c -0.912596,0 -1.654978,-0.743157 -1.654978,-1.655494 0,-0.912468 0.742382,-1.655236 1.654978,-1.655236 0.06062,0 0.121877,0.0035 0.182752,0.01034 v -0.267538 c 0,-0.03438 0.0212,-0.06565 0.05248,-0.07897 0.03257,-0.01266 0.06863,-0.0056 0.09344,0.01913 l 0.586383,0.587675 c 0.03335,0.03335 0.03335,0.0866 0,0.120456 l -0.586124,0.588968 c -0.02494,0.0243 -0.06114,0.03179 -0.0937,0.01848 -0.03127,-0.01344 -0.05248,-0.04447 -0.05248,-0.07871 v -0.296743 c -0.06062,-0.01112 -0.12162,-0.01616 -0.182752,-0.01616 -0.578112,0 -1.048562,0.470322 -1.048562,1.048303 0,0.577853 0.470579,1.048562 1.048562,1.048562 0.577981,0 1.048302,-0.470838 1.048302,-1.048562 0,-0.04692 0.03813,-0.0853 0.08556,-0.0853 h 0.435426 c 0.04717,0 0.08556,0.03839 0.08556,0.0853 0,0.912338 -0.742898,1.655494 -1.654848,1.655495 z"
           id="path9647-2-3-7"
           style="fill:#ffffff;stroke:none;stroke-width:0.264583"
           transform="translate(41.853123,89.085954)" />
      </g>
      <g
         id="g10269-6-7"
         inkscape:label="wec_tob_name">
        <rect
           style="fill:#ffb380;stroke:#ffffff;stroke-width:0.79375;stroke-linecap:round;paint-order:fill markers stroke;stop-color:#000000"
           id="rect8979-6-1"
           width="32.103127"
           height="15"
           x="-41.706249"
           y="-57.103127"
           rx="1.3228769"
           ry="1.322877"
           inkscape:label="wec_tob_name_area" />
        <text
           xml:space="preserve"
           style="font-size:3.52777px;line-height:1.25;font-family:cabin;-inkscape-font-specification:cabin;text-align:center;text-anchor:middle;stroke-width:0.264583"
           x="-25.712896"
           y="-48.707073"
           id="text10262-4-1"
           inkscape:label="wec_tob_name_text"><tspan
             sodipodi:role="line"
             style="stroke-width:0.264583"
             x="-25.712896"
             y="-48.707073"
             id="tspan11926">Thrones of Blades</tspan></text>
      </g>
    </g>
  </g>
</svg>
