<?xml version="1.0" encoding="UTF-8" standalone="no"?>
<!-- Created with Inkscape (http://www.inkscape.org/) -->

<svg
   width="38.293751mm"
   height="50.793751mm"
   viewBox="0 0 38.293751 50.793751"
   version="1.1"
   id="svg308"
   xmlns:inkscape="http://www.inkscape.org/namespaces/inkscape"
   xmlns:sodipodi="http://sodipodi.sourceforge.net/DTD/sodipodi-0.dtd"
   xmlns="http://www.w3.org/2000/svg"
   xmlns:svg="http://www.w3.org/2000/svg">
  <sodipodi:namedview
     id="namedview310"
     pagecolor="#ffffff"
     bordercolor="#000000"
     borderopacity="0.25"
     inkscape:showpageshadow="2"
     inkscape:pageopacity="0.0"
     inkscape:pagecheckerboard="0"
     inkscape:deskcolor="#d1d1d1"
     inkscape:document-units="mm"
     showgrid="false" />
  <defs
     id="defs305" />
  <g
     inkscape:label="Calque 1"
     inkscape:groupmode="layer"
     id="layer1"
     transform="translate(-95.466032,-144.57087)">
    <g
       id="g3200-2-5-5-3-7-3-2-2-1-1-5"
       inkscape:label="wec_sosw"
       transform="translate(140.46603,234.57087)"
       style="stroke:none">
      <rect
         style="fill:#803300;stroke:#000000;stroke-width:0.79375;stroke-linecap:round;paint-order:fill markers stroke;stop-color:#000000"
         id="rect901-3-5-0-9-3-6-6-6-3-2-5-2"
         width="37.5"
         height="50"
         x="-44.603123"
         y="-89.603127"
         rx="1.3228769"
         ry="1.3228769"
         inkscape:label="wec_sosw_area" />
      <g
         id="g163222-4-4-6-3-4-7-1-7-9-5-5"
         transform="translate(-41.853124,-89.085954)"
         inkscape:label="wec_sosw_image"
         style="display:inline">
        <rect
           style="fill:#ffffff;stroke:#ffffff;stroke-width:0.79375;stroke-linecap:round;paint-order:fill markers stroke;stop-color:#000000"
           id="rect8977-7-8-2-8-3-5-8-5-3-4-4"
           width="27.103125"
           height="24.603125"
           x="-39.154686"
           y="-86.603127"
           rx="1.3228769"
           ry="1.322877"
           inkscape:label="wec_sosw_image_area"
           transform="translate(41.853124,89.085954)" />
        <circle
           cx="-25.660509"
           cy="-74.402008"
           fill="#fce94f"
           stop-color="#000000"
           style="fill:#000000;stroke:none;paint-order:fill markers stroke"
           id="ellipse19465-68"
           r="8.5"
           transform="translate(41.853125,89.085954)"
           inkscape:label="ellipse19465-68" />
        <path
           id="path152367"
           style="fill:#ffffff;stroke:none;stroke-width:0.264584"
           d="m -25.660769,-80.697495 c -2.143666,0 -3.555155,1.213682 -3.881417,3.881416 -0.200497,1.639421 -0.779903,4.32823 -1.015959,5.391919 -0.05719,0.257724 0.0896,0.517497 0.340031,0.600997 l 2.387451,0.795817 c 0.151819,0.05064 0.318405,0.02838 0.451135,-0.06098 0.132732,-0.08936 0.216616,-0.23562 0.22686,-0.395325 l 0.208256,-3.250962 c 0.01345,-0.209931 -0.101792,-0.407143 -0.291455,-0.498161 l -1.554427,-0.745691 c -0.202081,-0.09699 -0.287156,-0.339488 -0.190169,-0.541569 l 0.366386,-0.763261 c 0.04658,-0.09702 0.129953,-0.171552 0.23151,-0.207222 0.101556,-0.03567 0.212998,-0.02952 0.310059,0.01705 l 1.566312,0.751892 c 0.178866,0.08586 0.293006,0.266692 0.293006,0.465088 v 1.969906 c 0,0.07673 0.04238,0.147376 0.11007,0.183451 l 0.344682,0.183968 c 0.06109,0.03258 0.134758,0.03258 0.195854,0 l 0.344682,-0.183968 c 0.06769,-0.03611 0.11007,-0.106729 0.11007,-0.183451 v -1.969906 c 0,-0.198396 0.113623,-0.379229 0.292489,-0.465088 l 1.566829,-0.751892 c 0.09702,-0.04658 0.208502,-0.05273 0.310059,-0.01705 0.101553,0.03567 0.184934,0.110199 0.23151,0.207223 l 0.366386,0.763261 c 0.09699,0.202081 0.01191,0.444582 -0.190169,0.541569 l -1.554427,0.745691 c -0.189663,0.09101 -0.304941,0.28823 -0.291455,0.49816 l 0.208256,3.250964 c 0.01024,0.159704 0.09409,0.305966 0.226859,0.395325 0.132768,0.08936 0.299354,0.11158 0.451136,0.06098 l 2.387451,-0.795817 c 0.250944,-0.08368 0.396814,-0.342758 0.339514,-0.600997 -0.236093,-1.063727 -0.815461,-3.7525 -1.015959,-5.391921 -0.326261,-2.667734 -1.737751,-3.881416 -3.881416,-3.881416 z"
           sodipodi:nodetypes="sssccscsccccscsssccccssccsssccccscccss"
           transform="translate(41.853125,89.085954)" />
        <path
           style="display:inline;fill:#ffffff;stroke:#ffffff;stroke-width:3;stroke-linecap:butt;stroke-linejoin:miter;stroke-dasharray:none;stroke-opacity:1"
           d="M 9.0429654,23.542359 24.042965,6.0423595"
           id="path1621-2-4-5-4" />
      </g>
      <g
         id="g10269-6-7-5-8-0-9-7-8-7-6-3"
         inkscape:label="wec_sosw_name">
        <rect
           style="fill:#ffb380;stroke:#ffffff;stroke-width:0.79375;stroke-linecap:round;paint-order:fill markers stroke;stop-color:#000000"
           id="rect8979-6-1-3-8-9-3-9-9-8-9-0"
           width="32.103127"
           height="15"
           x="-41.706249"
           y="-57.103127"
           rx="1.3228769"
           ry="1.322877"
           inkscape:label="wec_sosw_name_area" />
        <text
           xml:space="preserve"
           style="font-size:3.52777px;line-height:1.25;font-family:cabin;-inkscape-font-specification:cabin;text-align:center;text-anchor:middle;stroke-width:0.264583"
           x="-25.674089"
           y="-48.721184"
           id="text10262-4-1-8-9-2-6-2-7-4-3-7"
           inkscape:label="wec_sosw_name_text"><tspan
             sodipodi:role="line"
             style="stroke-width:0.264583"
             x="-25.674089"
             y="-48.721184"
             id="tspan5024">Storm of Swords</tspan></text>
      </g>
    </g>
  </g>
</svg>
