<?xml version="1.0" encoding="UTF-8" standalone="no"?>
<!-- Created with Inkscape (http://www.inkscape.org/) -->

<svg
   width="38.293751mm"
   height="50.793751mm"
   viewBox="0 0 38.293751 50.793751"
   version="1.1"
   id="svg308"
   inkscape:export-filename="wec_4.svg"
   inkscape:export-xdpi="96"
   inkscape:export-ydpi="96"
   xmlns:inkscape="http://www.inkscape.org/namespaces/inkscape"
   xmlns:sodipodi="http://sodipodi.sourceforge.net/DTD/sodipodi-0.dtd"
   xmlns="http://www.w3.org/2000/svg"
   xmlns:svg="http://www.w3.org/2000/svg">
  <sodipodi:namedview
     id="namedview310"
     pagecolor="#ffffff"
     bordercolor="#000000"
     borderopacity="0.25"
     inkscape:showpageshadow="2"
     inkscape:pageopacity="0.0"
     inkscape:pagecheckerboard="0"
     inkscape:deskcolor="#d1d1d1"
     inkscape:document-units="mm"
     showgrid="false" />
  <defs
     id="defs305" />
  <g
     inkscape:label="Calque 1"
     inkscape:groupmode="layer"
     id="layer1"
     transform="translate(-88.383672,-50.690128)">
    <g
       id="g3200-2-5-5"
       inkscape:label="wec_cok"
       transform="translate(133.38367,140.69013)"
       style="stroke:none">
      <rect
         style="fill:#803300;stroke:#000000;stroke-width:0.79375;stroke-linecap:round;paint-order:fill markers stroke;stop-color:#000000"
         id="rect901-3-5-0-9"
         width="37.5"
         height="50"
         x="-44.603123"
         y="-89.603127"
         rx="1.3228769"
         ry="1.3228769"
         inkscape:label="wec_cok_area" />
      <g
         id="g163222-4-4-6"
         transform="translate(-41.853124,-89.085954)"
         inkscape:label="wec_cok_image"
         style="display:inline">
        <rect
           style="fill:#ffffff;stroke:#ffffff;stroke-width:0.79375;stroke-linecap:round;paint-order:fill markers stroke;stop-color:#000000"
           id="rect8977-7-8-2"
           width="27.103125"
           height="24.603125"
           x="-39.154686"
           y="-86.603127"
           rx="1.3228769"
           ry="1.322877"
           inkscape:label="wec_cok_image_area"
           transform="translate(41.853124,89.085954)" />
        <path
           d="m 27.342874,7.8516368 c 0.08265,-0.368119 0.03857,-0.716079 -0.004,-1.052604 -0.03641,-0.287386 -0.07075,-0.558788 -0.01881,-0.810775 0.12312,-0.597405 -0.258653,-1.253107 -0.605051,-1.757651 -0.386424,-0.562825 -0.804567,-0.642661 -1.35314,-0.694021 -0.02966,-0.0028 -0.05995,-0.0042 -0.09003,-0.0042 -0.368127,0 -0.675635,0.205767 -0.840857,0.316307 -0.04287,0.02867 -0.08717,0.05832 -0.100149,0.06093 -0.02055,0.0041 -0.06867,0.0047 -0.129553,0.0055 -0.163506,0.0022 -0.43712,0.0058 -0.762949,0.07551 -0.317468,0.06796 -0.571857,0.229447 -0.567118,0.360015 0.0018,0.04945 0.038,0.113183 0.200423,0.13584 0.340315,0.04752 0.641201,0.139593 0.882987,0.213551 0.0478,0.01462 0.09264,0.02835 0.134226,0.04059 0.261582,0.0771 0.503215,0.182468 0.585957,0.619332 0.05757,0.303785 -0.465414,0.652358 -0.926797,0.959947 -0.191384,0.127545 -0.372107,0.248037 -0.517694,0.366177 -0.507705,0.41201 -1.475735,1.247047 -1.785835,1.540427 -0.29395,0.278134 -2.766008,1.9710052 -3.430457,2.2947602 -0.679038,0.330837 -1.3408,0.849473 -1.506621,1.180675 -0.03717,0.07424 -0.04512,0.121288 -0.02584,0.152466 0.0084,0.0136 0.02584,0.02981 0.06094,0.02981 0.04178,0 0.099,-0.02406 0.148362,-0.04739 6.4e-5,0.006 0.0012,0.01211 0.0038,0.01837 0.01474,0.03557 0.06221,0.04011 0.101931,0.04011 0.108546,0 0.33481,-0.04453 0.610746,-0.119857 -0.0991,0.07316 -0.295731,0.199123 -0.474636,0.313737 -0.70723,0.453235 -1.021281,0.673336 -1.012373,0.779742 0.0049,0.05896 0.04392,0.129232 0.20192,0.129232 0.09699,0 0.215187,-0.02488 0.310181,-0.04488 0.04929,-0.01036 0.092,-0.01936 0.121499,-0.02279 -0.01075,0.02253 -0.03835,0.06127 -0.05792,0.0888 -0.06339,0.08906 -0.128947,0.181169 -0.08226,0.239458 0.014,0.01751 0.03784,0.02603 0.07278,0.02603 0.104537,0 0.327807,-0.07746 0.543724,-0.152371 0.154152,-0.05349 0.29974,-0.103997 0.387732,-0.121572 0.134357,-0.02683 0.785656,-0.363695 1.415423,-0.689479 0.469897,-0.24305 1.002515,-0.518519 1.059833,-0.524806 0.111605,0 1.013249,-0.06569 1.581973,-0.228015 0.12675,-0.03617 0.262158,-0.05451 0.402467,-0.05451 0.341111,0 0.670378,0.105932 0.952499,0.211134 -0.0018,0.06859 -0.0035,0.152626 -0.0053,0.255791 -0.0048,0.283034 -0.0069,0.576173 -0.0062,0.653628 9.49e-4,0.108189 0.205483,0.299112 0.494336,0.557006 0.118827,0.106093 0.26467,0.23634 0.291467,0.283187 -0.0484,0.03007 -0.122617,0.03096 -0.214647,0.03207 -0.160767,0.002 -0.380919,0.0046 -0.609278,0.178496 -0.132992,0.101295 -0.220918,0.246131 -0.240866,0.316657 -0.0019,0.0065 -0.0074,0.02632 0.0048,0.04255 0.0069,0.009 0.01734,0.01418 0.02883,0.01418 0.0096,0 0.01922,-0.0036 0.02959,-0.01087 l 0.02345,-0.01675 c 0.0745,-0.0533 0.24892,-0.178146 0.342607,-0.213741 0.126625,-0.04812 0.219641,-0.06773 0.321155,-0.06773 0.133277,0 0.290796,0.0342 0.534816,0.09735 0.149443,0.03865 0.277017,0.05746 0.390025,0.05746 0.146989,0 0.253725,-0.03108 0.366696,-0.06398 0.131458,-0.03827 0.267342,-0.07784 0.489531,-0.07784 0.04128,0 0.08481,0.0014 0.129421,0.0042 0.243415,0.01522 0.461493,0.14182 0.566323,0.20265 0.04512,0.02619 0.05878,0.03411 0.07354,0.03411 l 0.02247,-8.76e-4 0.0084,-0.01875 c 0.01104,-0.0245 -0.0028,-0.04008 -0.06944,-0.115023 -0.11189,-0.125829 -0.216589,-0.20281 -0.317782,-0.252586 0.06187,-0.01201 0.118988,-0.02848 0.1777,-0.04558 0.131459,-0.03827 0.267342,-0.07784 0.489502,-0.07784 0.04128,0 0.08481,0.0014 0.129422,0.0042 0.243414,0.01522 0.461529,0.14182 0.566322,0.20262 0.04515,0.02622 0.05881,0.03411 0.07357,0.03411 l 0.02247,-8.76e-4 0.0084,-0.01875 c 0.01104,-0.02451 -0.0028,-0.04008 -0.06944,-0.115023 -0.236887,-0.266437 -0.44199,-0.315511 -0.648619,-0.345645 -0.08115,-0.01179 -0.142499,-0.03903 -0.149187,-0.06618 -0.0055,-0.02222 0.02463,-0.05982 0.08064,-0.100566 0.09935,-0.07228 0.199277,-0.108925 0.297002,-0.108925 0.173151,0 0.280872,0.113533 0.292577,0.156693 0.0053,0.01958 0.02078,0.02651 0.03249,0.02651 0.01193,0 0.02769,-0.0072 0.03278,-0.02759 0.0096,-0.03801 -0.0019,-0.204592 -0.142791,-0.279945 -0.07036,-0.03766 -0.179255,-0.05838 -0.306647,-0.05838 -0.300915,0 -0.628313,0.105713 -0.898102,0.2864 -0.05375,-0.01087 -0.115263,-0.01672 -0.182088,-0.01672 -0.01855,0 -0.03723,5.72e-4 -0.05595,0.0014 -0.230433,-0.183964 -0.635915,-0.612147 -0.659273,-0.757764 -0.01537,-0.09602 -0.02434,-0.399392 -0.02434,-0.692787 v -0.0033 c 0.190938,-0.09484 0.384767,-0.206592 0.60957,-0.338686 1.125256,-0.660967 2.030294,-2.7424962 2.182825,-3.4220602 z m -3.44119,4.0801572 c -0.0025,0.201124 -0.0035,0.375837 -0.003,0.433148 9.49e-4,0.108159 0.205483,0.299082 0.494306,0.556976 0.112336,0.100281 0.248636,0.222007 0.285896,0.274644 -0.02527,0.01074 -0.05035,0.02202 -0.07516,0.03397 -0.03844,0.0053 -0.08334,0.0061 -0.133846,0.0066 -0.104093,0.0012 -0.233105,0.0031 -0.373092,0.05124 -0.233959,-0.201854 -0.576501,-0.575983 -0.598048,-0.710136 -0.01165,-0.07275 -0.01591,-0.264662 -0.01833,-0.481039 0.09292,-0.03181 0.231324,-0.08251 0.421305,-0.165433 z"
           fill="#ffffff"
           stroke-width="0.26458"
           inkscape:label="kc_logo"
           id="path15421"
           style="fill:#000000" />
        <path
           d="m 17.786305,16.665373 c -0.436651,0.131234 -0.732357,0.416427 -0.873118,0.872694 1.168172,0.499246 2.182477,1.496238 2.70734,2.654918 l -1.298308,1.296678 0.320614,0.319465 3.455848,-3.451598 -0.319905,-0.320089 -1.333586,1.331957 C 19.877291,19.111068 19.341554,18.74144 18.889304,18.289919 18.413718,17.815028 18.04098,17.259887 17.786305,16.665388 Z m 3.812464,2.775915 -0.808086,0.807094 1.287964,1.30355 1.372408,1.370708 1.382042,1.362348 1.354414,1.370707 1.262249,1.244043 v -1.614755 l -5.850991,-5.843766 z m -1.155634,1.154217 -0.694527,0.694336 5.815004,5.807778 H 26.10299 L 25.894575,25.94822 24.732708,25.737984 24.531235,24.58653 23.368659,24.376295 23.15882,23.215136 21.996245,23.0049 21.785747,21.84445 20.632877,21.643204 Z"
           fill="#ffffff"
           stroke-width="0.26458"
           inkscape:label="fd_logo"
           id="path15373"
           style="fill:#000000" />
        <path
           id="path14194-7-4"
           style="fill:#000000;stroke-width:0.0264583"
           d="m 9.1899819,7.9982876 c -0.0747,0.08035 -0.07754,0.341223 -0.0028,0.418772 0.04303,0.04872 0.04879,0.117596 0.04879,0.493581 v 0.436255 l -0.293175,-0.01423 c -0.163699,-0.0057 -0.341751,-0.01744 -0.396411,-0.02318 -0.08619,-0.0085 -0.103459,0.0031 -0.126444,0.06912 -0.02299,0.06019 -0.01736,0.08862 0.01992,0.131731 0.04303,0.04885 0.08319,0.05173 0.350467,0.04025 l 0.301679,-0.01423 v 0.129291 c 0,0.109044 0.01448,0.140327 0.109368,0.232154 l 0.108962,0.1061164 0.106116,-0.1089624 c 0.089,-0.09183 0.106522,-0.129256 0.106522,-0.232561 v -0.126038 l 0.330139,0.01423 c 0.2958641,0.01148 0.3361671,0.0057 0.3793341,-0.04025 0.03729,-0.04297 0.04304,-0.07181 0.01992,-0.132137 -0.02299,-0.06593 -0.04025,-0.07725 -0.126445,-0.06871 -0.05452,0.0057 -0.2383491,0.01703 -0.4077941,0.02277 l -0.310217,0.01463 v -0.450485 c 0,-0.390262 0.0057,-0.459098 0.05164,-0.50781 0.06321,-0.07167 0.06317,-0.272731 -0.0028,-0.373236 -0.06307,-0.09757 -0.186265,-0.103164 -0.266714,-0.01707 z m 2.7069721,0.352094 c -0.05207,-0.0172 -0.114308,-6.74e-4 -0.176046,0.05245 -0.08619,0.07461 -0.129519,0.229631 -0.09799,0.347214 0.01724,0.06887 -0.09174,0.464762 -0.243944,0.872103 -0.01724,0.04591 -0.525743,-0.1205 -0.614741,-0.200848 -0.089,-0.08315 -0.218222,-0.03998 -0.229714,0.07481 -0.0115,0.103305 0.03729,0.163443 0.134983,0.163443 0.04022,0 0.17481,0.03423 0.298425,0.0744 0.203923,0.06887 0.224088,0.08044 0.209792,0.137828 -0.05171,0.1721754 -0.04852,0.2153564 0.0089,0.3301394 0.03448,0.06313 0.06585,0.1175 0.0744,0.1175 0.03742,0 0.272811,-0.129056 0.272811,-0.149213 0,-0.01428 0.01726,-0.06915 0.04025,-0.123598 l 0.0431,-0.09758 0.206946,0.06912 c 0.114926,0.04017 0.223957,0.08615 0.238253,0.100424 0.03448,0.03444 0.132109,0.03732 0.17808,0.0057 0.01724,-0.01148 0.04055,-0.04891 0.05204,-0.08335 0.02592,-0.08315 -0.06907,-0.1835554 -0.152465,-0.1605974 -0.07751,0.02002 -0.614903,-0.160721 -0.597664,-0.203694 0.0057,-0.01722 0.06928,-0.203577 0.138235,-0.415926 0.09769,-0.298437 0.14055,-0.390123 0.189464,-0.41308 0.08045,-0.03444 0.166603,-0.249648 0.140674,-0.347214 -0.02011,-0.08175 -0.06177,-0.132826 -0.113841,-0.150026 z m -4.9797231,0.04391 c -0.06859,-0.06385 -0.160678,-0.07456 -0.238253,0.0028 -0.103433,0.103304 -0.06017,0.332761 0.08335,0.459022 0.06321,0.05445 0.112008,0.163339 0.212638,0.464715 l 0.129291,0.393157 -0.270372,0.08904 c -0.152206,0.05165 -0.298603,0.08579 -0.330138,0.07724 -0.02873,-0.0087 -0.08343,0.0087 -0.117907,0.0374 -0.05452,0.04297 -0.05998,0.06326 -0.037,0.1321374 0.03153,0.09183 0.157913,0.128949 0.226869,0.07156 0.05452,-0.04592 0.444992,-0.1750154 0.459429,-0.1520594 0.0057,0.01148 0.02586,0.06594 0.0431,0.1231934 0.02579,0.07741 0.06336,0.11473 0.16385,0.163443 0.07176,0.03444 0.140566,0.05737 0.152059,0.05163 0.01149,-0.0087 0.04617,-0.07429 0.07197,-0.14596 0.04023,-0.103305 0.04571,-0.149507 0.01992,-0.2211764 -0.01724,-0.04872 -0.0313,-0.09753 -0.0313,-0.111808 0,-0.02576 0.413761,-0.163349 0.528547,-0.174827 0.103433,-0.01148 0.146134,-0.07446 0.120346,-0.174828 -0.02579,-0.103304 -0.140675,-0.132342 -0.226868,-0.05773 -0.05171,0.04871 -0.594347,0.252672 -0.608642,0.229715 -0.0029,-0.0029 -0.06634,-0.18636 -0.138236,-0.407388 -0.106238,-0.327134 -0.128951,-0.427589 -0.114656,-0.533834 0.01584,-0.13487 -0.02939,-0.251653 -0.09798,-0.315501 z m -2.542309,1.411625 c -0.06601,0.03724 -0.06596,0.177685 -0.0057,0.2837904 0.05452,0.08889 0.18098,0.172387 0.261428,0.172387 0.02873,0 0.189462,0.137635 0.361851,0.30981 l 0.307366,0.306963 -0.19231,0.19231 c -0.109179,0.106105 -0.229687,0.206492 -0.275657,0.22077 -0.09769,0.03737 -0.123529,0.100483 -0.0805,0.19231 0.04303,0.100365 0.201173,0.08903 0.25289,-0.01707 0.01724,-0.04017 0.100434,-0.135137 0.178079,-0.215485 l 0.146367,-0.140268 0.09473,0.09189 c 0.08045,0.08035 0.115129,0.09148 0.244351,0.09148 h 0.149213 v -0.149212 c 0,-0.129062 -0.01144,-0.16319 -0.09189,-0.243539 l -0.09189,-0.09473 0.169542,-0.172388 c 0.09474,-0.09463 0.183651,-0.171981 0.203693,-0.171981 0.04877,0 0.126445,-0.09747 0.126445,-0.160597 0,-0.08035 -0.05433,-0.126444 -0.149213,-0.126444 -0.06321,0 -0.08913,0.0204 -0.11506,0.07765 -0.01724,0.04592 -0.123691,0.174697 -0.235814,0.289481 l -0.203693,0.20654 -0.322007,-0.321194 c -0.20112,-0.200872 -0.324446,-0.344541 -0.324446,-0.381774 2.8e-4,-0.1720354 -0.261334,-0.3267804 -0.407794,-0.2406944 z m 9.7411161,0.06871 c -0.05454,-0.02294 -0.128558,-0.01278 -0.206134,0.0374 -0.109179,0.07167 -0.160906,0.1493194 -0.163849,0.2354074 0,0.05445 -0.08366,0.154692 -0.316315,0.387058 l -0.315908,0.31591 -0.189463,-0.186618 c -0.103434,-0.103305 -0.206827,-0.229698 -0.226869,-0.28135 -0.03153,-0.07167 -0.05755,-0.09189 -0.120753,-0.09189 -0.04597,0 -0.09786,0.0144 -0.117906,0.03455 -0.07176,0.07167 -0.03143,0.149143 0.18987,0.355753 l 0.221176,0.206946 -0.09473,0.100017 c -0.08619,0.08889 -0.09488,0.111992 -0.08619,0.238253 l 0.0085,0.140675 0.140675,0.0085 c 0.126418,0.0087 0.149255,-1.06e-4 0.238253,-0.08619 l 0.100423,-0.09473 0.224023,0.235407 c 0.24709,0.261062 0.345088,0.301136 0.405355,0.169135 0.03742,-0.08315 -0.0086,-0.189463 -0.08335,-0.189463 -0.05171,0 -0.465528,-0.395674 -0.465528,-0.444386 0,-0.05165 0.586242,-0.61718 0.640761,-0.61718 0.149404,0 0.307371,-0.160638 0.307371,-0.312656 C 14.20559,9.953425 14.17054,9.8975166 14.116,9.8745776 Z M 9.1208639,10.061245 c -0.0088,0 -0.01433,0.160621 -0.01138,0.355753 v 0.358598 l -0.143927,0.01707 c -0.249894,0.03149 -0.617504,0.126597 -0.84161,0.215484 -0.117728,0.04885 -0.223956,0.08579 -0.238253,0.08579 -0.0143,0 -0.07791,-0.163326 -0.143927,-0.367136 -0.06895,-0.200871 -0.132028,-0.375988 -0.143521,-0.387466 -0.0086,-0.01148 -0.04282,0.02876 -0.07156,0.09189 l -0.05204,0.114654 -0.111808,-0.05732 c -0.06321,-0.03164 -0.120742,-0.05163 -0.129291,-0.0431 -0.0086,0.0087 0.04884,0.206687 0.129291,0.444792 l 0.14352,0.430562 -0.189463,0.143521 c -0.106236,0.07755 -0.27036,0.220736 -0.365104,0.315502 l -0.172383,0.174833 -0.393565,-0.392751 -0.39641,-0.396003 v 0.152059 0.149212 h -0.134987 -0.137829 l 0.614741,0.613928 0.611894,0.611081 0.06912,0.341523 c 0.03728,0.186452 0.06582,0.34712 0.06302,0.358598 -0.0057,0.01148 -0.31893,-0.224058 -0.695242,-0.525294 -0.528521,-0.418958 -0.723784,-0.559117 -0.844457,-0.599291 -0.169445,-0.05739 -0.264273,-0.06904 -0.264273,-0.02887 0,0.01148 0.04865,0.09768 0.106116,0.183771 0.08619,0.132001 0.267158,0.289524 0.959515,0.837544 l 0.8534,0.674507 0.03131,0.149212 c 0.01724,0.08035 0.02892,0.149166 0.02318,0.154905 -0.0029,0.0057 -0.273026,-0.146345 -0.594818,-0.338676 -0.390748,-0.229567 -0.643444,-0.358724 -0.746877,-0.384619 -0.324595,-0.08035 -0.358871,-0.03996 -0.157751,0.180925 0.09769,0.111843 0.28746,0.238053 0.853399,0.567985 0.399297,0.232366 0.732593,0.427262 0.738339,0.433002 0.0115,0.01148 0.09163,0.390623 0.08294,0.402102 -0.0057,0.0029 -0.272663,-0.13479 -0.597258,-0.306965 -0.568743,-0.301236 -0.59486,-0.313062 -0.770052,-0.313062 h -0.181335 l 0.0431,0.07766 c 0.089,0.169234 0.232816,0.266637 0.902188,0.622465 0.382059,0.200871 0.695146,0.369983 0.698089,0.369983 0,0.0029 0.05464,0.344368 0.123599,0.757448 l 0.120345,0.755009 h -0.324446 -0.324446 v 0.272404 0.272405 h 2.240631 2.2406321 v -0.272405 -0.269965 l -0.324446,-0.0085 -0.324446,-0.0085 0.126444,-0.774524 0.126445,-0.77493 0.646047,-0.344369 c 0.482548,-0.258262 0.675416,-0.375687 0.758667,-0.464714 0.169446,-0.183653 0.155096,-0.218112 -0.0805,-0.203694 -0.180938,0.01428 -0.232628,0.03456 -0.706627,0.289888 -0.281568,0.155236 -0.514262,0.278503 -0.520008,0.278503 -0.0115,0 0.06316,-0.370061 0.08335,-0.401696 0.0057,-0.01148 0.318887,-0.200683 0.692397,-0.418771 0.517165,-0.301236 0.706657,-0.430574 0.804204,-0.536679 0.198177,-0.220887 0.163731,-0.260867 -0.161004,-0.180519 -0.103433,0.02296 -0.347201,0.149189 -0.700528,0.358599 -0.298667,0.174975 -0.546072,0.318348 -0.548875,0.318348 -0.0028,0 0.0088,-0.07726 0.02887,-0.174828 0.02298,-0.106104 0.0571,-0.189681 0.08863,-0.212638 0.03167,-0.02002 0.390975,-0.303965 0.801765,-0.628157 0.71254,-0.568178 0.873077,-0.723274 0.942033,-0.915606 0.02299,-0.06593 -0.04002,-0.06277 -0.243944,0.0061 -0.123616,0.04297 -0.310176,0.174922 -0.795667,0.559445 -0.34758,0.27828 -0.640707,0.504966 -0.646453,0.504966 -0.0029,0 0.02605,-0.166625 0.06627,-0.373235 l 0.0744,-0.37283 0.517163,-0.516756 0.517163,-0.51635 H 12.674739 12.53935 V 11.40384 11.251781 l -0.327292,0.327292 -0.330545,0.327293 -0.229715,-0.215485 c -0.126418,-0.120523 -0.289952,-0.255312 -0.361851,-0.298426 -0.0719,-0.04592 -0.129291,-0.100189 -0.129291,-0.120346 0,-0.02016 0.05754,-0.209581 0.129291,-0.42487 0.07176,-0.215149 0.12619,-0.398802 0.1175,-0.404542 -0.0057,-0.0057 -0.06599,0.01435 -0.132136,0.04879 l -0.1175,0.06058 -0.04635,-0.11506 c -0.02593,-0.06593 -0.05447,-0.1175 -0.06302,-0.1175 -0.0115,0 -0.07741,0.17227 -0.146367,0.384619 l -0.129291,0.38462 -0.172387,-0.07197 c -0.218359,-0.09183 -0.6319661,-0.19772 -0.8818601,-0.223617 l -0.195563,-0.02033 V 10.41712 c 0,-0.195132 -0.0057,-0.355752 -0.01423,-0.355752 -0.0086,0 -0.0516,0.04304 -0.09758,0.09189 l -0.08619,0.09433 -0.09473,-0.09433 c -0.05452,-0.04871 -0.103622,-0.09189 -0.109369,-0.09189 z m 0.660684,1.466107 c 0.5344051,0.06593 1.0113121,0.306764 1.2526551,0.636696 0.06895,0.09463 0.134972,0.198126 0.143521,0.23256 0.0115,0.04592 -0.677731,3.939354 -0.809895,4.584941 l -0.01748,0.0805 h -0.9997681 -0.99936 l -0.01748,-0.0805 c -0.132164,-0.645587 -0.821389,-4.539027 -0.809896,-4.584941 0.0087,-0.03444 0.07456,-0.137934 0.143521,-0.23256 0.370425,-0.504907 1.194921,-0.754279 2.114186,-0.636696 z m -0.430969,0.944066 c -0.0115,0 -0.08914,0.120388 -0.172388,0.263867 -0.08325,0.146278 -0.163643,0.281254 -0.178079,0.301271 -0.01724,0.02296 -0.100314,-0.01405 -0.284196,-0.126038 -0.140714,-0.08889 -0.264262,-0.152106 -0.272811,-0.146367 -0.0115,0.01148 0.09736,0.430486 0.20654,0.803392 0.01444,0.04872 0.07178,0.05164 0.700934,0.05164 0.629149,0 0.6866391,-0.0029 0.7009341,-0.05164 0.10918,-0.373046 0.218439,-0.791913 0.206947,-0.803392 -0.0086,-0.0057 -0.132097,0.05748 -0.2728121,0.146367 -0.183881,0.111844 -0.266956,0.148995 -0.284195,0.126038 -0.0143,-0.02016 -0.09523,-0.154993 -0.178487,-0.301271 -0.08325,-0.143479 -0.160894,-0.263867 -0.172387,-0.263867 z m -3.470113,3.357085 -0.158157,0.470407 c -0.08619,0.261061 -0.149364,0.479211 -0.140675,0.487889 0.02018,0.02296 1.829872,0.02286 1.849914,0.0028 0.0086,-0.0085 -0.02879,-0.201043 -0.0805,-0.42487 -0.05452,-0.223828 -0.103258,-0.436019 -0.111808,-0.473253 l -0.01423,-0.06302 h -0.672474 z m 6.2681581,0 c -0.370565,0 -0.672067,0.0028 -0.672067,0.0085 0,0.0057 -0.0459,0.212239 -0.100424,0.459022 -0.05466,0.246784 -0.100424,0.461727 -0.100424,0.478945 0,0.03149 1.812547,0.04343 1.844221,0.01179 0.0086,-0.0085 -0.05448,-0.226687 -0.140674,-0.487889 l -0.158157,-0.470406 z m -0.241098,1.230701 v 1.351453 1.348607 h 0.847301 c 0.465449,0 0.847805,-0.0088 0.844861,-0.02317 0,-0.01148 -0.250111,-0.613729 -0.551721,-1.339663 l -0.551721,-1.320147 -0.29558,-0.0085 z m -5.4009351,0.0028 c -0.241344,0 -0.290034,0.0086 -0.310216,0.04879 -0.02299,0.04312 -1.031441,2.456158 -1.085961,2.599637 -0.01724,0.04592 0.04303,0.04879 0.833071,0.04879 h 0.850554 V 18.41064 17.062033 Z m 0.603356,0.918045 v 1.076202 1.075796 l -1.240864,0.0057 -1.244118,0.0085 -0.134983,0.272812 c -0.07176,0.149218 -0.134983,0.281255 -0.134983,0.292733 -0.0029,0.01428 0.617885,0.02277 1.376254,0.02277 h 1.378694 v 0.171981 0.172387 h -1.643373 -1.645814 l -0.152465,0.287042 -0.152059,0.287042 0.129291,0.0024 h 5.661955 5.6912291 l 0.157751,-0.0024 -0.152059,-0.287042 -0.152466,-0.287042 H 13.2232 11.591211 v -0.172387 -0.171981 h 1.36487 1.364464 l -0.04025,-0.09189 c -0.02004,-0.05165 -0.08327,-0.186535 -0.134982,-0.295579 l -0.09758,-0.200848 -1.226635,-0.0085 -1.229888,-0.0057 V 19.056249 17.980047 H 9.3505779 Z" />
      </g>
      <g
         id="g10269-6-7-5"
         inkscape:label="wec_cok_name">
        <rect
           style="fill:#ffb380;stroke:#ffffff;stroke-width:0.79375;stroke-linecap:round;paint-order:fill markers stroke;stop-color:#000000"
           id="rect8979-6-1-3"
           width="32.103127"
           height="15"
           x="-41.706249"
           y="-57.103127"
           rx="1.3228769"
           ry="1.322877"
           inkscape:label="wec_cok_name_area" />
        <text
           xml:space="preserve"
           style="font-size:3.52777px;line-height:1.25;font-family:cabin;-inkscape-font-specification:cabin;text-align:center;text-anchor:middle;stroke-width:0.264583"
           x="-25.712896"
           y="-48.707073"
           id="text10262-4-1-8"
           inkscape:label="wec_cok_name_text"><tspan
             sodipodi:role="line"
             style="stroke-width:0.264583"
             x="-25.712896"
             y="-48.707073"
             id="tspan15095">Clash of Kings</tspan></text>
      </g>
    </g>
  </g>
</svg>
