<?xml version="1.0" encoding="UTF-8" standalone="no"?>
<!-- Created with Inkscape (http://www.inkscape.org/) -->

<svg
   width="38.293751mm"
   height="50.793751mm"
   viewBox="0 0 38.293751 50.793751"
   version="1.1"
   id="svg308"
   inkscape:export-filename="wec_6.svg"
   inkscape:export-xdpi="96"
   inkscape:export-ydpi="96"
   xmlns:inkscape="http://www.inkscape.org/namespaces/inkscape"
   xmlns:sodipodi="http://sodipodi.sourceforge.net/DTD/sodipodi-0.dtd"
   xmlns="http://www.w3.org/2000/svg"
   xmlns:svg="http://www.w3.org/2000/svg">
  <sodipodi:namedview
     id="namedview310"
     pagecolor="#ffffff"
     bordercolor="#000000"
     borderopacity="0.25"
     inkscape:showpageshadow="2"
     inkscape:pageopacity="0.0"
     inkscape:pagecheckerboard="0"
     inkscape:deskcolor="#d1d1d1"
     inkscape:document-units="mm"
     showgrid="false" />
  <defs
     id="defs305" />
  <g
     inkscape:label="Calque 1"
     inkscape:groupmode="layer"
     id="layer1"
     transform="translate(-104.38024,-70.864118)">
    <g
       id="g3200-2-5-5-3"
       inkscape:label="wec_got"
       transform="translate(149.38024,160.86412)"
       style="stroke:none">
      <rect
         style="fill:#803300;stroke:#000000;stroke-width:0.79375;stroke-linecap:round;paint-order:fill markers stroke;stop-color:#000000"
         id="rect901-3-5-0-9-3"
         width="37.5"
         height="50"
         x="-44.603123"
         y="-89.603127"
         rx="1.3228769"
         ry="1.3228769"
         inkscape:label="wec_got_area" />
      <g
         id="g163222-4-4-6-3"
         transform="translate(-41.853124,-89.085954)"
         inkscape:label="wec_got_image"
         style="display:inline">
        <rect
           style="fill:#ffffff;stroke:#ffffff;stroke-width:0.79375;stroke-linecap:round;paint-order:fill markers stroke;stop-color:#000000"
           id="rect8977-7-8-2-8"
           width="27.103125"
           height="24.603125"
           x="-39.154686"
           y="-86.603127"
           rx="1.3228769"
           ry="1.322877"
           inkscape:label="wec_got_image_area"
           transform="translate(41.853124,89.085954)" />
        <path
           d="M 24.801183,8.4088685 C 22.202734,6.9416581 19.245879,6.1659714 16.250002,6.1659714 c -2.99615,0 -5.953141,0.7756867 -8.5513176,2.2428971 -0.042421,0.02393 -0.068799,0.069615 -0.068391,0.1184265 0.049628,6.439355 3.4094866,12.272846 8.5593396,14.861233 0.01876,0.0095 0.03957,0.01428 0.06037,0.01428 0.02053,0 0.04133,-0.0048 0.06023,-0.01428 5.149444,-2.588115 8.509303,-8.421606 8.559475,-14.861233 2.72e-4,-0.048812 -0.02611,-0.094496 -0.06853,-0.1184265 z"
           id="path16136"
           style="display:inline;stroke:none;stroke-width:0.264583" />
        <path
           d="M 19.673632,9.056161 C 19.61903,8.9515855 19.51081,8.8852617 19.392773,8.8852617 h -4.631186 c -0.140053,0 -0.263476,0.092695 -0.303548,0.2268488 L 12.80369,14.656 c -0.02863,0.0959 -0.01026,0.199131 0.04954,0.279354 0.05979,0.08026 0.153992,0.126986 0.254013,0.126986 h 2.59671 l -1.046105,5.241806 c -0.03045,0.152447 0.05421,0.304776 0.199845,0.359142 0.03631,0.01354 0.07377,0.02023 0.110712,0.02023 0.111108,0 0.217623,-0.0586 0.275355,-0.15997 l 4.079644,-7.164145 c 0.05583,-0.09808 0.05527,-0.219088 -0.0014,-0.316654 -0.0567,-0.09757 -0.161,-0.158228 -0.273851,-0.158228 H 17.21114 l 2.441451,-3.5009392 c 0.06752,-0.096814 0.07563,-0.222771 0.02102,-0.3274244 z"
           id="path16430"
           style="fill:#ffffff;stroke-width:0.264582" />
      </g>
      <g
         id="g10269-6-7-5-8"
         inkscape:label="wec_got_name">
        <rect
           style="fill:#ffb380;stroke:#ffffff;stroke-width:0.79375;stroke-linecap:round;paint-order:fill markers stroke;stop-color:#000000"
           id="rect8979-6-1-3-8"
           width="32.103127"
           height="15"
           x="-41.706249"
           y="-57.103127"
           rx="1.3228769"
           ry="1.322877"
           inkscape:label="wec_got_name_area" />
        <text
           xml:space="preserve"
           style="font-size:3.52777px;line-height:1.25;font-family:cabin;-inkscape-font-specification:cabin;text-align:center;text-anchor:middle;stroke-width:0.264583"
           x="-25.712896"
           y="-48.707073"
           id="text10262-4-1-8-9"
           inkscape:label="wec_got_name_text"><tspan
             sodipodi:role="line"
             style="stroke-width:0.264583"
             x="-25.712896"
             y="-48.707073"
             id="tspan16034">Game of Thrones</tspan></text>
      </g>
    </g>
  </g>
</svg>
