<?xml version="1.0" encoding="UTF-8" standalone="no"?>
<!-- Created with Inkscape (http://www.inkscape.org/) -->

<svg
   width="38.293751mm"
   height="50.793751mm"
   viewBox="0 0 38.293751 50.793751"
   version="1.1"
   id="svg204"
   xmlns="http://www.w3.org/2000/svg"
   xmlns:svg="http://www.w3.org/2000/svg">
  <defs
     id="defs201" />
  <g
     id="layer1"
     transform="translate(-60.691832,-105.53861)">
    <g
       id="g3200-2-5-5-3-7-3-2-2-1-1"
       transform="translate(105.69183,195.53861)"
       style="stroke:none">
      <rect
         style="fill:#803300;stroke:#000000;stroke-width:0.79375;stroke-linecap:round;paint-order:fill markers stroke;stop-color:#000000"
         id="rect901-3-5-0-9-3-6-6-6-3-2-5"
         width="37.5"
         height="50"
         x="-44.603123"
         y="-89.603127"
         rx="1.3228769"
         ry="1.3228769" />
      <g
         id="g163222-4-4-6-3-4-7-1-7-9-5"
         transform="translate(-41.853124,-89.085954)"
         style="display:inline">
        <rect
           style="fill:#ffffff;stroke:#ffffff;stroke-width:0.79375;stroke-linecap:round;paint-order:fill markers stroke;stop-color:#000000"
           id="rect8977-7-8-2-8-3-5-8-5-3-4"
           width="27.103125"
           height="24.603125"
           x="-39.154686"
           y="-86.603127"
           rx="1.3228769"
           ry="1.322877"
           transform="translate(41.853124,89.085954)" />
        <circle
           cx="-25.65469"
           cy="-74.103127"
           fill="#fce94f"
           stop-color="#000000"
           style="fill:#000000;stroke:none;paint-order:fill markers stroke"
           id="ellipse19465-4"
           r="8.5"
           transform="translate(41.853123,89.085954)" />
        <path
           fill="#000000"
           d="m -26.426472,-80.306213 c -0.04335,0 -0.08704,0.0011 -0.13081,0.0037 -0.35984,0.02055 -0.722781,0.124651 -0.928007,0.25525 l -1.87e-4,1.718836 c 0.06777,-0.0022 0.135745,-0.0035 0.203863,-0.0033 0.549417,8.45e-4 1.106824,0.07721 1.60887,0.223532 l 2.35e-4,-2.056192 c -0.165281,-0.08266 -0.450634,-0.14169 -0.753962,-0.14176 z m 1.897183,0.215236 c -0.280207,0.0036 -0.542251,0.05555 -0.704147,0.131491 l -1.88e-4,1.823447 v 0.179944 c 0.904323,0.368205 1.522962,0.998171 1.380122,1.850752 l -0.02256,0.13464 -0.130692,0.03933 c -0.410026,0.123433 -0.819398,0.227996 -1.227149,0.313338 v 0.592935 c 0.60064,-0.01654 1.206052,-0.06314 1.812707,-0.143288 l 4.71e-4,-4.650799 c -0.194653,-0.130716 -0.552377,-0.240684 -0.912687,-0.266179 -0.06561,-0.0046 -0.13121,-0.0064 -0.195875,-0.0056 z m -3.871061,0.36085 c -0.02763,-3.55e-4 -0.05578,-2.31e-4 -0.08431,4.71e-4 -0.0981,0.0023 -0.200504,0.01103 -0.303188,0.02707 -0.368204,0.05766 -0.739628,0.201256 -0.949436,0.361907 l -2.31e-4,1.714255 c 0.441939,-0.371494 1.097424,-0.590796 1.812827,-0.670616 l 1.69e-4,-1.362052 c -0.113256,-0.04117 -0.282393,-0.06851 -0.475824,-0.07103 z m 6.071595,0.0813 c -0.253866,0.0028 -0.486914,0.04535 -0.635441,0.109383 l -4.7e-4,4.304307 c 0.589175,-0.09446 1.17863,-0.221158 1.765173,-0.384371 l 0.04676,-3.723097 c -0.19625,-0.138635 -0.555667,-0.25906 -0.917575,-0.294963 -0.0869,-0.0086 -0.173834,-0.01215 -0.258472,-0.01126 z m -5.23464,1.743556 c -1.262281,0.0165 -2.382803,0.478525 -2.300092,1.564929 0.372105,-0.09206 0.72466,-0.13847 1.055974,-0.143335 0.818651,-0.01198 1.50884,0.22802 2.051748,0.648836 0.813199,-0.07308 1.641343,-0.234975 2.476912,-0.477328 0.0033,-0.970138 -1.741113,-1.613262 -3.284542,-1.593125 z m -1.148483,1.848073 c -0.03045,-7e-5 -0.06116,2.82e-4 -0.09211,0.0011 -0.405472,0.01023 -0.856482,0.0947 -1.352653,0.259341 0.136049,1.26435 0.618569,2.500361 1.374599,3.368262 0.146295,0.168007 0.302083,0.322196 0.467011,0.460902 0.688545,0.218103 1.627432,0.303516 2.597265,0.285259 0.08875,-1.311278 -0.204828,-2.546113 -0.850442,-3.354025 -0.499674,-0.625267 -1.199874,-1.019553 -2.143718,-1.020822 z m 3.038828,0.523569 c -0.219889,0.03847 -0.439167,0.07087 -0.65781,0.09752 0.03618,0.04088 0.0715,0.08272 0.105787,0.125618 0.07393,0.09251 0.143194,0.189436 0.208493,0.289817 0.233001,0.0033 0.466847,0.003 0.701562,-0.0025 h -0.358053 v -0.510434 z m 4.507206,0.360521 c -1.536873,0.418866 -3.089018,0.59707 -4.601971,0.594838 0.399409,0.825793 0.559896,1.834984 0.493752,2.880784 0.998217,-0.04888 1.997985,-0.193384 2.777089,-0.375559 0.627218,-0.770247 1.113074,-1.812074 1.33113,-3.100063 z m -1.188923,3.516836 c -0.900751,0.214885 -2.066599,0.377276 -3.216163,0.410125 -1.120123,0.03195 -2.216654,-0.05235 -3.041695,-0.358618 l -2.31e-4,1.854652 c 0.638825,0.295316 1.795532,0.474765 2.991646,0.47695 1.203631,0.0022 2.448759,-0.168547 3.266142,-0.488111 l 2.84e-4,-1.894998 z"
           id="path152766"
           style="fill:#f9f9f9;stroke:none;stroke-width:0.264583"
           transform="translate(41.853123,89.085954)" />
        <path
           style="display:inline;fill:#ffffff;stroke:#ffffff;stroke-width:3;stroke-linecap:butt;stroke-linejoin:miter;stroke-dasharray:none;stroke-opacity:1"
           d="M 9.0429654,23.542359 24.042965,6.0423595"
           id="path1621-2-4-5" />
      </g>
      <g
         id="g10269-6-7-5-8-0-9-7-8-7-6">
        <rect
           style="fill:#ffb380;stroke:#ffffff;stroke-width:0.79375;stroke-linecap:round;paint-order:fill markers stroke;stop-color:#000000"
           id="rect8979-6-1-3-8-9-3-9-9-8-9"
           width="32.103127"
           height="15"
           x="-41.706249"
           y="-57.103127"
           rx="1.3228769"
           ry="1.322877" />
        <text
           xml:space="preserve"
           style="font-size:3.52777px;line-height:1.25;font-family:cabin;-inkscape-font-specification:cabin;text-align:center;text-anchor:middle;stroke-width:0.264583"
           x="-25.674089"
           y="-48.721184"
           id="text10262-4-1-8-9-2-6-2-7-4-3"><tspan
             style="stroke-width:0.264583"
             x="-25.674089"
             y="-48.721184"
             id="tspan4089">Web of Lies</tspan></text>
      </g>
    </g>
  </g>
</svg>
