<?xml version="1.0" encoding="UTF-8" standalone="no"?>
<!-- Created with Inkscape (http://www.inkscape.org/) -->

<svg
   width="38.293751mm"
   height="50.793751mm"
   viewBox="0 0 38.293751 50.793751"
   version="1.1"
   id="svg308"
   xmlns="http://www.w3.org/2000/svg"
   xmlns:svg="http://www.w3.org/2000/svg">
  <defs
     id="defs305" />
  <g
     id="layer1"
     transform="translate(-80.917642,-97.732158)">
    <g
       id="g3200"
       transform="translate(125.91764,187.73216)"
       style="stroke:none">
      <rect
         style="fill:#803300;stroke:#000000;stroke-width:0.79375;stroke-linecap:round;paint-order:fill markers stroke;stop-color:#000000"
         id="rect901-3"
         width="37.5"
         height="50"
         x="-44.603123"
         y="-89.603127"
         rx="1.3228769"
         ry="1.3228769" />
      <g
         id="g12268">
        <rect
           style="fill:#ffffff;stroke:#ffffff;stroke-width:0.79375;stroke-linecap:round;paint-order:fill markers stroke;stop-color:#000000"
           id="rect8977"
           width="27.103125"
           height="24.603125"
           x="-39.154686"
           y="-86.603127"
           rx="1.3228769"
           ry="1.322877" />
        <path
           id="rect11177"
           style="fill:#010002;stroke:none;stroke-width:0.264584"
           d="m -30.111396,-72.718778 v 1.09709 h 0.19482 v -1.09709 z m 0.321428,0.03772 v 0.771013 l 1.564762,-0.771013 z m -4.143417,1.265039 0.02377,0.09715 c 0.0099,0.04152 1.001901,4.183552 0.19017,5.215702 -0.115257,0.147093 -0.259215,0.218592 -0.440284,0.218592 h -0.330212 v 0.156579 h 4.308264 v 0.864547 h -3.952213 c -0.465379,0 -0.852089,-0.378625 -0.861963,-0.844393 l -0.0047,-0.23151 -0.136943,0.187068 c -0.234087,0.320476 -0.358117,0.698546 -0.358117,1.092957 v 0.315743 c 0,1.023663 0.832554,1.856217 1.856217,1.856217 h 7.07192 c 1.023857,0 1.856734,-0.832554 1.856734,-1.856217 v -0.315743 c 0,-0.925018 -0.691276,-1.715426 -1.60817,-1.837614 l -0.248047,-0.03307 0.185001,0.168465 c 0.178321,0.16329 0.280603,0.394717 0.280603,0.635104 0,0.475642 -0.386643,0.862996 -0.862479,0.862996 h -3.060795 v -0.864547 h 2.186946 c 0.440255,0 0.772863,-0.161951 0.990121,-0.481624 0.905244,-1.332464 -0.529799,-5.001406 -0.591695,-5.156791 l -0.01964,-0.04961 z" />
        <path
           d="m -31.115842,-75.677467 c 0.1464,-0.277639 0.421922,-0.964581 -0.07055,-1.65741 -0.624604,-0.878782 -1.495552,-3.489593 -0.916727,-5.268248 h 0.567052 v -3.51496 h -0.677582 v 0.719932 h -0.677583 v -0.719932 h -0.762281 v 0.719932 h -0.677582 v -0.719932 h -0.719932 v 0.719932 h -0.677583 v -0.719932 h -0.719931 v 3.51496 h 0.595298 c 0.578826,1.778655 -0.295595,4.389466 -0.920242,5.268248 -0.492475,0.692786 -0.22754,1.385064 -0.08114,1.662704 -0.172106,0.01614 -0.313848,0.15559 -0.313848,0.331888 v 0.762281 c 0,0.187097 0.165796,0.359966 0.352894,0.359966 h 0.02825 v 0.719931 h 5.590058 v -0.719931 h 0.05645 c 0.187097,0 0.324689,-0.172869 0.324689,-0.359966 v -0.762281 c 0,-0.176256 -0.12764,-0.321005 -0.299703,-0.337182 z"
           id="path10606"
           style="stroke:none;stroke-width:0.264583" />
        <path
           d="m -13.906594,-67.753267 h -0.254835 c 0.112109,-0.163884 0.464345,-0.775083 -0.03126,-1.386755 -0.5734,-0.707827 -1.714222,-2.82735 -1.175009,-4.246616 h 0.04201 c 0.189986,0 0.329702,-0.154036 0.329702,-0.344022 v -0.043 c 0,-0.189987 -0.139716,-0.344023 -0.329702,-0.344023 h -0.05268 c 0.469462,-0.450067 0.762225,-1.082983 0.762225,-1.784617 0,-1.365598 -1.107065,-2.472663 -2.472662,-2.472663 -1.365598,0 -2.472663,1.107065 -2.472663,2.472663 0,0.701634 0.292763,1.33455 0.762225,1.784617 h -0.09568 c -0.189987,0 -0.358343,0.154036 -0.358343,0.344023 v 0.043 c 0,0.189986 0.168356,0.344022 0.358343,0.344022 h 0.0851 c 0.539213,1.419266 -0.601609,3.538789 -1.175009,4.246616 -0.495565,0.611672 -0.143371,1.222871 -0.03126,1.386755 h -0.297924 c -0.189986,0 -0.358342,0.154036 -0.358342,0.344023 v 0.774051 c 0,0.189986 0.168356,0.344022 0.358342,0.344022 h 0.02868 v 0.688046 h 6.364419 v -0.688046 c 0.215014,0 0.344023,-0.154036 0.344023,-0.344022 v -0.774051 c 0,-0.189987 -0.139716,-0.344023 -0.329703,-0.344023 z"
           id="path10795"
           style="stroke:none;stroke-width:0.264583" />
        <path
           d="m -20.594285,-80.264023 c 0.63951,0 1.159498,-0.518401 1.159498,-1.15791 0,-0.63951 -0.469383,-1.072698 -1.156367,-1.31513 -0.486023,-0.171542 -0.772713,-0.464151 -0.986755,-0.832495 -0.214042,-0.368344 -0.685783,-0.940138 -1.307624,-0.940138 -0.250109,0 -0.849049,0 -0.849049,0 v -0.729055 c -4.588758,1.71671 -3.103588,7.890949 -3.103588,7.890949 h 0.916423 v 0.600398 h -0.273139 c -0.189468,0 -0.370145,0.153616 -0.370145,0.343085 v 0.04288 c 0,0.141051 0.09872,0.262074 0.220432,0.314823 -0.376107,0.645428 -0.06086,1.276919 0.03264,1.443486 h -0.22605 c -0.189469,0 -0.370146,0.153617 -0.370146,0.343085 v 0.771941 c 0,0.189468 0.171542,0.343084 0.343085,0.343084 v 0.68617 h 5.660898 v -0.689129 c 0.171542,-0.02114 0.300199,-0.165238 0.300199,-0.340125 v -0.771941 c 0,-0.189468 -0.126556,-0.343085 -0.316024,-0.343085 h -0.183122 c 0.09353,-0.166567 0.381768,-0.798058 0.0056,-1.443486 0.121709,-0.05275 0.193328,-0.173772 0.193328,-0.314823 v -0.04288 c 0,-0.189469 -0.126556,-0.343085 -0.316024,-0.343085 h -0.32726 v -0.600398 h 1.034915 c -0.707655,-2.315822 -2.844773,-3.559504 -2.844773,-3.559504 h 1.723229 c 0.190455,0.38121 0.585217,0.643283 1.039847,0.643283 z"
           id="path10984"
           style="stroke:none;stroke-width:0.264583" />
      </g>
      <g
         id="g10269">
        <rect
           style="fill:#ffb380;stroke:#ffffff;stroke-width:0.79375;stroke-linecap:round;paint-order:fill markers stroke;stop-color:#000000"
           id="rect8979"
           width="32.103127"
           height="15"
           x="-41.706249"
           y="-57.103127"
           rx="1.3228769"
           ry="1.322877" />
        <text
           xml:space="preserve"
           style="font-size:3.52777px;line-height:1.25;font-family:cabin;-inkscape-font-specification:cabin;text-align:center;text-anchor:middle;stroke-width:0.264583"
           x="-25.712896"
           y="-48.707073"
           id="text10262"><tspan
             style="stroke-width:0.264583"
             x="-25.712896"
             y="-48.707073"
             id="tspan10480">Mustering</tspan></text>
      </g>
    </g>
  </g>
</svg>
