<?xml version="1.0" encoding="UTF-8" standalone="no"?>
<!-- Created with Inkscape (http://www.inkscape.org/) -->

<svg
   width="38.293751mm"
   height="50.793751mm"
   viewBox="0 0 38.293751 50.793751"
   version="1.1"
   id="svg204"
   inkscape:export-filename="wec_13.svg"
   inkscape:export-xdpi="96"
   inkscape:export-ydpi="96"
   xmlns:inkscape="http://www.inkscape.org/namespaces/inkscape"
   xmlns:sodipodi="http://sodipodi.sourceforge.net/DTD/sodipodi-0.dtd"
   xmlns="http://www.w3.org/2000/svg"
   xmlns:svg="http://www.w3.org/2000/svg">
  <sodipodi:namedview
     id="namedview206"
     pagecolor="#ffffff"
     bordercolor="#000000"
     borderopacity="0.25"
     inkscape:showpageshadow="2"
     inkscape:pageopacity="0.0"
     inkscape:pagecheckerboard="0"
     inkscape:deskcolor="#d1d1d1"
     inkscape:document-units="mm"
     showgrid="false" />
  <defs
     id="defs201" />
  <g
     inkscape:label="Calque 1"
     inkscape:groupmode="layer"
     id="layer1"
     transform="translate(-66.043242,-133.51905)">
    <g
       id="g3200-2-5-5-3-7-3-2-2"
       inkscape:label="wec_roa"
       transform="translate(111.04324,223.51905)"
       style="stroke:none">
      <rect
         style="fill:#803300;stroke:#000000;stroke-width:0.79375;stroke-linecap:round;paint-order:fill markers stroke;stop-color:#000000"
         id="rect901-3-5-0-9-3-6-6-6-3"
         width="37.5"
         height="50"
         x="-44.603123"
         y="-89.603127"
         rx="1.3228769"
         ry="1.3228769"
         inkscape:label="wec_roa_area" />
      <g
         id="g163222-4-4-6-3-4-7-1-7"
         transform="translate(-41.853124,-89.085954)"
         inkscape:label="wec_roa_image"
         style="display:inline">
        <rect
           style="fill:#ffffff;stroke:#ffffff;stroke-width:0.79375;stroke-linecap:round;paint-order:fill markers stroke;stop-color:#000000"
           id="rect8977-7-8-2-8-3-5-8-5"
           width="27.103125"
           height="24.603125"
           x="-39.154686"
           y="-86.603127"
           rx="1.3228769"
           ry="1.322877"
           inkscape:label="wec_roa_image_area"
           transform="translate(41.853124,89.085954)" />
        <circle
           cx="16.130026"
           cy="15.013846"
           fill="#fce94f"
           stop-color="#000000"
           style="fill:#000000;stroke:none;paint-order:fill markers stroke"
           id="ellipse19465-6"
           r="8.5" />
        <path
           id="path152089"
           style="font-size:3.52777px;line-height:1.25;font-family:cabin;-inkscape-font-specification:cabin;text-align:center;text-anchor:middle;fill:#ffffff;stroke:none;stroke-width:0.264583"
           d="m 13.874091,9.6221802 c -0.332118,0.0028 -0.644739,0.08252 -0.911055,0.24288 -0.02826,0.01704 -0.04474,0.04816 -0.04289,0.08113 0.0018,0.03298 0.02164,0.06223 0.05168,0.07596 v 5.16e-4 c 0.346243,0.158283 0.592943,0.47593 0.660425,0.850594 0.0665,0.369405 -0.04984,0.747366 -0.311092,1.015959 L 11.424633,9.9926942 c -0.05205,-0.05209 -0.117734,-0.08837 -0.189652,-0.104386 l -0.646472,-0.14366 c -0.02976,-0.0066 -0.06061,0.0022 -0.08217,0.02377 -0.02155,0.02155 -0.0304,0.05245 -0.02377,0.08216 l 0.14366,0.6464718 c 0.01602,0.07188 0.05233,0.137598 0.104387,0.189652 l 1.896525,1.896526 c -0.268515,0.261174 -0.646672,0.377593 -1.015959,0.311092 -0.374586,-0.06744 -0.69239,-0.3143 -0.850594,-0.660425 h -5.16e-4 c -0.01374,-0.03007 -0.04299,-0.05031 -0.07596,-0.05219 -0.03298,-0.0019 -0.06409,0.0151 -0.08113,0.04341 -0.488665,0.811629 -0.228235,2.055307 0.675411,2.958993 0.903647,0.903685 2.147881,1.164076 2.95951,0.675411 0.0283,-0.01704 0.04474,-0.0482 0.04289,-0.08113 -0.0019,-0.03298 -0.02165,-0.06222 -0.05168,-0.07596 h -5.17e-4 c -0.346243,-0.158283 -0.592943,-0.47593 -0.660425,-0.850595 -0.0665,-0.369404 0.05032,-0.747921 0.311609,-1.016475 l 3.495394,3.495911 c -0.07412,0.30828 0.008,0.646601 0.248563,0.887284 l 0.387573,0.387056 1.332219,-1.332218 -0.387057,-0.387573 c -0.240641,-0.240644 -0.578962,-0.32272 -0.887284,-0.248564 l -3.495394,-3.495394 c 0.268476,-0.261173 0.646156,-0.377593 1.015442,-0.311092 0.374586,0.06744 0.692907,0.313744 0.851111,0.659908 v 5.17e-4 c 0.01374,0.03007 0.04299,0.04983 0.07596,0.05168 0.03298,0.0018 0.06409,-0.01459 0.08113,-0.04289 0.488666,-0.811629 0.228752,-2.055824 -0.674894,-2.959509 -0.564779,-0.5648038 -1.262755,-0.8782748 -1.904793,-0.9146728 -0.04815,-0.0027 -0.09622,-0.004 -0.143661,-0.0036 z m 6.75411,1.9776578 c -0.105833,0.165805 -0.327815,0.320972 -0.518315,0.384472 l 0.05633,0.314193 c 0.09878,-0.03175 0.19757,-0.07791 0.366902,-0.215491 v 1.986442 h 0.35295 V 11.599838 Z M 19.12545,12.47472 v 0.451652 h -0.511596 v 0.30334 h 0.511596 v 0.479557 h 0.282154 V 13.229712 H 19.9192 v -0.30334 H 19.407604 V 12.47472 Z m 0.634587,5.214668 -1.332218,1.332735 1.770951,1.770952 c 0.183957,0.183956 0.424956,0.275952 0.666109,0.275952 0.241154,0 0.482114,-0.092 0.666109,-0.275952 0.367874,-0.367953 0.367913,-0.964785 0,-1.332735 z m -6.185669,0.409794 c -0.02594,0 -0.04959,0.01489 -0.06098,0.03824 l -0.552421,1.118795 -1.23455,0.179317 c -0.02573,0.0038 -0.04717,0.02173 -0.05529,0.04651 -0.008,0.02464 -0.0011,0.05167 0.01757,0.06976 l 0.893486,0.870748 -0.211357,1.229899 c -0.0044,0.0256 0.0064,0.05137 0.02739,0.06666 0.02109,0.01542 0.04896,0.01737 0.07183,0.0052 l 1.104326,-0.580353 1.104325,0.580326 c 0.01,0.0052 0.02119,0.0078 0.03204,0.0078 0.01413,0 0.02785,-0.0043 0.03979,-0.01292 0.02102,-0.01529 0.03182,-0.04107 0.02739,-0.06666 l -0.210839,-1.229432 0.893486,-0.871265 c 0.01857,-0.01822 0.02511,-0.04512 0.01705,-0.06976 -0.0081,-0.02471 -0.02956,-0.04276 -0.05529,-0.04651 l -1.23455,-0.179319 -0.552421,-1.118795 c -0.01147,-0.02334 -0.03504,-0.03824 -0.06098,-0.03824 z" />
        <path
           style="display:inline;fill:#ffffff;stroke:#ffffff;stroke-width:3;stroke-linecap:butt;stroke-linejoin:miter;stroke-dasharray:none;stroke-opacity:1"
           d="M 7.3800231,22.763844 22.380023,5.2638447"
           id="path1621-2"
           inkscape:label="path1621-2" />
      </g>
      <g
         id="g10269-6-7-5-8-0-9-7-8"
         inkscape:label="wec_roa_name">
        <rect
           style="fill:#ffb380;stroke:#ffffff;stroke-width:0.79375;stroke-linecap:round;paint-order:fill markers stroke;stop-color:#000000"
           id="rect8979-6-1-3-8-9-3-9-9"
           width="32.103127"
           height="15"
           x="-41.706249"
           y="-57.103127"
           rx="1.3228769"
           ry="1.322877"
           inkscape:label="wec_roa_name_area" />
        <text
           xml:space="preserve"
           style="font-size:3.52777px;line-height:1.25;font-family:cabin;-inkscape-font-specification:cabin;text-align:center;text-anchor:middle;stroke-width:0.264583"
           x="-25.674089"
           y="-48.721184"
           id="text10262-4-1-8-9-2-6-2-7"
           inkscape:label="wec_roa_name_text"><tspan
             sodipodi:role="line"
             style="stroke-width:0.264583"
             x="-25.674089"
             y="-48.721184"
             id="tspan1060-3">Rain of Automn</tspan></text>
      </g>
    </g>
  </g>
</svg>
