<svg width="17mm" height="17mm" inkscape:version="1.2 (1:1.2+202206011327+fc4e4096c5)" sodipodi:docname="baratheon_logo.svg" version="1.1" viewBox="0 0 17 17" xmlns="http://www.w3.org/2000/svg" xmlns:inkscape="http://www.inkscape.org/namespaces/inkscape" xmlns:sodipodi="http://sodipodi.sourceforge.net/DTD/sodipodi-0.dtd">
 <sodipodi:namedview bordercolor="#666666" borderopacity="1.0" inkscape:current-layer="layer1" inkscape:cx="70.224542" inkscape:cy="49.851028" inkscape:deskcolor="#d1d1d1" inkscape:document-units="mm" inkscape:pagecheckerboard="0" inkscape:pageopacity="0.0" inkscape:showpageshadow="2" inkscape:window-height="1403" inkscape:window-maximized="1" inkscape:window-width="2560" inkscape:window-x="3840" inkscape:window-y="0" inkscape:zoom="11.313709" pagecolor="#ffffff" showgrid="true" showguides="false">
  <inkscape:grid dotted="false" originx="0" originy="0" spacingx="0.5" spacingy="0.5" type="xygrid" units="mm"/>
 </sodipodi:namedview>
 <g inkscape:groupmode="layer" inkscape:label="Layer 1">
  <ellipse cx="8.5" cy="8.5" rx="8.5" ry="8.5" fill="#fce94f" stop-color="#000000" style="paint-order:fill markers stroke"/>
  <path d="m9.1488 16.338c0.018157-0.05073 0.048016-0.12053 0.066361-0.1551 0.028452-0.05362 0.039318-0.06504 0.0739-0.0777 0.05358-0.01959 0.07358-0.03896 0.10898-0.10553 0.058596-0.11021 0.10457-0.2935 0.13547-0.54012 0.02299-0.18348 0.022608-0.61616-6.884e-4 -0.85138l-0.017354-0.17475-0.080164-0.0887c-0.32944-0.36452-0.60506-0.79923-0.70989-1.1196-0.063294-0.19344-0.10167-0.48305-0.12651-0.95476-0.027031-0.51333-0.048321-0.67914-0.098931-0.7704-0.022459-0.04049-0.022459-0.04047 0.011315 0.1215 0.035188 0.16875 0.028821 0.36591-0.011819 0.36591-0.00502 0-0.03416-0.01694-0.06476-0.03768-0.088167-0.05971-0.27092-0.15512-0.85676-0.4473-0.57355-0.28605-0.76443-0.38768-0.90615-0.48247-0.047015-0.03145-0.085481-0.05454-0.085481-0.05132 0 0.0032 0.0062 0.02848 0.013783 0.05614 0.017629 0.0643 0.02598 0.12356 0.017354 0.12312-0.00368 0-0.10344-0.09412-0.22165-0.20872-0.13566-0.13153-0.21758-0.20427-0.22211-0.19723-0.00396 6e-3 -0.0073 0.02429-0.00746 0.04039-4.59e-4 0.04183-0.010286 0.07318-0.023063 0.07318-0.023203 0-0.15148-0.14716-0.22981-0.26365-0.078922-0.11738-0.09886-0.14099-0.09886-0.11712 0 0.01854-0.070204 0.15635-0.079645 0.15635-0.022805 0-0.042974-0.09438-0.061672-0.28867-0.00822-0.08541-0.017351-0.16958-0.020305-0.18702-0.0048-0.02814-0.00289-0.03171 0.017077-0.03161 0.057906 0 0.26357 0.131 0.48999 0.31153 0.074471 0.05937 0.13822 0.10767 0.14166 0.10734 0.00343-7.64e-4 0.06122-0.02607 0.12839-0.05715l0.12212-0.05653 0.00672-0.16972c0.00602-0.15195 0.016986-0.22614 0.042178-0.28537 0.00612-0.014386 0.00392-0.017335-0.010842-0.0145-0.029767 0.00573-0.042351 0.065465-0.05105 0.24232-0.00928 0.18859-0.015191 0.20451-0.087817 0.2366-0.024983 0.01103-0.074843 0.02217-0.1108 0.02475l-0.065376 0.0047-0.094765-0.07899c-0.19225-0.16026-0.4133-0.30031-0.71758-0.45464-0.26451-0.13415-0.53495-0.24838-0.55654-0.23507-0.030061 0.018564-0.044021 0.45208-0.020737 0.64423 0.016025 0.13217 0.055403 0.32573 0.078779 0.38719l0.019169 0.05036-0.038781 0.05799c-0.021318 0.0319-0.038774 0.06103-0.038774 0.06473s0.015926 0.02187 0.035393 0.04036c0.044771 0.04254 0.081617 0.11953 0.081747 0.17076 0 0.07249-0.041206 0.13526-0.17499 0.26535-0.067588 0.06574-0.1266 0.11952-0.13113 0.11954-0.00451 8e-6 -0.0052-0.02179-0.00161-0.04844 0.00809-0.05868-0.00952-0.20312-0.034169-0.28048-0.040785-0.12799-0.069409-0.20111-0.087881-0.22455-0.024103-0.03061-0.024638-0.0687-0.00252-0.18322 0.035966-0.18672 0.015268-0.71435-0.043623-1.1124-0.027935-0.18882-0.013371-0.25788 0.075712-0.35896 0.10622-0.12052 0.22197-0.11016 0.37006 0.033126 0.037848 0.036625 0.08687 0.075786 0.10893 0.087024 0.083193 0.042393 0.59783 0.26184 0.79909 0.34075l0.052187 0.020459-0.00644-0.037954c-0.0088718-0.052406 0.010917-0.18644 0.040916-0.2773 0.022459-0.068039 0.072003-0.16534 0.12526-0.24604l0.019193-0.029084-0.037408 0.028381c-0.12225 0.092769-0.20919 0.25449-0.22727 0.42278-0.0060352 0.056587-0.0081372 0.060751-0.027266 0.054945-0.039091-0.011872-0.29777-0.13104-0.35216-0.16224-0.053569-0.030742-0.054437-0.031934-0.054201-0.075534 0-0.024348 0.010979-0.0704 0.024112-0.10232 0.013149-0.031934 0.022331-0.059597 0.020427-0.0615-0.00624-0.00626-0.11833 0.1025-0.13219 0.12834-0.018763 0.035028-0.027308 0.031858-0.03989-0.014783-0.013455-0.049925-0.00558-0.099988 0.030581-0.19445 0.026321-0.06875 0.1492-0.27161 0.17365-0.2867 0.00601-0.00374 0.011002-0.011505 0.011002-0.017296 0-0.00703-0.023085-0.00883-0.068378-0.00565-0.049687 0.00351-0.068381 0.00168-0.068381-0.00695 0-0.020299 0.090581-0.14125 0.20846-0.27831 0.10213-0.11875 0.11101-0.13204 0.090145-0.13473-0.012731-0.00168-0.054354 0.00749-0.092505 0.02023-0.053113 0.0178-0.069344 0.020161-0.069344 0.010092 0-0.024898 0.083354-0.10343 0.196-0.18465 0.12405-0.089438 0.16113-0.12366 0.15128-0.13957-0.00358-0.00581-0.018319-0.010405-0.032774-0.010337-0.022712 0-0.052101 0.00588-0.17528 0.034203-0.033325 0.0077-0.027493-0.017739 0.012037-0.052393 0.45995-0.22488 0.39521-0.12461 0.50223-0.4656 0.047117-0.14991 0.088632-0.28157 0.092254-0.29255 0.00543-0.016509 5.354e-4 -0.022186-0.028311-0.032591-0.044499-0.016074-0.07254-0.061148-0.072588-0.11669 0-0.079078 0.050251-0.12835 0.13106-0.12835 0.037668 0 0.051027 0.0055 0.081539 0.033393 0.034447 0.031529 0.036493 0.036724 0.036493 0.092509 0 0.053142-0.00305 0.06218-0.030396 0.089484l-0.030402 0.030353 0.02997 0.085076 0.029966 0.08506 0.067706-0.037167c0.13426-0.073708 0.34488-0.23986 0.58248-0.4595l0.12176-0.11256 0.069308 0.00519c0.15427 0.011656 0.34227-0.055566 0.45812-0.16381 0.10814-0.10104 0.1621-0.21128 0.18316-0.37419l0.010596-0.081966 0.046539-0.02531c0.025604-0.013904 0.059996-0.025295 0.076441-0.025295 0.058999 0 0.29103-0.038634 0.34848-0.058031l0.058622-0.019779-0.048849 0.00573c-0.02687 0.00321-0.13458 0.00895-0.23936 0.012949-0.12997 0.00497-0.20285 0.011903-0.22933 0.021895l-0.038824 0.014661-0.017054 0.10371c-0.047418 0.28837-0.18143 0.44891-0.43792 0.5246-0.065549 0.019351-0.10495 0.022338-0.38086 0.028924-0.22184 0.0052714-0.32568 0.011574-0.372 0.022491-0.10414 0.024562-0.25132 0.074052-0.35341 0.11883l-0.095254 0.041797v-0.046304c0-0.060407 0.033508-0.12367 0.085598-0.16158 0.022118-0.016104 0.040483-0.032683 0.040812-0.036839 0.00141-0.017518-0.057693-0.028275-0.13146-0.023912-0.05418 0.00321-0.099115 0.012949-0.14578 0.031582-0.047654 0.019053-0.071837 0.024195-0.082391 0.017556-0.051441-0.032423-0.076458-0.1287-0.060064-0.23119 0.016792-0.105 0.019581-0.10888 0.08818-0.12235 0.077856-0.015302 0.17281-0.047083 0.36705-0.12285 0.21055-0.082126 0.2298-0.092508 0.47889-0.25817 0.23032-0.15318 0.39435-0.24267 0.53643-0.29268 0.14135-0.04975 0.27392-0.078376 0.36305-0.078383 0.076772-7.6e-6 0.080658-0.00115 0.10465-0.029596 0.042202-0.050093 0.05613-0.13026 0.034026-0.19584-0.016706-0.049521-0.082216-0.13715-0.19537-0.26131-0.29502-0.3237-0.38059-0.43335-0.45378-0.58146-0.064195-0.12994-0.083865-0.20518-0.08762-0.33518-0.00174-0.060751-7.955e-4 -0.11673 0.00218-0.12441 0.00656-0.017059 0.063042-0.018641 0.079477-0.00222 0.00686 0.00688 0.011723 0.039688 0.011723 0.079094 0 0.11926 0.040947 0.23524 0.13154 0.37259 0.16463 0.24961 0.49212 0.51543 0.66255 0.53775 0.036256 0.00481 0.05717-0.00214 0.17313-0.05742 0.22311-0.10626 0.36823-0.15668 0.57153-0.19851l0.029309-0.00604-0.026696-0.00931c-0.020281-0.0070954-0.029207-0.019082-0.037155-0.050023-0.04926-0.19173-0.10444-0.34569-0.17166-0.47897-0.055105-0.10923-0.069594-0.12968-0.15806-0.22291-0.052589-0.055418-0.071001-0.081538-0.068722-0.097475 0.00392-0.027335 0.031136-0.033133 0.061684-0.013133 0.056357 0.036869 0.33812 0.37459 0.44505 0.53343 0.068844 0.10224 0.12586 0.21208 0.13303 0.25621l0.00508 0.031246-0.076627 0.025799-0.076624 0.025792 0.17994 9.167e-4c0.3248 0.0016 0.3798-0.021574 0.42682-0.17963 0.013541-0.045525 0.017242-0.091126 0.016628-0.20492-9.272e-4 -0.17361-0.022266-0.32673-0.062528-0.44885-0.054107-0.16415-0.19555-0.4272-0.28739-0.53449-0.02643-0.03088-0.030503-0.041949-0.025138-0.068306 0.00459-0.022682 0.012516-0.032339 0.028316-0.034616 0.033072-0.00481 0.14314 0.11094 0.22634 0.23792 0.069308 0.10576 0.24881 0.45692 0.297 0.581 0.036522 0.094022 0.046816 0.20927 0.03417 0.38239-0.010339 0.14146-0.00934 0.30219 0.00194 0.31345 0.0031 0.00313 0.11303 0.023378 0.24425 0.045067 0.13122 0.021689 0.35948 0.061018 0.50725 0.08739 0.53764 0.096008 0.64621 0.10298 0.72926 0.046854 0.0476-0.032178 0.07284-0.075083 0.13117-0.22295 0.15559-0.39444 0.41425-0.79865 0.50425-0.78801 0.01431 0.00168 0.02756 0.00778 0.02944 0.013515 0.0019 0.00573-0.02989 0.053761-0.0706 0.10673-0.08112 0.10554-0.13148 0.20108-0.15559 0.29516-0.02016 0.078643-0.05416 0.37541-0.05416 0.47271 0 0.041346 0.0051 0.086367 0.01133 0.10003 0.01007 0.022071 0.01712 0.024852 0.06302 0.024852 0.3042 0 0.52127-0.2523 0.52153-0.60616 0-0.16726-0.06716-0.36464-0.18602-0.54582-0.03518-0.0536-0.04839-0.08325-0.04839-0.10858 0-0.07124 0.06025-0.074311 0.10477-0.00527 0.14687 0.22759 0.323 0.37827 0.44146 0.37771 0.11698-7.64e-4 0.22432-0.11379 0.25486-0.26885 0.03071-0.15593-0.07335-0.3549-0.2784-0.53232-0.07226-0.062531-0.21305-0.16331-0.29051-0.20795-0.03613-0.020826-0.04873-0.034875-0.05751-0.06412-0.01438-0.04797-0.0061-0.071828 0.02182-0.062966 0.0114 0.00367 0.06089 0.040162 0.10996 0.081241 0.16746 0.14013 0.28436 0.19997 0.39239 0.20083 0.09632 7.64e-4 0.14982-0.03188 0.19891-0.12137 0.03164-0.05768 0.0351-0.071737 0.03843-0.15613 0.0044-0.11019-0.01157-0.18192-0.06641-0.29919-0.06147-0.13146-0.17351-0.29278-0.2809-0.4045-0.03252-0.033821-0.04461-0.055013-0.04867-0.085282-0.0054-0.040414 0.0072-0.069758 0.03009-0.069735 0.01547 7.7e-6 0.21085 0.19401 0.29052 0.28847 0.0365 0.043271 0.09936 0.128 0.13968 0.18828 0.29998 0.44843 0.3774 0.94874 0.22108 1.4286-0.04871 0.14956-0.10806 0.2718-0.18109 0.37302-0.38949 0.53987-0.93664 0.84099-1.5632 0.86031-0.14715 0.00451-0.19338 0.00168-0.40545-0.025211-0.31344-0.039721-0.58202-0.07769-1.0063-0.14223-0.75754-0.11526-0.82729-0.11873-1.1721-0.058337-0.33318 0.058367-0.51829 0.13344-0.5924 0.24024-0.026647 0.038412-0.028297 0.046518-0.028297 0.1392 0 0.12771 0.015981 0.16286 0.095254 0.20956 0.0309 0.01819 0.056178 0.039054 0.056178 0.04635 0 0.00726-0.00111 0.0134-0.00241 0.013576-0.00135 0-0.055408 0.00405-0.12014 0.00882-0.14435 0.010497-0.19145 0.022552-0.23196 0.059368-0.039831 0.036205-0.029685 0.036541 0.10707 0.00359 0.2235-0.053875 0.31358-0.031139 0.61029 0.15394 0.13068 0.081523 0.19919 0.1052 0.3056 0.10557 0.026415 0 0.046081 0.00214 0.043696 0.00451-0.00237 0.00237-0.050377 0.011475-0.10665 0.020199-0.13954 0.021636-0.16503 0.029115-0.23613 0.069277-0.11751 0.066389-0.18891 0.083739-0.3673 0.089346l-0.15916 0.00497 0.021553 0.022911c0.02599 0.027633 0.097605 0.05551 0.1935 0.075335 0.038998 0.00807 0.073425 0.017174 0.076506 0.020261 0.012705 0.012682 0.00427 0.35643-0.011528 0.46763-0.020474 0.14449-0.070121 0.34221-0.11796 0.46982-0.11485 0.30634-0.3336 0.65076-0.56548 0.89034-0.042825 0.044249-0.076008 0.08218-0.07374 0.084312 0.00228 0.00214 0.079453 0.00558 0.17152 0.00764l0.1674 0.00374-0.00494-0.054502c-0.00353-0.038939-4.589e-4 -0.063165 0.010754-0.084823 0.051408-0.099293 0.19418-0.10052 0.24955-0.00214 0.071562 0.12717-0.078913 0.26794-0.20186 0.18885-0.021093-0.013568-0.032462-0.0060353-0.26379 0.17281-0.13296 0.10285-0.24553 0.19039-0.25015 0.19454-0.017987 0.016166 0.082081 0.26627 0.1605 0.40114 0.079028 0.13593 0.2955 0.38024 0.48219 0.5442 0.2065 0.18137 0.33224 0.27473 0.74327 0.55184 0.48017 0.32374 0.76185 0.5674 1.006 0.87028 0.29807 0.36972 0.48432 0.78739 0.52792 1.1839 0.02694 0.245 0.05266 0.32012 0.11909 0.34784 0.04399 0.01837 0.09675 0.0116 0.16374-0.02099 0.02664-0.01296 0.05014-0.02186 0.05223-0.01977 0.0021 0.0021-0.01659 0.02416-0.04151 0.04905-0.05339 0.05332-0.11237 0.08254-0.16663 0.08254-0.07061 0-0.17283-0.06059-0.22074-0.13085-0.01293-0.01896-0.02644-0.0345-0.03003-0.03454-0.0071 0-0.03268 0.06694-0.04184 0.10971-0.0071 0.03316-0.0197 0.0341-0.04015 0.0029-0.02421-0.0369-0.04309-0.12172-0.05602-0.25162l-0.01179-0.11855-0.05231 0.0464c-0.02877 0.02553-0.05406 0.04467-0.0562 0.04253-0.0021-0.0021 0.0047-0.02875 0.01513-0.05912 0.02678-0.07775 0.0564-0.22194 0.06448-0.31389 0.0089-0.10183-0.0026-0.09029-0.01546 0.01552-0.0102 0.08362-0.05505 0.23608-0.09015 0.30647-0.0107 0.02148-0.06674 0.11826-0.12454 0.21506-0.23026 0.3857-0.31465 0.60624-0.3292 0.86029-0.010296 0.17971 0.022417 0.33931 0.10059 0.49076 0.053343 0.10335 0.11979 0.1849 0.21427 0.26295 0.050455 0.04169 0.073121 0.06706 0.073121 0.08187 0 0.01179-0.02634 0.11923-0.058544 0.23876-0.071234 0.26443-0.10189 0.39537-0.13295 0.56784-0.05315 0.29514-0.073208 0.60279-0.053769 0.82452 0.010237 0.11679 0.00977 0.12785-0.00584 0.13925-0.026279 0.01921-0.08746 0.03287-0.17834 0.03981-0.07898 6e-3 -0.083509 0.0076-0.092294 0.03265-0.00635 0.01809-0.00435 0.05614 0.00639 0.12188 0.0086 0.05256 0.014388 0.09681 0.012859 0.09834-0.00155 0.0015-0.095911 0.0056-0.20975 9e-3l-0.20697 0.0062zm-1.5476-7.6005c0.01285-0.010688 0.021645-0.020658 0.01954-0.022148-0.0020731-0.0015274-0.12473-0.071194-0.2725-0.15486-0.14777-0.083685-0.4704-0.26678-0.71696-0.40687-0.24656-0.14009-0.44989-0.25471-0.45185-0.25471-0.00199 0-0.00348 0.0077-0.00343 0.017082 0 0.012193 0.19897 0.1347 0.6961 0.42879 0.38278 0.22646 0.69816 0.41183 0.70085 0.41194 0.00266 0 0.015399-0.00853 0.028249-0.019221zm0.21396-0.16531 0.10744-0.082936-0.17727-0.0061117c-0.097494-0.00336-0.18935-0.00672-0.20413-0.00733l-0.026865-0.0013v-0.40922l-0.22226 0.076695c-0.12224 0.042171-0.24198 0.083586-0.26609 0.092035-0.024107 0.00845-0.046667 0.012224-0.050135 0.0084-0.00348-0.00382-0.020706-0.12334-0.038302-0.26556-0.0176-0.14221-0.035163-0.26219-0.039028-0.26663-0.00386-0.00443-0.10006 0.023003-0.21377 0.06098-0.11371 0.037969-0.21273 0.069047-0.22004 0.069047-0.00772 0-0.024749-0.03172-0.040609-0.075633-0.015026-0.041586-0.045477-0.12503-0.067677-0.18541l-0.040364-0.1098-0.055283 0.17744c-0.030406 0.097589-0.054253 0.17817-0.052995 0.17907 0.00247 0.00183 0.36373 0.20701 0.73014 0.4148 0.12627 0.071614 0.3461 0.19674 0.48849 0.27807 0.14239 0.08134 0.26394 0.14525 0.27011 0.14205 0.00617-0.00321 0.059555-0.043141 0.11865-0.088773zm0.42237-0.18303c0.024606-0.031239 0.024374-0.051858-9.255e-4 -0.083991-0.02701-0.034295-0.088307-0.036525-0.11109-0.00397-0.05689 0.081118 0.050822 0.16573 0.11203 0.088002zm-0.60596-0.42195c0.056782-0.05671-0.028375-0.13798-0.086706-0.082768-0.020832 0.019718-0.016371 0.064578 0.00841 0.084617 0.028414 0.02298 0.054044 0.022377 0.078297-0.00183zm-0.62722-0.35323c0.019488-0.019458 0.014659-0.083624-0.00717-0.095282-0.048645-0.025998-0.098339-0.00153-0.098339 0.048436 0 0.015341 0.00691 0.034776 0.01535 0.043225 0.018123 0.018106 0.07344 0.020322 0.09016 0.00367zm-0.67049-0.32645c0.021876-0.019772 0.022903-0.050384 0.00266-0.079254-0.030402-0.04334-0.10203-0.016899-0.10203 0.037687 0 0.051996 0.060044 0.077123 0.099371 0.041568zm1.1061-0.93412c0.077591-0.032377 0.10381-0.13641 0.051601-0.20477-0.066207-0.086688-0.19909-0.058489-0.23136 0.049108-0.016648 0.055487 0.011887 0.12046 0.065263 0.14858 0.044737 0.023576 0.07107 0.025203 0.1145 0.0071zm-0.12404-0.052859c-0.037538-0.039138-0.037252-0.10491 6.119e-4 -0.14088 0.036986-0.035135 0.071528-0.041888 0.11321-0.022124 0.041505 0.019657 0.069236 0.07124 0.060262 0.11205-0.017011 0.077352-0.11988 0.10746-0.17409 0.050949zm-0.3682 7.7894c-0.013436-0.0078-0.10796-0.04102-0.21005-0.07389-0.25009-0.08055-0.28157-0.10051-0.19784-0.12552 0.070219-0.02097 0.13546-0.05837 0.22634-0.12976 0.12963-0.10181 0.14268-0.10803 0.2343-0.11162 0.043528-0.0017 0.19125-0.0073 0.32827-0.01267 0.49341-0.01893 0.72552-0.05997 0.82177-0.14527 0.037514-0.03326 0.042472-0.04242 0.041573-0.07683-0.00169-0.06513-0.032927-0.14538-0.10486-0.2696-0.17707-0.30579-0.21099-0.37739-0.2524-0.53264-0.025645-0.09617-0.035244-0.34826-0.017813-0.46784 0.022646-0.15535 0.10407-0.36188 0.14268-0.36188 0.023073 0 0.21792 0.08184 0.33833 0.14209 0.10607 0.05308 0.20814 0.1164 0.22941 0.1423 0.00646 0.0079 0.015355 0.10417 0.021968 0.23766 0.010818 0.21846 0.036412 0.45578 0.062211 0.57697 0.010619 0.04989 0.010514 0.06606-6.884e-4 0.09757-0.031732 0.08948-0.052137 0.19111-0.057736 0.28752-0.00776 0.13367 0.00704 0.18334 0.085583 0.28728 0.049357 0.06531 0.057726 0.0824 0.057726 0.11777 0 0.08392-0.074553 0.12939-0.24564 0.14978-0.05137 0.0061-0.24243 0.0152-0.42458 0.02018-0.47087 0.01283-0.60144 0.03995-0.71359 0.14811-0.050009 0.04824-0.064082 0.04541-0.1416-0.02843l-0.0557-0.05307-0.041186 0.05197c-0.022654 0.02857-0.05269 0.07273-0.066748 0.09816-0.014059 0.02541-0.027755 0.0461-0.030441 0.04599-0.00272 0-0.015877-0.0066-0.029313-0.01432zm-3.7199-4.0216c-0.014373-0.005807 0.034391-0.077666 0.23747-0.35 0.16586-0.22241 0.21286-0.26798 0.30542-0.29605 0.10372-0.03146 0.17764-0.090492 0.45951-0.367 0.17762-0.17423 0.28265-0.29019 0.34134-0.37683 0.042338-0.062531 0.10463-0.088895 0.22339-0.094549 0.12641-0.00604 0.17504 0.011177 0.21938 0.077589 0.018259 0.02735 0.046429 0.074411 0.062599 0.10459 0.042874 0.080018 0.10546 0.16862 0.19029 0.26939l0.074763 0.088804-0.03976 0.11689c-0.021869 0.064295-0.043639 0.12281-0.048381 0.13002-0.012285 0.018725-0.086527 0.0069522-0.14957-0.023859-0.089769-0.043783-0.14376-0.10193-0.20419-0.21993-0.08909-0.17396-0.11433-0.18084-0.27265-0.074388-0.1197 0.080469-0.32036 0.25345-0.51083 0.44035-0.10566 0.10368-0.11112 0.11106-0.13061 0.1765-0.031499 0.10571-0.037573 0.11223-0.10466 0.11223-0.075627 0-0.091324 0.017052-0.099707 0.10832-0.0049 0.052592-0.01152 0.073662-0.029618 0.093281-0.033381 0.036159-0.077593 0.052103-0.14449 0.052103-0.03202 0-0.10282 0.0088-0.15735 0.0195-0.092999 0.01831-0.19446 0.02426-0.22235 0.01304zm3.8939-4.2495c-0.069256-0.069613-0.13491-0.23572-0.13491-0.34135 0-0.080209 0.027116-0.10545 0.04823-0.044906 0.018302 0.052492 0.055544 0.10092 0.09012 0.11721 0.017945 0.00846 0.079706 0.021827 0.13725 0.029734 0.12246 0.01683 0.18723 0.044058 0.21447 0.090171 0.010708 0.018129 0.030059 0.034577 0.045086 0.038351 0.035162 0.00881 0.029965 0.011391-0.16491 0.081959-0.088108 0.031903-0.16763 0.060957-0.17672 0.064571-0.011635 0.00466-0.029004-0.00596-0.058622-0.035738zm0.59362-0.15955c0.012419-0.066106-0.0063947-0.087627-0.11162-0.12774-0.45097-0.17185-0.68041-0.31926-0.84887-0.54538-0.095932-0.12877-0.1649-0.2633-0.18812-0.36694-0.024253-0.10828-0.011713-0.10476 0.083027 0.023423 0.12137 0.16418 0.33169 0.37398 0.45978 0.45863 0.13066 0.086359 0.22579 0.12885 0.45261 0.20222 0.17115 0.055357 0.19343 0.065128 0.23101 0.10127 0.02566 0.024684 0.045704 0.054968 0.052327 0.079048 0.012099 0.043997 0.01431 0.16014 0.00339 0.17684-0.00396 0.00604-0.030474 0.015898-0.058949 0.021949-0.07973 0.016945-0.081989 0.016234-0.074557-0.023309zm1.9484 0.013263c-0.06717-0.00474-0.27571-0.023813-0.46342-0.042507-0.44959-0.044807-0.50679-0.044341-0.81047 0.00672-0.14325 0.024042-0.14487 0.023515-0.15758-0.051614-0.00886-0.05237 0.025568-0.1212 0.078354-0.15664 0.05422-0.036396 0.12913-0.047091 0.33007-0.047091 0.10714 0 0.1813-0.00405 0.19638-0.011024 0.029535-0.013438 0.047712-0.05402 0.043406-0.09694-0.0031-0.030803-0.00145-0.032423 0.045646-0.04525 0.054106-0.014737 0.12422-0.011658 0.14603 0.00642 0.016411 0.013606 0.040678 0.077367 0.049004 0.12877 0.00499 0.030734 0.011407 0.037893 0.046671 0.05198 0.022492 0.00899 0.087223 0.022315 0.14384 0.029634 0.13193 0.017036 0.489 0.02897 0.59727 0.019963l0.08345-0.00695-0.017978-0.053195c-0.014093-0.041682-0.015597-0.057649-0.00696-0.073769 0.00996-0.018564 0.01683-0.020008 0.071034-0.014783 0.10468 0.0101 0.15678 0.030757 0.1781 0.070621 0.01675 0.031315 0.02173 0.034264 0.048 0.028634 0.0629-0.013492 0.21469-0.016219 0.27241-0.00497 0.08146 0.016005 0.11551 0.034684 0.11166 0.061255-0.0064 0.043989-0.09872 0.085786-0.3082 0.13952-0.2801 0.071844-0.38619 0.081439-0.67671 0.061194zm1.1901-0.5531c-0.08426-0.014263-0.15575-0.028557-0.15886-0.031743-0.0031-0.00321 8.72e-4 -0.024332 0.0089-0.046992 0.05206-0.14738 0.0059-0.36786-0.11203-0.53563-0.0832-0.11833-0.19252-0.19652-0.34613-0.24758-0.13066-0.043439-0.17168-0.07289-0.17168-0.12329 0-0.053333 0.07984-0.056794 0.18685-0.00808 0.10103 0.045983 0.24247 0.089904 0.33345 0.10356 0.10153 0.015226 0.17157 0.0013 0.22092-0.043837 0.03362-0.03078 0.03547-0.035693 0.03547-0.094205 0-0.048245-0.0061-0.074227-0.02807-0.11885-0.05841-0.1188-0.20188-0.28217-0.43856-0.49936-0.10134-0.093013-0.11498-0.12025-0.07726-0.15432 0.03808-0.034424 0.07754-0.019412 0.16335 0.062149 0.11617 0.1104 0.27743 0.19424 0.37452 0.19471 0.09722 7.639e-4 0.18138-0.052217 0.2122-0.13282 0.0148-0.03871 0.01568-0.053852 0.0063-0.10834-0.02479-0.14455-0.16263-0.36001-0.36995-0.57829-0.0797-0.083914-0.10387-0.1249-0.0996-0.16893 0.0026-0.026899 0.0071-0.031499 0.03347-0.034058 0.03954-0.0039 0.13409 0.070514 0.27799 0.21865 0.26654 0.27436 0.43282 0.57269 0.50931 0.91371 0.01981 0.088322 0.02243 0.12583 0.02231 0.31962 0 0.16478-0.0044 0.24548-0.01755 0.32352-0.04322 0.25792-0.12342 0.47313-0.24121 0.6473-0.06106 0.090294-0.13462 0.17105-0.15479 0.16994-0.0089-7.64e-4 -0.08513-0.012552-0.1694-0.026831zm-0.78865-0.0826c-0.05041-0.017663-0.05573-0.033126-0.04117-0.11968 0.03122-0.18561 0.12371-0.39487 0.23405-0.52955 0.03207-0.039153 0.03569-0.041033 0.04753-0.024875 0.0155 0.02117 0.01259 0.039726-0.03649 0.23312-0.04515 0.17793-0.06252 0.31157-0.05047 0.3883 0.0048 0.030475 0.0064 0.057672 0.0037 0.060422-0.0095 0.00952-0.12398 0.0039-0.15714-0.00769z" stroke-width=".17967"/>
 </g>
</svg>
