<?xml version="1.0" encoding="UTF-8" standalone="no"?>
<svg
   width="17mm"
   height="17mm"
   inkscape:version="1.2 (1:1.2+202206011327+fc4e4096c5)"
   sodipodi:docname="greyjoy_logo.svg"
   version="1.1"
   viewBox="0 0 17 17"
   id="svg144944"
   xmlns:inkscape="http://www.inkscape.org/namespaces/inkscape"
   xmlns:sodipodi="http://sodipodi.sourceforge.net/DTD/sodipodi-0.dtd"
   xmlns="http://www.w3.org/2000/svg"
   xmlns:svg="http://www.w3.org/2000/svg">
  <defs
     id="defs144946" />
  <sodipodi:namedview
     bordercolor="#666666"
     borderopacity="1.0"
     inkscape:current-layer="g144942"
     inkscape:cx="63.462831"
     inkscape:cy="46.138715"
     inkscape:deskcolor="#d1d1d1"
     inkscape:document-units="mm"
     inkscape:pagecheckerboard="0"
     inkscape:pageopacity="0.0"
     inkscape:showpageshadow="2"
     inkscape:window-height="1403"
     inkscape:window-maximized="1"
     inkscape:window-width="2560"
     inkscape:window-x="3840"
     inkscape:window-y="0"
     inkscape:zoom="5.6568545"
     pagecolor="#ffffff"
     showgrid="true"
     showguides="false"
     id="namedview144936">
    <inkscape:grid
       dotted="false"
       originx="0"
       originy="0"
       spacingx="0.5"
       spacingy="0.5"
       type="xygrid"
       units="mm"
       id="grid144934" />
  </sodipodi:namedview>
  <g
     inkscape:groupmode="layer"
     inkscape:label="Layer 1"
     id="g144942">
    <ellipse
       cx="8.5"
       cy="8.5"
       fill="#fce94f"
       stop-color="#000000"
       style="paint-order:fill markers stroke;fill:#000000"
       id="ellipse144938"
       ry="8.5"
       rx="8.5" />
    <path
       style="fill:#fce94f;stroke-width:0.286504"
       d="M 8.5034054,15.993782 C 8.4929106,15.839517 8.4752438,15.670995 8.4641399,15.619272 8.4255073,15.4393 8.2981831,15.201169 8.0741738,14.889931 7.9297829,14.689316 7.8542228,14.566524 7.714765,14.305883 7.6190352,14.126971 7.6010793,14.078902 7.5507435,13.866837 7.5196586,13.735872 7.4701434,13.498826 7.4407112,13.340067 7.3999923,13.12045 7.3611858,12.974291 7.2784103,12.728796 7.1341722,12.340233 7.0551595,11.841071 7.041534,11.540402 7.0167311,10.88792 7.0677651,10.48232 7.2221885,10.104629 7.2509469,10.034286 7.2970839,9.9153836 7.3247196,9.8403999 l 0.050244,-0.136331 -0.035592,-0.057514 C 7.2877046,9.5630569 7.2053391,9.530809 7.0426593,9.5303849 c -0.09724,0 -0.166686,0.010048 -0.2605197,0.038634 -0.1121333,0.034156 -0.1427568,0.052188 -0.2478953,0.145971 -0.065977,0.058827 -0.1482426,0.1448374 -0.1828111,0.191113 -0.071309,0.095455 -0.077581,0.08389 -0.028806,-0.053135 C 6.3846037,9.6788515 6.5141947,9.4806186 6.6226379,9.3940212 6.794461,9.2729496 6.9992513,9.2376516 7.1736434,9.2706334 7.336093,9.301674 7.4388339,9.3651663 7.5295131,9.4905686 7.6297774,9.6292239 7.7264217,9.7069724 7.8728458,9.7667619 8.021322,9.8273997 8.0359715,9.8608789 7.944501,9.9305614 7.8828686,9.9775138 7.7863761,10.1052 7.7539381,10.182744 c -0.039382,0.09413 -0.021281,0.197752 0.038783,0.221991 -0.093395,0.210621 -0.077831,0.232658 -0.1010686,0.304477 -0.031757,0.08923 -0.084277,0.278477 -0.077282,0.278477 0.019043,0 0.08107,-0.133313 0.1327398,-0.285303 0.033107,-0.09739 0.089407,-0.251123 0.1251071,-0.341643 C 7.9758391,10.098039 8.0447,9.8268125 8.0473147,9.6710954 8.0530063,9.3315321 7.9568323,9.1209596 7.6366399,8.7719602 7.4218294,8.5378177 7.0479842,8.3612791 6.7044482,8.3317472 6.5812224,8.3211448 6.5719444,8.3230043 6.2022679,8.4308473 5.8382543,8.5536316 5.4377453,8.6091802 5.13285,8.4883859 4.9905594,8.4317037 4.9278719,8.3971153 4.8662451,8.3412894 4.7105838,8.2002771 4.5779788,7.880312 4.57942,7.6491953 c 4.9e-4,-0.075285 0.00527,-0.1062772 0.013317,-0.086206 0.00692,0.017241 0.033897,0.085186 0.059946,0.1509868 0.069301,0.1750543 0.1613709,0.3233579 0.2735671,0.4406453 0.089936,0.094011 0.1131687,0.1088462 0.2529434,0.1615076 L 5.3331032,8.374132 5.5469722,8.363758 C 5.7056255,8.356088 5.7975663,8.342928 5.9030894,8.312883 5.9813234,8.290602 6.0523977,8.267407 6.0610298,8.261355 6.0696598,8.255235 6.0908458,8.249537 6.1081088,8.248559 6.1253718,8.2475803 6.2171758,8.217078 6.3121192,8.180785 6.4818013,8.115931 6.4877803,8.114854 6.6628706,8.118141 6.8795895,8.122221 7.0454009,8.15653 7.3626144,8.2629703 7.6747152,8.3677304 7.797803,8.4284579 7.9198798,8.5379973 l 0.1012189,0.090806 -0.060811,-0.081484 C 7.8216591,8.3615645 7.3270624,8.072322 6.9964904,7.9836775 6.8559776,7.9460063 6.8119563,7.9424178 6.3513524,7.9310813 5.76493,7.9166783 5.6042884,7.8958241 5.438935,7.8126603 5.377966,7.7819783 5.3018485,7.7465253 5.2969147,7.7514603 c -0.00494,0.00489 0.056828,0.042597 0.110118,0.066127 0.053289,0.023521 0.096891,0.049114 0.096891,0.056878 0,0.00791 -0.063754,0.010651 -0.1451625,0.00628 C 5.2009735,7.8721726 4.9960379,7.8068371 4.8654375,7.7234204 4.7562366,7.6393921 4.4846342,7.1109587 4.5220909,7.0259109 c 0.00278,-0.00285 0.038214,0.041333 0.07872,0.098015 0.149185,0.2088108 0.269057,0.3443099 0.403323,0.4559209 0.1256804,0.1044747 0.2733547,0.1910477 0.2927804,0.1716534 0.00432,-0.00432 -0.026788,-0.022983 -0.06912,-0.041488 C 5.0778669,7.6444568 4.9148025,7.4859341 4.6473214,7.1457021 4.2620441,6.6556413 4.1865566,6.5462242 4.1296636,6.3953516 4.1020312,6.3220644 4.0642609,6.2242365 4.0457286,6.1779365 3.9978139,6.0582188 3.9534383,5.807561 3.9410727,5.5867775 3.9308066,5.4034941 3.9321189,5.3917417 3.9813532,5.2262785 4.0914891,4.8561395 4.1775375,4.7136673 4.4312533,4.4813598 4.5489394,4.3736065 4.5937209,4.3547097 4.5937209,4.412811 c 0,0.037525 -0.04854,0.089974 -0.076576,0.082756 -0.017156,-0.0044 -0.1654187,0.29969 -0.1524301,0.3126739 0.00354,0.00351 0.011087,-0.00819 0.016773,-0.026115 0.012407,-0.039033 0.039608,-0.043242 0.039608,-0.00612 0,0.034743 -0.061844,0.161687 -0.078768,0.161687 -0.00727,0 -0.00664,-0.022877 0.0014,-0.050843 0.01841,-0.064112 0.017844,-0.073915 -0.00228,-0.039425 -0.018202,0.031212 -0.1080594,0.5137612 -0.1084285,0.5822774 -1.633e-4,0.024924 0.021048,0.160268 0.04707,0.3007828 0.040906,0.220865 0.060314,0.2858661 0.1432647,0.4797601 0.086097,0.2012586 0.1138612,0.2476239 0.270469,0.4517125 0.095989,0.1250843 0.2020049,0.2637885 0.235595,0.3082454 0.033589,0.044441 0.1587856,0.1699162 0.2782151,0.2788521 l 0.2171451,0.1980452 0.2710438,0.095234 0.2710446,0.095234 0.3295562,0.00457 c 0.1812563,0.00261 0.3957753,-0.00147 0.4767102,-0.009 0.1345877,-0.01247 0.1645253,-0.00971 0.3505644,0.032492 0.2291889,0.051968 0.2059482,0.042491 0.3404134,0.1388022 0.2834755,0.1805023 0.5328806,0.3008562 0.6852086,0.5252689 0.1128911,0.166499 0.1328933,0.2073673 0.1840866,0.376158 0.03159,0.104173 0.072945,0.2515223 0.091903,0.3274602 0.019315,0.077381 0.03923,0.1290642 0.045302,0.1175647 C 8.476571,9.1395884 8.485897,8.9892951 8.49134,8.8168751 8.505273,8.3755448 8.520043,8.155316 8.5333,8.1911114 c 0.00619,0.016703 0.02032,0.2401533 0.031409,0.4965527 0.011086,0.2564076 0.024783,0.4662053 0.030436,0.4662053 0.00565,0 0.023009,-0.054676 0.038571,-0.1214795 C 8.649276,8.9655779 8.689692,8.8227554 8.723529,8.7150021 8.777452,8.5432671 8.80073,8.4955562 8.912004,8.3286576 9.1007369,8.1040165 9.1795217,8.0731798 9.309735,7.9866558 c 0.04764,-0.030437 0.090943,-0.055345 0.096231,-0.055345 0.00529,0 0.078196,-0.048902 0.16202,-0.1086831 0.1392374,-0.099288 0.1651566,-0.1115213 0.3000187,-0.1417382 0.08119,-0.018187 0.1758643,-0.039441 0.2103893,-0.04723 0.03681,-0.00828 0.114698,-0.00847 0.188318,0 0.06905,0.00758 0.284437,0.011654 0.478641,0.0091 l 0.353094,-0.00457 0.25109,-0.089248 c 0.1381,-0.049081 0.267182,-0.099679 0.286847,-0.1124592 0.01967,-0.01278 0.124626,-0.1042545 0.233244,-0.2032731 0.158959,-0.1449189 0.243391,-0.2398678 0.432772,-0.4866679 0.224018,-0.2919421 0.239998,-0.3176326 0.333739,-0.5363771 0.08652,-0.2018866 0.104585,-0.2624265 0.149012,-0.4992033 l 0.05055,-0.2694567 -0.04989,-0.2790315 C 12.73676,4.8880365 12.723035,4.8330425 12.722345,4.9080751 l -3.27e-4,0.037875 -0.0307,-0.03918 c -0.03118,-0.039792 -0.05792,-0.1354583 -0.04224,-0.1511092 0.0047,-0.00465 0.02292,0.01853 0.04042,0.051667 0.01751,0.033145 0.03214,0.05669 0.03252,0.052319 0.0013,-0.01477 -0.170481,-0.3906343 -0.196978,-0.4310215 -0.05075,-0.077365 -0.0091,-0.054904 0.115748,0.062408 0.242879,0.228197 0.331004,0.3722759 0.42892,0.7012856 0.03982,0.1338109 0.04533,0.1770607 0.04533,0.355785 0,0.1410205 -0.0099,0.2549477 -0.03242,0.371232 -0.05672,0.1687254 -0.109667,0.3721779 -0.169275,0.5178554 -0.04967,0.1202886 -0.197881,0.3291973 -0.537927,0.7582288 -0.276401,0.3487303 -0.371213,0.4304914 -0.664914,0.5733877 -0.189671,0.092282 -0.218553,0.1015061 -0.410897,0.1311276 -0.161788,0.024916 -0.283317,0.031864 -0.557517,0.031864 -0.550186,0 -0.722416,0.032811 -1.0604414,0.2020497 -0.215423,0.1078512 -0.4897502,0.2981894 -0.5655578,0.3924124 -0.074417,0.092486 -0.060641,0.092502 0.040355,0 C 9.2641856,8.427634 9.411761,8.3564917 9.7174786,8.2558175 10.024031,8.1548742 10.18603,8.122341 10.400131,8.118728 c 0.173835,-0.00294 0.185772,-9.786e-4 0.324575,0.053714 0.07926,0.031204 0.241534,0.085203 0.360617,0.1199869 0.189905,0.055459 0.242979,0.064398 0.431861,0.072733 l 0.215348,0.00951 0.165622,-0.066477 c 0.11755,-0.047189 0.177585,-0.080758 0.206828,-0.1156644 0.04811,-0.057424 0.07898,-0.094043 0.10259,-0.1170834 0.03642,-0.035526 0.05854,-0.070775 0.06407,-0.07898 0.08028,-0.00506 0.145665,-0.047923 0.119769,0.040403 -0.02141,0.071314 -0.116403,0.2268187 -0.189177,0.2975206 -0.07109,0.069063 -0.112079,0.092306 -0.272024,0.1542654 L 11.741895,8.5616079 11.48605,8.5508913 11.230204,8.5401584 10.858324,8.4308718 C 10.496765,8.324611 10.482959,8.321838 10.360898,8.3311518 10.128142,8.348915 9.8614179,8.4467999 9.6049085,8.608593 9.5508792,8.6426839 9.4940801,8.6867411 9.478685,8.7065187 9.4632932,8.7262963 9.3833325,8.8205438 9.300998,8.9159494 9.17065,9.0669933 9.1438742,9.1082938 9.0938707,9.2354904 c -0.060858,0.1547955 -0.090429,0.2978304 -0.090429,0.4374074 0,0.1116354 0.096742,0.4620782 0.2073054,0.7509702 0.047842,0.124995 0.1056741,0.283689 0.128518,0.352661 0.022843,0.06895 0.055676,0.143019 0.072963,0.164575 l 0.031427,0.03918 -0.00963,-0.04703 c -0.019462,-0.09504 -0.1065789,-0.347059 -0.1462844,-0.423184 -0.022481,-0.0431 -0.04297,-0.08276 -0.045532,-0.08812 -0.00256,-0.0055 0.00967,-0.01351 0.027185,-0.01808 0.041727,-0.0109 0.068281,-0.08341 0.055486,-0.151525 C 9.3087359,10.166384 9.2615161,10.087673 9.1624596,9.9815917 9.0263506,9.8358409 9.026625,9.8289493 9.1706695,9.7740205 9.3193719,9.717322 9.4226339,9.6371839 9.5216463,9.501644 9.6188549,9.3685754 9.7298401,9.2982975 9.8871835,9.2701603 c 0.2036115,-0.022893 0.4117115,0.014028 0.5492655,0.1228822 0.07345,0.058428 0.117483,0.111611 0.180894,0.2184754 0.07791,0.131307 0.171387,0.3587699 0.146726,0.3570572 -0.006,0 -0.03908,-0.03812 -0.07361,-0.083784 C 10.655936,9.8391195 10.577484,9.7585899 10.516122,9.7058061 10.283294,9.5094164 9.932548,9.5193583 9.8564873,9.5448286 c -0.083452,0.026816 -0.086768,0.029279 -0.1341745,0.099834 l -0.039872,0.059333 0.1017586,0.2619698 c 0.193866,0.4990976 0.2387626,0.7466476 0.2379806,1.3121166 -9.14e-4,0.659014 -0.027149,0.817325 -0.2416144,1.457655 -0.085589,0.255543 -0.1261132,0.405689 -0.1565162,0.579928 -0.022564,0.129309 -0.069969,0.358525 -0.1053451,0.509382 -0.055726,0.237641 -0.075912,0.296281 -0.1510835,0.438867 -0.141287,0.267981 -0.233356,0.41909 -0.386797,0.634784 -0.3403424,0.478439 -0.4021129,0.63878 -0.4256983,1.104994 -0.0059,0.116382 -0.015648,0.224967 -0.021694,0.241295 -0.00604,0.01633 -0.019576,-0.09653 -0.030071,-0.250781 z m 0.044999,-0.833897 c 1.47e-5,-0.04433 0.090704,-0.221143 0.1658033,-0.323293 0.043978,-0.05983 0.097425,-0.110893 0.1408469,-0.134577 0.038486,-0.02101 0.069973,-0.04353 0.069973,-0.05004 0,-0.0065 -0.024716,-0.05839 -0.054926,-0.115256 -0.047317,-0.08908 -0.054927,-0.118258 -0.054927,-0.210548 1.634e-4,-0.127205 0.05511,-0.192435 0.1436347,-0.264621 l 0.08871,-0.07167 -0.047617,-0.05417 c -0.186431,-0.278109 -0.015754,-0.491275 0.017749,-0.534289 L 9.118123,13.308441 9.0765,13.292631 C 8.9512918,13.213735 8.8390532,13.093079 8.7723873,12.960166 8.6930292,12.796847 8.5889662,12.500827 8.5629294,12.364325 c -0.026946,-0.141249 -0.039673,-0.15535 -0.052305,-0.05797 -0.014243,0.109784 -0.1335842,0.46676 -0.2105521,0.629785 -0.072513,0.136918 -0.169326,0.284773 -0.295013,0.3455 l -0.05684,0.02707 0.1015569,0.0973 c 0.1134414,0.108699 0.1471459,0.180747 0.1311809,0.280459 -0.012735,0.07954 -0.072784,0.197719 -0.1253464,0.246694 -0.022432,0.02089 -0.040787,0.04296 -0.040787,0.04902 0,0.0061 0.038754,0.04091 0.086122,0.0774 0.1279685,0.0986 0.1550464,0.15088 0.1457063,0.281266 -0.00746,0.104075 -0.024317,0.152528 -0.090033,0.258724 l -0.032591,0.05267 0.074944,0.04606 c 0.1172059,0.07203 0.2861269,0.317159 0.3114492,0.451957 0.00997,0.05309 0.037958,0.06018 0.037982,0.0096 z M 4.5466415,4.4360874 c 0.00924,-0.017241 0.013267,-0.031342 0.00895,-0.031342 -0.00433,0 -0.015406,0.014101 -0.024645,0.031342 -0.00924,0.017258 -0.013268,0.031359 -0.00895,0.031359 0.00432,0 0.015405,-0.014101 0.024645,-0.031359 z M 3.5929238,9.8033077 C 2.6949289,8.9466964 2.3990732,8.004075 2.458679,6.9148219 2.5171407,5.8555655 2.6261465,4.8489951 2.8867086,3.9972365 2.9821542,3.6799628 3.0158619,3.5921991 3.1299363,3.363994 3.3127506,2.9445699 3.7555555,2.5714377 4.0209224,2.3751541 c 0.8313673,-0.643796 1.666651,-0.6252989 2.1701419,0.066363 0.1120737,0.1551381 0.2134444,0.3882774 0.2366811,0.5443044 0.010152,0.068165 0.020243,0.1257286 0.022431,0.1279061 0.00218,0.0022 0.047957,0.011051 0.101712,0.019696 0.08336,0.013408 0.1108089,0.011222 0.186574,-0.014811 0.048859,-0.016793 0.090434,-0.028733 0.092391,-0.026563 0.00195,0.0022 -0.012966,0.092127 -0.033158,0.1998803 -0.029804,0.1590202 -0.040275,0.2947884 -0.05562,0.7209899 -0.033001,0.3061167 -0.020663,0.5165342 0.039345,0.8071876 0.044651,0.2162896 0.075431,0.3220856 0.1318758,0.4533437 0.040495,0.094166 0.076177,0.1788141 0.079291,0.188079 C 6.9999446,5.4834609 6.7952262,5.1851003 6.701257,5.0369436 6.6612117,4.973802 6.6251693,4.925406 6.6211648,4.9294104 c -0.00401,0.004 0.00483,0.02574 0.01964,0.048315 0.030784,0.04692 0.021682,0.068565 -0.01578,0.037516 C 6.608257,5.0013439 6.6021629,4.9782061 6.6068901,4.9463988 6.6149416,4.8922693 6.5855683,4.8437591 6.4106609,4.6222009 6.3429742,4.536468 6.2746074,4.4246205 6.2238322,4.3165654 6.1797889,4.2228399 6.1127817,4.0961735 6.0749289,4.0351116 6.0370746,3.9740416 6.0061032,3.9162502 6.0061032,3.9066672 c 0,-0.00957 -0.024891,-0.071958 -0.055315,-0.1386309 -0.048394,-0.1060651 -0.101316,-0.3315625 -0.101552,-0.4326852 0,-0.015512 0.02512,-0.040126 0.058786,-0.057514 0.032367,-0.016736 0.087097,-0.066339 0.1216212,-0.1102572 C 6.1549378,3.0012685 6.1004995,2.8219569 6.001701,2.6678627 5.7858354,2.3280548 5.4971321,2.1235991 5.1295951,2.1854358 4.9498968,2.2174143 4.8717734,2.2407642 4.6946474,2.3153808 3.8245013,2.8093644 3.3540755,3.4765999 3.1133621,4.3969237 3.0331604,4.7118078 3.0214645,4.7805278 2.9786355,5.1884442 2.9528396,5.434127 2.9204882,5.7832569 2.9067394,5.9642894 2.8929889,6.14533 2.868195,6.4486085 2.8516371,6.6382534 2.8072296,7.024133 2.777662,7.3794612 2.849563,7.7275799 2.9533492,8.2312117 3.1914724,8.619538 3.484884,8.9909494 3.6759622,9.2316816 3.6952189,9.2506763 3.9002876,9.4008475 4.8209631,9.9113057 5.2789597,9.3853027 5.8256373,8.7496543 6.0495283,8.4676215 6.4625515,8.3221316 6.7474095,8.3631875 6.9495148,8.3938856 7.0737564,8.4334816 7.2377281,8.5194266 7.4013895,8.6052084 7.5505116,8.698102 7.5405443,8.7080602 7.5367472,8.7118933 7.488581,8.6966911 7.4335269,8.6743526 7.3438113,8.6379373 7.2158126,8.6057793 7.1517083,8.6035446 6.7855374,8.601261 6.5629873,8.673749 6.320029,8.8717535 6.2054231,8.9652833 6.1328002,9.0451115 5.9648714,9.2621677 5.844738,9.4174689 5.6941493,9.5911041 5.6153972,9.6651499 5.497618,9.77588 5.4433879,9.8126134 5.2511534,9.9118848 4.7793688,10.163089 3.9704804,10.131738 3.5929295,9.8033077 Z M 12.271569,10.058573 C 12.074024,10.050304 11.890744,9.9515705 11.73162,9.8736344 11.542926,9.7788732 11.367223,9.6108654 11.110047,9.2792703 10.777257,8.8796483 10.334206,8.5374262 9.9068746,8.6052981 9.7348833,8.6329052 9.5800059,8.6794825 9.5213662,8.7212316 c -0.01336,0.00951 -0.010904,0.00196 0.00568,-0.017502 0.033176,-0.038878 0.1851139,-0.1314049 0.3474099,-0.211543 0.1282879,-0.063346 0.2602509,-0.1018241 0.4467489,-0.1302713 0.432601,-0.073622 0.908849,0.3775934 1.109922,0.6195491 0.186632,0.2242169 0.281258,0.32295 0.417324,0.4354174 0.155248,0.1487602 0.231677,0.1575521 0.411363,0.1757475 0.437803,0.037337 0.689045,-0.032044 0.936651,-0.2177005 0.170742,-0.1255492 0.197741,-0.15314 0.391654,-0.4002256 C 14.347285,8.0650634 14.236273,6.9581043 14.151158,5.932947 14.130372,5.6265611 14.0937,5.3216923 14.065375,5.0160242 13.947236,4.3376398 13.789728,3.589369 13.389723,3.1652636 13.190679,2.9508253 12.946404,2.7476501 12.754151,2.558829 12.494344,2.2921207 12.265385,2.2089487 11.949825,2.1491673 c -0.313075,-0.075481 -0.493137,0.03383 -0.656163,0.1952479 -0.148564,0.178447 -0.354104,0.3388618 -0.333833,0.5809725 0.0098,0.1164799 0.01438,0.1285585 0.08038,0.2097976 0.03856,0.047466 0.09385,0.095773 0.123024,0.1074842 0.02915,0.011687 0.05299,0.02848 0.05299,0.037304 0,0.095397 -0.0587,0.3491462 -0.103457,0.4472513 -0.02941,0.064455 -0.05347,0.1255084 -0.05347,0.1356704 0,0.010178 -0.02224,0.053379 -0.04943,0.096009 -0.02719,0.042638 -0.09706,0.1727462 -0.155272,0.2891202 -0.06892,0.1377745 -0.146562,0.2635356 -0.222563,0.3604908 -0.0642,0.0819 -0.17551,0.2405855 -0.247359,0.3526532 -0.06838,0.1522265 -0.238801,0.3327696 -0.308323,0.458702 -0.01151,0.014958 0.01662,-0.057449 0.0625,-0.160896 0.06922,-0.1560678 0.09229,-0.2329762 0.135515,-0.4517778 0.0757,-0.2617985 0.0474,-0.5304478 0.04268,-0.7993663 -0.0093,-0.5268185 -0.01824,-0.6265629 -0.08239,-0.9162051 l -0.0079,-0.03573 0.188237,0.010619 0.188238,0.010627 0.01409,-0.03759 c 0.0077,-0.020675 0.01912,-0.078499 0.02526,-0.1285015 0.02469,-0.2008427 0.17795,-0.4685704 0.459296,-0.802335 0.252067,-0.2982301 0.517362,-0.3245649 0.864665,-0.2797166 0.209718,0.00139 0.337178,0.062383 0.517527,0.1529197 0.524962,0.2950412 1.173058,0.8574921 1.444725,1.3847592 0.09605,0.1929072 0.156137,0.3378261 0.196459,0.4738308 0.281142,0.7123775 0.221162,1.5993932 0.381445,2.291887 0.06444,0.8731919 0.09616,1.8529218 -0.223285,2.4540063 -0.22355,0.4109666 -0.329428,0.5824569 -0.572965,0.927982 -0.308171,0.3879511 -0.507928,0.5469229 -0.991595,0.5632179 -0.207625,0.0069 -0.301628,0.003 -0.447254,-0.01903 z M 8.4339026,9.0010624 c -0.00455,-0.023709 -0.00501,-0.046422 -9.799e-4,-0.050484 0.010976,-0.011076 0.036478,0.034833 0.036754,0.066159 3.266e-4,0.043625 -0.026651,0.031775 -0.035778,-0.015675 z m 0.1628375,0.00874 c -6.533e-4,-0.023203 0.00625,-0.046822 0.015461,-0.052515 0.026921,-0.016605 0.028871,-0.00261 0.00662,0.04767 l -0.020816,0.047034 -0.00127,-0.04219 z M 8.3799256,8.7886631 c -0.00964,-0.036056 -0.014684,-0.068378 -0.011221,-0.071844 0.01621,-0.016181 0.054135,0.038136 0.054135,0.077545 0,0.069462 -0.02367,0.066314 -0.042915,-0.00571 z m 0.2654592,0.00457 c 0.00359,-0.050386 0.012358,-0.071566 0.031073,-0.075106 0.023207,-0.0044 0.02404,0.00196 0.00758,0.057588 -0.02675,0.090488 -0.044434,0.098497 -0.038655,0.017518 z M 8.3082018,8.5464628 c -0.00479,-0.023725 -0.013326,-0.05722 -0.018968,-0.074454 -0.00901,-0.027542 -0.00628,-0.026849 0.02244,0.00571 0.032495,0.036766 0.045231,0.1118965 0.018969,0.1118965 -0.00755,0 -0.017651,-0.019394 -0.02244,-0.043095 z m 0.4128077,-8.972e-4 c 0,-0.027077 0.013792,-0.057612 0.034047,-0.075375 0.033587,-0.02945 0.033879,-0.029434 0.021521,0.00147 -0.00689,0.017249 -0.01599,0.047328 -0.020227,0.066844 -0.011684,0.053844 -0.035342,0.058566 -0.035342,0.00701 z M 7.6700235,8.3547463 c -0.012696,-0.00799 -0.017824,-0.019843 -0.011395,-0.026261 0.00643,-0.00644 0.023626,0 0.038217,0.014819 0.028365,0.028333 0.011385,0.035567 -0.026821,0.011442 z M 8.16593,8.298529 C 8.114298,8.216907 8.121503,8.1929369 8.183776,8.23918 8.21147,8.259741 8.228418,8.28853 8.231594,8.320411 8.238384,8.388699 8.218851,8.382191 8.16593,8.298529 Z m 0.6649312,0.024247 c 0,-0.049978 0.046986,-0.1097107 0.086312,-0.1097107 0.012947,0 0.02354,0.00408 0.02354,0.00894 0,0.012478 -0.094081,0.1477979 -0.1027589,0.1477979 -0.00391,0 -0.00709,-0.021164 -0.00709,-0.047026 z m 0.5376772,0.020528 c 0.014591,-0.014566 0.03179,-0.021237 0.038217,-0.014819 0.00643,0.00644 0.00131,0.018236 -0.011395,0.026261 -0.038206,0.024125 -0.055186,0.01689 -0.026822,-0.011442 z M 5.2999059,8.338492 c -0.017863,-0.011532 -0.01124,-0.015259 0.027463,-0.015439 0.028052,0 0.051002,0.00677 0.051002,0.015439 0,0.019908 -0.047619,0.019908 -0.078465,0 z m 6.3714141,0 c 0,-0.00866 0.0216,-0.015683 0.048,-0.015683 0.02801,0 0.04397,0.00652 0.03831,0.015683 -0.0053,0.00866 -0.02694,0.015667 -0.04801,0.015667 -0.02107,0 -0.03831,-0.0071 -0.03831,-0.015667 z M 5.4568362,8.3228085 c 0.030806,-0.019884 0.089703,-0.019884 0.1020052,0 0.0059,0.00954 -0.016785,0.015577 -0.057921,0.015431 -0.049443,0 -0.061296,-0.00432 -0.044084,-0.015431 z m 0.192241,-0.00122 c 0.018657,-0.010839 0.036271,-0.010839 0.054927,0 0.022405,0.013041 0.017347,0.015985 -0.027464,0.015985 -0.044809,0 -0.049866,-0.00294 -0.027463,-0.015985 z M 7.5675635,8.30759 C 7.5330383,8.292298 7.4745742,8.2715009 7.4376425,8.2613715 7.4007101,8.251234 7.3746439,8.2362438 7.379719,8.2280473 c 0.016305,-0.026351 0.095766,-0.015912 0.1250712,0.016434 0.015624,0.017241 0.0441,0.031351 0.063284,0.031351 0.031978,0 0.082837,0.03989 0.068422,0.053665 -0.00339,0.00326 -0.034408,-0.00661 -0.068933,-0.021906 z m 1.8627373,0.00245 c 0.00295,-0.015496 0.022796,-0.028463 0.048036,-0.031383 0.057688,-0.00661 0.054674,0.0172 -0.00501,0.03971 -0.042181,0.015904 -0.047426,0.014884 -0.043022,-0.00828 z m 1.9235062,0.010146 c 0.01355,-0.01353 0.02765,-0.013816 0.05414,-0.00106 0.03364,0.016189 0.03253,0.017298 -0.01832,0.018293 -0.04127,8.972e-4 -0.04979,-0.00326 -0.03582,-0.017233 z m 0.137041,0.00269 c 0.0123,-0.019884 0.0712,-0.019884 0.102006,0 0.01721,0.011108 0.0054,0.015259 -0.04408,0.015439 -0.04114,0 -0.06382,-0.00595 -0.05792,-0.015439 z M 5.7863931,8.3091722 c 0,-0.017714 0.038805,-0.033324 0.082886,-0.033324 0.019827,0 0.027225,0.00546 0.018333,0.013653 -0.022581,0.020675 -0.1012197,0.035959 -0.1012197,0.019672 z m 5.4180549,0.00269 c -0.01942,-0.00367 -0.03531,-0.013351 -0.03531,-0.021376 0,-0.023594 0.07287,-0.016695 0.09416,0.00892 0.02105,0.02534 0.0149,0.026645 -0.05885,0.012454 z m -6.0222412,-0.02029 c -0.00533,-0.00865 9.064e-4,-0.015667 0.013842,-0.015667 0.012946,0 0.027904,0.00701 0.033237,0.015667 0.00533,0.00866 -9.064e-4,0.015683 -0.013841,0.015683 -0.012947,0 -0.027904,-0.00701 -0.033238,-0.015683 z m 6.6538902,0 c 0.0053,-0.00865 0.02029,-0.015667 0.03324,-0.015667 0.01295,0 0.01917,0.00701 0.01384,0.015667 -0.0053,0.00866 -0.02029,0.015683 -0.03324,0.015683 -0.01295,0 -0.01918,-0.00701 -0.01384,-0.015683 z M 5.9433242,8.2554505 c 0.024287,-0.024867 0.048376,-0.031628 0.1012197,-0.028431 0.048157,0.00294 0.00878,0.029385 -0.061987,0.041659 -0.056314,0.00975 -0.06035,0.00838 -0.039233,-0.013229 z m 3.5937278,0.00522 c 0,-0.021963 0.054349,-0.047572 0.1009746,-0.047572 0.055486,0 0.050512,0.02472 -0.00916,0.045485 -0.060942,0.021221 -0.091817,0.021922 -0.091817,0.00212 z m 1.490849,-0.00261 c -0.0343,-0.013726 -0.03594,-0.017551 -0.01301,-0.030445 0.02986,-0.016784 0.107172,0.00636 0.107172,0.032068 0,0.019892 -0.0422,0.019166 -0.09416,-0.00155 z M 5.0488153,8.2443995 c -0.019137,-0.012364 -0.017108,-0.015243 0.010843,-0.015439 0.018913,0 0.038749,0.00677 0.044083,0.015439 0.012348,0.019949 -0.024009,0.019949 -0.054926,0 z m 6.9128267,0 c 0.0053,-0.00866 0.02517,-0.015186 0.04408,-0.014574 0.03315,0.00106 0.03326,0.00163 0.003,0.014574 -0.0432,0.01853 -0.05855,0.01853 -0.04708,0 z M 6.1002553,8.2136035 c 0,-0.020414 0.053179,-0.047581 0.093128,-0.047581 0.049062,0 0.03886,0.02273 -0.019701,0.043878 -0.063039,0.022763 -0.073427,0.023293 -0.073427,0.00367 z m 1.1809085,-0.00106 c -0.01942,-0.00775 -0.035311,-0.021441 -0.035311,-0.030356 0,-0.024435 0.041625,-0.019378 0.069499,0.00848 0.040783,0.04073 0.029973,0.047662 -0.034189,0.021906 z m 2.4442063,8.971e-4 c 0,-0.042573 0.1270498,-0.082764 0.1490853,-0.047164 0.00533,0.00866 0.00751,0.015757 0.00484,0.015847 -0.00267,0 -0.038394,0.010341 -0.079392,0.022771 -0.040998,0.012421 -0.074543,0.016262 -0.074543,0.00856 z M 10.88274,8.210749 C 10.859,8.202089 10.83958,8.188541 10.83958,8.180646 c 0,-0.026783 0.07343,-0.014558 0.102007,0.016972 0.03228,0.035624 0.014,0.039702 -0.05885,0.013131 z M 4.9730265,8.1769599 c -0.03687,-0.039213 -0.04288,-0.05771 -0.018731,-0.05771 0.01804,0 0.070748,0.075987 0.06009,0.086638 -0.00401,0.004 -0.022623,-0.00901 -0.041359,-0.028928 z m 7.0750065,0.019174 c 0,-0.025046 0.05729,-0.087584 0.06923,-0.075473 0.0035,0.00351 -0.01064,0.027591 -0.0314,0.053444 -0.0254,0.031644 -0.03777,0.038854 -0.03783,0.022029 z M 6.2571864,8.1514896 c 0,-0.025519 0.067855,-0.063582 0.1133443,-0.063582 0.0625,0 0.053734,0.023888 -0.019502,0.053151 -0.072367,0.02892 -0.093842,0.03131 -0.093842,0.010431 z m 0.8160425,-8.972e-4 c -0.019137,-0.012348 -0.017107,-0.015243 0.010844,-0.015431 0.018911,0 0.038749,0.00677 0.044083,0.015431 0.012349,0.019965 -0.024008,0.019965 -0.054927,0 z m 2.8630754,-0.00701 c 0.016755,-0.013343 0.052063,-0.024043 0.078466,-0.023774 0.05899,8.971e-4 0.02806,0.022143 -0.054002,0.037647 -0.051566,0.00974 -0.053063,0.00889 -0.024464,-0.013873 z m 0.7653837,-0.00628 c -0.07115,-0.028847 -0.07268,-0.049334 -0.0037,-0.049334 0.03528,0 0.110194,0.048372 0.110194,0.071142 0,0.013538 -0.03911,0.00563 -0.106508,-0.021808 z m -2.6633296,-0.00318 c -0.00863,-0.00819 -0.033349,-0.028814 -0.054927,-0.045713 l -0.039233,-0.030739 0.047864,-8.156e-4 c 0.053953,-8.971e-4 0.085528,0.023529 0.085528,0.065311 0,0.030755 -0.014672,0.03511 -0.039233,0.011663 z m 0.9339809,-0.00302 c 4.899e-4,-0.041137 0.031306,-0.06549 0.085077,-0.067277 0.030697,-0.00106 0.053891,0 0.051536,0.00237 -0.011628,0.011614 -0.1234928,0.084428 -0.1297038,0.084428 -0.00394,0 -0.00704,-0.00883 -0.00691,-0.01959 z m -1.836863,-0.012413 c -0.012658,-0.00799 -0.052335,-0.014656 -0.088174,-0.014786 -0.05889,0 -0.066819,-0.00497 -0.082389,-0.049603 -0.023029,-0.065972 -0.023381,-0.065246 0.025927,-0.053216 0.198211,0.048363 0.2386907,0.073255 0.1877922,0.115436 -0.012768,0.010586 -0.028566,0.011377 -0.043156,0.00212 z m 2.6840524,-8.972e-4 c 0,-0.038063 0.076859,-0.073246 0.2549673,-0.1167001 l 0.04311,-0.010521 -0.02208,0.052629 c -0.01937,0.046145 -0.03143,0.054113 -0.098035,0.064756 -0.1219127,0.019476 -0.1779598,0.022575 -0.1779598,0.00984 z m -2.9544985,-0.00971 c -0.047697,-0.00726 -0.04361,-0.035763 0.00511,-0.035763 0.024075,-8.972e-4 0.025868,0.00571 0.059046,0.026025 0.028723,0.021817 0.022274,0.022795 -0.064169,0.00974 z m 3.2752848,-0.011092 c 0.03453,-0.027974 0.08064,-0.032337 0.09508,-0.009 0.0053,0.00866 -0.0031,0.015773 -0.01869,0.015896 -0.01562,0 -0.04605,0.00416 -0.06762,0.009 -0.03787,0.00848 -0.03817,0.00791 -0.0088,-0.015887 z M 6.4768899,8.0861378 c 0,-0.017518 0.096401,-0.029809 0.1219315,-0.015529 0.017673,0.00987 0.00385,0.015455 -0.048623,0.019623 -0.04032,0.00318 -0.073309,0.0013 -0.073309,-0.00408 z M 4.8684311,8.0567446 C 4.8527617,8.0394382 4.8472326,8.025288 4.856144,8.025288 c 0.019746,0 0.058887,0.044799 0.048342,0.055345 -0.00416,0.00416 -0.020384,-0.00661 -0.036055,-0.023888 z m 1.8320869,0.014313 c 0.018656,-0.010855 0.036271,-0.010855 0.054926,0 0.022405,0.013033 0.017347,0.015977 -0.027463,0.015977 -0.044811,0 -0.049869,-0.00294 -0.027463,-0.015977 z m 3.5997,8.155e-4 c 0.01071,-0.010692 0.029,-0.011035 0.05414,-9.786e-4 0.03568,0.014232 0.0347,0.015218 -0.01617,0.016148 -0.03716,8.156e-4 -0.04907,-0.00408 -0.03797,-0.015162 z m 0.167245,-0.00114 c 0.01889,-0.010994 0.04196,-0.01123 0.07062,-8.971e-4 0.03929,0.014346 0.03713,0.015602 -0.02806,0.016311 -0.05621,8.155e-4 -0.06489,-0.00261 -0.04256,-0.015545 z m 1.691582,-0.00758 c 8.33e-4,-0.018269 0.0045,-0.02198 0.0095,-0.00948 0.0045,0.01132 0.004,0.024842 -0.0012,0.030046 -0.0052,0.00514 -0.0089,-0.00408 -0.0082,-0.020569 z M 7.7990315,7.9830495 c -0.074655,-0.044033 -0.074057,-0.067497 0.00171,-0.067497 0.056445,0 0.088524,0.023521 0.088524,0.064903 0,0.043829 -0.019386,0.044383 -0.090242,0.00261 z m 1.3770789,0.0062 c 0,-0.049473 0.028525,-0.073671 0.086836,-0.073671 0.076752,0 0.076711,0.017861 -1.633e-4,0.065637 -0.08562,0.053224 -0.086694,0.053338 -0.086694,0.00799 z m 3.0955206,0.00661 c 0.06651,-0.1233797 0.170613,-0.3513809 0.178029,-0.3898922 0.0054,-0.028015 0.01609,-0.050933 0.02375,-0.050933 0.02561,0 0.01435,0.1766284 -0.01916,0.3006442 -0.01007,0.037272 -0.01822,0.064047 -0.02575,0.08287 -0.07219,0.261823 -0.153927,0.082226 -0.156878,0.05731 z m -7.4796256,-0.04509 c -0.01456,-0.028023 -0.019477,-0.050949 -0.010928,-0.050949 0.020553,0 0.05178,0.059382 0.043735,0.083164 -0.00348,0.010301 -0.018247,-0.00424 -0.032806,-0.032215 z m 7.4448236,0.017592 c -3.27e-4,-0.01835 0.01004,-0.042124 0.02298,-0.052857 0.02938,-0.024353 0.02938,-0.00432 0,0.047026 -0.02113,0.036897 -0.02246,0.037247 -0.02298,0.00587 z M 7.5922659,7.8592213 c -0.052482,-0.044106 -0.050863,-0.069112 0.00447,-0.069112 0.045124,0 0.07283,0.028031 0.07283,0.073671 0,0.046528 -0.017752,0.045484 -0.077303,-0.00457 z m 1.787855,0.012731 c 0,-0.038511 0.058197,-0.084697 0.099342,-0.078858 0.047396,0.00669 0.040711,0.030119 -0.020443,0.07146 -0.062931,0.042557 -0.078899,0.044057 -0.078899,0.00742 z m 2.1813461,0.00212 c 0,-0.00791 0.07945,-0.051308 0.176565,-0.09645 0.279758,-0.1300184 0.477233,-0.3091506 0.725595,-0.6582071 0.03246,-0.045623 0.06247,-0.079502 0.06669,-0.075294 0.03428,0.034238 -0.166611,0.5011362 -0.262598,0.6103249 -0.153283,0.1370242 -0.394628,0.2172847 -0.557954,0.2262559 -0.08514,0.0044 -0.148296,0.00163 -0.148296,-0.00661 z M 4.7229265,7.8154251 c -0.011728,-0.025707 -0.012783,-0.040958 -0.00283,-0.040958 0.019093,0 0.035861,0.03896 0.027522,0.063949 -0.0033,0.00988 -0.014407,0 -0.024685,-0.022991 z m 7.5761185,0.017029 c 0,-0.021792 0.03043,-0.057987 0.04874,-0.057987 0.0061,0 0.0029,0.017576 -0.0071,0.039066 -0.01951,0.042002 -0.04168,0.052066 -0.04168,0.018921 z M 9.5841329,7.7663521 c 0,-0.056348 0.1555952,-0.1405556 0.1921855,-0.1040017 0.013673,0.013644 0.00939,0.018073 -0.017517,0.018073 -0.019593,0 -0.066908,0.021498 -0.1051441,0.047768 -0.03824,0.026286 -0.069524,0.043445 -0.069524,0.038161 z M 7.3875361,7.7188369 c -0.029966,-0.021123 -0.067041,-0.038413 -0.082389,-0.038413 -0.015349,0 -0.027906,-0.0071 -0.027906,-0.015675 0,-0.00866 0.010007,-0.015667 0.022239,-0.015667 0.041298,0 0.1614746,0.059447 0.1711666,0.084673 0.013799,0.03591 -0.019491,0.029948 -0.08311,-0.014917 z M 4.6601532,7.6900391 c -0.011727,-0.025715 -0.012783,-0.040958 -0.00283,-0.040958 0.019093,0 0.03586,0.038968 0.027522,0.063949 -0.0033,0.00988 -0.014407,0 -0.024685,-0.022991 z m 7.7019038,0.01782 c 3.27e-4,-0.026229 0.02737,-0.067782 0.03752,-0.057636 0.01216,0.012144 -0.008,0.077218 -0.02389,0.077218 -0.0076,0 -0.01376,-0.00882 -0.01362,-0.019582 z M 7.0835864,7.6282758 c -0.06933,-0.021156 -0.060998,-0.041896 0.016831,-0.041896 0.057883,0 0.1140506,0.023431 0.1140506,0.047564 0,0.019753 -0.055455,0.017355 -0.1308813,-0.00571 z m 2.7673286,0.00701 c 0,-0.042548 0.1079205,-0.0731 0.149919,-0.042426 0.02734,0.019957 0.02498,0.022746 -0.032773,0.038756 -0.07524,0.020871 -0.1171455,0.022175 -0.117146,0.00367 z M 6.5239701,7.619745 c 0,-0.00935 0.017697,-0.028578 0.039326,-0.04272 0.033151,-0.021702 0.046702,-0.022689 0.086311,-0.00628 0.064964,0.026881 0.058757,0.046985 -0.014502,0.046985 -0.033818,0 -0.072659,0.00432 -0.086311,0.00952 -0.013654,0.00522 -0.024823,0.00188 -0.024823,-0.0075 z M 4.6184805,7.5778164 c -0.013639,-0.054276 -0.0012,-0.066689 0.022496,-0.022469 0.011844,0.022102 0.013007,0.039784 0.00327,0.049513 -0.00975,0.00975 -0.01894,0 -0.025756,-0.027044 z m 1.279311,0.00931 c -0.082063,-0.032468 -0.06158,-0.05669 0.027649,-0.032696 0.069047,0.018571 0.1217657,0.064463 0.070807,0.061649 -0.016159,-8.971e-4 -0.060465,-0.013914 -0.098456,-0.028953 z m 0.1710776,0.023864 c 0,-0.00367 0.011097,-0.017804 0.024662,-0.031351 0.033583,-0.033536 0.089811,-0.030943 0.1344555,0.0062 l 0.037047,0.030829 -0.098081,8.156e-4 c -0.053945,0 -0.098082,-0.00245 -0.098082,-0.0062 z M 6.3011268,7.598899 c 0.010358,-0.010342 0.043549,-0.018815 0.073759,-0.018815 0.030209,0 0.0634,0.00848 0.073757,0.018815 0.014647,0.014631 -0.00174,0.018807 -0.073757,0.018807 -0.072014,0 -0.088404,-0.00416 -0.073759,-0.018807 z m 4.0585512,0.00514 c 0.0046,-0.0075 0.03028,-0.022665 0.05697,-0.033708 0.04369,-0.018073 0.05191,-0.016711 0.08229,0.013628 l 0.03376,0.033716 h -0.09073 c -0.0499,0 -0.08693,-0.00612 -0.08229,-0.013636 z m 0.253139,-9.787e-4 c 0.02964,-0.028961 0.09304,-0.034115 0.12476,-0.010154 0.02927,0.022118 0.02562,0.023749 -0.05414,0.024206 -0.0529,0 -0.07984,-0.00506 -0.07062,-0.014052 z m 0.22458,-0.017307 c 0.04181,-0.034784 0.09651,-0.040069 0.124593,-0.012022 0.03467,0.034629 0.01943,0.043894 -0.0714,0.043364 l -0.09024,-8.972e-4 z m 0.221797,0.00847 c 0.02419,-0.029108 0.13561,-0.060352 0.160489,-0.044987 0.01097,0.00677 -0.01299,0.02242 -0.05921,0.038674 -0.102073,0.035869 -0.127138,0.037435 -0.101277,0.00636 z m 1.349703,-0.00604 c 0,-0.016189 0.0093,-0.037174 0.02077,-0.046634 0.01662,-0.013783 0.0194,-0.00791 0.01391,0.029418 -0.0075,0.051038 -0.03468,0.064528 -0.03468,0.017216 z M 6.7745935,7.5714794 c 0.022058,-0.04117 0.036574,-0.048437 0.1015831,-0.050884 0.052528,-0.00196 0.1185876,0.035967 0.1185876,0.068108 0,0.00726 -0.053214,0.013237 -0.1182504,0.013237 -0.112259,0 -0.1174231,-0.00147 -0.1019203,-0.030462 z m 3.2960255,0.017225 c 0,-0.05351 0.157343,-0.089794 0.200872,-0.046316 0.0442,0.044139 0.02063,0.059553 -0.09102,0.059553 -0.06042,0 -0.109853,-0.00595 -0.109852,-0.013237 z M 7.1150992,7.5549233 7.0235798,7.5470938 C 7.4092385,7.15261 7.477776,6.9431793 7.217124,7.5373967 7.2085818,7.5580388 7.189566,7.5613093 7.1150992,7.5549233 Z M 7.2610048,7.508974 c 0.038858,-0.076077 0.063315,-0.093326 0.063315,-0.044669 0,0.045484 -0.041095,0.1062934 -0.071827,0.1062934 -0.018721,0 -0.017147,-0.011402 0.00852,-0.061625 z m 2.504854,0.031669 C 9.7498018,7.522912 9.7407938,7.492508 9.7438098,7.466189 l 0.0051,-0.044481 0.03531,0.056699 c 0.053355,0.085692 0.040961,0.1277022 -0.018361,0.062236 z m 0.038296,-0.071925 c -0.2876294,-0.5519789 0.00744,-0.236369 0.2161602,0.068712 0.0027,0.00791 -0.033371,0.016939 -0.080076,0.019924 l -0.084916,0.00538 z M 5.6569236,7.505354 C 5.5602086,7.471687 5.5395911,7.445222 5.6100906,7.445222 c 0.048577,0 0.1478294,0.047898 0.1571573,0.075848 0.00781,0.02344 -0.00185,0.022053 -0.1103243,-0.015716 z m 5.6377604,0.020259 c 0,-0.027672 0.07259,-0.066918 0.140641,-0.076036 0.089,-0.011932 0.07885,0.014142 -0.01902,0.048837 -0.04531,0.016059 -0.09122,0.032574 -0.102005,0.036701 -0.01079,0.00416 -0.01962,0 -0.01962,-0.0095 z M 5.387527,7.3740295 C 5.344639,7.3362035 5.334203,7.3198185 5.352995,7.3198185 c 0.058077,0 0.1352279,0.05886 0.1352279,0.1031698 0,0.021074 -0.04743,-0.00196 -0.1006959,-0.048959 z m 6.189633,0.041578 c 0,-0.029361 0.05694,-0.079233 0.102005,-0.089354 l 0.04708,-0.010562 -0.05408,0.056927 c -0.05117,0.053844 -0.09501,0.073687 -0.09501,0.042989 z M 5.2202579,7.2158412 c -0.033947,-0.036864 -0.034526,-0.039482 -0.00536,-0.024361 0.039022,0.020226 0.079353,0.06567 0.058292,0.06567 -0.00818,0 -0.032,-0.018579 -0.052925,-0.041309 z m 6.5609211,0.027444 c 0,-0.00758 0.01765,-0.025429 0.03923,-0.039555 0.04546,-0.029744 0.05276,-0.010692 0.01053,0.027477 -0.03183,0.028773 -0.04977,0.03312 -0.04977,0.012079 z M 5.0361885,7.0545456 c -0.080301,-0.07783 -0.1086792,-0.1265441 -0.073727,-0.1265441 0.045145,0 0.1307081,0.043984 0.1478694,0.07602 0.020391,0.038055 0.022475,0.1120677 0.00315,0.1120677 -0.00759,0 -0.042374,-0.027697 -0.077299,-0.061543 z m 6.9048955,0.00326 c 0.0038,-0.046072 0.01604,-0.065768 0.0582,-0.094044 0.05593,-0.037516 0.111454,-0.047197 0.111454,-0.019427 0,0.020781 -0.14066,0.1717431 -0.160027,0.1717431 -0.008,0 -0.0123,-0.026221 -0.0096,-0.058273 z M 4.9186298,6.840874 C 4.9139398,6.806889 4.9051888,6.7597 4.8991718,6.7359833 c -0.00939,-0.036986 -0.00618,-0.043095 0.022612,-0.043095 0.065315,0 0.081606,0.1056573 0.02765,0.1793279 -0.020865,0.028496 -0.022832,0.02649 -0.030805,-0.031342 z M 12.09756,6.85672 c -0.03816,-0.083637 -0.01481,-0.163832 0.0477,-0.163832 0.03045,0 0.03998,0.053608 0.01255,0.070531 -0.0086,0.0053 -0.01569,0.037484 -0.01569,0.07146 0,0.070849 -0.01815,0.079747 -0.04456,0.021841 z M 4.8308242,6.7971593 C 4.7583287,6.7031158 4.7543625,6.6711698 4.820563,6.714493 4.874443,6.749758 4.911058,6.809262 4.90487,6.851509 4.90043,6.881873 4.890521,6.874606 4.8308242,6.7971593 Z m 7.3269888,0.04621 c 0,-0.023554 0.0073,-0.056397 0.01616,-0.072977 0.01592,-0.029719 0.106343,-0.085765 0.1186,-0.073532 0.0052,0.00522 -0.09719,0.1518106 -0.126266,0.1808694 -0.0047,0.00465 -0.0085,-0.010814 -0.0085,-0.03436 z M 4.7900579,6.6859643 c -0.059823,-0.018456 -0.062376,-0.021898 -0.057579,-0.07752 0.0044,-0.051071 -0.00332,-0.066265 -0.063006,-0.124024 C 4.6320587,6.448217 4.5899826,6.4115489 4.57597,6.4029283 4.5527504,6.3886395 4.5542325,6.3685356 4.592741,6.1756611 4.6523369,5.87717 4.7133186,5.7423968 4.8497477,5.6076888 4.9629809,5.4958821 5.0942239,5.4134604 5.2465609,5.3584909 c 0.069148,-0.024948 0.1323087,-0.033863 0.2495154,-0.035225 0.1527396,-0.00179 0.1593988,0 0.2493292,0.053037 0.082446,0.048942 0.2290714,0.1940081 0.2122849,0.2100178 C 5.9541056,5.5897462 5.9017446,5.5724561 5.8413255,5.54794 5.7527449,5.5119733 5.7066953,5.5031733 5.6035126,5.5025127 5.4847348,5.5016155 5.465732,5.5063459 5.3387622,5.5672446 5.2089295,5.6294646 5.1970825,5.6394961 5.105781,5.7644906 4.9446413,5.9850864 4.8765521,6.2198814 4.8763087,6.5557501 c 0,0.084045 -0.00541,0.1520715 -0.011881,0.1511744 -0.00648,-8.971e-4 -0.039939,-0.01035 -0.07437,-0.02096 z M 12.188859,6.5809268 C 12.187953,6.2332323 12.116895,5.9874027 11.951998,5.7615464 11.8591,5.6343091 11.850987,5.6275806 11.71581,5.5657358 c -0.123631,-0.056568 -0.153538,-0.064047 -0.256012,-0.064047 -0.09114,0 -0.142104,0.010023 -0.237607,0.046757 -0.06687,0.025715 -0.123595,0.044742 -0.12606,0.042279 -0.01469,-0.014672 0.150913,-0.1737575 0.224891,-0.2160205 0.221681,-0.1266827 0.584256,-0.043878 0.852612,0.1947096 0.149797,0.1331829 0.235063,0.3059047 0.290457,0.5883942 0.02137,0.1089522 0.03888,0.2088353 0.03891,0.221966 0,0.013123 -0.02516,0.037427 -0.05598,0.053999 -0.07659,0.041194 -0.116578,0.1020199 -0.116578,0.177289 0,0.055337 -0.0048,0.063199 -0.04316,0.070938 -0.02374,0.00473 -0.05551,0.013465 -0.07062,0.019305 -0.0248,0.00958 -0.0275,-0.00212 -0.0278,-0.1203784 z m -7.2930976,-0.00571 c 0.00701,-0.083433 0.031187,-0.1065463 0.058392,-0.055769 0.018918,0.035306 0.00517,0.074282 -0.039141,0.1110075 -0.023287,0.019305 -0.025076,0.014175 -0.019251,-0.055239 z m 7.2267426,0.039653 c -0.0338,-0.047678 -0.03497,-0.084403 -0.0036,-0.110461 0.03409,-0.028268 0.04137,-0.013416 0.03586,0.073092 l -0.0048,0.076125 z M 4.6197952,6.5203951 c -0.040216,-0.051724 -0.065795,-0.094035 -0.056838,-0.094035 0.025776,0 0.135851,0.1138946 0.1476931,0.1528136 0.018406,0.060499 -0.014844,0.038984 -0.090856,-0.058778 z m 7.7263358,0.077593 c 0,-0.034906 0.04619,-0.1026968 0.09386,-0.1377501 0.02741,-0.020153 0.0529,-0.033585 0.05665,-0.029842 0.0087,0.00865 -0.123016,0.1829408 -0.138739,0.183577 -0.0065,0 -0.01177,-0.00685 -0.01177,-0.015985 z M 4.907757,6.3910944 c 1.633e-4,-0.019402 0.00459,-0.061943 0.00998,-0.094549 0.00938,-0.056682 0.01109,-0.058118 0.03906,-0.032843 C 4.99503,6.2982664 4.993938,6.3493044 4.954057,6.392057 4.913894,6.435111 4.907546,6.434972 4.907762,6.3910783 Z m 7.196019,0 c -0.02588,-0.036905 -0.03053,-0.072113 -0.0149,-0.1127855 0.01482,-0.038568 0.05325,-0.029597 0.05325,0.012437 0,0.020463 0.0044,0.059268 0.0098,0.086206 0.01163,0.058101 -0.01238,0.065148 -0.04815,0.014143 z M 4.4949444,6.3043665 c -0.012979,-0.03228 -0.020172,-0.062212 -0.015985,-0.066526 0.010815,-0.011133 0.067683,0.061975 0.067683,0.087021 0,0.046341 -0.029531,0.034637 -0.051697,-0.020495 z m 8.0238116,0.02211 c 0,-0.032745 0.0421,-0.088636 0.06677,-0.088636 0.0052,0 -0.0025,0.028145 -0.01693,0.062538 -0.02958,0.070351 -0.04984,0.080962 -0.04984,0.026098 z M 4.934082,6.1963848 c -0.01141,-0.011394 0.054932,-0.1936494 0.070491,-0.1936494 0.018724,0 0.033128,0.07372 0.022594,0.1156318 -0.00936,0.037255 -0.077072,0.094019 -0.093085,0.078018 z m 7.140526,-0.021523 c -0.03747,-0.029499 -0.04327,-0.044196 -0.03923,-0.099451 0.0059,-0.081109 0.02789,-0.075196 0.06427,0.017306 0.03931,0.099965 0.03124,0.1264626 -0.02504,0.082144 z M 4.3942743,6.0656731 c -0.030828,-0.072888 -0.031238,-0.078613 -0.00565,-0.078613 0.042275,0 0.08258,0.054162 0.076802,0.1032106 -0.00818,0.069389 -0.035374,0.059977 -0.071156,-0.024598 z m 8.2134087,0.067676 c -0.0057,-0.00579 -0.01046,-0.033773 -0.01046,-0.062293 0,-0.041749 0.0092,-0.056576 0.04708,-0.07615 0.05704,-0.029458 0.06001,-0.014289 0.01612,0.082283 -0.03149,0.069283 -0.03541,0.073459 -0.05273,0.05616 z M 5.0331288,5.9229562 c 0,-0.027697 0.084894,-0.1393567 0.1020043,-0.1341615 0.030593,0.00929 0.026148,0.085953 -0.00689,0.1189592 -0.034262,0.034205 -0.095109,0.043935 -0.095109,0.015202 z m 6.9084732,-0.00734 c -0.03611,-0.025258 -0.04895,-0.1061222 -0.01972,-0.124179 0.01466,-0.00904 0.110385,0.108259 0.110385,0.1352544 0,0.021694 -0.05309,0.01521 -0.09067,-0.011075 z M 4.3220777,5.8185467 c -0.00369,-0.00644 -0.011329,-0.039963 -0.016974,-0.074453 -0.00953,-0.058216 -0.00855,-0.060516 0.013633,-0.032256 0.013142,0.016719 0.023894,0.050231 0.023894,0.074437 0,0.043462 -0.00747,0.05519 -0.020553,0.032272 z m 8.4006883,-0.031375 c 0,-0.055687 0.01354,-0.097934 0.0314,-0.097934 0.01185,0 -0.01004,0.1249619 -0.02441,0.1393078 -0.0038,0.00383 -0.007,-0.014778 -0.007,-0.041374 z M 5.1586744,5.7379193 c 0,-0.020658 0.088212,-0.1113826 0.1083011,-0.1113826 0.042915,0 0.00328,0.075489 -0.056267,0.1071579 -0.041166,0.021906 -0.052034,0.022779 -0.052034,0.00424 z m 6.6526826,-0.031799 c -0.05111,-0.051055 -0.05856,-0.079583 -0.02078,-0.079583 0.02591,0 0.11615,0.08654 0.11615,0.1113826 0,0.029304 -0.05132,0.012185 -0.09537,-0.0318 z M 5.3587612,5.6314219 c -0.043492,-0.011361 -0.032689,-0.027444 0.043156,-0.064251 0.068382,-0.033177 0.070618,-0.0333 0.070618,-0.004 0,0.026694 -0.055961,0.082087 -0.078033,0.077227 -0.00455,-9.787e-4 -0.020637,-0.00506 -0.035742,-0.00897 z m 6.2525278,-0.025478 c -0.03157,-0.033569 -0.0455,-0.073442 -0.02565,-0.073442 0.0096,0 0.13667,0.062946 0.148007,0.073312 0.01084,0.00992 -0.03475,0.035885 -0.06351,0.036162 -0.0136,0 -0.04008,-0.016083 -0.05885,-0.036032 z m -5.758978,0.00171 c -0.032961,-0.032933 -0.020404,-0.042785 0.03217,-0.025266 0.073905,0.024638 0.088787,0.044065 0.03374,0.044065 -0.025895,0 -0.055555,-0.00847 -0.065911,-0.018799 z m 5.262693,0.0053 c 0.02238,-0.020332 0.116914,-0.049285 0.116914,-0.035812 0,0.025894 -0.04026,0.049334 -0.08474,0.049334 -0.02747,0 -0.04087,-0.00571 -0.03217,-0.013522 z M 4.2755406,5.5850648 c -0.018651,-0.030396 -0.03039,-0.1936901 -0.013921,-0.1936901 0.016455,0 0.049597,0.094835 0.049296,0.1410695 -1.633e-4,0.032028 -0.025197,0.069193 -0.035375,0.052621 z m 1.2793844,-0.00612 c -0.052659,-0.021132 -0.042655,-0.04652 0.018334,-0.04652 0.029502,0 0.064811,-0.00432 0.078466,-0.00953 0.036516,-0.013987 0.031559,0.036162 -0.00552,0.055989 -0.035513,0.018978 -0.044126,0.018987 -0.091269,0 z m 0.1704203,-0.0053 c -0.010415,-0.012527 -0.012756,-0.026596 -0.0052,-0.031261 0.022149,-0.013669 0.083776,0.00799 0.077369,0.027273 -0.00903,0.027093 -0.051045,0.029418 -0.072166,0.00391 z m 5.5456987,0.00563 c -0.01309,-0.021164 -0.01031,-0.024084 0.03686,-0.038577 0.0302,-0.00928 0.03576,-0.0062 0.03121,0.017461 -0.0064,0.033072 -0.05192,0.047205 -0.06807,0.021115 z m 0.145269,-0.00106 c -0.05604,-0.032598 -0.03187,-0.05806 0.04708,-0.049595 0.09075,0.00974 0.09885,0.015741 0.05975,0.044294 -0.03555,0.02596 -0.0685,0.027591 -0.106826,0.00522 z m 1.348301,0.00644 c -0.01605,-0.016034 -0.01245,-0.088906 0.0072,-0.1451392 0.02726,-0.078083 0.04783,-0.035314 0.02949,0.061298 -0.01735,0.091377 -0.02093,0.099557 -0.03667,0.083841 z M 6.9109778,5.4254738 C 6.8815546,5.3929977 6.877755,5.375675 6.90006,5.375675 c 0.016775,0 0.054029,0.061535 0.043575,0.071974 -0.00363,0.00359 -0.018324,-0.00636 -0.032657,-0.022175 z M 6.807065,5.2943462 c -0.0176,-0.018864 -0.031998,-0.05218 -0.031998,-0.074021 0,-0.043919 -5.716e-4,-0.044514 0.070017,0.065229 0.03317,0.051512 0.00739,0.05749 -0.038019,0.00882 z m 3.389106,-0.00742 c 0,-0.00628 0.01916,-0.039082 0.04258,-0.072831 0.04439,-0.063973 0.07065,-0.052229 0.03441,0.015406 -0.02033,0.037949 -0.07699,0.080203 -0.07699,0.057424 z M 4.2819924,5.2424187 c 4.9e-4,-0.025862 0.00995,-0.082291 0.021047,-0.125386 0.017446,-0.06779 0.020656,-0.072031 0.023771,-0.031359 0.00569,0.074364 -0.0014,0.1223439 -0.024385,0.1645742 l -0.02131,0.039188 8.901e-4,-0.047018 z M 12.746512,5.229655 c -0.02608,-0.06235 -0.03169,-0.1607329 -0.0099,-0.1741735 0.01381,-0.00848 0.05352,0.2111026 0.04052,0.2240783 -0.0038,0.00383 -0.01755,-0.018685 -0.03061,-0.049905 z M 6.7210493,5.1415406 c -0.015217,-0.016793 -0.024856,-0.03896 -0.02142,-0.049252 0.00352,-0.010562 0.01846,0 0.03425,0.023953 0.033826,0.051569 0.025625,0.067741 -0.01283,0.025299 z m 3.5854717,-0.024948 c 8.9e-4,-0.025845 0.04561,-0.076297 0.05732,-0.064601 0.0061,0.00612 -0.0044,0.026522 -0.02338,0.045444 -0.01894,0.018913 -0.03421,0.027534 -0.03394,0.019158 z m 0.09401,-0.1342839 c 1.64e-4,-0.012111 0.01416,-0.039645 0.03104,-0.061209 0.02918,-0.037255 0.03071,-0.037557 0.03104,-0.00636 1.63e-4,0.018065 -0.01377,0.045599 -0.03104,0.0612 -0.02385,0.021556 -0.0313,0.023081 -0.03104,0.00636 z M 6.535461,4.8700042 C 6.505304,4.8469892 6.477544,4.7532306 6.506107,4.7708712 c 0.021165,0.013057 0.070157,0.103235 0.061037,0.112345 -0.00342,0.00343 -0.017682,-0.00261 -0.031684,-0.013212 z M 10.513813,4.78808 c 0.04073,-0.062807 0.05992,-0.070816 0.04741,-0.019794 -0.01141,0.046569 -0.0343,0.074453 -0.0611,0.074453 -0.01594,0 -0.01227,-0.014631 0.01369,-0.05466 z M 6.3990433,4.6830425 c -0.017599,-0.018864 -0.031998,-0.040028 -0.031998,-0.047026 0,-0.024541 0.023882,-0.010545 0.060042,0.035176 0.042196,0.053346 0.01958,0.062913 -0.028044,0.01185 z m 4.2051487,-0.00923 c 0,-0.00734 0.02119,-0.033569 0.04708,-0.058346 0.04857,-0.04648 0.05897,-0.043625 0.03103,0.00848 -0.0175,0.032656 -0.07811,0.071322 -0.07811,0.04984 z M 4.4654184,4.6077816 c 0.014463,-0.034384 0.031594,-0.062595 0.038067,-0.062685 0.023648,0 0.010963,0.074078 -0.016929,0.099288 -0.04451,0.040224 -0.049681,0.031277 -0.021138,-0.036603 z m 8.0999836,0.03038 c -0.0095,-0.017673 -0.0148,-0.047654 -0.01182,-0.0666 0.0046,-0.029279 0.0107,-0.024434 0.04054,0.03215 0.02827,0.053608 0.03058,0.066608 0.01182,0.066608 -0.01282,0 -0.03106,-0.01446 -0.04054,-0.032158 z M 6.2659295,4.5100924 c -0.033427,-0.047654 -0.032729,-0.094769 8.411e-4,-0.051365 0.013305,0.017241 0.030984,0.04369 0.039285,0.058778 0.022388,0.040681 -0.010603,0.03458 -0.040044,-0.00742 z m 4.5144845,-0.069601 c 0.01866,-0.031587 0.03674,-0.048991 0.04018,-0.038683 0.0074,0.022281 -0.03811,0.096107 -0.0593,0.096107 -0.0081,0 4.08e-4,-0.025845 0.01912,-0.057424 z m 1.706955,0.026074 c -0.01726,-0.017249 -0.03139,-0.041513 -0.03139,-0.053934 0,-0.045958 0.0253,-0.035844 0.0597,0.023847 0.03789,0.065768 0.02313,0.081459 -0.02831,0.030086 z M 6.1641734,4.3468965 C 6.1328705,4.3071537 6.119129,4.2310119 6.1434183,4.2318846 c 0.010706,0 0.082388,0.1294231 0.082388,0.1483035 0,0.021262 -0.032491,0.00367 -0.061633,-0.033292 z m 4.6758766,0 c -4.9e-4,-0.019035 0.07648,-0.1626168 0.08719,-0.1626168 0.0036,0 0.0065,0.017518 0.0065,0.038935 0,0.037386 -0.09275,0.1598194 -0.0937,0.1236814 z M 6.075147,4.1565992 C 6.053845,4.1423842 6.021796,4.0831572 6.021796,4.0579962 c 0,-0.02693 0.032976,0.00351 0.067584,0.062375 0.027328,0.046479 0.021891,0.06032 -0.014233,0.036228 z m 4.907761,-0.089876 c 0.03673,-0.062179 0.06202,-0.072276 0.04911,-0.019606 -0.01132,0.046202 -0.03425,0.074462 -0.06043,0.074462 -0.0155,0 -0.0125,-0.01455 0.01132,-0.054855 z M 5.9287768,3.9078661 c -0.035575,-0.045166 -0.039231,-0.064911 -0.018176,-0.09813 0.010763,-0.016972 0.019047,-0.011712 0.037003,0.023513 0.056612,0.1110482 0.045269,0.1560025 -0.018826,0.074617 z m 5.1462092,-0.013237 c 0,-0.02419 0.0528,-0.1335417 0.06448,-0.1335417 0.02572,0 0.01437,0.088848 -0.01471,0.1151179 -0.02808,0.025381 -0.04977,0.033414 -0.04977,0.018424 z M 5.8265209,3.694904 c -0.030089,-0.042915 -0.030693,-0.104491 -0.0014,-0.1431083 0.020361,-0.026841 0.022773,-0.024475 0.031886,0.03135 0.00542,0.03321 0.016472,0.076574 0.024554,0.096384 0.019244,0.047148 0.01876,0.050207 -0.00796,0.050207 -0.012458,0 -0.033643,-0.015675 -0.04708,-0.034833 z M 11.17696,3.6620528 c 0.006,-0.018807 0.01553,-0.062407 0.02117,-0.09689 0.01166,-0.071297 0.03492,-0.079616 0.05592,-0.01999 0.01833,0.052058 -0.01301,0.1315028 -0.05635,0.1428229 -0.02664,0.00693 -0.02992,0.00285 -0.02073,-0.025943 z M 5.7738447,3.4601417 c -0.026457,-0.026416 -0.023448,-0.098912 0.00508,-0.1225723 0.031505,-0.026106 0.036853,-0.018628 0.048766,0.068182 0.00795,0.057832 0.00532,0.073206 -0.012486,0.073206 -0.012395,0 -0.031009,-0.00848 -0.041367,-0.018815 z m 5.4616393,-0.080309 c 0.01,-0.088294 0.0186,-0.1004458 0.05177,-0.072945 0.03444,0.028545 0.02262,0.093138 -0.02247,0.1228822 l -0.03775,0.024899 z"
       id="path217-3-1-2"
       inkscape:connector-curvature="0" />
  </g>
</svg>
