<?xml version="1.0" encoding="UTF-8" standalone="no"?>
<svg
   width="17mm"
   height="17mm"
   inkscape:version="1.2 (1:1.2+202206011327+fc4e4096c5)"
   sodipodi:docname="martell_logo.svg"
   version="1.1"
   viewBox="0 0 17 17"
   id="svg144944"
   xmlns:inkscape="http://www.inkscape.org/namespaces/inkscape"
   xmlns:sodipodi="http://sodipodi.sourceforge.net/DTD/sodipodi-0.dtd"
   xmlns="http://www.w3.org/2000/svg"
   xmlns:svg="http://www.w3.org/2000/svg">
  <defs
     id="defs144946" />
  <sodipodi:namedview
     bordercolor="#666666"
     borderopacity="1.0"
     inkscape:current-layer="g144942"
     inkscape:cx="62.937497"
     inkscape:cy="49.874998"
     inkscape:deskcolor="#d1d1d1"
     inkscape:document-units="mm"
     inkscape:pagecheckerboard="0"
     inkscape:pageopacity="0.0"
     inkscape:showpageshadow="2"
     inkscape:window-height="1403"
     inkscape:window-maximized="1"
     inkscape:window-width="2560"
     inkscape:window-x="3840"
     inkscape:window-y="0"
     inkscape:zoom="8.0000004"
     pagecolor="#ffffff"
     showgrid="true"
     showguides="false"
     id="namedview144936">
    <inkscape:grid
       dotted="false"
       originx="0"
       originy="0"
       spacingx="0.5"
       spacingy="0.5"
       type="xygrid"
       units="mm"
       id="grid144934" />
  </sodipodi:namedview>
  <g
     inkscape:groupmode="layer"
     inkscape:label="Layer 1"
     id="g144942">
    <ellipse
       cx="8.5"
       cy="8.5"
       fill="#fce94f"
       stop-color="#000000"
       style="paint-order:fill markers stroke;fill:#ff7f2a"
       id="ellipse144938"
       ry="8.5"
       rx="8.5" />
    <path
       id="path247-8-1-8"
       style="fill:#800000;stroke-width:0.459311"
       d="M 3.7863322 1.8577677 C 3.7601418 1.8596973 3.7476413 1.8806875 3.7527425 1.9156453 C 3.7562618 1.9397675 3.7685322 1.9720812 4.1563354 2.9998169 C 4.4503723 3.7790649 4.4665597 3.8213186 4.5041178 3.9144897 C 4.5861603 4.1180162 4.6231345 4.1842847 4.6953206 4.2565877 C 4.7307342 4.2920597 4.7493917 4.3066731 4.7743856 4.3191162 C 4.8393419 4.351457 4.9008691 4.333875 5.0746257 4.2328166 C 5.1427907 4.1931686 5.202281 4.1616287 5.22087 4.1558187 C 5.2330848 4.1519986 5.2334964 4.1522356 5.2374064 4.1563354 C 5.2396006 4.1586395 5.2874994 4.2229378 5.3438599 4.2994792 C 5.665122 4.7357705 6.1870643 5.4459488 7.0228271 6.5825439 C 7.2139805 6.8425026 7.3843243 7.0740792 7.5385579 7.2837931 C 7.5493822 7.2780696 7.5500688 7.2780342 7.5597453 7.2729411 C 7.5591568 7.2800485 7.5582944 7.2851854 7.5566447 7.2868937 C 7.5526757 7.2909937 7.5453379 7.2894531 7.5385579 7.2837931 C 7.4692968 7.2161324 7.3912502 7.1635305 7.3029134 7.0786377 C 6.735034 6.5485986 6.5919469 6.4587578 6.0652629 6.0895508 C 5.7522072 5.8459817 5.1102156 5.3386824 4.9066772 5.1738444 C 4.8533374 5.1306504 4.8137973 5.1064567 4.8188273 5.1206177 C 4.8276248 5.1454083 5.9504052 6.5641398 6.1133219 6.7561768 C 6.1358927 6.7827835 6.2093791 6.874855 6.2761027 6.9608154 C 6.3428263 7.0467741 6.4359262 7.1616961 6.4833252 7.2166138 C 6.5279478 7.2686354 6.56722 7.341108 6.6145833 7.4062663 C 6.6676293 7.4631351 6.6648106 7.4721421 6.5985636 7.4548421 C 5.6549126 7.2307506 5.2339515 7.4494635 4.3837118 7.1918091 C 4.1493652 7.1183498 3.725164 6.9524678 3.690214 6.9205078 C 3.678317 6.9096298 3.6583983 6.9008708 3.6457723 6.9008708 C 3.5840784 6.9008708 4.0335007 7.301781 4.4173014 7.5892008 C 4.6747789 7.7820206 4.8463607 7.8645623 5.3056193 8.0155314 C 5.5059833 8.081398 5.7113137 8.1572037 5.7614054 8.1839966 C 6.0449372 8.3386581 6.3076352 8.5704153 6.5577393 8.7622559 C 6.2118912 8.8655302 5.619775 8.8679689 5.2146688 8.9472575 C 5.1144868 8.9605602 4.628484 9.0221997 4.1346313 9.0847168 C 3.6407792 9.1472321 3.2339763 9.2014442 3.2302938 9.2051229 C 3.226611 9.2088033 3.5333352 9.245438 3.9119059 9.2862549 C 4.2904763 9.327075 4.7279224 9.3756639 4.8844564 9.3942586 C 5.0409918 9.4128516 5.266749 9.4366232 5.3857178 9.4474854 C 5.7325681 9.4791659 6.1024644 9.5195868 6.1097046 9.5265503 C 6.1133776 9.5300891 6.0207131 9.5898168 5.9040324 9.6593587 C 5.7873535 9.7288974 5.6676891 9.8071829 5.6378988 9.8329915 C 5.0278199 10.356035 4.5767807 10.92273 3.7914998 11.193115 L 3.5527547 11.292334 L 3.9170736 11.279932 C 4.3081281 11.266643 4.6468824 11.22618 4.8844564 11.16521 C 4.9658549 11.14432 5.2069385 11.041994 5.4198242 10.937834 C 5.8648417 10.720331 6.3295048 10.540892 6.8977702 10.541992 C 6.9345545 10.549369 6.9228599 10.57023 6.8233561 10.678935 C 6.7587855 10.749472 6.7060506 10.813545 6.7060506 10.821045 C 6.7060506 10.828535 6.6913277 10.852242 6.6729777 10.874272 C 6.6546331 10.896305 6.5254984 11.060328 6.3861735 11.23859 C 6.0194128 11.698202 5.6135012 12.186539 5.2399902 12.722221 C 5.0904593 12.916084 4.9568985 13.089934 4.9433675 13.108244 C 4.9298383 13.126555 5.0212271 13.06213 5.1464559 12.9651 C 5.2716813 12.868075 5.4764982 12.710264 5.6017253 12.614734 C 5.7269557 12.519211 5.9011219 12.383632 5.9887817 12.312944 C 6.0764405 12.242254 6.2271532 12.126038 6.323645 12.055078 C 6.4201352 11.984122 6.52493 11.902634 6.556189 11.873694 C 6.5874495 11.844761 6.7130484 11.745279 6.8357585 11.652519 C 6.9584633 11.559756 7.072423 11.470915 7.088973 11.455115 C 7.1481978 11.398548 7.1546054 11.42826 7.1142944 11.573454 C 7.002617 11.990438 7.1102455 12.811258 6.9163737 13.56403 C 6.8666011 13.732876 6.7777587 13.988641 6.7189697 14.132471 C 6.6601879 14.276309 6.6063904 14.4093 6.5990804 14.42806 C 6.5664382 14.511804 7.0241175 14.007872 7.2228149 13.74128 C 7.44952 13.4371 7.5272658 13.282211 7.6723999 12.847795 C 7.7666515 12.567002 7.8986115 12.235992 8.1007975 11.96051 C 8.1965449 11.831167 8.4261633 11.547803 8.4454793 11.535213 C 8.4871033 11.508084 8.5040559 11.546989 8.5167928 11.700061 C 8.5332949 11.898388 8.5633288 12.16103 8.6206624 12.604915 C 8.6688436 12.982444 8.670273 13.304507 8.7529541 13.723193 C 8.7814941 13.954577 8.8135925 14.210344 8.8247843 14.291634 C 8.8359763 14.372932 8.852418 14.490577 8.8609578 14.553117 C 8.8764628 14.666648 8.8763946 14.66651 8.9053996 14.450798 C 8.9213786 14.331978 8.9611503 14.014837 8.9937663 13.745931 C 9.0263861 13.477025 9.0672348 13.144021 9.0847168 13.006441 C 9.1021968 12.868861 9.1290857 12.638679 9.1441447 12.494845 C 9.1592037 12.351013 9.1836411 12.1733 9.1984049 12.09952 L 9.2252767 11.965161 L 9.253182 12.033374 C 9.2687296 12.070858 9.3374097 12.182589 9.4056274 12.281421 C 9.8376537 12.900048 10.676876 13.512266 10.919747 14.405322 L 10.975041 14.553117 L 10.982275 14.405322 C 10.989875 14.246033 10.956883 13.816991 10.915613 13.541292 C 10.86889 13.22922 10.808579 13.051973 10.612272 12.649874 C 10.450994 12.318415 10.284741 11.885397 10.251571 11.451497 C 10.249861 11.381428 10.223214 11.189425 10.215914 11.119735 C 10.783789 11.887979 11.327058 12.622156 12.795601 14.606344 C 12.949626 14.814445 13.012152 14.897495 13.025562 14.911235 C 13.035692 14.921615 13.045682 14.929838 13.047782 14.929838 C 13.062278 14.929838 13.153238 14.865693 13.236918 14.796513 C 13.263788 14.774303 13.30203 14.737901 13.30203 14.734501 C 13.302014 14.731274 13.256185 14.668974 12.029757 13.009542 C 11.704599 12.569584 11.472312 12.255519 11.200867 11.888163 C 11.574642 12.189711 11.960523 12.490145 12.39821 12.790434 C 12.794422 13.100258 12.792034 13.099138 12.601298 12.858647 C 12.213945 12.370075 11.976749 11.965832 11.393103 11.323857 C 11.235903 11.126782 11.120553 10.966471 11.129553 10.957471 C 11.133308 10.953711 11.202689 10.966256 11.283549 10.985376 C 11.665931 11.075778 11.956556 11.098828 12.535152 11.085628 C 12.810815 11.079338 12.934781 11.092808 13.160954 11.152808 C 13.4405 11.226968 13.763154 11.34018 14.00328 11.448397 L 14.16296 11.520227 L 14.094747 11.448397 C 14.014911 11.364111 13.589266 10.991572 13.45706 10.890291 C 13.140018 10.647416 13.023975 10.588161 12.546521 10.426754 C 12.371204 10.367485 12.181972 10.297154 12.126392 10.270174 C 12.070814 10.243194 12.016055 10.221082 12.004435 10.221082 C 11.992817 10.221082 11.910324 10.172288 11.820984 10.113078 C 11.637383 9.9913968 11.641813 9.9951538 11.445296 9.8304077 C 11.365788 9.7637532 11.268944 9.6892062 11.229806 9.6645264 L 11.158492 9.6195679 L 11.248926 9.6040649 C 11.2987 9.5955769 11.529368 9.5664004 11.761039 9.5394694 C 11.99271 9.5125384 12.23328 9.4809483 12.29589 9.4691895 C 12.898122 9.3628521 13.660951 9.3220763 14.331425 9.1772176 C 14.366326 9.1669796 14.255858 9.1470259 14.02395 9.1214071 C 13.824941 9.0994201 13.493154 9.0616175 13.286528 9.0371745 C 12.604552 8.9564963 12.548219 8.9500284 12.318628 8.9255534 C 11.919702 8.8830264 11.712805 8.849353 11.740885 8.832019 C 11.831991 8.7791651 11.965753 8.7193951 12.063863 8.6340983 C 12.692759 8.1571981 13.190592 7.4390468 14.037903 7.198527 L 14.208435 7.1292806 L 14.094747 7.1272135 C 13.599657 7.1166722 12.956618 7.2027774 12.694832 7.314799 C 12.638128 7.3390644 12.45661 7.4255435 12.291239 7.5070353 C 11.944872 7.6767867 11.578102 7.7771462 11.111983 7.856368 C 11.024324 7.867358 10.914954 7.8824177 10.869104 7.8899577 C 10.820454 7.8979607 10.779519 7.8935214 10.770919 7.8796224 C 10.795092 7.8479791 10.879102 7.7428308 10.930082 7.667749 C 11.007118 7.5630319 11.138486 7.3934003 11.2882 7.2067952 C 11.820361 6.5434949 11.956779 6.3711989 12.043709 6.2528483 C 12.096112 6.1815139 12.663108 5.4632249 12.851412 5.2296549 C 12.880302 5.1938251 12.880619 5.1898389 12.853479 5.2100179 C 12.774218 5.2689569 11.849849 6.0043363 11.703678 6.1246908 C 11.616021 6.1968659 11.513872 6.2754741 11.476302 6.2993571 C 11.438732 6.3232371 11.40302 6.3493347 11.39672 6.3572347 C 11.380295 6.3779596 11.192737 6.5368336 11.090796 6.6166504 C 11.042873 6.654174 10.925847 6.7476358 10.830347 6.8243896 C 10.734852 6.9011419 10.654246 6.9621419 10.651546 6.9597819 C 10.763498 6.3059622 10.688677 5.5496817 10.858252 4.8539673 C 10.933623 4.6050327 11.021057 4.3681673 11.155391 4.0467814 C 11.190797 3.962083 11.179458 3.9701758 10.993127 4.1609863 C 10.792114 4.3668357 10.574664 4.6343043 10.402466 4.8880737 C 10.296789 5.0438115 10.200864 5.2572104 10.110494 5.536613 C 9.941163 6.0519798 9.7189165 6.437849 9.325529 6.8657308 C 9.28621 6.9012727 9.2835969 6.8957653 9.2686849 6.7484253 C 9.2600779 6.6634388 9.2328803 6.419993 9.2082235 6.207373 C 9.1835705 5.9947463 9.1426099 5.6418005 9.1172729 5.4229248 C 9.091941 5.2040491 9.0422026 4.7789697 9.0061686 4.4787964 C 8.9701358 4.178623 8.9278203 3.8228375 8.9126343 3.688147 C 8.8974483 3.5534563 8.8819911 3.4464554 8.8780111 3.4504354 C 8.8680047 3.4604278 8.7161791 4.8556669 8.604126 5.9670776 C 8.571629 6.2894449 8.5603353 6.3490903 8.5441813 6.2854045 C 8.3496914 6.0815199 8.0743693 5.7369053 7.8201945 5.4983724 C 7.5982586 5.2792835 7.4111097 5.0714873 7.3416707 4.9676554 C 7.206393 4.7653841 6.9622279 4.2795442 6.8672811 4.0240438 L 6.799585 3.8421427 L 6.7985514 4.0266276 C 6.7969001 4.3016146 6.8389166 4.7626906 6.889502 5.0244995 C 6.94187 5.2955196 6.9950389 5.435171 7.2104126 5.8637248 C 7.2976784 6.0373647 7.383267 6.2215092 7.4005819 6.2730021 C 7.4210802 6.3339612 7.4496346 6.47483 7.477063 6.6316366 C 6.7136946 5.5923393 5.9237402 4.5154614 5.6565023 4.148584 C 5.5154257 3.9549046 5.5076012 3.9432844 5.5097412 3.9392944 C 5.5131188 3.9329944 5.5634362 3.8857254 5.628597 3.8271566 C 5.7100158 3.7539818 5.738681 3.7259404 5.764506 3.6958984 C 5.78749 3.6691586 5.8033882 3.6453545 5.810498 3.6256185 C 5.827757 3.5777273 5.8052265 3.4978333 5.7521037 3.4173625 C 5.7066768 3.3485589 5.6493066 3.2874709 5.5614176 3.2142741 C 5.5548844 3.208832 5.494267 3.161503 5.4265422 3.1088542 C 5.1393272 2.8855716 4.3180273 2.2430075 4.0395467 2.0236491 C 3.8680922 1.8885954 3.8293026 1.8619245 3.7982178 1.8582845 C 3.793921 1.857781 3.7900737 1.8574921 3.7863322 1.8577677 z M 10.701672 4.7687012 C 10.702709 4.7683366 10.703587 4.76855 10.704256 4.7692179 C 10.70996 4.7749141 10.663927 4.9086619 10.601937 5.0663574 C 10.473321 5.3935044 10.456043 5.4680175 10.404533 5.9231527 C 10.382353 6.1191274 10.344855 6.3215644 10.311515 6.422347 C 10.251249 6.6044853 10.062882 6.9887423 9.9580485 7.14375 C 9.8781065 7.2619625 9.8781177 7.2753192 9.9585653 7.3085978 C 9.9942229 7.3233501 10.084119 7.3807481 10.158036 7.4362386 C 10.404091 7.6146828 10.640392 7.8608848 10.823112 8.2186198 C 10.878051 8.3254792 10.925965 8.4163579 10.929565 8.4201579 C 10.941366 8.4325481 11.402902 8.314005 11.624097 8.2418742 C 11.889197 8.1554312 11.999958 8.0930448 12.357385 7.8289795 C 12.662083 7.6038721 12.822553 7.5210208 13.297896 7.343221 C 13.411298 7.3008058 13.284999 7.379578 13.149585 7.4357218 C 12.839964 7.5640886 12.631731 7.6768673 12.477791 7.8005575 C 12.120729 8.0874419 11.956065 8.204034 11.822017 8.2646118 C 11.642715 8.3456451 11.389079 8.4319385 11.161076 8.4894043 C 11.062934 8.5141383 10.97784 8.5393448 10.97194 8.5452148 C 10.96606 8.5510834 10.979049 8.6212101 11.000879 8.7007609 C 11.030299 8.8079851 11.04122 8.9360827 11.04222 9.1973714 C 11.043608 9.5620711 11.033732 9.6199914 10.91613 9.9440959 C 10.89201 10.01068 10.87759 10.073639 10.88409 10.084139 C 10.903539 10.115567 11.326041 10.368578 11.521777 10.466028 C 11.75711 10.583189 11.889041 10.621469 12.213208 10.665499 C 12.658293 10.725958 12.799042 10.766076 13.205396 10.948169 C 13.291187 10.986609 13.355873 11.023001 13.349573 11.029301 C 13.343279 11.035581 13.292038 11.021005 13.235368 10.996745 C 12.795003 10.808219 12.659706 10.77393 12.091252 10.70839 C 11.768951 10.671231 11.706728 10.652937 11.351245 10.489799 C 11.269887 10.452463 11.117932 10.370718 11.013798 10.307898 C 10.909672 10.245073 10.821111 10.197046 10.816911 10.201444 C 10.812676 10.205875 10.757428 10.286492 10.694438 10.380762 C 10.481023 10.700185 10.110007 11.016034 9.7864827 11.153324 C 9.6486555 11.211811 9.6506441 11.179964 9.7590942 11.608077 C 9.8872703 12.114065 9.9467038 12.238818 10.257772 12.658142 C 10.353597 12.787312 10.458966 12.938782 10.491866 12.995072 C 10.563815 13.118148 10.763149 13.608457 10.753349 13.637927 C 10.749516 13.64941 10.696405 13.542506 10.635527 13.400732 C 10.479871 13.038251 10.424216 12.946447 10.167338 12.62817 C 10.042648 12.473674 9.9106229 12.290783 9.8738159 12.221993 C 9.774001 12.035451 9.6419101 11.643042 9.5663411 11.30887 L 9.5523885 11.248409 L 9.4216471 11.283032 C 9.0891423 11.370717 8.5878299 11.353384 8.2403239 11.242208 C 8.1193726 11.203508 8.0144464 11.180962 8.0067464 11.192082 C 7.9135638 11.326708 7.7128003 11.667202 7.6315755 11.828735 C 7.5100824 12.070342 7.4762613 12.194355 7.4145345 12.619902 C 7.3607237 12.990843 7.3425147 13.056197 7.1974935 13.398665 C 7.1379156 13.539357 7.0798042 13.660066 7.0688192 13.666866 C 7.0501383 13.678398 7.0825134 13.584782 7.2228149 13.222449 C 7.305856 13.007991 7.3172236 12.955518 7.3664754 12.534635 C 7.4260905 12.025171 7.5206182 11.756612 7.803658 11.2913 C 7.853224 11.209819 7.8955291 11.135769 7.8977091 11.126969 C 7.8998965 11.11813 7.8377829 11.071873 7.7597331 11.024133 C 7.4425997 10.830181 7.157944 10.524495 6.9758016 10.182841 C 6.9235585 10.084853 6.8779358 10.001276 6.8745158 9.9968058 C 6.8615723 9.9799029 6.406101 10.088714 6.1711995 10.164754 C 5.9033161 10.251476 5.7458153 10.337797 5.4585815 10.556462 C 5.1802717 10.768326 5.058903 10.839854 4.7935059 10.948169 C 4.3123546 11.144537 4.3061784 11.114561 4.7847209 10.905278 C 5.0786073 10.776746 5.1343733 10.741878 5.4337769 10.502718 C 5.6268375 10.348507 5.8292002 10.208427 5.92677 10.161137 C 6.1055297 10.074495 6.5003463 9.9423278 6.7122518 9.8981038 C 6.8155071 9.876554 6.8412548 9.8631352 6.8305908 9.8355754 C 6.774149 9.6896764 6.7437142 9.4732678 6.7427409 9.2087402 C 6.7416105 8.9003465 6.7645735 8.7526679 6.8559123 8.4826864 C 6.8853151 8.3957756 6.9072181 8.3228391 6.9044881 8.3209391 C 6.8237486 8.2647118 6.4968866 8.0691001 6.387207 8.0113973 C 6.0519649 7.8350235 5.9141227 7.7924736 5.4782186 7.7318278 C 5.1486932 7.6859798 5.0033149 7.64832 4.7666341 7.5468262 C 4.66254 7.5021892 4.5426067 7.451062 4.4999837 7.433138 C 4.4573629 7.415215 4.4272211 7.3953029 4.4333211 7.3892131 C 4.4394206 7.3831229 4.5769767 7.4305213 4.7387288 7.4941162 C 5.0549743 7.6184479 5.2400356 7.6621334 5.5448812 7.6848022 C 5.8182186 7.7051297 6.0464703 7.7570724 6.2569824 7.8470662 C 6.4484789 7.9289269 6.7874067 8.1059396 6.8951864 8.1803792 C 6.9303452 8.2046622 6.9621563 8.2210427 6.9654663 8.2165527 C 6.9687753 8.2120588 7.0001583 8.1571342 7.0357463 8.0945964 C 7.2350431 7.7443454 7.6356988 7.3781881 7.9710897 7.2393514 C 8.0673626 7.1994963 8.0951131 7.1768222 8.0951131 7.1385824 C 8.0951131 7.0664873 7.9721743 6.5984237 7.9013265 6.4006429 C 7.8221238 6.1795416 7.7649965 6.0831631 7.5204712 5.755721 C 7.409388 5.6069673 7.2895944 5.4276137 7.2543376 5.3572957 C 7.1663256 5.1817627 7.021002 4.8087713 7.0300618 4.7816203 C 7.0341395 4.7693938 7.0618944 4.8191867 7.0915568 4.8922078 C 7.2490553 5.2799108 7.3672166 5.4837871 7.6036702 5.7753581 C 7.7355244 5.9379517 7.8790287 6.1425642 7.9225138 6.2301107 C 8.0072063 6.4006159 8.1387538 6.7829704 8.1870972 6.999056 C 8.2152926 7.1250829 8.2195576 7.1306243 8.2754639 7.1163615 C 8.7510879 6.9950212 9.265006 7.0152092 9.6583252 7.1706217 L 9.7756307 7.2166138 L 9.8371257 7.1230794 C 10.032908 6.8275944 10.242271 6.4131905 10.288261 6.2290771 C 10.306881 6.1545212 10.338864 5.9709175 10.359574 5.8208333 C 10.380274 5.6707458 10.407416 5.5070592 10.420036 5.4570312 C 10.465958 5.274989 10.669546 4.7800035 10.701672 4.7687012 z M 8.9178019 7.1282471 C 8.4702283 7.1287144 8.0178996 7.2788177 7.6625814 7.5442424 C 6.9998884 8.0392717 6.6981624 8.9048476 6.909139 9.7063843 C 6.9758302 10.045421 7.2120917 10.447907 7.5240885 10.710457 C 7.8496881 11.000212 8.2080047 11.165462 8.6294474 11.220504 C 9.6872264 11.358662 10.686941 10.651317 10.906311 9.6097493 C 10.962531 9.3428478 10.952747 8.9516153 10.883057 8.6837077 C 10.72053 8.1226428 10.313816 7.6257753 9.8138713 7.349939 C 9.5618052 7.2252253 9.1688657 7.1279913 8.9178019 7.1282471 z M 8.9012655 7.2191976 C 8.9096748 7.2187048 8.9147013 7.2277866 8.9147013 7.2476196 C 8.9147013 7.2923335 9.0657434 7.495922 9.156547 7.5736979 L 9.2387126 7.6444946 L 9.1704997 7.7385457 C 9.132839 7.790472 9.0586534 7.932853 9.0056519 8.0548055 C 8.9526465 8.1767613 8.9014537 8.2852177 8.8919637 8.2956177 C 8.8824717 8.3060176 8.8468056 8.2416115 8.8128988 8.1529907 C 8.7475905 7.9929467 8.6340532 7.8321845 8.5638184 7.6651652 C 8.559681 7.6398646 8.5872899 7.60622 8.6749227 7.5116862 C 8.7465645 7.4343981 8.8213408 7.3370139 8.8413208 7.2951619 C 8.8641764 7.247294 8.8872499 7.2200189 8.9012655 7.2191976 z M 8.3591797 7.3618245 C 8.3649171 7.3675565 8.2947734 7.4106559 8.2036336 7.4579427 C 7.7113367 7.7133648 7.2241364 8.1969157 7.4589762 8.1969157 C 7.4833469 8.1969157 7.5571067 8.1703584 7.6227905 8.1380046 C 7.9701584 7.9669107 8.1964864 7.919984 8.3943197 7.9778076 C 8.5805808 8.0322478 8.7125462 8.1566673 8.7653564 8.3276571 C 8.7749174 8.3586179 8.7717942 8.3788167 8.7570882 8.3788167 C 8.7463834 8.3744251 8.6939519 8.2952188 8.6346151 8.224821 C 8.5249561 8.0957997 8.3912687 8.060374 8.2082845 8.064624 C 8.0645199 8.0727369 8.0189254 8.0884317 7.7747192 8.2150024 C 7.4770659 8.3692732 7.3769665 8.3892138 7.2982625 8.3106038 C 7.2732157 8.28559 7.2527873 8.247952 7.2527873 8.226888 C 7.2527873 8.1468814 7.3500422 7.9929026 7.4749959 7.8754883 C 7.6664548 7.6928077 8.0340138 7.4629528 8.3591797 7.3618245 z M 9.4231974 7.3628581 C 9.4309761 7.3637799 9.4452365 7.3680926 9.4666056 7.3762939 C 9.9016953 7.5432964 10.34501 7.856072 10.479464 8.0914958 C 10.520764 8.1638039 10.514641 8.2753413 10.467061 8.3183553 C 10.320498 8.4182989 10.042801 8.2392699 9.8939697 8.1586751 C 9.6697919 8.0496363 9.4774432 8.0324772 9.3064087 8.1059652 C 9.2410409 8.1340486 9.1593674 8.1902374 9.1250244 8.2305054 C 9.0906734 8.2707727 9.0505402 8.3229575 9.0356242 8.3467773 C 9.0100142 8.3876633 9.0084821 8.3879624 9.0072021 8.3488444 C 9.0048714 8.2767102 9.1175413 8.1135076 9.2133911 8.0501546 C 9.4304057 7.9067188 9.6666972 7.9186917 10.046415 8.0925293 C 10.171814 8.1499385 10.291569 8.1969157 10.312549 8.1969157 C 10.430053 8.1969157 10.337391 8.0198396 10.123413 7.8351807 C 9.9877586 7.7181126 9.6719421 7.5067709 9.5125977 7.4264201 C 9.4354032 7.3874951 9.3998616 7.3600925 9.4231974 7.3628581 z M 8.8919637 7.4031657 C 8.8857037 7.4024579 8.8318491 7.4565967 8.7725911 7.5240885 L 8.6651042 7.6470785 L 8.7519206 7.8310465 C 8.8044816 7.9476132 8.821427 7.9690892 8.8599243 8.0697917 C 8.8809343 8.1244725 8.9094549 8.1132945 8.9265869 8.0434367 C 8.9350239 8.0090426 8.9789923 7.9092966 9.0247721 7.8217448 L 9.108488 7.6625814 L 9.0056519 7.5333903 C 8.9492986 7.462337 8.8982237 7.4038649 8.8919637 7.4031657 z M 8.2217204 8.209318 C 8.3603757 8.2083118 8.3957171 8.2168026 8.4775187 8.270813 C 8.5909686 8.345722 8.6915956 8.5285712 8.7307332 8.73125 C 8.7452237 8.8062921 8.7619313 8.8906954 8.7679403 8.9188354 C 8.790356 9.0238488 8.7426367 8.965018 8.7033447 8.8392537 C 8.6498497 8.668039 8.5449156 8.5026804 8.4532308 8.4449626 C 8.2680011 8.3307924 8.0120838 8.451895 7.810376 8.5431478 C 7.5338284 8.6815306 7.4327625 8.7100894 7.3592407 8.6707886 C 7.2725003 8.6244221 7.2067952 8.5324017 7.2067952 8.4573649 C 7.2067952 8.4296789 7.2254661 8.4394988 7.2755249 8.4930216 C 7.3389272 8.5608146 7.3531891 8.5655001 7.4569092 8.5555501 C 7.5505768 8.5465589 7.5933118 8.5256102 7.7127075 8.4279093 C 7.9215172 8.2570391 8.0284787 8.2107165 8.2217204 8.209318 z M 9.5038127 8.209318 C 9.6156561 8.2048714 9.7447379 8.223197 9.8190389 8.2615112 C 9.9713617 8.3392241 10.226181 8.5829835 10.394714 8.5576172 C 10.473441 8.5302052 10.560152 8.4312631 10.538892 8.3932861 C 10.529922 8.3772591 10.535785 8.3781292 10.554395 8.3953532 C 10.578995 8.4181149 10.577352 8.4388054 10.543542 8.5136922 C 10.291283 9.0617337 9.7887951 8.0071144 9.2950399 8.4708008 C 9.2476474 8.5104288 9.1825171 8.5955387 9.1498291 8.6599365 C 9.1171396 8.7243314 9.0711745 8.8278776 9.0480265 8.8904134 L 9.0061686 9.0041016 L 9.0201213 8.856307 C 9.0453045 8.5887198 9.1838986 8.3199809 9.3368978 8.242391 C 9.3757556 8.2226864 9.4367066 8.211986 9.5038127 8.209318 z M 8.0780599 8.5384969 C 8.1731038 8.538178 8.326703 8.6036562 8.4139567 8.6816406 C 8.4924558 8.7518018 8.6640706 8.9607518 8.6640706 8.9860148 C 8.6640706 8.9973784 8.6308753 9.0026304 8.5901733 8.9979004 C 8.5395471 8.9920124 8.4756995 9.0105087 8.3876017 9.0568115 C 8.3167782 9.0940345 8.2060367 9.1360321 8.1416219 9.1498291 C 8.0772108 9.1636288 8.0221855 9.1741435 8.0196655 9.1730835 C 8.0171519 9.1720195 7.9639403 9.1588339 7.9013265 9.1436279 C 7.7779248 9.1136562 7.5290899 8.9879502 7.5674967 8.9751628 C 7.5804692 8.9708428 7.6235489 8.984192 7.6630981 9.0046183 C 7.7510796 9.0489536 7.9468449 9.071058 8.0594564 9.0883341 C 8.1636666 9.0868913 8.2249109 9.0705409 8.3271403 9.0170207 C 8.4000948 8.9788247 8.480562 8.9472575 8.505424 8.9472575 C 8.530284 8.9472575 8.5503825 8.9384124 8.5503825 8.9276204 C 8.5503825 8.8918109 8.3232213 8.6953014 8.2434245 8.6620036 C 8.0560279 8.5898916 7.8312943 8.6860889 7.6718831 8.7999797 C 7.5701454 8.8775405 7.4952109 8.8995964 7.4703451 8.8594076 C 7.4635481 8.8484226 7.4862372 8.8335646 7.5204712 8.8263346 C 7.5547082 8.8191016 7.6166365 8.7808381 7.6579305 8.7415853 C 7.7632694 8.6414473 7.9755215 8.538821 8.0780599 8.5384969 z M 9.6862305 8.5395304 C 9.7438273 8.5381975 9.801266 8.5495288 9.8577962 8.5731201 C 10.009611 8.6559151 9.9660385 8.6169928 10.200928 8.8030802 C 10.265569 8.8123562 10.324302 8.841057 10.313582 8.858374 C 10.288327 8.8991827 10.173165 8.8602157 10.0552 8.7710409 C 9.9133048 8.6637773 9.7729468 8.6180056 9.641272 8.6356486 C 9.5316761 8.6503292 9.3278509 8.7785605 9.2573161 8.8774943 L 9.2077067 8.9472575 L 9.2578328 8.9472575 C 9.2853266 8.9472575 9.3727642 8.979294 9.452653 9.018571 C 9.5892236 9.0857178 9.6094894 9.0897326 9.785966 9.0785156 C 9.9574001 9.0676139 10.155785 9.006888 10.134265 8.9720622 C 10.129745 8.9647452 10.150237 8.9573257 10.180257 8.9555257 C 10.210287 8.9537257 10.229549 8.9606148 10.223149 8.9710286 C 10.196214 9.0145436 9.9644836 9.1264915 9.8526286 9.1498291 C 9.7862671 9.1636701 9.7249828 9.1739192 9.7162028 9.1730835 C 9.6424884 9.1659921 9.4725836 9.1041447 9.3828898 9.0516439 C 9.2967424 9.0012219 9.2544739 8.9901407 9.1849691 8.9994507 C 9.1364351 9.0059707 9.0966024 9.0059707 9.0966024 8.9994507 C 9.0966024 8.9929358 9.1336168 8.9377108 9.1782511 8.8769775 C 9.3389106 8.6583902 9.5134398 8.5435291 9.6862305 8.5395304 z M 9.7115519 8.7343506 C 9.7850015 8.7349485 9.8595849 8.7558581 9.9456462 8.7979126 C 10.085624 8.8663074 10.109353 8.8910248 10.019543 8.873877 C 9.972437 8.864884 9.959637 8.8747817 9.939445 8.9358887 C 9.925875 8.9769595 9.8900682 9.0204234 9.8577962 9.0351074 C 9.7173877 9.0990028 9.5727766 9.0471152 9.5167318 8.913151 C 9.4907388 8.8510222 9.4757787 8.8408887 9.4221639 8.8480387 C 9.3758794 8.8542057 9.3929768 8.8396142 9.4841756 8.7942952 C 9.5660438 8.7536094 9.6381023 8.7337527 9.7115519 8.7343506 z M 8.0542887 8.7395182 C 8.13414 8.7390414 8.2175939 8.7573813 8.3054362 8.794812 C 8.400867 8.835478 8.4203779 8.868562 8.3364421 8.847522 C 8.2926281 8.83654 8.2794509 8.8442041 8.2687459 8.8867961 C 8.2614239 8.9159377 8.2339927 8.9671872 8.2077677 9.0004842 C 8.1681234 9.0508153 8.1423098 9.0608553 8.053772 9.0604289 C 7.9305461 9.0598439 7.8546221 9.011902 7.8320801 8.9193522 C 7.8190781 8.8659654 7.8081573 8.8588946 7.7566325 8.8702596 L 7.6966878 8.8831787 L 7.7649007 8.8356364 C 7.8553081 8.7722906 7.951623 8.7401313 8.0542887 8.7395182 z M 8.117334 8.794812 A 0.034151658 0.03410932 0 0 0 8.0883952 8.8289185 A 0.034151658 0.03410932 0 0 0 8.1225016 8.8630249 A 0.034151658 0.03410932 0 0 0 8.1566081 8.8289185 A 0.034151658 0.03410932 0 0 0 8.1566081 8.8268514 A 0.034151658 0.03410932 0 0 0 8.1560913 8.8242676 A 0.034151658 0.03410932 0 0 0 8.1555745 8.8216838 A 0.034151658 0.03410932 0 0 0 8.1550578 8.8190999 A 0.034151658 0.03410932 0 0 0 8.154541 8.8165161 A 0.034151658 0.03410932 0 0 0 8.1535075 8.8149658 A 0.034151658 0.03410932 0 0 0 8.1529907 8.8134155 A 0.034151658 0.03410932 0 0 0 8.1519572 8.8118652 A 0.034151658 0.03410932 0 0 0 8.1514404 8.8103149 A 0.034151658 0.03410932 0 0 0 8.1504069 8.8087646 A 0.034151658 0.03410932 0 0 1 8.1498901 8.8082479 A 0.034151658 0.03410932 0 0 0 8.1478231 8.8061808 A 0.034151658 0.03410932 0 0 1 8.1473063 8.8056641 A 0.034151658 0.03410932 0 0 0 8.1462728 8.8041138 A 0.034151658 0.03410932 0 0 0 8.1447225 8.8030802 A 0.034151658 0.03410932 0 0 1 8.1442057 8.8025635 A 0.034151658 0.03410932 0 0 0 8.1426554 8.8015299 A 0.034151658 0.03410932 0 0 1 8.1421387 8.8010132 A 0.034151658 0.03410932 0 0 0 8.1405884 8.7999797 A 0.034151658 0.03410932 0 0 0 8.1390381 8.7989461 A 0.034151658 0.03410932 0 0 0 8.1374878 8.7984294 A 0.034151658 0.03410932 0 0 0 8.1359375 8.7973958 A 0.034151658 0.03410932 0 0 0 8.1333537 8.7963623 A 0.034151658 0.03410932 0 0 0 8.1318034 8.7958455 A 0.034151658 0.03410932 0 0 0 8.1292196 8.7953288 A 0.034151658 0.03410932 0 0 0 8.1266357 8.794812 A 0.034151658 0.03410932 0 0 0 8.1230184 8.794812 A 0.034151658 0.03410932 0 0 1 8.1225016 8.794812 A 0.034151658 0.03410932 0 0 0 8.117334 8.794812 z M 9.6764119 8.794812 A 0.034151658 0.03410932 0 0 0 9.6474731 8.8289185 A 0.034151658 0.03410932 0 0 0 9.6815796 8.8630249 A 0.034151658 0.03410932 0 0 0 9.715686 8.8289185 A 0.034151658 0.03410932 0 0 0 9.715686 8.8268514 A 0.034151658 0.03410932 0 0 0 9.7151693 8.8242676 A 0.034151658 0.03410932 0 0 0 9.7151693 8.8216838 A 0.034151658 0.03410932 0 0 0 9.7141357 8.8190999 A 0.034151658 0.03410932 0 0 0 9.713619 8.8165161 A 0.034151658 0.03410932 0 0 0 9.7125854 8.8149658 A 0.034151658 0.03410932 0 0 0 9.7120687 8.8134155 A 0.034151658 0.03410932 0 0 0 9.7110352 8.8118652 A 0.034151658 0.03410932 0 0 0 9.7105184 8.8103149 A 0.034151658 0.03410932 0 0 0 9.7094849 8.8087646 A 0.034151658 0.03410932 0 0 1 9.7089681 8.8082479 A 0.034151658 0.03410932 0 0 0 9.7079346 8.8066976 A 0.034151658 0.03410932 0 0 0 9.7063843 8.8056641 A 0.034151658 0.03410932 0 0 0 9.7053507 8.8041138 A 0.034151658 0.03410932 0 0 1 9.704834 8.803597 A 0.034151658 0.03410932 0 0 0 9.7032837 8.8025635 A 0.034151658 0.03410932 0 0 1 9.7027669 8.8020467 A 0.034151658 0.03410932 0 0 0 9.7012166 8.8010132 A 0.034151658 0.03410932 0 0 0 9.6996663 8.7999797 A 0.034151658 0.03410932 0 0 0 9.698116 8.7989461 A 0.034151658 0.03410932 0 0 0 9.6965658 8.7984294 A 0.034151658 0.03410932 0 0 0 9.6950155 8.7973958 A 0.034151658 0.03410932 0 0 0 9.6934652 8.7968791 A 0.034151658 0.03410932 0 0 0 9.6908813 8.7958455 A 0.034151658 0.03410932 0 0 0 9.6882975 8.7953288 A 0.034151658 0.03410932 0 0 0 9.6857137 8.794812 A 0.034151658 0.03410932 0 0 0 9.6831299 8.794812 A 0.034151658 0.03410932 0 0 0 9.6815796 8.794812 A 0.034151658 0.03410932 0 0 0 9.6764119 8.794812 z M 8.2119019 8.812382 C 8.203396 8.8124964 8.1870757 8.8343111 8.1705607 8.8780111 C 8.1378246 8.9646319 8.0436023 8.9918774 7.9540365 8.9405396 C 7.8784065 8.8971816 7.8675678 8.9292386 7.9406006 8.9803304 C 7.9684336 8.9998004 8.0098838 9.0154704 8.0325846 9.0154704 C 8.0983436 9.0154704 8.1809416 8.9499171 8.2062174 8.8774943 C 8.2214639 8.8338141 8.2204076 8.8122676 8.2119019 8.812382 z M 9.9213582 8.8222005 L 9.875883 8.8774943 C 9.850873 8.9079713 9.811261 8.9472805 9.788033 8.9648275 C 9.7472002 8.9956723 9.7472641 8.9966554 9.7901001 8.9891154 C 9.8144691 8.9848204 9.8540802 8.9455172 9.87795 8.9017822 L 9.9213582 8.8222005 z M 9.5585897 8.8253011 C 9.5543809 8.8248847 9.5523885 8.8304612 9.5523885 8.8413208 C 9.5523405 8.8641709 9.5819275 8.9127627 9.6185343 8.9493245 C 9.6841653 9.0148774 9.7342896 9.0345314 9.7342896 8.9953166 C 9.7342896 8.9842686 9.7142658 8.9701739 9.6898478 8.9637939 C 9.6654328 8.9574171 9.6245263 8.917927 9.5988973 8.875944 C 9.5785967 8.8426853 9.5656043 8.8259951 9.5585897 8.8253011 z M 7.56698 9.1534465 C 7.574149 9.1510292 7.5711288 9.161027 7.5607788 9.1860026 C 7.513428 9.3002618 7.4834143 9.4571039 7.4961833 9.5208659 C 7.5038811 9.559312 7.551856 9.6345037 7.6031535 9.6877808 C 7.7099541 9.7986938 7.8477545 9.847041 7.9907267 9.8242065 C 8.1689228 9.7929217 8.2595104 9.684439 8.3193888 9.6190511 C 8.3588958 9.5741103 8.3912191 9.5272545 8.3912191 9.5151815 C 8.3912191 9.5031125 8.4014387 9.4934774 8.4139567 9.4934774 C 8.4264807 9.4934774 8.4366943 9.5282412 8.4366943 9.570992 C 8.4366943 9.6722489 8.4564757 9.7208537 8.4976725 9.7208537 C 8.5216985 9.7208537 8.5262447 9.70667 8.5147257 9.669694 C 8.4993619 9.6203942 8.5003078 9.6196366 8.5431478 9.6578084 C 8.6196115 9.7259315 8.6568651 9.6683754 8.6718221 9.4583374 C 8.6938271 9.149229 8.7301194 9.1239586 8.7281494 9.4190633 C 8.726131 9.7214705 8.7537297 9.7890666 8.8769775 9.7890666 C 9.0266367 9.7890666 9.0403612 9.7584081 9.0376912 9.4366333 C 9.0363832 9.2787024 9.0432014 9.1578571 9.0531942 9.1679159 C 9.0631853 9.1779797 9.0846493 9.297389 9.1007365 9.433016 L 9.1301921 9.6795125 L 9.2030558 9.667627 C 9.2600978 9.658385 9.273754 9.6629847 9.264034 9.6882975 C 9.248688 9.7282375 9.292411 9.7316846 9.316744 9.6924316 C 9.326435 9.6768012 9.3400163 9.6236342 9.3467163 9.5746094 L 9.3586019 9.4857259 L 9.424231 9.5802938 C 9.4603718 9.6324446 9.4994874 9.6753784 9.5110474 9.6753784 C 9.5226074 9.6753784 9.5246382 9.6634634 9.5156982 9.6490234 C 9.5055544 9.6326236 9.5098993 9.6289259 9.5265503 9.6392049 C 9.5412343 9.6482519 9.5476097 9.6642197 9.5410197 9.6748617 C 9.5227776 9.7043473 9.638434 9.7856102 9.7358398 9.8118042 C 9.9172447 9.8605907 10.140993 9.7728792 10.228833 9.6180176 C 10.291783 9.5069801 10.294148 9.4146946 10.237618 9.2661011 C 10.187118 9.1333799 10.211221 9.1127131 10.270691 9.237679 C 10.331551 9.3655581 10.340128 9.5235471 10.291878 9.6304199 C 10.223915 9.7809493 10.01627 9.9027325 9.8283407 9.902238 C 9.742287 9.9020077 9.5579323 9.8239515 9.4624715 9.7472087 L 9.4071777 9.7027669 L 9.3642863 9.7570272 C 9.3179408 9.815874 9.2189539 9.829675 9.1410441 9.788033 C 9.1065171 9.7695782 9.08574 9.7747177 9.046993 9.8107707 C 9.019774 9.8361005 8.9784202 9.8626086 8.9544922 9.8701986 C 8.8875346 9.8914234 8.7660523 9.861049 8.7214315 9.8118042 C 8.6912035 9.7784412 8.6713073 9.7730113 8.6402995 9.7895833 C 8.5598657 9.8325803 8.4402196 9.8157205 8.4010376 9.7559937 L 8.3648641 9.7006999 L 8.2635783 9.7782145 C 8.2078581 9.8206978 8.1242101 9.8660406 8.0775431 9.8789836 C 7.8803867 9.9336711 7.715614 9.8891712 7.5674967 9.7415243 C 7.482794 9.6570918 7.4579424 9.6143169 7.4455404 9.5317179 C 7.427997 9.4148751 7.4800221 9.2218994 7.5426921 9.1710164 C 7.5549379 9.1610741 7.5626786 9.1548968 7.56698 9.1534465 z M 7.1013753 9.6578084 C 7.1110503 9.6624661 7.129845 9.7224748 7.16132 9.8453939 C 7.2102335 10.036401 7.3089659 10.215624 7.4217692 10.31875 C 7.5953276 10.477413 7.8591816 10.545292 7.9431844 10.452592 C 8.0082292 10.380808 8.0152879 10.278125 7.9592041 10.222115 C 7.8796327 10.142639 7.7977685 10.166868 7.7364787 10.288261 C 7.6874237 10.385411 7.6851482 10.386857 7.685319 10.322367 C 7.685379 10.285328 7.7097493 10.224732 7.7395793 10.187492 C 7.7843264 10.131642 7.8107109 10.119796 7.8899577 10.119796 C 7.9667953 10.119796 7.9967411 10.132221 8.0403361 10.182841 C 8.1310615 10.288182 8.0990817 10.451192 7.9679891 10.55026 C 7.90723 10.59618 7.7371598 10.591715 7.6264079 10.541475 C 7.3688809 10.418914 7.2693475 10.315558 7.2083455 10.133232 C 7.1567514 10.032219 7.0931071 9.7970224 7.0931071 9.7079346 C 7.0931071 9.6722765 7.0955703 9.6550138 7.1013753 9.6578084 z M 10.677901 9.7053507 C 10.683886 9.7047926 10.685151 9.7235661 10.677384 9.7668457 C 10.61098 10.136857 10.433918 10.406206 10.177157 10.527523 C 9.9487921 10.635426 9.7505588 10.57903 9.687264 10.38748 C 9.663839 10.316599 9.6656395 10.292965 9.6996663 10.229867 C 9.8006457 10.042594 10.03491 10.083679 10.08879 10.298079 C 10.11088 10.385998 10.066826 10.369976 10.033496 10.277926 C 9.9984485 10.181116 9.9199427 10.153116 9.8366089 10.207646 C 9.7607381 10.257294 9.7586438 10.375054 9.8324748 10.444324 C 9.9047037 10.512094 10.036523 10.509134 10.183358 10.436056 C 10.387118 10.334644 10.562486 10.099018 10.624674 9.8428101 C 10.644624 9.7606251 10.667926 9.706281 10.677901 9.7053507 z M 9.0950521 10.040731 L 9.1586141 10.093441 C 9.2662309 10.183138 9.3627001 10.221082 9.4841756 10.221082 L 9.6009644 10.221082 L 9.5508382 10.291361 C 9.5232949 10.329996 9.4587497 10.392214 9.4071777 10.429854 C 9.3164232 10.496074 9.3078522 10.497774 9.1425944 10.482564 C 9.0486724 10.473954 8.9357937 10.467061 8.8919637 10.467061 C 8.8481334 10.467061 8.7352568 10.473214 8.641333 10.481014 C 8.528211 10.490464 8.4554895 10.486638 8.4253255 10.469128 C 8.3737225 10.439177 8.1631552 10.240288 8.163326 10.221598 C 8.1633618 10.214878 8.2289017 10.209713 8.3090535 10.209713 C 8.4397158 10.209713 8.4670805 10.20124 8.5736369 10.12703 L 8.6924927 10.043831 L 8.7958455 10.089823 L 8.8991984 10.135299 L 8.9973836 10.087756 L 9.0950521 10.040731 z M 8.8645752 10.249504 C 8.8444051 10.25005 8.8248441 10.251104 8.8082479 10.252604 L 8.8082479 10.253121 C 8.7551408 10.257921 8.7931336 10.261736 8.8924805 10.261906 C 8.9918294 10.261906 9.0353564 10.257921 8.9891154 10.253121 C 8.9573245 10.249772 8.9089493 10.2483 8.8645752 10.249504 z M 8.9033325 10.576615 C 9.0064305 10.575569 9.1062168 10.587389 9.1617147 10.616406 C 9.2545196 10.664976 9.2402796 10.69059 9.1400106 10.65568 C 9.0999319 10.64173 8.9865464 10.630359 8.8878296 10.630359 C 8.7826068 10.630359 8.6757364 10.644112 8.6294474 10.663432 C 8.5836236 10.682542 8.5503825 10.68645 8.5503825 10.67325 C 8.5503825 10.616282 8.7315026 10.578359 8.9033325 10.576615 z " />
  </g>
</svg>
