<?xml version="1.0" encoding="UTF-8" standalone="no"?>
<svg
   width="17mm"
   height="17mm"
   inkscape:version="1.2 (1:1.2+202206011327+fc4e4096c5)"
   sodipodi:docname="lannister_logo.svg"
   version="1.1"
   viewBox="0 0 17 17"
   id="svg144944"
   xmlns:inkscape="http://www.inkscape.org/namespaces/inkscape"
   xmlns:sodipodi="http://sodipodi.sourceforge.net/DTD/sodipodi-0.dtd"
   xmlns="http://www.w3.org/2000/svg"
   xmlns:svg="http://www.w3.org/2000/svg">
  <defs
     id="defs144946" />
  <sodipodi:namedview
     bordercolor="#666666"
     borderopacity="1.0"
     inkscape:current-layer="g144942"
     inkscape:cx="61.65087"
     inkscape:cy="49.851026"
     inkscape:deskcolor="#d1d1d1"
     inkscape:document-units="mm"
     inkscape:pagecheckerboard="0"
     inkscape:pageopacity="0.0"
     inkscape:showpageshadow="2"
     inkscape:window-height="1403"
     inkscape:window-maximized="1"
     inkscape:window-width="2560"
     inkscape:window-x="3840"
     inkscape:window-y="0"
     inkscape:zoom="11.313709"
     pagecolor="#ffffff"
     showgrid="true"
     showguides="false"
     id="namedview144936">
    <inkscape:grid
       dotted="false"
       originx="0"
       originy="0"
       spacingx="0.5"
       spacingy="0.5"
       type="xygrid"
       units="mm"
       id="grid144934" />
  </sodipodi:namedview>
  <g
     inkscape:groupmode="layer"
     inkscape:label="Layer 1"
     id="g144942">
    <ellipse
       cx="8.5"
       cy="8.5"
       fill="#fce94f"
       stop-color="#000000"
       style="paint-order:fill markers stroke;fill:#2c89a0"
       id="ellipse144938"
       ry="8.5"
       rx="8.5" />
    <path
       style="display:inline;fill:#ffffff;stroke-width:0.0426213"
       d="m 6.2854877,14.363123 c -0.01923,-0.0263 -0.0934,-0.184238 -0.132597,-0.282363 -0.07833,-0.19611 -0.121031,-0.399667 -0.126688,-0.603898 -0.0039,-0.138955 0.01897,-0.323399 0.05299,-0.428446 0.02145,-0.06623 0.07245,-0.138983 0.155201,-0.221366 0.07402,-0.07369 0.130465,-0.114838 0.213213,-0.155431 0.119034,-0.05839 0.271751,-0.10958 0.32952,-0.110471 0.01882,0 0.02147,0 0.02751,0.0059 0.01307,0.01223 0.017,0.04005 0.02181,0.154279 0.0034,0.08112 0.0088,0.149912 0.01675,0.212554 0.01103,0.08732 0.01913,0.129182 0.04727,0.244437 0.0097,0.03972 0.01763,0.07358 0.01763,0.07524 0,0.0016 -0.0352,0.0391 -0.07823,0.0832 -0.08731,0.08948 -0.127801,0.133965 -0.171577,0.188485 -0.117545,0.146392 -0.200442,0.299506 -0.258682,0.477766 -0.01942,0.05944 -0.03032,0.10062 -0.06304,0.238066 -0.01549,0.06506 -0.02957,0.121238 -0.03129,0.124824 -0.0049,0.01028 -0.01083,0.0095 -0.01979,-0.0028 z m 0.939245,-0.952008 c -0.0056,-0.01056 -0.07398,-0.184103 -0.08659,-0.219919 -0.03701,-0.105246 -0.05952,-0.195196 -0.07195,-0.28765 -0.0069,-0.05122 -0.0094,-0.145791 -0.0052,-0.20054 0.01149,-0.153278 0.01949,-0.188916 0.04876,-0.217383 0.01801,-0.01751 0.03824,-0.02651 0.125271,-0.05566 0.09818,-0.03288 0.145971,-0.05192 0.205072,-0.08172 0.07135,-0.03598 0.12969,-0.07406 0.199,-0.129926 0.01824,-0.0147 0.05069,-0.04083 0.07211,-0.05806 0.04236,-0.03408 0.07369,-0.05601 0.07631,-0.05339 0.0018,0.0017 0.01702,0.07275 0.02174,0.10108 0.0051,0.03023 -0.0048,0.05079 -0.04927,0.103473 -0.01317,0.01558 -0.03818,0.04523 -0.05558,0.06588 -0.107029,0.127015 -0.211834,0.287774 -0.282281,0.432987 -0.05757,0.118662 -0.109263,0.274308 -0.163412,0.492038 -0.01499,0.06026 -0.02814,0.110546 -0.02921,0.111749 -0.0011,0.0012 -0.0032,0 -0.0047,-0.003 z m -2.249099,-0.53034 c -7.83e-4,-0.0013 0.0031,-0.01431 0.0086,-0.0289 0.01728,-0.04538 0.02734,-0.13793 0.03845,-0.353477 0.01176,-0.228468 0.02168,-0.311995 0.0462,-0.389182 0.01873,-0.05892 0.04566,-0.101742 0.09797,-0.15569 0.0686,-0.07074 0.1159,-0.09894 0.203459,-0.121319 0.06328,-0.01618 0.123656,-0.02439 0.272354,-0.03705 0.142469,-0.01213 0.211231,-0.02074 0.28482,-0.03569 0.09457,-0.01922 0.150594,-0.03816 0.263375,-0.08906 0.03857,-0.01741 0.05272,-0.02272 0.05485,-0.02059 0.0021,0.0021 0.0029,0.06319 0.0027,0.22379 0,0.319522 -0.0041,0.366804 -0.03837,0.472212 -0.08216,0.252656 -0.223336,0.398709 -0.461505,0.477462 -0.107986,0.0357 -0.190977,0.0437 -0.568927,0.05482 -0.196963,0.0058 -0.202024,0.0059 -0.204007,0.0027 z m 3.133121,-0.448158 c -0.0024,-0.0039 -0.05362,-0.215686 -0.06909,-0.285762 -0.08135,-0.368422 -0.08776,-0.630947 -0.02172,-0.888102 0.01199,-0.04671 0.03361,-0.11624 0.04211,-0.13542 0.02108,-0.04761 0.04891,-0.06315 0.156847,-0.08754 0.09985,-0.02257 0.143432,-0.03559 0.219411,-0.06553 0.05405,-0.0213 0.07615,-0.03128 0.171318,-0.07734 0.09108,-0.04409 0.121697,-0.05727 0.125106,-0.05387 0.0036,0.0036 0.0133,0.06626 0.02619,0.169305 0.0063,0.05083 0.01219,0.09609 0.01295,0.100576 0.0013,0.0077 -0.0017,0.01142 -0.05779,0.07135 -0.103778,0.110822 -0.140048,0.152912 -0.194299,0.225503 -0.107336,0.143631 -0.19162,0.299343 -0.257632,0.475971 -0.04683,0.125313 -0.104256,0.334089 -0.13982,0.508341 -0.0082,0.04025 -0.01052,0.04746 -0.01358,0.04251 z m -1.643667,-0.0069 c -0.0024,-0.0063 0.0091,-0.390718 0.01448,-0.484068 0.0085,-0.147559 0.02304,-0.222127 0.05551,-0.285169 0.01447,-0.0281 0.03332,-0.05362 0.06453,-0.08735 0.09714,-0.104993 0.150358,-0.128196 0.448812,-0.195664 0.102524,-0.02317 0.148408,-0.03579 0.192622,-0.05295 0.03931,-0.01527 0.100025,-0.04587 0.15307,-0.07715 0.149983,-0.08844 0.266,-0.141663 0.343678,-0.157649 0.01081,-0.0022 0.03158,-0.0041 0.04617,-0.0041 0.03325,0 0.03494,0.0013 0.03494,0.02755 0,0.01034 -0.006,0.05384 -0.01391,0.100449 -0.02017,0.119116 -0.02952,0.189651 -0.04096,0.309003 -0.01822,0.189952 -0.03926,0.284321 -0.08294,0.372016 -0.0233,0.04676 -0.04519,0.077 -0.08414,0.116146 -0.08884,0.08932 -0.219639,0.163913 -0.381406,0.217543 -0.101184,0.03354 -0.205049,0.05941 -0.373264,0.09297 -0.09417,0.01879 -0.173536,0.03733 -0.230702,0.0539 -0.04609,0.01336 -0.07294,0.02365 -0.109568,0.04203 -0.03203,0.01607 -0.03513,0.0171 -0.03691,0.01244 z m -2.616565,-0.469212 c -7.84e-4,-0.0012 0.009,-0.02431 0.0215,-0.05143 0.01247,-0.02712 0.02543,-0.05878 0.02879,-0.07035 0.01233,-0.04245 0.01264,-0.04887 0.01291,-0.259994 0,-0.131975 0.0013,-0.211597 0.0034,-0.236975 0.01688,-0.206711 0.0564,-0.30984 0.156948,-0.409608 0.02598,-0.02578 0.06727,-0.05946 0.09717,-0.07927 0.09532,-0.06317 0.203818,-0.09825 0.371164,-0.120009 0.04431,-0.0058 0.0761,-0.0087 0.236806,-0.02183 0.08986,-0.0073 0.157716,-0.01457 0.194118,-0.02068 0.0174,-0.0029 0.03238,-0.0043 0.0335,-0.0031 0.0011,0.0012 -0.0081,0.03086 -0.0205,0.06589 -0.0343,0.09708 -0.03429,0.09705 -0.03413,0.174542 0,0.04883 0.0018,0.08397 0.007,0.141419 0.0201,0.224865 0.01431,0.349458 -0.02144,0.461744 -0.0374,0.117449 -0.109905,0.206824 -0.236225,0.291176 -0.0819,0.05467 -0.153399,0.08088 -0.243873,0.08938 -0.03191,0.003 -0.06491,0.0027 -0.245832,-0.0018 -0.06879,-0.0017 -0.109372,7.04e-4 -0.161587,0.0096 -0.02334,0.0039 -0.161367,0.03398 -0.191705,0.04167 -0.0038,9.71e-4 -0.0073,7.05e-4 -0.0079,-7.04e-4 z m 1.344446,-0.300888 c -0.01065,-0.01174 -0.01526,-0.04378 -0.02083,-0.144597 -0.01767,-0.31938 -0.01042,-0.505549 0.0253,-0.650287 0.05521,-0.223647 0.185108,-0.34709 0.442708,-0.42067 0.08054,-0.023 0.153556,-0.03766 0.301047,-0.0604 0.158774,-0.02449 0.233954,-0.0391 0.274838,-0.05341 0.01988,-0.007 0.0361,-0.0083 0.041,-0.0034 0.0054,0.0054 0.0033,0.02594 -0.0071,0.06732 -0.01987,0.07965 -0.03073,0.194739 -0.03071,0.325496 0,0.12192 0.0072,0.176203 0.0443,0.331609 0.01759,0.07386 0.02623,0.118118 0.03101,0.15894 0.01664,0.142088 -0.02038,0.212117 -0.146065,0.276312 -0.102328,0.05227 -0.202816,0.0725 -0.476502,0.09593 -0.09511,0.0081 -0.09407,0.008 -0.146699,0.01416 -0.125858,0.01465 -0.169712,0.02317 -0.267881,0.05206 -0.02876,0.0085 -0.05413,0.0154 -0.05637,0.01541 -0.0023,0 -0.0059,-0.002 -0.0081,-0.0045 z m 3.845927,-0.305491 c -0.0042,-0.0079 -0.03322,-0.101117 -0.04258,-0.136873 -0.01669,-0.06382 -0.02738,-0.120617 -0.03626,-0.192741 -0.0066,-0.05354 -0.0065,-0.217046 0,-0.270097 0.01753,-0.140563 0.04823,-0.255461 0.109913,-0.411513 l 0.02418,-0.06115 0.03907,-0.01226 c 0.170253,-0.0534 0.213981,-0.06952 0.291645,-0.107479 0.02926,-0.01431 0.06859,-0.03648 0.09923,-0.05596 0.0279,-0.01774 0.0517,-0.03131 0.05287,-0.03014 0.0012,0.0012 0.0063,0.0528 0.01136,0.114756 l 0.0092,0.11264 -0.0098,0.01123 c -0.0054,0.0062 -0.03278,0.03576 -0.06083,0.06573 -0.156016,0.166656 -0.250807,0.298941 -0.329246,0.459509 -0.06617,0.135451 -0.105753,0.262012 -0.140283,0.448462 -0.0067,0.03644 -0.01311,0.06724 -0.01414,0.06843 -10e-4,0.0012 -0.003,0 -0.0044,-0.0025 z m -2.527337,-0.0083 c -7.84e-4,-0.0013 7.83e-4,-0.02046 0.0027,-0.04268 0.0089,-0.08792 9.4e-4,-0.14072 -0.0473,-0.315379 -0.07813,-0.282667 -0.07643,-0.455479 0.006,-0.611882 0.03282,-0.06225 0.08258,-0.128326 0.139092,-0.184687 0.04492,-0.04479 0.08612,-0.07362 0.149363,-0.104475 0.06347,-0.03097 0.120507,-0.05004 0.20132,-0.06731 0.114802,-0.024537 0.235465,-0.035245 0.401197,-0.035585 0.129063,0 0.119927,-0.00393 0.113423,0.045647 -0.0051,0.03899 -0.0081,0.154419 -0.01055,0.407691 -0.0033,0.3419 -0.0053,0.371822 -0.0297,0.433085 -0.02557,0.06439 -0.05787,0.114726 -0.101483,0.158154 -0.06722,0.06693 -0.137399,0.09879 -0.311334,0.141339 -0.179992,0.04403 -0.289192,0.0808 -0.442317,0.148922 -0.03639,0.01619 -0.0668,0.02944 -0.06758,0.02944 -7.84e-4,0 -0.002,-0.001 -0.0028,-0.0023 z M 2.9303857,10.95254 c -0.0085,-0.01034 0.0023,-0.202768 0.02467,-0.436565 0.01432,-0.150137 0.01949,-0.18752 0.03338,-0.242002 0.02999,-0.117556 0.08815,-0.198857 0.172549,-0.241185 0.04081,-0.02047 0.07906,-0.03073 0.14094,-0.0378 0.128467,-0.014678 0.579693,-0.046107 0.737879,-0.051393 0.04905,-0.00164 0.05168,-0.00149 0.05344,0.00304 0.0087,0.022757 -0.06528,0.4926151 -0.09226,0.5855821 -0.01932,0.06659 -0.0569,0.139859 -0.09756,0.190205 -0.02191,0.02712 -0.06426,0.06699 -0.09262,0.08715 -0.02813,0.02002 -0.08557,0.04921 -0.118751,0.06036 -0.06488,0.02178 -0.178786,0.03531 -0.420731,0.04996 -0.146386,0.0089 -0.253894,0.01999 -0.295139,0.03054 -0.02905,0.0074 -0.04092,0.008 -0.04578,0.0021 z m 4.693773,-0.02293 c -0.0025,-0.0025 -0.002,-0.01617 8.62e-4,-0.02635 0.0082,-0.02839 0.01733,-0.170992 0.02811,-0.436975 0.0079,-0.1955 0.01471,-0.290212 0.02693,-0.375522 0.01899,-0.1326436 0.04727,-0.2070005 0.109702,-0.2883472 0.07615,-0.099223 0.215297,-0.1745397 0.401636,-0.2173948 0.09966,-0.022921 0.232112,-0.038899 0.241851,-0.029171 0.0048,0.00475 0.0038,0.013847 -0.0057,0.053346 -0.02132,0.088674 -0.028,0.1472481 -0.02798,0.2455426 0,0.06623 7.83e-4,0.081241 0.0056,0.1123289 0.01359,0.086674 0.01303,0.1410255 -0.0023,0.2201955 -0.01181,0.06115 -0.03362,0.131446 -0.085,0.273922 -0.01466,0.04064 -0.02576,0.07482 -0.02465,0.07594 0.0022,0.0022 0.02248,-0.0093 0.127754,-0.07265 0.07692,-0.04629 0.128961,-0.07412 0.187514,-0.10027 0.1151,-0.05139 0.213777,-0.07682 0.231078,-0.05953 0.0071,0.0071 0.0056,0.01511 -0.0129,0.07115 -0.01719,0.05199 -0.0316,0.0864 -0.05761,0.137602 -0.0384,0.07561 -0.06806,0.11965 -0.10949,0.162578 -0.0428,0.04434 -0.08131,0.07089 -0.1366,0.09415 -0.09432,0.03968 -0.206326,0.06148 -0.461717,0.08988 -0.221754,0.02466 -0.285909,0.03457 -0.369935,0.05713 -0.05065,0.0136 -0.06361,0.016 -0.06718,0.01244 z m -3.441063,-0.331441 c -0.001,-0.0069 0.02085,-0.135136 0.0566,-0.33189 0.04865,-0.2676993 0.05946,-0.3133238 0.09695,-0.4089639 0.04413,-0.1125652 0.110235,-0.2081802 0.187914,-0.2718036 0.04447,-0.036417 0.102015,-0.068701 0.155036,-0.086972 0.05932,-0.020455 0.170409,-0.04391 0.329105,-0.06951 0.157771,-0.025445 0.197081,-0.032735 0.272989,-0.050638 0.04154,-0.00978 0.05027,-0.010729 0.05434,-0.00586 0.0085,0.010245 0.01322,0.1219872 0.01323,0.3140421 0,0.2213396 -0.0056,0.3584814 -0.01793,0.4342954 -0.01509,0.0932 -0.03857,0.143986 -0.09787,0.211717 -0.10399,0.118772 -0.226455,0.164791 -0.52834,0.198551 -0.01264,0.0014 -0.06628,0.0066 -0.119198,0.01155 -0.226416,0.02114 -0.309972,0.03219 -0.366025,0.04838 -0.03275,0.0095 -0.03634,0.01015 -0.03679,0.0071 z m 5.627392,-0.1376 c -0.0128,-0.02477 -0.03236,-0.184817 -0.03726,-0.304973 -0.0077,-0.1869756 0.02009,-0.358954 0.11853,-0.7352758 0.02427,-0.092765 0.02876,-0.098438 0.09699,-0.1223307 0.09246,-0.032386 0.2103543,-0.093686 0.3073233,-0.1597948 0.111394,-0.075948 0.172039,-0.1521398 0.207932,-0.2612617 0.0214,-0.06504 0.04629,-0.1743331 0.05417,-0.2378735 0.0041,-0.032356 0.0035,-0.043775 -0.0017,-0.040531 -0.0041,0.00253 -0.02102,0.032684 -0.05241,0.093239 -0.01606,0.030991 -0.0389,0.070854 -0.05076,0.088584 -0.06184,0.092558 -0.157685,0.1914836 -0.234189,0.241726 -0.07517,0.049376 -0.161132,0.077954 -0.4007037,0.1332317 -0.08619,0.01989 -0.153515,0.038317 -0.219989,0.06023 -0.05524,0.018197 -0.08439,0.029765 -0.135221,0.053643 -0.02246,0.010543 -0.04976,0.02211 -0.0607,0.025712 -0.01866,0.00617 -0.02014,0.00632 -0.02419,0.00223 -0.0049,-0.00482 -0.0053,-0.00253 0.02235,-0.1023207 0.0298,-0.1074809 0.04375,-0.1871835 0.05105,-0.2917549 0.0013,-0.018917 0.0038,-0.1483233 0.0053,-0.2875587 l 0.0029,-0.2531686 0.03952,-0.072986 c 0.04921,-0.090884 0.07435,-0.140824 0.08757,-0.1739762 0.02782,-0.069725 0.03617,-0.1288549 0.02657,-0.1879637 -0.0057,-0.035164 -0.01399,-0.066036 -0.01942,-0.072391 l -0.0048,-0.00557 -0.0063,0.00764 c -0.0035,0.00423 -0.01522,0.022265 -0.02599,0.040144 -0.02784,0.046197 -0.04671,0.070187 -0.08272,0.1051356 -0.05658,0.054883 -0.116824,0.091814 -0.174429,0.1069151 -0.03408,0.00893 -0.165622,0.025118 -0.321458,0.03956 -0.289004,0.026781 -0.410607,0.050444 -0.543141,0.1057053 -0.02229,0.0093 -0.04138,0.015978 -0.04242,0.014842 -10e-4,-0.0011 0.0072,-0.023848 0.01835,-0.050473 0.04839,-0.1157878 0.05766,-0.1635143 0.05494,-0.282793 -0.0016,-0.065239 -0.0052,-0.1118907 -0.01515,-0.1949723 -0.0077,-0.063897 -0.0083,-0.1938837 -0.0011,-0.2395216 0.01271,-0.08053 0.03398,-0.1514723 0.07067,-0.235698 0.0073,-0.016818 0.03439,-0.073432 0.06015,-0.1258052 0.02576,-0.052382 0.04621,-0.096247 0.04545,-0.097479 -0.0018,-0.00282 -0.01525,0.00631 -0.06649,0.045276 -0.09126,0.069361 -0.181786,0.1223142 -0.245636,0.1436835 -0.0492,0.01646 -0.100284,0.019423 -0.371407,0.021516 -0.199573,0.00156 -0.278364,0.00401 -0.336901,0.010439 -0.04374,0.00482 -0.06411,0.00929 -0.118501,0.025949 -0.02315,0.00706 -0.04611,0.013283 -0.05102,0.013764 -0.0089,8.921e-4 -0.0089,8.921e-4 -0.0085,-0.00931 0,-0.00557 0.0074,-0.031406 0.0157,-0.057332 0.0084,-0.025927 0.01678,-0.056318 0.01867,-0.067528 0.0058,-0.034169 0.004,-0.1489172 -0.0043,-0.2841077 -0.0059,-0.095854 -0.0074,-0.1379591 -0.0074,-0.22041 0,-0.114563 0.0019,-0.1330963 0.01982,-0.1877046 0.02467,-0.075227 0.08301,-0.1785574 0.137509,-0.2435393 0.03646,-0.043463 0.04184,-0.05394 0.02532,-0.049209 -0.0039,0.00111 -0.02772,0.011796 -0.0529,0.023722 -0.06321,0.029927 -0.168035,0.068305 -0.22694,0.083089 -0.211169,0.052981 -0.51904,0.026936 -0.812573,-0.068738 -0.0714,-0.023278 -0.191071,-0.069794 -0.198068,-0.076996 -0.0022,-0.00222 0.003,-0.012123 0.02109,-0.03993 0.05256,-0.080967 0.09212,-0.1504393 0.155985,-0.2739212 0.09379,-0.1813323 0.121572,-0.2197573 0.199572,-0.2759832 0.05839,-0.042099 0.0629,-0.048395 0.06713,-0.093812 0.0031,-0.033464 -7.84e-4,-0.1029359 -0.006,-0.1092777 -0.0027,-0.00319 -0.0049,-0.0023 -0.01512,0.00624 -0.01909,0.015963 -0.05221,0.046865 -0.132824,0.1239412 -0.101952,0.097478 -0.157293,0.1444176 -0.187513,0.1590216 -0.01439,0.00698 -0.02313,0.00653 -0.104609,-0.00513 -0.266274,-0.038176 -0.452558,-0.082724 -0.646739,-0.1546636 -0.07411,-0.027456 -0.258172,-0.1088981 -0.258141,-0.1142148 0,-0.00423 0.0567,-0.012383 0.324482,-0.046878 0.331205,-0.042664 0.551399,-0.076558 0.729973,-0.1123446 0.182742,-0.036626 0.501826,-0.1084458 0.656627,-0.1477888 0.08278,-0.021034 0.09082,-0.02338 0.0914,-0.02667 7.83e-4,-0.00357 -0.0494,-0.028251 -0.0863,-0.042639 -0.01684,-0.00661 -0.05898,-0.02232 -0.09365,-0.035008 -0.144012,-0.052702 -0.252186,-0.1044524 -0.31327,-0.149854 -0.03403,-0.025296 -0.07218,-0.067075 -0.06647,-0.072785 0.0016,-0.00163 0.0058,-0.00156 0.01218,0 0.03336,0.00978 0.15133,0.016283 0.38468,0.021221 0.152843,0.00319 0.477152,0.00164 0.571473,-0.00275 0.23386,-0.010975 0.783762,-0.069541 0.79937,-0.085133 0.0049,-0.00482 -0.0074,-0.014582 -0.07383,-0.05884 -0.05684,-0.037844 -0.0849,-0.059012 -0.133521,-0.1006938 -0.05742,-0.049242 -0.1353,-0.1288627 -0.166453,-0.1702044 -0.01974,-0.026203 -0.04967,-0.07756 -0.04683,-0.080381 0.0013,-0.00135 0.04736,0.012816 0.112828,0.034762 0.19578,0.065644 0.361934,0.1109203 0.534404,0.1456235 0.141427,0.028458 0.190656,0.031903 0.456311,0.031947 0.452377,0 0.538267,-0.013446 1.0417527,-0.1639228 l 0.09779,-0.029231 0.09483,0.018687 c 0.05215,0.010284 0.153947,0.030347 0.226212,0.044586 0.292945,0.057742 0.360462,0.07372 0.360532,0.085333 0,0.012718 -0.104311,0.028102 -0.210009,0.030962 -0.06211,0.00171 -0.118234,-0.00111 -0.18959,-0.00933 -0.0671,-0.00776 -0.09334,-0.00632 -0.09558,0.00534 -0.0018,0.00945 0.01985,0.027672 0.06148,0.051675 0.09373,0.054046 0.163554,0.062056 0.657411,0.075427 0.319334,0.00865 0.397146,0.012096 0.496208,0.021948 0.09865,0.00981 0.153743,0.024258 0.217029,0.056911 0.03976,0.020522 0.152255,0.091324 0.151009,0.095052 -7.84e-4,0.00142 -0.03354,0.013809 -0.07347,0.027494 -0.106121,0.036358 -0.169697,0.060652 -0.347988,0.1329672 -0.118603,0.048098 -0.18304,0.072259 -0.239015,0.08961 -0.131092,0.040644 -0.216222,0.049627 -0.305286,0.032223 -0.03354,-0.00653 -0.06379,-0.00697 -0.06613,-8.295e-4 -0.0024,0.00624 0.01446,0.02015 0.04161,0.034339 0.04688,0.024509 0.08558,0.031251 0.1796,0.031296 0.11774,0 0.220273,-0.01447 0.412025,-0.058396 0.182319,-0.041756 0.291958,-0.0617 0.409479,-0.074469 0.05904,-0.00639 0.206452,-0.00639 0.261502,0 0.190084,0.022237 0.28638,0.056375 0.356137,0.1262802 0.02732,0.027374 0.04151,0.049135 0.05254,0.08058 0.0067,0.019074 0.0071,0.022935 0.007,0.05988 v 0.0395 l -0.01284,0.042037 -0.01283,0.042047 -0.0087,7.043e-4 c -0.0048,0 -0.164243,0.0052 -0.354374,0.01084 -0.387728,0.011449 -0.509974,0.015585 -0.679905,0.023016 -0.506378,0.022157 -0.881453,0.054572 -0.881453,0.076194 0,0.00534 0.01178,0.0083 0.04168,0.010468 0.01706,0.00126 0.03792,0.00348 0.04634,0.00505 0.09306,0.017128 0.247861,0.076519 0.311993,0.1196857 0.05759,0.03878 0.169876,0.1323161 0.295303,0.2459964 0.181966,0.164926 0.251904,0.2163861 0.362178,0.2664353 0.05767,0.026182 0.09402,0.040067 0.112953,0.04314 0.02474,0.00401 0.02679,0.010729 0.0092,0.03024 -0.01493,0.016571 -0.05265,0.041706 -0.09176,0.061129 -0.05366,0.026655 -0.162739,0.070415 -0.284279,0.1140356 -0.336055,0.1206365 -0.554847,0.2251101 -0.687647,0.3283589 -0.05833,0.04535 -0.125082,0.1074653 -0.180775,0.1682214 -0.146512,0.1598331 -0.270247,0.3592894 -0.321497,0.5182617 -0.01092,0.033849 -0.01457,0.0495 -0.03089,0.1326722 -0.01826,0.092906 -0.05898,0.1812446 -0.124353,0.2697102 -0.02821,0.038179 0.01752,0.00208 0.05713,-0.045119 0.06186,-0.073691 0.105886,-0.1610876 0.125804,-0.2497543 0.0092,-0.041169 0.01962,-0.070237 0.03968,-0.1111566 0.0313,-0.063845 0.08146,-0.1370435 0.143166,-0.2089448 0.03712,-0.043249 0.143605,-0.1490284 0.194879,-0.1936074 0.270419,-0.2350681 0.613972,-0.4345846 0.932484,-0.5415451 0.140752,-0.047266 0.394278,-0.1127593 0.547246,-0.1413602 0.06566,-0.012279 0.08801,-0.01969 0.08801,-0.029185 0,-0.015554 -0.04972,-0.027627 -0.134634,-0.032684 -0.01721,-0.00104 -0.03144,-0.00297 -0.03162,-0.00438 -7.83e-4,-0.00282 0.06973,-0.047422 0.120577,-0.07669 0.08033,-0.046234 0.222522,-0.1153895 0.344549,-0.1675484 0.283676,-0.121268 0.538267,-0.2024793 0.810981,-0.2587059 0.181136,-0.03734 0.297608,-0.047593 0.572696,-0.050408 0.218604,-0.00223 0.307722,0.002 0.37996,0.018221 0.05672,0.012703 0.169469,0.051757 0.242541,0.084011 0.283459,0.1251056 0.517944,0.3249508 0.673655,0.5741401 0.01077,0.01724 0.02238,0.033173 0.02579,0.035407 0.0093,0.00609 0.04517,0.0029 0.09145,-0.00804 0.117812,-0.027851 0.125454,-0.041371 0.05754,-0.1018012 -0.01691,-0.015043 -0.03075,-0.027768 -0.03075,-0.028265 0,-0.00171 0.04468,-0.038669 0.05486,-0.045358 0.01794,-0.011782 0.0417,-0.019876 0.06565,-0.022348 0.02618,-0.00267 0.03136,-0.00482 0.03362,-0.013847 0.01214,-0.04832 -0.09818,-0.085095 -0.203296,-0.067773 -0.0422,0.00697 -0.06323,0.00697 -0.07742,0 -0.01447,-0.00698 -0.06889,-0.063452 -0.09087,-0.094265 -0.02417,-0.033885 -0.03816,-0.06268 -0.0386,-0.079453 0,-0.012301 0,-0.013511 0.0073,-0.017113 0.01045,-0.00527 0.101251,-0.00675 0.176038,-0.0029 0.114526,0.00593 0.36305,0.026692 0.366975,0.030611 0.0031,0.00312 -0.009,0.086254 -0.01783,0.1224567 -0.0093,0.038378 -0.02655,0.084591 -0.04818,0.1293846 -0.02665,0.055194 -0.05488,0.1009091 -0.09793,0.1585474 -0.02056,0.027546 -0.04437,0.072984 -0.04999,0.095452 -0.0023,0.00932 -0.0038,0.027226 -0.0038,0.046352 0,0.017144 -9.72e-4,0.031763 -0.0022,0.032499 -0.0012,7.043e-4 -0.01803,-0.018101 -0.03743,-0.041847 -0.03819,-0.046737 -0.04006,-0.047857 -0.04326,-0.025985 -0.01373,0.093701 -0.04237,0.1699085 -0.09267,0.2465309 -0.034,0.051796 -0.06134,0.084203 -0.13324,0.1578948 -0.06679,0.068455 -0.119709,0.1320179 -0.161233,0.1936505 -0.07198,0.1068353 -0.126929,0.1683191 -0.198582,0.2222004 -0.09035,0.067945 -0.191628,0.1044063 -0.321294,0.1156626 -0.04364,0.00378 -0.15875,0.00163 -0.209213,-0.00394 -0.09681,-0.01071 -0.222124,-0.035344 -0.300908,-0.059194 -0.07308,-0.022118 -0.332999,-0.1440834 -0.736037,-0.3453818 -0.4844,-0.2419444 -0.646927,-0.3130857 -0.822328,-0.3599436 -0.04811,-0.012853 -0.06495,-0.019097 -0.07379,-0.02736 -0.0074,-0.00698 -0.0073,-0.010582 10e-4,-0.017041 0.0098,-0.00772 0.03323,-0.014203 0.07367,-0.020418 0.07286,-0.011211 0.124479,-0.023737 0.131226,-0.031845 0.0043,-0.0052 -0.0049,-0.010573 -0.03368,-0.019623 -0.04945,-0.015527 -0.06926,-0.018155 -0.125639,-0.016647 -0.12263,0.00326 -0.304345,0.033292 -0.442646,0.073113 -0.272698,0.078507 -0.522432,0.2306686 -0.775966,0.4728187 -0.161704,0.1544445 -0.450355,0.4730441 -0.607703,0.6707663 -0.06493,0.081597 -0.119128,0.1379661 -0.141772,0.1474773 -0.02189,0.00919 -0.02193,0.00922 -0.02141,0.020699 7.84e-4,0.00751 0.0074,0.025178 0.02388,0.059701 0.05211,0.1092338 0.0617,0.1462167 0.07512,0.2898321 0.0036,0.038542 0.0071,0.071702 0.0078,0.073691 0.0027,0.00766 0.0062,-0.00237 0.01377,-0.040561 0.0279,-0.1392582 0.104405,-0.3814827 0.148212,-0.4693019 0.02876,-0.057654 0.07843,-0.1296813 0.104593,-0.1516664 0.01524,-0.0128 0.01887,-0.00505 0.0304,0.064752 0.0083,0.050176 0.01859,0.094278 0.02901,0.1243129 0.03269,0.09416 0.07876,0.1673676 0.150884,0.2397438 0.05419,0.054378 0.08771,0.081427 0.09361,0.075533 0.0049,-0.00498 -0.0086,-0.049969 -0.03357,-0.1114234 -0.03006,-0.074062 -0.04964,-0.1427703 -0.05892,-0.2066229 -0.0078,-0.053836 -0.0061,-0.1103318 0.0043,-0.149638 0.0041,-0.015155 0.0081,-0.027761 0.009,-0.028029 8.62e-4,0 0.01567,0.019015 0.03278,0.042841 0.035,0.048751 0.05039,0.068271 0.0813,0.1031964 0.120867,0.1365615 0.321755,0.3195598 0.477387,0.4348671 0.223572,0.1656522 0.400077,0.2683729 0.873797,0.50854 0.312338,0.1583487 0.435555,0.2280228 0.509732,0.2882224 0.06297,0.051104 0.107931,0.080786 0.161242,0.1064558 0.03769,0.018145 0.06782,0.026758 0.105188,0.030077 0.05927,0.00527 0.100511,0.027433 0.112993,0.060741 0.01033,0.027567 0.01254,0.1140645 0.0049,0.1903113 -0.01614,0.160485 -0.05153,0.2433749 -0.142994,0.3349073 -0.08059,0.080646 -0.176677,0.142613 -0.369621,0.2383775 -0.109725,0.05446 -0.14431,0.069778 -0.148369,0.065723 -0.0032,-0.0032 0.0064,-0.02211 0.04354,-0.084708 0.06826,-0.1152689 0.09307,-0.1865457 0.09311,-0.2675426 0,-0.03976 -0.0021,-0.053994 -0.01406,-0.091977 -0.0088,-0.027977 -0.04081,-0.092766 -0.04588,-0.092766 -0.002,0 -0.01083,0.019267 -0.02207,0.048417 -0.03181,0.082369 -0.05271,0.1218768 -0.07916,0.1495629 -0.0423,0.044296 -0.08691,0.056407 -0.205958,0.055931 -0.0801,0 -0.263242,-0.00873 -0.266768,-0.01225 -0.0013,-0.00135 -0.0052,-0.01955 -0.0087,-0.040494 -0.01295,-0.078747 -0.04056,-0.1491332 -0.092,-0.2345101 C 12.120043,9.3634425 12.05903,9.2994991 11.954539,9.2299893 11.805167,9.1306259 11.635103,9.0696749 11.441736,9.0461975 c -0.04613,-0.00557 -0.168466,-0.00646 -0.209194,-0.00142 -0.116581,0.014307 -0.224919,0.049775 -0.364841,0.1194267 -0.193782,0.09647 -0.359059,0.2213616 -0.479981,0.3626998 -0.131688,0.1539358 -0.284303,0.3815038 -0.4033129,0.601409 -0.04436,0.08198 -0.06645,0.127639 -0.1071244,0.221531 -0.03129,0.07221 -0.05465,0.117296 -0.06079,0.117296 -0.0013,0 -0.004,-0.0031 -0.006,-0.007 z M 12.956255,9.3348236 c 0.01982,-0.00364 0.04226,-0.012267 0.04711,-0.018095 0.0057,-0.0069 -0.0021,-0.00941 -0.03636,-0.011558 -0.09236,-0.0058 -0.174507,-0.037369 -0.34411,-0.1321761 -0.02595,-0.014516 -0.12813,-0.075065 -0.227058,-0.1345576 C 11.661954,8.5970581 11.614159,8.5687335 11.371689,8.4314787 11.283409,8.3815109 11.202,8.3277259 11.143173,8.2804751 c -0.01473,-0.011828 -0.0463,-0.04002 -0.07016,-0.062642 -0.07083,-0.067187 -0.07563,-0.068115 -0.06134,-0.011865 0.01217,0.047882 0.0347,0.083484 0.0809,0.127771 0.06282,0.060222 0.153955,0.1202436 0.375975,0.2476085 0.200881,0.1152306 0.29485,0.1721279 0.432351,0.2618182 0.407794,0.2659751 0.77682,0.4632879 0.915512,0.4895278 0.04477,0.00846 0.100769,0.00932 0.139844,0.00215 z M 9.4976197,7.1994493 c 0.07074,-0.010261 0.144036,-0.035557 0.199854,-0.068976 0.04524,-0.027085 0.109402,-0.086231 0.125386,-0.1155866 0.007,-0.012794 0.0077,-0.016454 0.0085,-0.043279 0.0016,-0.050933 -0.0099,-0.1051943 -0.03141,-0.1490596 -0.01208,-0.024634 -0.04574,-0.073898 -0.05048,-0.073898 -0.0016,0 -0.01337,0.022363 -0.02618,0.049685 -0.01281,0.027331 -0.02912,0.059488 -0.03625,0.071463 -0.0402,0.067587 -0.09928,0.1231109 -0.171828,0.1614585 -0.05843,0.030888 -0.111676,0.049494 -0.216261,0.075584 -0.03841,0.00958 -0.07515,0.020054 -0.08164,0.023269 -0.0266,0.013188 -0.01297,0.024911 0.05895,0.050704 0.06582,0.023594 0.142602,0.030063 0.221362,0.018636 z m 5.2644983,-0.052078 c 0.03914,-0.00571 0.10686,-0.021406 0.124824,-0.02897 0.0079,-0.00335 0.0094,-0.00491 0.0069,-0.00735 -0.0024,-0.00237 -0.03107,-0.00319 -0.118448,-0.00341 -0.133764,0 -0.148447,-0.00193 -0.213841,-0.023775 -0.119884,-0.039981 -0.16507,-0.079331 -0.535737,-0.466443 C 13.833985,6.4170835 13.757928,6.3485669 13.679113,6.3050943 13.485786,6.1984758 13.222325,6.1582704 12.969865,6.196888 c -0.116205,0.017765 -0.295108,0.064164 -0.344517,0.08934 -0.0104,0.00527 -0.01081,0.00587 -0.0063,0.00917 0.0061,0.00446 0.05342,0.00468 0.135684,7.043e-4 0.04447,-0.00223 0.07704,-0.00215 0.131382,0 0.200394,0.00813 0.381648,0.034585 0.516179,0.075339 0.196579,0.059553 0.290305,0.1248043 0.639029,0.4448979 0.193077,0.1772285 0.268241,0.2365306 0.355005,0.2801049 0.0636,0.031942 0.125192,0.048305 0.21525,0.0572 0.02719,0.00268 0.114019,-8.921e-4 0.150525,-0.00617 z M 10.182005,6.809623 c -0.0026,-0.040578 -0.158132,-0.1861466 -0.2442963,-0.2286097 -0.03144,-0.015503 -0.06658,-0.025385 -0.12118,-0.034087 -0.02483,-0.00393 -0.04424,-0.00468 -0.126287,-0.0046 -0.122536,0 -0.170785,0.00438 -0.374322,0.03312 -0.186777,0.026352 -0.273185,0.033034 -0.426764,0.032996 -0.09466,0 -0.121298,-8.295e-4 -0.1518,-0.0046 -0.04678,-0.00579 -0.08075,-0.012608 -0.111951,-0.022563 C 8.4544237,6.5267415 8.2820317,6.403082 7.9990137,6.1319554 7.8416587,5.9812171 7.7875007,5.9321994 7.7223427,5.8815688 7.6376987,5.8157934 7.5715997,5.7758854 7.3954007,5.6841542 7.2930327,5.6308598 7.2471887,5.6057773 7.2066017,5.5808686 7.1298947,5.5337947 7.0936097,5.4953571 7.0846067,5.4516185 c -0.0015,-0.00698 -0.0034,-0.031348 -0.0045,-0.054089 -0.0016,-0.034169 -0.0012,-0.041587 0.0017,-0.042677 0.0019,-7.043e-4 0.06956,-0.00706 0.150233,-0.014131 0.212171,-0.018525 0.320024,-0.031502 0.466888,-0.056183 0.121102,-0.020343 0.249413,-0.049278 0.316169,-0.071292 0.05297,-0.01747 0.150508,-0.057779 0.268068,-0.110799 0.127982,-0.057712 0.159283,-0.071472 0.202824,-0.089111 0.147523,-0.059792 0.249608,-0.08615 0.386514,-0.099767 0.05531,-0.00549 0.246968,-0.00639 0.307425,-0.00135 0.104953,0.00866 0.174577,0.024539 0.257882,0.058782 0.146661,0.060288 0.256864,0.1358948 0.386535,0.2651894 0.06436,0.064171 0.0922,0.095741 0.1483844,0.1683035 0.05348,0.069064 0.1045229,0.1324124 0.1136119,0.1409892 0.0042,0.00393 0.0083,0.00617 0.0091,0.00491 0.0025,-0.00394 -0.006,-0.038786 -0.01859,-0.077122 C 10.050717,5.3939926 10.006009,5.291481 9.9824871,5.2568967 9.9534657,5.2142114 9.8770397,5.1338539 9.7935577,5.0582394 9.6758017,4.9515833 9.5890257,4.8703641 9.4806637,4.7653929 l -0.05079,-0.049203 0.0061,-0.065463 c 0.0042,-0.044757 0.0053,-0.069088 0.0039,-0.076929 l -0.0022,-0.011463 h -0.01312 c -0.01678,7.043e-4 -0.03369,0.00943 -0.05295,0.028206 -0.04099,0.039968 -0.06647,0.087695 -0.07888,0.1477974 -0.0035,0.016981 -0.0084,0.03509 -0.01084,0.040257 -0.0083,0.017463 -0.01005,0.017293 -0.07189,-0.00698 -0.119558,-0.046946 -0.183572,-0.061304 -0.272362,-0.061113 -0.103222,0 -0.190585,0.018102 -0.446023,0.091273 -0.252327,0.072278 -0.432358,0.1034633 -0.549479,0.095168 -0.03615,-0.00253 -0.04101,-0.00326 -0.07603,-0.011625 -0.02969,-0.00706 -0.05265,-0.00796 -0.0574,-0.00223 -0.0097,0.011613 0.0071,0.036254 0.0646,0.095283 0.0256,0.026253 0.05096,0.053122 0.05638,0.059722 0.0095,0.011576 0.0097,0.012155 0.0053,0.016973 -0.0099,0.010915 -0.08133,0.043689 -0.127277,0.05839 -0.119245,0.038155 -0.292576,0.066235 -0.670001,0.108557 -0.08348,0.00936 -0.152577,0.017767 -0.15354,0.01868 -0.0027,0.00267 -0.0072,0.085094 -0.0072,0.1339806 0,0.1152674 0.02741,0.190086 0.09266,0.2529432 0.046,0.044319 0.07473,0.060884 0.222412,0.128228 0.184709,0.084225 0.254466,0.1196779 0.311624,0.1583753 0.05289,0.035809 0.08262,0.064469 0.305756,0.2948279 0.243473,0.2513421 0.367968,0.3603302 0.529453,0.4634828 0.111088,0.070957 0.170206,0.093521 0.278042,0.1061209 0.171467,0.020024 0.308506,0.00883 0.66715,-0.054513 0.148204,-0.026178 0.216387,-0.035905 0.307425,-0.043873 0.04985,-0.00438 0.184808,-0.0043 0.219221,0 0.0762,0.00969 0.1322203,0.036241 0.2183223,0.1034946 0.0544,0.042492 0.05402,0.042305 0.05295,0.025436 z m 4.948766,-0.085334 c 0,-0.00452 -0.03631,-0.08018 -0.05681,-0.1183288 -0.07911,-0.1471948 -0.171377,-0.272554 -0.282415,-0.3836949 -0.08746,-0.087537 -0.148635,-0.1341794 -0.227153,-0.173175 -0.196136,-0.097411 -0.520555,-0.1302814 -0.864869,-0.087627 -0.129274,0.016015 -0.351357,0.059198 -0.352924,0.068628 -7.83e-4,0.00387 0.052,0.0046 0.102901,0.00142 0.02456,-0.00156 0.07966,-0.0058 0.122465,-0.00938 0.07006,-0.00594 0.08569,-0.00646 0.156901,-0.00513 0.13157,0.00245 0.296417,0.018079 0.434372,0.041184 0.299116,0.050102 0.562255,0.2042111 0.796227,0.4663188 0.03437,0.038505 0.09022,0.1065152 0.120263,0.1464592 0.03825,0.05086 0.05104,0.064226 0.05104,0.053356 z M 10.18955,6.3786616 C 10.18105,6.3666996 10.12879,6.3173836 10.09366,6.2881316 9.9814281,6.1946526 9.9062947,6.1459545 9.8411057,6.1244014 c -0.04802,-0.015868 -0.091,-0.020226 -0.238887,-0.024199 -0.131186,-0.00357 -0.222326,0 -0.32145,0.012706 -0.03589,0.0046 -0.06738,0.00969 -0.220861,0.035876 l -0.04865,0.0083 -0.0636,-0.05475 c -0.112048,-0.096448 -0.168501,-0.1411139 -0.227517,-0.1800289 -0.0875,-0.057681 -0.151965,-0.083541 -0.215587,-0.086467 -0.05204,-0.00237 -0.08582,0.00586 -0.143158,0.03491 -0.0288,0.014591 -0.03759,0.017924 -0.04727,0.017924 -0.01457,0 -0.03314,-0.00863 -0.08388,-0.038957 -0.05602,-0.033493 -0.0879,-0.045179 -0.122951,-0.045075 -0.03009,0 -0.04644,0.00989 -0.05384,0.032274 -0.0047,0.014077 -0.0016,0.047243 0.0063,0.070869 0.0092,0.027219 0.02742,0.063706 0.03173,0.063706 0.0019,0 0.008,-0.00861 0.01345,-0.019112 0.02047,-0.039209 0.03984,-0.047161 0.07492,-0.030731 0.03037,0.014225 0.05573,0.034807 0.144138,0.1169921 0.02734,0.02543 0.05058,0.046233 0.05164,0.046233 10e-4,0 0.01068,-0.017478 0.02139,-0.038838 0.01071,-0.021369 0.0238,-0.045203 0.02908,-0.05297 0.02351,-0.034568 0.05264,-0.049506 0.08495,-0.043538 0.0596,0.011005 0.134986,0.068146 0.29984,0.2272644 0.03837,0.037034 0.0843,0.08119 0.102055,0.098126 l 0.03228,0.030782 0.08674,-0.019936 c 0.230169,-0.052877 0.343522,-0.069896 0.484737,-0.07276 0.143394,-0.0029 0.259747,0.013 0.380142,0.051971 0.05112,0.016549 0.08962,0.03255 0.1722033,0.07159 0.08394,0.039677 0.120178,0.054839 0.123398,0.051624 0.0013,-0.00126 0,-0.00534 -0.0029,-0.00953 z m 0.701986,-0.029744 c 0.04222,-0.010974 0.07981,-0.035773 0.127903,-0.084405 0.04655,-0.047057 0.05373,-0.067053 0.05156,-0.1435348 -0.0019,-0.066911 -0.01065,-0.1020375 -0.04106,-0.1647852 -0.03222,-0.06648 -0.07623,-0.1203539 -0.133505,-0.1634031 -0.08405,-0.063176 -0.212321,-0.1175923 -0.338766,-0.1437054 -0.05292,-0.010929 -0.09386,-0.015325 -0.165834,-0.017806 -0.09887,-0.00341 -0.106755,-0.0058 -0.133967,-0.041215 -0.0078,-0.01006 -0.0152,-0.01836 -0.01659,-0.018456 -0.0038,0 -0.0046,0.050741 -0.0012,0.068478 0.0063,0.032052 0.01631,0.060371 0.03693,0.1034413 0.02646,0.055277 0.02745,0.057793 0.02362,0.060163 -0.01112,0.00683 -0.108002,-0.018963 -0.207314,-0.055262 C 9.9878581,5.7098854 9.9552237,5.6890444 9.8763937,5.6099251 9.7958437,5.5290781 9.7586867,5.4778845 9.6600407,5.3118003 c -0.01989,-0.033486 -0.03812,-0.062115 -0.04052,-0.063622 -0.01844,-0.011582 -0.119057,0.1239639 -0.150108,0.2022195 -0.0031,0.00772 -0.0116,0.034451 -0.01898,0.059427 -0.0074,0.024976 -0.01461,0.046605 -0.01607,0.048067 -0.0018,0.00185 -0.01508,-0.00148 -0.04306,-0.010713 -0.123186,-0.04074 -0.178087,-0.067119 -0.248331,-0.1192928 -0.03353,-0.02491 -0.09745,-0.087494 -0.122496,-0.119947 -0.05917,-0.07663 -0.09302,-0.11506 -0.104593,-0.1187271 -0.008,-0.00253 -0.02654,0.0097 -0.03796,0.02496 -0.03092,0.04132 -0.04751,0.099908 -0.055,0.1941873 -0.0042,0.053978 -0.0063,0.063927 -0.01572,0.075042 -0.01504,0.017856 -0.03951,0.016141 -0.147084,-0.010321 -0.125223,-0.030796 -0.227035,-0.078508 -0.321136,-0.1504769 -0.03719,-0.028451 -0.06607,-0.048318 -0.07943,-0.054645 -0.0091,-0.0043 -0.0098,-0.0043 -0.01403,0 -0.0071,0.00713 -0.0074,0.047392 -7.83e-4,0.080677 0.0069,0.033612 0.0143,0.055857 0.03086,0.09229 0.01849,0.040673 0.03093,0.07337 0.02941,0.077327 -7.84e-4,0.00185 -0.0052,0.00542 -0.0097,0.00793 -0.0071,0.00379 -0.01442,0.00452 -0.04414,0.0043 -0.04015,0 -0.0803,-0.00527 -0.132079,-0.016542 -0.04387,-0.00955 -0.06608,-0.016253 -0.145548,-0.043962 -0.03483,-0.01214 -0.0644,-0.021421 -0.0657,-0.02062 -0.0068,0.00424 0.0038,0.028921 0.02504,0.057884 0.05295,0.072346 0.108949,0.1077102 0.196454,0.1240679 0.04276,0.00799 0.07371,0.010245 0.176685,0.012897 0.169822,0.00438 0.281623,0.018575 0.412958,0.052493 0.02069,0.00534 0.03523,0.00793 0.03664,0.00653 0.005,-0.00505 -0.06305,-0.069132 -0.114097,-0.1074567 -0.02749,-0.020635 -0.03097,-0.024191 -0.02641,-0.027005 0.0078,-0.00475 0.08286,0.00142 0.145031,0.01191 0.124439,0.021064 0.238858,0.067475 0.324012,0.1314396 0.05109,0.038378 0.06135,0.045076 0.0644,0.042026 0.0038,-0.00379 0.002,-0.00691 -0.03734,-0.066556 -0.05414,-0.081924 -0.07553,-0.1166948 -0.09492,-0.1543388 -0.02165,-0.042022 -0.02898,-0.06354 -0.0235,-0.069012 0.0031,-0.00304 0.0057,-0.0023 0.01859,0.00549 0.0083,0.00498 0.02601,0.016906 0.03944,0.026529 0.04259,0.030545 0.125929,0.073859 0.250188,0.130035 0.09141,0.041341 0.189708,0.093195 0.249044,0.1314028 0.01247,0.00803 0.04363,0.030539 0.06926,0.050029 0.03482,0.026492 0.04697,0.034473 0.04807,0.031606 0.0025,-0.00653 -0.01133,-0.071033 -0.0223,-0.1039743 -0.0057,-0.017205 -0.01846,-0.049055 -0.0283,-0.07078 -0.02779,-0.061381 -0.03081,-0.069183 -0.032,-0.082817 -9.4e-4,-0.010543 0,-0.01357 0.0042,-0.017543 0.0049,-0.00438 0.0063,-0.00452 0.01746,-0.00142 0.02786,0.00779 0.08276,0.050778 0.180313,0.1411801 0.08076,0.074849 0.113037,0.099946 0.160989,0.1251753 0.05901,0.031049 0.1221363,0.045981 0.2678883,0.063361 0.175612,0.020939 0.236931,0.041282 0.34751,0.1152916 0.02735,0.018302 0.0454,0.028822 0.04784,0.027888 0.0029,-0.00111 0.0039,-0.00542 0.0039,-0.017501 0,-0.013066 -0.0014,-0.018436 -0.0076,-0.029223 -0.0087,-0.015214 -0.0147,-0.020009 -0.04977,-0.040005 -0.06918,-0.039454 -0.154574,-0.1142814 -0.200967,-0.1761072 -0.03091,-0.041185 -0.04765,-0.083759 -0.03621,-0.092112 0.01127,-0.00823 0.05892,-0.00253 0.122364,0.014658 0.16729,0.045298 0.27074,0.1189078 0.322672,0.2295808 0.03042,0.064839 0.05212,0.166758 0.04731,0.2222208 -0.0042,0.048284 -0.01964,0.084856 -0.05496,0.1299708 -0.01252,0.015999 -0.0253,0.033939 -0.02838,0.039855 -0.0051,0.00971 -0.0052,0.011405 -0.002,0.017406 0.0045,0.00831 0.02227,0.01724 0.04063,0.020476 0.0077,0.00135 0.03297,0.00208 0.05612,0.00156 0.03498,-7.043e-4 0.04635,-0.002 0.06727,-0.00744 z M 5.4914537,10.234137 c -8.62e-4,-8.92e-4 0.0098,-0.02417 0.02361,-0.0518 0.03588,-0.07161 0.0371,-0.07622 0.03688,-0.139014 0,-0.03152 -0.0028,-0.082049 -0.007,-0.1325009 -0.0038,-0.044847 -0.008,-0.1020155 -0.0094,-0.1270456 -0.0034,-0.058707 -0.0033,-0.1853053 0,-0.2245896 0.01521,-0.1768123 0.06535,-0.2754503 0.193413,-0.3804881 0.09397,-0.077068 0.213582,-0.1313356 0.362962,-0.1646881 0.09094,-0.020297 0.178087,-0.031807 0.338985,-0.044748 0.136357,-0.010975 0.213354,-0.021851 0.260742,-0.036841 0.02966,-0.00938 0.03889,-0.010774 0.04166,-0.00631 0.0027,0.00438 -0.0067,0.041267 -0.03071,0.1196411 -0.03872,0.1268155 -0.04889,0.1916839 -0.06366,0.4064149 -0.01739,0.2524119 -0.02932,0.3208072 -0.07089,0.4062138 -0.06136,0.1260721 -0.155491,0.2010835 -0.312064,0.2486825 -0.09678,0.02942 -0.207564,0.04963 -0.397828,0.07256 -0.198091,0.02388 -0.228515,0.02827 -0.302222,0.04362 -0.0656,0.01365 -0.06238,0.01311 -0.06459,0.01089 z m 3.136584,-0.08587 c -0.0041,-0.005 -0.01009,-0.04401 -0.01294,-0.08456 -0.0069,-0.097687 -0.0053,-0.2156888 0.0038,-0.2893876 0.01236,-0.100434 0.04104,-0.1889669 0.07131,-0.2200672 0.0139,-0.014278 0.02311,-0.01696 0.149073,-0.04339 0.112053,-0.023515 0.176004,-0.047809 0.291684,-0.1107997 0.01434,-0.00781 0.02006,-0.00983 0.02084,-0.00735 7.83e-4,0.00185 0.0035,0.025764 0.0065,0.053094 0.01129,0.102752 0.02655,0.1537809 0.06415,0.2145229 0.0176,0.028451 0.01983,0.02892 0.0251,0.00527 0.0085,-0.037857 0.02101,-0.063161 0.04575,-0.09217 0.04113,-0.048216 0.132079,-0.1058547 0.218377,-0.1383973 0.07967,-0.030041 0.179318,-0.052938 0.198389,-0.045581 0.0064,0.00253 0.0071,0.00379 0.0071,0.016507 0,0.049761 -0.05108,0.2100959 -0.09603,0.3014366 -0.03831,0.077847 -0.104859,0.1617402 -0.177766,0.2241217 -0.08309,0.071071 -0.153854,0.099805 -0.334676,0.1358516 -0.119449,0.02382 -0.458434,0.08425 -0.472592,0.08425 -0.0028,0 -0.0063,-0.0015 -0.0079,-0.0033 z M 1.9833517,9.9460726 c -0.0031,-0.00319 -0.0017,-0.013796 0.0059,-0.042388 0.02326,-0.088029 0.04951,-0.2474082 0.05381,-0.3266584 0.0033,-0.060736 0.0081,-0.097398 0.01813,-0.1370608 0.02363,-0.093835 0.06722,-0.1575903 0.129063,-0.1887806 0.04274,-0.021562 0.109623,-0.02082 0.232833,0.00259 0.132259,0.025125 0.156,0.027807 0.225781,0.025519 0.08902,-0.0029 0.314366,-0.026188 0.375035,-0.038728 0.03783,-0.00783 0.04204,-0.00364 0.0331,0.033248 -0.0049,0.019846 -0.01732,0.1095085 -0.02543,0.1821884 -0.0188,0.1684968 -0.03445,0.2346134 -0.06601,0.2786134 -0.07747,0.1080154 -0.242125,0.1521836 -0.685351,0.1838357 -0.156596,0.01118 -0.260969,0.021145 -0.280628,0.026781 -0.01044,0.00297 -0.01385,0.00319 -0.01617,8.921e-4 z m 4.788385,-0.097488 c -7.84e-4,-9.625e-4 0.0039,-0.018348 0.01023,-0.038578 0.0298,-0.096606 0.03551,-0.1434847 0.03942,-0.3234374 0.0014,-0.062369 0.0037,-0.1277272 0.0051,-0.1452423 0.01659,-0.2019738 0.06,-0.3303184 0.149928,-0.4433672 0.02413,-0.030331 0.08597,-0.091926 0.117999,-0.1175345 0.105964,-0.084708 0.188274,-0.1075897 0.461725,-0.1283571 0.189966,-0.014434 0.277901,-0.025224 0.363556,-0.04461 0.05107,-0.011567 0.0665,-0.014032 0.06841,-0.010944 7.83e-4,0.00126 -0.0031,0.01526 -0.0086,0.03114 -0.01695,0.048856 -0.02653,0.121624 -0.042,0.3187217 -0.01447,0.1843255 -0.03015,0.2883014 -0.05735,0.3803081 -0.03755,0.1270377 -0.09279,0.2096889 -0.208693,0.3122922 -0.130528,0.1155444 -0.17073,0.1314545 -0.348763,0.1380483 -0.03648,0.00135 -0.103755,0.00244 -0.149505,0.00253 -0.09293,0 -0.173787,0.00349 -0.214029,0.00912 -0.03943,0.00549 -0.06864,0.014279 -0.130692,0.0393 -0.03059,0.012333 -0.05612,0.02162 -0.05672,0.020634 z m -3.572374,-0.033567 c -0.002,-0.00208 -0.0015,-0.00579 0.002,-0.013698 0.0089,-0.020041 0.01874,-0.1181206 0.02653,-0.2637941 0.0069,-0.1282836 0.01379,-0.1951217 0.02585,-0.2493223 0.02569,-0.1155069 0.108394,-0.2627401 0.184521,-0.3284998 0.03913,-0.033811 0.09991,-0.064297 0.146833,-0.073638 0.0174,-0.00348 0.03467,-0.00452 0.07143,-0.00445 0.0626,0 0.08774,0.0029 0.283191,0.03134 0.113282,0.016467 0.144592,0.01917 0.201366,0.017388 0.03478,-0.0011 0.05988,-0.00364 0.102235,-0.010373 0.09885,-0.015725 0.163279,-0.023307 0.171443,-0.02018 0.0067,0.0026 0.0087,0.013966 0.01107,0.063082 0.0053,0.1108131 -0.0074,0.2235872 -0.03476,0.3059645 -0.02801,0.084487 -0.06442,0.1426654 -0.132055,0.2110107 -0.04622,0.046709 -0.0533,0.059597 -0.03659,0.066578 0.0046,0.00193 0.02079,0.00527 0.03589,0.00735 0.03947,0.00549 0.04308,0.010142 0.02135,0.02745 -0.02007,0.015986 -0.09614,0.065552 -0.129477,0.084367 -0.06014,0.033945 -0.13461,0.069102 -0.185454,0.087538 -0.09553,0.034651 -0.144263,0.040123 -0.383473,0.043055 -0.207737,0.00253 -0.319068,0.00776 -0.356247,0.016677 -0.02445,0.00587 -0.02218,0.00564 -0.02568,0.00215 z m 4.815972,-0.4010841 c -0.0045,-0.00549 -0.0022,-0.016572 0.01397,-0.06628 0.0264,-0.081153 0.04532,-0.1640128 0.06892,-0.3019046 0.05872,-0.3430225 0.09708,-0.4408067 0.209954,-0.5352487 0.123201,-0.1030712 0.300326,-0.1736273 0.510812,-0.2034896 0.111943,-0.015881 0.243309,-0.028058 0.361003,-0.03347 0.08542,-0.00393 0.120255,-9.704e-4 0.126578,0.01087 0.0042,0.00783 0.003,0.032586 -0.0027,0.05486 -0.0061,0.024049 -0.01337,0.074641 -0.02179,0.1509965 -0.0063,0.057098 -0.01065,0.1028552 -0.02314,0.2433381 -0.03039,0.3417758 -0.06559,0.4343545 -0.194307,0.5109331 -0.113094,0.067283 -0.234047,0.092192 -0.537852,0.11077 -0.159652,0.00976 -0.297952,0.021613 -0.359717,0.030812 -0.02839,0.00423 -0.111825,0.021785 -0.13204,0.027784 -0.01598,0.00475 -0.01586,0.00475 -0.01977,0 z m -3.485841,-0.046278 c -0.0045,-0.00446 0,-0.023054 0.01741,-0.075523 0.03119,-0.093069 0.05236,-0.1906306 0.08799,-0.4056371 0.03198,-0.1929689 0.05274,-0.288778 0.08116,-0.3746205 0.02467,-0.074547 0.05133,-0.128271 0.09161,-0.1846777 0.08085,-0.1132108 0.160467,-0.1537284 0.342629,-0.1743605 0.05467,-0.00617 0.0864,-0.0087 0.195459,-0.015487 0.214318,-0.013329 0.288142,-0.025698 0.395085,-0.066171 0.02083,-0.00788 0.04027,-0.013995 0.04321,-0.013572 0.0076,0.00111 0.0081,0.01546 0.0017,0.050948 -0.0084,0.047141 -0.0184,0.1314859 -0.03726,0.3154632 -0.02778,0.2709428 -0.04335,0.3491913 -0.08805,0.442803 -0.01808,0.037873 -0.02873,0.055827 -0.05094,0.085941 -0.07195,0.097553 -0.191361,0.1748065 -0.357178,0.2310942 -0.0591,0.020062 -0.117639,0.035551 -0.282203,0.074685 -0.264801,0.062962 -0.385041,0.093411 -0.417401,0.105699 -0.01408,0.00534 -0.02039,0.00624 -0.02325,0.00342 z m 8.9636423,-0.259651 c -0.05651,-0.014173 -0.07346,-0.019757 -0.09761,-0.032163 -0.03634,-0.018666 -0.05498,-0.044533 -0.07308,-0.1014365 -0.0127,-0.039923 -0.01273,-0.041015 -0.0014,-0.050971 0.01242,-0.010892 0.04297,-0.025036 0.0787,-0.036433 0.01543,-0.00491 0.04816,-0.015376 0.07271,-0.023232 0.145414,-0.046479 0.268569,-0.1131145 0.422924,-0.2288514 0.06873,-0.051528 0.06908,-0.051462 0.0497,0.00951 -0.04946,0.1555776 -0.134171,0.2679151 -0.305521,0.4051597 -0.06091,0.048796 -0.09042,0.070024 -0.09695,0.069757 -0.0028,0 -0.02508,-0.0052 -0.04949,-0.011339 z M 2.5965007,9.0990345 c -0.127119,-0.00748 -0.287343,-0.024932 -0.502601,-0.054765 -0.08895,-0.012334 -0.09369,-0.013156 -0.09586,-0.016693 -0.0025,-0.00401 0.0038,-0.019459 0.03604,-0.087574 0.03737,-0.079147 0.06264,-0.1358501 0.09908,-0.2223539 0.0753,-0.1787005 0.144106,-0.3184345 0.190263,-0.3863987 0.03114,-0.045848 0.130262,-0.1224261 0.182155,-0.1407066 0.02028,-0.00713 0.01902,-8.843e-4 -0.01363,0.067848 -0.0239,0.050296 -0.0327,0.074225 -0.04078,0.1108358 -0.0061,0.027652 -0.0069,0.060394 -0.0016,0.064817 0.0048,0.00393 0.01471,-0.0011 0.061,-0.031057 0.06658,-0.043004 0.117216,-0.061053 0.207079,-0.073815 0.03121,-0.00445 0.182609,-0.00438 0.228335,0 0.09438,0.00921 0.195819,0.024509 0.317634,0.047881 0.04069,0.00781 0.108088,0.020737 0.149771,0.028718 0.04168,0.00799 0.0765,0.015228 0.07737,0.016105 0.0023,0.0023 -0.03105,0.073653 -0.04593,0.098169 -0.03285,0.054097 -0.07646,0.1082603 -0.154425,0.191795 -0.05803,0.062183 -0.08877,0.098661 -0.09743,0.1156109 -0.0045,0.00873 -0.0046,0.010342 -0.0013,0.01367 0.0068,0.00683 0.03231,0.010788 0.06987,0.010824 0.01992,1.57e-5 0.03679,9.626e-4 0.03749,0.00215 0.0023,0.00364 -0.08038,0.084048 -0.106128,0.1032466 -0.06932,0.051685 -0.176161,0.1035094 -0.255321,0.1238386 -0.032,0.00822 -0.06973,0.014084 -0.115343,0.017915 -0.03509,0.00297 -0.174656,0.0029 -0.225781,0 z m 3.296071,-0.1974169 c -0.0027,-0.00326 -0.0026,-0.00698 9.41e-4,-0.021027 0.0074,-0.029186 0.01491,-0.1123656 0.0273,-0.2985928 0.01115,-0.1676798 0.01595,-0.2199577 0.02825,-0.3077174 0.02636,-0.1879426 0.06984,-0.3023507 0.152263,-0.400653 0.116518,-0.1389608 0.296298,-0.2035921 0.626915,-0.2253996 0.107398,-0.00706 0.134861,-0.00925 0.181136,-0.014324 0.07362,-0.00806 0.124079,-0.017684 0.167839,-0.031999 0.01092,-0.00357 0.02154,-0.00587 0.0236,-0.00505 0.0086,0.00326 0.0022,0.035618 -0.02152,0.1091368 -0.03481,0.1077987 -0.04216,0.1614945 -0.05768,0.4211818 -0.01363,0.2281088 -0.02529,0.2998621 -0.0584,0.358992 -0.02287,0.040853 -0.08028,0.100873 -0.139781,0.1461502 -0.118258,0.089972 -0.27179,0.1418265 -0.613094,0.2070463 -0.193947,0.037056 -0.267191,0.052172 -0.296855,0.061276 -0.01935,0.00594 -0.01689,0.00585 -0.02091,9.703e-4 z m 7.2125143,-0.00416 c -0.01968,-0.00747 -0.04341,-0.023403 -0.06984,-0.046902 -0.01245,-0.01107 -0.02651,-0.023573 -0.03125,-0.027776 l -0.0086,-0.00765 0.04383,-0.045865 c 0.06606,-0.069115 0.0976,-0.1104562 0.123092,-0.161338 0.0069,-0.01375 0.01319,-0.023321 0.01497,-0.022742 0.0041,0.00135 0.02778,0.046428 0.03756,0.071462 0.0126,0.032232 0.01608,0.054202 0.01459,0.092201 -10e-4,0.025719 -0.0029,0.038304 -0.0081,0.056094 -0.01423,0.047986 -0.03653,0.082089 -0.06088,0.093128 -0.01436,0.00653 -0.03723,0.00624 -0.05536,-7.043e-4 z M 1.8566397,8.8707265 c -0.04217,-0.0069 -0.166727,-0.034099 -0.237628,-0.051867 -0.205417,-0.051462 -0.335984,-0.1078824 -0.43463,-0.1877876 -0.03281,-0.026588 -0.12571,-0.1195831 -0.12238,-0.1225083 0.0014,-0.00119 0.0352,-0.00931 0.07519,-0.018026 0.271139,-0.059139 0.431449,-0.1128047 0.628882,-0.2105216 0.118375,-0.058588 0.188493,-0.1000694 0.363282,-0.2149165 l 0.108159,-0.071069 0.09211,0.03056 c 0.05066,0.016801 0.09369,0.032021 0.0956,0.033819 0.0028,0.00268 -0.0037,0.00796 -0.03818,0.030529 -0.09275,0.060706 -0.147092,0.1064362 -0.207368,0.174535 -0.06222,0.07029 -0.116456,0.152222 -0.16107,0.2433381 -0.03664,0.074826 -0.05675,0.1283587 -0.101968,0.2713732 -0.01483,0.046881 -0.02816,0.075197 -0.04051,0.086001 -0.0052,0.00452 -0.01028,0.00812 -0.01128,0.00793 -0.001,0 -0.0047,-8.295e-4 -0.0082,-0.00142 z m 2.099163,-0.1079457 c -0.05812,-0.010225 -0.375874,-0.080099 -0.375505,-0.08258 0,-0.00104 0.01336,-0.018658 0.02933,-0.039091 0.09724,-0.1243419 0.139499,-0.2221019 0.207337,-0.4795628 0.02119,-0.080395 0.04036,-0.144722 0.06039,-0.2025693 0.02901,-0.08375 0.04897,-0.1185885 0.09531,-0.1663659 0.07384,-0.076132 0.159002,-0.1269251 0.270662,-0.161435 0.05172,-0.015986 0.06792,-0.014804 0.118634,0.00869 0.04405,0.020411 0.07339,0.0292 0.117349,0.035171 0.01317,0.00177 0.0845,0.00357 0.181653,0.0046 0.111629,0.00111 0.160819,0.00245 0.162793,0.00446 0.002,0.00208 -0.002,0.016431 -0.01539,0.053503 -0.04266,0.1187654 -0.06567,0.1520741 -0.206601,0.2991132 -0.106544,0.1111394 -0.108033,0.1128242 -0.102947,0.1165382 0.0088,0.00646 0.05876,-0.00356 0.124635,-0.024881 0.05862,-0.018977 0.07405,-0.022847 0.09118,-0.022847 0.01568,0 0.02235,0.00475 0.02235,0.015912 0,0.010232 -0.02325,0.042551 -0.05324,0.07404 -0.08711,0.091435 -0.107539,0.1179726 -0.140236,0.182136 -0.02784,0.054637 -0.06904,0.1596312 -0.07822,0.1993083 -0.0024,0.010514 -0.0063,0.022958 -0.0085,0.027666 -0.01328,0.027805 -0.115217,0.079688 -0.230051,0.1170876 -0.04784,0.015585 -0.07792,0.023314 -0.141584,0.036395 -0.05645,0.011597 -0.08455,0.01263 -0.12936,0.00475 z M 12.689503,8.6519364 c -0.03571,-0.00774 -0.07817,-0.024726 -0.144114,-0.057684 -0.103183,-0.051566 -0.115609,-0.064253 -0.08895,-0.090856 0.03285,-0.032795 0.09816,-0.064708 0.1703,-0.083203 0.04352,-0.011166 0.07121,-0.014997 0.09678,-0.013409 0.0469,0.0029 0.05467,0.016951 0.05688,0.1026839 0.002,0.07629 -0.0043,0.1137781 -0.02196,0.1314044 -0.01496,0.014937 -0.03569,0.018265 -0.06893,0.011063 z M 7.1317747,8.5675444 c -0.0034,-0.00333 -0.0016,-0.019681 0.0046,-0.04255 0.0111,-0.040865 0.02427,-0.1310077 0.04214,-0.2882795 0.03407,-0.2998097 0.06834,-0.4494031 0.130465,-0.5694918 0.02486,-0.048061 0.04624,-0.077246 0.08506,-0.116064 0.04559,-0.045594 0.08967,-0.074432 0.159628,-0.1043765 0.05555,-0.023782 0.149944,-0.031764 0.510155,-0.043137 0.101725,-0.00319 0.185703,-0.00513 0.186612,-0.00423 0.0017,0.00164 0.0257,0.2642761 0.03025,0.3315446 0.0015,0.021725 0.0034,0.071031 0.0042,0.1095727 0.0039,0.173844 -0.01632,0.3011479 -0.06177,0.3898889 -0.05196,0.1014811 -0.13787,0.1599138 -0.291801,0.1985133 -0.08296,0.020804 -0.166868,0.033829 -0.354405,0.055011 -0.111339,0.012571 -0.210095,0.026818 -0.275935,0.039797 -0.02706,0.00534 -0.105204,0.027115 -0.140134,0.039062 -0.01944,0.00668 -0.02613,0.00775 -0.0291,0.00475 z m 4.9706703,-0.253264 c -0.07771,-0.020179 -0.141121,-0.048178 -0.18879,-0.083358 -0.03789,-0.02796 -0.08031,-0.077572 -0.07857,-0.091895 0.0016,-0.0128 0.01039,-0.015836 0.05326,-0.01831 0.04718,-0.00275 0.08116,-0.00834 0.154848,-0.0256 0.03163,-0.00743 0.06249,-0.013165 0.07187,-0.013409 l 0.01645,-7.043e-4 0.0059,0.010193 c 0.01707,0.029789 0.03197,0.098355 0.03241,0.1490589 7.83e-4,0.041015 -0.0033,0.06023 -0.01363,0.071249 -0.0063,0.00683 -0.0089,0.00772 -0.02089,0.0076 -0.0075,0 -0.02226,-0.00237 -0.03278,-0.00513 z M 3.4026957,8.2490124 c -0.05053,-0.00513 -0.122959,-0.018227 -0.181144,-0.0327 -0.06701,-0.016668 -0.142978,-0.029972 -0.210471,-0.036871 -0.01403,-0.00142 -0.06144,-0.00333 -0.105337,-0.0043 -0.04392,-8.843e-4 -0.08024,-0.00237 -0.08074,-0.00319 -7.83e-4,-8.295e-4 0.0129,-0.016409 0.02977,-0.034628 0.06954,-0.075102 0.123241,-0.1455257 0.226377,-0.2968477 0.117482,-0.1723885 0.185461,-0.2555828 0.263406,-0.3223755 0.05731,-0.049098 0.09432,-0.071864 0.213762,-0.1314389 0.102822,-0.051284 0.127535,-0.065441 0.14775,-0.08465 0.0298,-0.028325 0.102712,-0.061723 0.162244,-0.074315 0.04272,-0.00904 0.07525,0 0.07525,0.020552 0,0.016023 -0.03325,0.070379 -0.08558,0.1399413 -0.063,0.083729 -0.11083,0.13507 -0.150359,0.1614053 -0.03013,0.020069 -0.03498,0.027717 -0.02369,0.037406 0.0099,0.00854 0.03186,0.012303 0.06191,0.010633 0.02782,-0.00156 0.04402,-0.00549 0.09439,-0.023204 0.03856,-0.013527 0.08033,-0.021367 0.09121,-0.017112 0.0173,0.00675 0.01013,0.016163 -0.08087,0.1060613 -0.08892,0.087864 -0.120624,0.1285959 -0.159291,0.2047081 -0.03958,0.077908 -0.06283,0.1477512 -0.115374,0.3465556 -0.0071,0.026966 -0.0092,0.031778 -0.01439,0.03376 -0.0056,0.00215 -0.138747,0.0026 -0.158821,7.043e-4 z M 14.17026,8.0673147 c -8.62e-4,-0.00135 0.01411,-0.028606 0.03325,-0.060519 0.03925,-0.065441 0.05989,-0.1065442 0.08375,-0.1668402 0.03127,-0.079022 0.05061,-0.1455108 0.06793,-0.2335084 0.0053,-0.027122 0.01078,-0.050384 0.01209,-0.051698 0.0015,-0.00148 0.02362,7.043e-4 0.05829,0.00527 0.03075,0.00424 0.07416,0.00908 0.09647,0.010854 0.05856,0.00469 0.05937,0.0058 0.04472,0.062323 -0.04535,0.1749271 -0.119683,0.2892021 -0.234302,0.3602042 -0.03219,0.019944 -0.09558,0.051913 -0.128341,0.064735 -0.03338,0.013069 -0.03174,0.012623 -0.03386,0.00919 z m -2.547443,-0.061032 c -0.02231,-0.00683 -0.05942,-0.034146 -0.09023,-0.066489 -0.02141,-0.022473 -0.0657,-0.085026 -0.06637,-0.093736 0,-0.00349 0.0078,-0.00557 0.04689,-0.012339 0.07682,-0.01329 0.118861,-0.024976 0.176035,-0.048908 0.01333,-0.00557 0.02523,-0.00919 0.02645,-0.00802 0.0012,0.00119 0.0016,0.025437 8.61e-4,0.053932 -0.0014,0.053675 -0.004,0.070172 -0.01666,0.1033975 -0.01104,0.028979 -0.03519,0.059835 -0.05458,0.069711 -0.01019,0.0052 -0.01259,0.00542 -0.02244,0.00245 z M 5.1247857,7.9701112 c -0.04006,-0.00135 -0.05916,-0.00364 -0.126289,-0.01479 -0.0435,-0.00728 -0.08161,-0.01421 -0.0847,-0.015474 -0.0055,-0.00223 -0.0052,-0.00319 0.01445,-0.043821 0.02634,-0.054511 0.0526,-0.1174875 0.133913,-0.321222 0.102188,-0.2560351 0.133121,-0.3223817 0.191572,-0.4108254 0.02851,-0.043152 0.05623,-0.076624 0.08949,-0.1080593 0.05265,-0.049761 0.104742,-0.083477 0.213206,-0.1379888 l 0.07614,-0.038269 0.04676,0.015244 c 0.05973,0.01946 0.08571,0.026677 0.118986,0.033047 0.08387,0.016046 0.168419,0.013053 0.288291,-0.010185 0.09291,-0.018021 0.130982,-0.021851 0.137634,-0.013855 0.01529,0.018391 0.0028,0.2307312 -0.02035,0.3454273 -0.02865,0.1421098 -0.103942,0.297732 -0.199744,0.4127865 -0.06135,0.07369 -0.129752,0.136912 -0.191839,0.1773389 -0.05898,0.038401 -0.165238,0.080395 -0.243607,0.096276 -0.116565,0.023626 -0.313019,0.038831 -0.443915,0.03437 z m -2.409792,-0.017813 c -0.02479,-0.00275 -0.06685,-0.012051 -0.147828,-0.032653 -0.279657,-0.071173 -0.498762,-0.146669 -0.616346,-0.2123841 -0.0372,-0.020797 -0.08958,-0.053377 -0.104389,-0.064931 -0.02329,-0.018183 -0.02543,-0.02418 -0.01084,-0.03041 0.0079,-0.00334 0.02604,-0.00446 0.101412,-0.00609 0.05051,-0.0011 0.107923,-0.00326 0.127559,-0.00482 0.163733,-0.012979 0.326926,-0.045647 0.46688,-0.093462 0.193508,-0.066102 0.266838,-0.088689 0.378114,-0.1164647 0.138434,-0.034562 0.346633,-0.077275 0.389116,-0.079844 0.02246,-0.00135 0.02498,-0.00104 0.02659,0.00311 0.0023,0.00587 -0.0094,0.016528 -0.04564,0.041497 -0.05842,0.040294 -0.12596,0.1007235 -0.172815,0.1546197 -0.07538,0.086714 -0.258681,0.3255151 -0.305105,0.3974985 -0.01627,0.025221 -0.02416,0.034354 -0.03393,0.039232 -0.01174,0.00587 -0.02981,0.0076 -0.05279,0.00505 z M 13.702165,7.803656 c -0.0019,-0.0023 -0.004,-0.020397 -0.0055,-0.047778 -0.0058,-0.1066044 -0.01136,-0.1424658 -0.03384,-0.2167421 -0.0075,-0.024904 -0.01288,-0.045798 -0.01186,-0.046428 0.0042,-0.00268 0.154825,-0.026885 0.18941,-0.030502 0.04634,-0.00482 0.10634,-0.00491 0.133011,0 0.02516,0.00446 0.04639,0.014604 0.05287,0.025215 0.0094,0.015384 0.0054,0.033983 -0.01699,0.079333 -0.03969,0.080373 -0.0855,0.1262662 -0.182805,0.1831979 -0.0301,0.017604 -0.111315,0.057541 -0.11709,0.057571 -0.0023,0 -0.0056,-0.00164 -0.0073,-0.00371 z m -0.65119,-0.2173369 c -0.0021,-0.00245 -0.0045,-0.010276 -0.0053,-0.017388 -0.0021,-0.019195 -0.02086,-0.063461 -0.06205,-0.1467574 -0.03035,-0.061374 -0.03622,-0.07502 -0.03346,-0.077776 0.0025,-0.00245 0.01387,-0.00333 0.04309,-0.00348 0.03406,0 0.04208,7.043e-4 0.05603,0.00534 0.0297,0.00993 0.05775,0.030618 0.10493,0.077388 0.04523,0.04483 0.04778,0.057698 0.01898,0.095416 -0.01507,0.019726 -0.04207,0.039713 -0.07672,0.056791 -0.03233,0.015933 -0.03933,0.017544 -0.04547,0.010484 z M 6.2635877,7.5539021 c -7.83e-4,-0.00208 0.0074,-0.032156 0.01828,-0.066881 0.03142,-0.1006195 0.03893,-0.1264806 0.05107,-0.1760188 0.01622,-0.066124 0.04014,-0.1876373 0.05076,-0.257867 0.02258,-0.1492522 0.02944,-0.1881656 0.04244,-0.2407932 0.02179,-0.088173 0.05036,-0.1490284 0.09756,-0.2076669 0.02788,-0.034653 0.135558,-0.1378863 0.173935,-0.1667603 0.05755,-0.043294 0.08151,-0.045818 0.196579,-0.020708 0.09809,0.021405 0.183549,0.029766 0.320047,0.031311 0.05824,7.043e-4 0.106748,0.002 0.107821,0.00304 0.0011,0.00104 -0.0037,0.024122 -0.01057,0.051365 -0.01949,0.07712 -0.02432,0.1155045 -0.02439,0.193494 0,0.050029 0.0013,0.076988 0.0056,0.1172081 0.01885,0.1740435 0.01629,0.3550284 -0.006,0.4224072 -0.01303,0.039425 -0.04434,0.091399 -0.07392,0.1227095 -0.08029,0.085013 -0.189073,0.1140943 -0.534295,0.1428579 -0.126398,0.010535 -0.260146,0.024926 -0.321457,0.034592 -0.01333,0.00207 -0.03853,0.00779 -0.05599,0.012644 -0.03651,0.010157 -0.03556,0.010031 -0.03745,0.00505 z M 12.38153,7.5163641 c -0.04409,-0.040554 -0.143871,-0.2470357 -0.143871,-0.2977023 0,-0.013372 0.0072,-0.018383 0.04188,-0.029268 0.04884,-0.015325 0.08486,-0.021777 0.130332,-0.023342 0.08189,-0.00283 0.129149,0.01401 0.225844,0.080462 0.02571,0.01767 0.04715,0.033388 0.04766,0.034918 7.83e-4,0.00156 -0.01146,0.010863 -0.02659,0.020721 -0.0299,0.019491 -0.08274,0.063728 -0.140996,0.1180243 -0.05462,0.050912 -0.09835,0.089899 -0.111112,0.099053 l -0.01125,0.00807 z m -7.7159693,0.00542 c -0.04684,-0.00297 -0.09108,-0.010975 -0.169657,-0.030707 -0.07877,-0.019781 -0.158171,-0.035091 -0.275527,-0.053125 -0.095,-0.014598 -0.123852,-0.020314 -0.125615,-0.024888 -0.0024,-0.00608 0.0026,-0.017492 0.04396,-0.1025642 0.05109,-0.1049282 0.08264,-0.1882626 0.109467,-0.2892099 0.02918,-0.1097355 0.03665,-0.1361381 0.04792,-0.1692528 0.03892,-0.1142813 0.08443,-0.1901767 0.168185,-0.2804171 0.05072,-0.054654 0.09167,-0.087827 0.13345,-0.1081047 0.07796,-0.037844 0.168858,-0.046917 0.421161,-0.042032 0.07437,0.00142 0.139805,0.00342 0.145423,0.00446 l 0.01021,0.00185 v 0.040674 0.040671 l -0.01062,0.031244 c -0.0218,0.064178 -0.062,0.1315069 -0.126462,0.2118058 -0.02069,0.025762 -0.03784,0.047985 -0.03813,0.049381 -7.83e-4,0.00164 0.04969,0.00268 0.143629,0.0029 0.146308,0 0.172148,0.00178 0.193225,0.010559 0.0072,0.00297 0.0083,0.00475 0.0083,0.012427 0,0.00747 -0.0027,0.011799 -0.01595,0.026031 -0.0088,0.00939 -0.03317,0.030822 -0.05421,0.047631 -0.09885,0.078909 -0.174327,0.156141 -0.233444,0.2388321 -0.03189,0.044613 -0.04255,0.064794 -0.08703,0.1646193 -0.06658,0.1494838 -0.07911,0.1690469 -0.122011,0.1906306 -0.04349,0.021866 -0.09944,0.030851 -0.16599,0.026624 z M 13.587488,7.4046965 c -0.0034,-0.00142 -0.01373,-0.00816 -0.02297,-0.014937 -0.02069,-0.015192 -0.02591,-0.017946 -0.04217,-0.022231 -0.02454,-0.00646 -0.06597,-0.00675 -0.157794,-0.00111 -0.04882,0.00297 -0.08967,0.00491 -0.09074,0.00424 -0.0011,-7.043e-4 -0.02543,-0.020285 -0.0541,-0.043591 -0.09273,-0.075375 -0.145211,-0.1054392 -0.210299,-0.1204588 -0.03607,-0.00833 -0.05978,-0.00938 -0.09727,-0.0043 -0.01807,0.00244 -0.03938,0.00386 -0.04735,0.00311 -0.02061,-0.00185 -0.04438,-0.014203 -0.0954,-0.04956 -0.0669,-0.04636 -0.118751,-0.076177 -0.156125,-0.089801 -0.04204,-0.015325 -0.101733,-0.022995 -0.178801,-0.022981 -0.08469,0 -0.144279,0.00764 -0.221997,0.028408 -0.04407,0.011775 -0.07893,0.019995 -0.08479,0.019995 -0.0014,0 -0.02137,-0.038186 -0.04445,-0.084866 -0.06333,-0.1281067 -0.0788,-0.1485017 -0.142468,-0.1877774 -0.01931,-0.011917 -0.04102,-0.02693 -0.04825,-0.033368 -0.01304,-0.011611 -0.0131,-0.011752 -0.0089,-0.018183 0.0063,-0.00954 0.01824,-0.016016 0.04804,-0.025949 0.04148,-0.013833 0.112013,-0.026781 0.191188,-0.035091 0.04906,-0.00513 0.214162,-0.0043 0.254521,0.00126 0.06705,0.00931 0.125365,0.027613 0.23277,0.073044 0.145298,0.061463 0.315613,0.1492075 0.568927,0.2930906 0.201241,0.1143056 0.31052,0.1688615 0.393911,0.1966524 0.04381,0.014596 0.08294,0.032208 0.105376,0.047428 0.0084,0.00571 0.02415,0.019862 0.0349,0.031429 0.01551,0.016676 0.01888,0.021635 0.0163,0.024021 -0.0047,0.0043 -0.106419,0.031843 -0.122458,0.033144 -0.0074,7.043e-4 -0.01623,0 -0.01962,-0.00156 z m -1.871431,-0.055781 c -0.0263,-0.041615 -0.06754,-0.1124846 -0.07712,-0.1325305 -0.02513,-0.052597 -0.03699,-0.09999 -0.03705,-0.147961 0,-0.035585 0.0041,-0.059182 0.01622,-0.093855 0.0087,-0.024822 0.01658,-0.036736 0.02818,-0.042729 0.01871,-0.00966 0.113564,-0.00948 0.157669,0 0.06066,0.013453 0.102658,0.053206 0.141333,0.1337631 0.02039,0.042461 0.02416,0.064736 0.01428,0.084093 -0.0052,0.010195 -0.01459,0.01805 -0.04226,0.035407 -0.02304,0.014455 -0.07341,0.057469 -0.120945,0.1033006 -0.02319,0.022349 -0.04923,0.047437 -0.05786,0.055744 l -0.01571,0.015109 z M 3.7369087,7.121693 C 3.5658417,7.112913 3.3948127,7.08485 3.2626397,7.043865 3.1575137,7.011264 3.0222617,6.957515 2.9329317,6.9128339 c -0.04193,-0.020975 -0.105659,-0.060622 -0.102501,-0.063778 0.0012,-0.00119 0.06755,-0.00967 0.147507,-0.018904 0.151839,-0.01753 0.266705,-0.033024 0.358824,-0.048401 0.229158,-0.038261 0.455072,-0.087679 0.66038,-0.1444481 0.13244,-0.03662 0.223031,-0.060653 0.228641,-0.060653 0.0031,0 0.0064,0.0011 0.0073,0.00245 0.0021,0.00349 -0.0073,0.030026 -0.02215,0.062554 -0.05529,0.1208446 -0.07082,0.1596007 -0.109201,0.2726425 -0.02611,0.076876 -0.04963,0.1371726 -0.06294,0.1613168 -0.01713,0.031051 -0.03065,0.041504 -0.05982,0.046234 -0.0187,0.00304 -0.182209,0.00297 -0.242031,0 z m 1.973391,-0.3809561 c -0.0098,-7.043e-4 -0.0437,-0.00208 -0.07526,-0.00364 -0.09617,-0.0046 -0.186166,-0.012896 -0.250024,-0.023047 -0.03674,-0.00586 -0.08689,-0.01721 -0.09043,-0.020493 -0.0015,-0.00135 0.0071,-0.021761 0.02221,-0.052581 0.01354,-0.027686 0.02878,-0.062954 0.03386,-0.078375 0.01304,-0.039463 0.02782,-0.1022903 0.03566,-0.1516077 0.01953,-0.1229372 0.03749,-0.1782436 0.09597,-0.2955769 0.06289,-0.1261918 0.108213,-0.1929102 0.179318,-0.2639569 0.03893,-0.038883 0.06151,-0.057556 0.134352,-0.1110157 l 0.04739,-0.034784 0.06997,0.016312 c 0.14851,0.034622 0.211098,0.043106 0.34563,0.046849 0.0825,0.00231 0.09809,0.00401 0.09809,0.011005 0,0.01032 -0.04307,0.087255 -0.09514,0.1699587 -0.06823,0.1083714 -0.108879,0.1667814 -0.195067,0.2802919 -0.0282,0.037138 -0.05049,0.0683 -0.04955,0.069242 9.4e-4,9.626e-4 0.05395,0.00408 0.117803,0.00706 0.173199,0.00795 0.287264,0.015681 0.340591,0.023106 0.02319,0.00319 0.07842,0.015539 0.08141,0.018153 0.0013,0.0011 -0.01633,0.021591 -0.03967,0.046078 -0.06929,0.072688 -0.106866,0.1174672 -0.150312,0.1790833 -0.07769,0.1102292 -0.157975,0.1487263 -0.342997,0.1644963 -0.0311,0.00268 -0.274673,0.00534 -0.313803,0.00342 z M 5.0125377,6.2436731 c -0.18159,-0.00185 -0.367638,-0.011679 -0.447746,-0.023647 -0.118133,-0.017648 -0.24935,-0.053561 -0.298657,-0.081738 -0.01846,-0.010552 -0.03484,-0.02872 -0.03381,-0.037526 7.84e-4,-0.00653 0.0018,-0.00697 0.02376,-0.01018 0.04139,-0.00609 0.210471,-0.035846 0.271712,-0.04783 0.308686,-0.060377 0.601647,-0.1457776 0.832983,-0.2428114 0.04617,-0.01937 0.172305,-0.07542 0.188242,-0.083647 0.01591,-0.00822 0.01055,0.00156 -0.01757,0.03203 -0.08943,0.09688 -0.176756,0.2444243 -0.250478,0.423182 l -0.02995,0.07262 h -0.09054 c -0.0498,0 -0.116369,0 -0.147938,-7.043e-4 z M 11.996567,6.0712048 c -0.06929,-0.018482 -0.132745,-0.053072 -0.209859,-0.1144081 -0.05403,-0.042975 -0.08957,-0.074991 -0.234111,-0.2108253 -0.03653,-0.034331 -0.102571,-0.095786 -0.146739,-0.1365622 -0.07691,-0.071004 -0.107053,-0.10074 -0.107053,-0.1056177 0,-0.01802 0.140847,-0.00864 0.293392,0.019558 0.169657,0.031346 0.346946,0.1027794 0.644192,0.2595676 0.151393,0.079853 0.213026,0.1174741 0.213026,0.1300365 0,0.00683 -0.102423,0.057334 -0.210479,0.1037466 -0.07313,0.031413 -0.100166,0.041356 -0.137588,0.050584 -0.04381,0.010804 -0.07465,0.011963 -0.104781,0.00394 z m 0.6252,-0.235817 c -7.83e-4,-0.00126 0.0042,-0.00902 0.01099,-0.017197 0.03541,-0.042418 0.06722,-0.108341 0.0844,-0.1749115 0.0098,-0.038133 0.0129,-0.063616 0.0129,-0.1079402 0,-0.019929 8.62e-4,-0.036767 0.0019,-0.037428 0.0011,-7.043e-4 0.01169,0.0046 0.0236,0.01162 0.09504,0.056278 0.185899,0.088569 0.261463,0.092929 0.02762,0.00156 0.05937,-0.00319 0.07939,-0.011865 0.01301,-0.00564 0.01541,-0.00926 0.01011,-0.01511 -0.005,-0.00549 -0.01584,-0.00889 -0.05417,-0.016826 -0.03564,-0.00735 -0.07594,-0.025807 -0.106756,-0.048824 -0.02731,-0.020397 -0.05942,-0.054751 -0.06848,-0.073276 -0.008,-0.01643 -0.0081,-0.021813 -7.83e-4,-0.054734 0.0068,-0.029995 0.01354,-0.097042 0.01833,-0.182575 l 0.0045,-0.079147 -0.07422,-0.1081336 c -0.04082,-0.05948 -0.07335,-0.109032 -0.0723,-0.1101158 0.0025,-0.00253 0.05079,0.014159 0.06921,0.023916 0.05317,0.028176 0.136937,0.1127287 0.213009,0.2150338 0.03534,0.047518 0.06932,0.09794 0.135222,0.2006614 l 0.06336,0.098741 h 0.01038 c 0.01766,0 0.286231,0.0126 0.326747,0.015309 0.09042,0.00609 0.187882,0.016216 0.233444,0.024346 0.03482,0.00624 0.109937,0.025185 0.110477,0.02791 0,0.00149 -0.02,0.00319 -0.05181,0.0043 -0.174844,0.00617 -0.382431,0.044103 -0.628984,0.1150248 -0.148627,0.042744 -0.292984,0.093158 -0.566278,0.1977425 -0.03299,0.012623 -0.04304,0.01493 -0.04577,0.010514 z m -0.19531,-0.1107175 c -0.0091,-0.00327 -0.02691,-0.011115 -0.03954,-0.017478 -0.05244,-0.026432 -0.131272,-0.061166 -0.239305,-0.1054321 -0.125568,-0.051453 -0.158226,-0.070044 -0.140079,-0.079742 0.02206,-0.01179 0.383427,-0.013921 0.471581,-0.00282 0.02924,0.0037 0.04345,0.00917 0.05583,0.021539 0.0246,0.024569 0.0211,0.059881 -0.01235,0.1247362 -0.01681,0.032571 -0.0355,0.055916 -0.04946,0.061737 -0.012,0.00505 -0.02782,0.00416 -0.04667,-0.0026 z"
       id="path146-5-43-0"
       inkscape:connector-curvature="0" />
  </g>
</svg>
