<?xml version="1.0" encoding="UTF-8" standalone="no"?>
<svg
   width="17mm"
   height="17mm"
   inkscape:version="1.2 (1:1.2+202206011327+fc4e4096c5)"
   sodipodi:docname="tyrell_logo.svg"
   version="1.1"
   viewBox="0 0 17 17"
   id="svg144944"
   xmlns:inkscape="http://www.inkscape.org/namespaces/inkscape"
   xmlns:sodipodi="http://sodipodi.sourceforge.net/DTD/sodipodi-0.dtd"
   xmlns="http://www.w3.org/2000/svg"
   xmlns:svg="http://www.w3.org/2000/svg">
  <defs
     id="defs144946" />
  <sodipodi:namedview
     bordercolor="#666666"
     borderopacity="1.0"
     inkscape:current-layer="g144942"
     inkscape:cx="63.462831"
     inkscape:cy="46.138715"
     inkscape:deskcolor="#d1d1d1"
     inkscape:document-units="mm"
     inkscape:pagecheckerboard="0"
     inkscape:pageopacity="0.0"
     inkscape:showpageshadow="2"
     inkscape:window-height="1403"
     inkscape:window-maximized="1"
     inkscape:window-width="2560"
     inkscape:window-x="3840"
     inkscape:window-y="0"
     inkscape:zoom="5.6568545"
     pagecolor="#ffffff"
     showgrid="true"
     showguides="false"
     id="namedview144936">
    <inkscape:grid
       dotted="false"
       originx="0"
       originy="0"
       spacingx="0.5"
       spacingy="0.5"
       type="xygrid"
       units="mm"
       id="grid144934" />
  </sodipodi:namedview>
  <g
     inkscape:groupmode="layer"
     inkscape:label="Layer 1"
     id="g144942">
    <ellipse
       cx="8.5"
       cy="8.5"
       fill="#fce94f"
       stop-color="#000000"
       style="paint-order:fill markers stroke;fill:#217821"
       id="ellipse144938"
       ry="8.5"
       rx="8.5" />
    <path
       style="fill:#fce94f;stroke-width:0.566793"
       d="m 7.751792,15.234943 c -0.1916897,-0.02079 -0.3567742,-0.04603 -0.3668317,-0.05608 -0.034045,-0.03399 0.03576,-0.06743 0.4055748,-0.194227 0.3969236,-0.136088 0.9108747,-0.370727 1.036348,-0.47311 0.083691,-0.06828 0.145005,-0.05476 0.276615,0.06102 0.059417,0.05226 0.8004524,0.345541 1.0474109,0.414535 0.168227,0.04699 0.204741,0.07844 0.114914,0.09896 -0.3478616,0.07947 -1.5085739,0.194457 -1.9146965,0.189674 -0.1379305,-0.0017 -0.4076328,-0.01995 -0.5993345,-0.04077 z M 6.7247818,14.912466 c -0.2154729,-0.05933 -0.48666,-0.265653 -0.6506925,-0.49509 -0.055542,-0.07769 -0.055737,-0.08196 -0.00423,-0.100158 0.093737,-0.03316 0.1864909,-0.135953 0.1864909,-0.206689 0,-0.05116 0.057473,-0.110475 0.2286603,-0.235993 0.478306,-0.350719 0.5969681,-0.483047 0.5972884,-0.666086 0,-0.232256 -0.3225356,-1.041208 -0.4482602,-1.122878 -0.1333826,-0.08665 -0.5940651,-0.199121 -0.8852864,-0.216143 -0.4633113,-0.02705 -0.6402235,0.05425 -0.7776753,0.357385 -0.070673,0.155891 -0.1309472,0.50452 -0.1309472,0.757424 0,0.167933 -0.070366,0.324971 -0.2012899,0.449152 L 4.5501779,13.51751 4.3696762,13.42143 C 4.1667449,13.313398 3.8890209,13.035442 3.7680733,12.819322 3.541697,12.414787 3.3977098,11.71585 3.4809885,11.42582 c 0.015177,-0.05283 0.042846,-0.223681 0.061497,-0.379682 0.039211,-0.328012 0.063417,-0.273665 -0.3259404,-0.73208 C 2.5456585,9.5241324 2.3929844,9.2077282 2.3918183,8.6049118 c 0,-0.2413135 0.1095883,-0.7848586 0.1714391,-0.8466081 0.02128,-0.021259 0.08176,-0.02289 0.1861128,-0.00507 0.1436106,0.024624 0.1625247,0.038028 0.2661468,0.188582 0.2008563,0.2918121 0.4554488,0.4658099 0.7790697,0.5324367 0.1507191,0.031029 0.1993247,0.029034 0.348318,-0.014276 C 4.3750292,8.3924818 4.5241367,8.2937015 4.6475759,8.1256341 5.0070819,7.6361664 4.9305344,6.8404686 4.4874968,6.461721 4.2994402,6.3009457 4.095099,6.2493544 3.6676047,6.2547305 3.3269676,6.2589268 3.3045329,6.2558389 3.2728192,6.196528 3.2292879,6.1152773 3.257585,5.7650886 3.3169671,5.6503859 3.4612064,5.3718201 3.8137521,5.0541728 4.1397963,4.9090268 4.2410069,4.8639755 4.5607647,4.7504288 4.8503855,4.6566921 5.1509556,4.5594161 5.4060627,4.4594877 5.4447367,4.4238505 5.4820156,4.3895197 5.5852271,4.2221964 5.6740954,4.052015 6.0343783,3.3620254 6.3565936,3.0231114 6.8233327,2.8431913 7.1411721,2.7206502 7.5337633,2.7169843 7.805361,2.8340306 c 0.064903,0.027965 0.1229826,0.054299 0.1290629,0.058543 0.00594,0.0042 -0.03392,0.071235 -0.088868,0.1489068 -0.054948,0.07768 -0.1389247,0.220791 -0.1866162,0.3180353 -0.077439,0.1578933 -0.086719,0.206753 -0.086719,0.4567599 0,0.2500466 0.00914,0.2983521 0.085896,0.4522787 0.236296,0.4741075 0.6602023,0.695033 1.1738671,0.6117871 C 9.2105988,4.8189797 9.5161276,4.6179749 9.7531093,4.2743103 9.8518631,4.1310962 9.86576,4.0898454 9.86576,3.9402339 9.86576,3.767408 9.7450058,3.3855329 9.6650979,3.305747 9.5973959,3.2381225 9.5313848,3.0842118 9.5313848,2.9940141 c 0,-0.2232137 0.1301822,-0.3270059 0.4101347,-0.3270059 0.5464885,0 1.0662095,0.2941953 1.4372935,0.8135837 0.141873,0.1985741 0.361038,0.6275353 0.42514,0.8321584 0.04888,0.1560169 0.07624,0.1676558 0.456614,0.194449 0.528203,0.037189 1.122953,0.1428657 1.363489,0.2422319 0.132708,0.054822 0.292776,0.2020024 0.378386,0.3479164 0.147622,0.2515747 0.235381,0.8223247 0.165039,1.0732185 -0.01864,0.066437 -0.03416,0.070926 -0.269975,0.077933 -0.475563,0.014157 -0.947629,0.1953991 -1.220278,0.4685414 -0.286228,0.2867369 -0.326124,0.6092377 -0.123348,0.9972647 0.355724,0.6806705 0.777276,0.9030846 1.258347,0.6639089 0.248569,-0.1235783 0.606281,-0.4833474 0.836811,-0.84162 0.105625,-0.164172 0.186119,-0.2619389 0.202319,-0.2457552 0.08723,0.087133 0.184125,0.9154835 0.153469,1.3120854 -0.05002,0.6472264 -0.309563,1.1001621 -0.914315,1.5956637 l -0.146857,0.12034 0.03769,0.248011 c 0.138411,0.910369 0.104685,1.740208 -0.08625,2.122677 -0.133611,0.267631 -0.349392,0.418129 -0.604648,0.42174 -0.28097,0.004 -0.385723,-0.11422 -0.423095,-0.477417 -0.03965,-0.385209 -0.135142,-0.544606 -0.392511,-0.655176 -0.361084,-0.155146 -1.154279,-0.07694 -1.41142,0.139168 -0.189542,0.159287 -0.291976,0.474907 -0.292478,0.901192 0,0.277307 0.0029,0.29167 0.08079,0.363847 0.04461,0.04133 0.160787,0.121623 0.258159,0.1784 0.456259,0.266151 0.631824,0.400394 0.69268,0.529689 0.147897,0.314251 0.02079,0.463031 -0.504339,0.590346 -0.169256,0.04103 -0.339633,0.05282 -0.763687,0.05282 -0.49091,0 -0.5679278,-0.007 -0.7653777,-0.06922 C 9.5463906,14.594763 9.3273749,14.485278 9.0910449,14.326047 8.9607485,14.238256 8.9603148,14.2382 8.8697548,14.291708 8.581836,14.461834 8.060365,14.699458 7.7610989,14.7969 7.2823703,14.952774 6.9898243,14.985387 6.7248539,14.91241 Z M 8.991327,12.553599 c 0.034789,-0.02432 0.07208,-0.08443 0.082891,-0.133563 0.013692,-0.06229 0.067921,-0.124956 0.1792223,-0.207062 0.1511306,-0.111504 0.1638961,-0.115565 0.2408559,-0.07655 0.3463742,0.175597 0.9066798,0.01848 1.4421278,-0.404385 0.381849,-0.301583 0.569128,-0.602389 0.644773,-1.035673 0.06222,-0.356341 0.08176,-0.380917 0.303198,-0.381693 0.279427,-0.0012 0.306249,-0.03937 0.295918,-0.4236328 -0.009,-0.3334667 -0.0059,-0.3275997 -0.222238,-0.4344006 -0.05523,-0.027268 -0.04455,-0.081338 0.02458,-0.1244572 0.142399,-0.08882 0.263815,-0.5601325 0.262044,-1.0171855 -0.0017,-0.4454377 -0.08184,-0.6827844 -0.35466,-1.0508987 C 11.711879,7.0236953 11.474316,6.7949947 11.300499,6.6965073 11.226869,6.6547893 11.13481,6.5949321 11.09593,6.5634991 l -0.07066,-0.057157 0.0644,-0.1090336 C 11.17066,6.2602148 11.17055,6.1963591 11.08857,6.0516249 11.01755,5.9254258 10.940982,5.8905645 10.828286,5.9331218 c -0.05303,0.020032 -0.09439,0.01521 -0.150856,-0.017601 -0.07233,-0.042011 -0.08428,-0.040578 -0.169965,0.020364 L 10.415232,6.0014298 10.275417,5.877028 C 10.09015,5.7121751 9.7792366,5.5707346 9.4758331,5.5132685 9.0065446,5.4243773 8.8023286,5.4593494 8.1578299,5.7389842 7.848392,5.8732434 7.6633534,5.9867742 7.5025426,6.1410017 c -0.052594,0.050435 -0.1044902,0.091718 -0.1153365,0.091718 -0.010857,0 -0.087302,-0.05057 -0.1699186,-0.1123749 C 7.0041349,5.9608915 7.0081224,5.9621267 6.9232781,6.0287772 L 6.8463065,6.0892679 6.813004,6.0162674 C 6.7904679,5.9668614 6.7467416,5.937099 6.6777363,5.9241695 6.538034,5.897986 6.4810293,5.9490784 6.502492,6.0812236 6.5170286,6.1706453 6.505005,6.1969793 6.4026521,6.2991563 6.2711793,6.4304701 6.2751557,6.46412 6.4382868,6.6012137 l 0.095404,0.080182 -0.1048794,0.092438 C 5.9359931,7.2082899 5.8646555,7.2808074 5.7948733,7.4183604 5.6956398,7.6139495 5.5873429,7.9581921 5.5328639,8.2512789 c -0.024115,0.1296749 -0.064297,0.3086766 -0.08928,0.3978291 -0.025006,0.089144 -0.0472,0.248273 -0.049314,0.3536091 -0.00423,0.207909 0.052846,0.3567049 0.2162617,0.5641468 0.046525,0.059058 0.084583,0.12034 0.084583,0.1362148 0,0.015851 -0.054446,0.037514 -0.1209825,0.048139 -0.1387645,0.022161 -0.2197014,0.099255 -0.282249,0.2688593 -0.08368,0.226895 -0.086011,0.216032 0.060456,0.280751 0.074925,0.0331 0.1362388,0.07899 0.1362388,0.101979 0,0.108083 0.2278279,0.134528 0.3769005,0.04375 0.053131,-0.03236 0.1066512,-0.05883 0.1189253,-0.05883 0.047462,0 0.083005,0.173594 0.090524,0.442017 0.00949,0.336468 0.040126,0.392255 0.400969,0.728446 0.424569,0.395556 0.7421785,0.575294 1.2390213,0.701177 0.3760776,0.09528 0.4335976,0.09367 0.5425565,-0.01515 0.115017,-0.114869 0.1911531,-0.112747 0.2657464,0.0074 0.087703,0.141242 0.312501,0.340972 0.3887187,0.345351 0.00857,0.0012 0.04401,-0.019 0.078799,-0.04334 z M 8.7299351,12.336331 c -0.037954,-0.04658 -0.091622,-0.126136 -0.1192685,-0.176801 -0.041358,-0.0758 -0.068376,-0.09211 -0.1525353,-0.09211 -0.095988,0 -0.1050285,-0.0085 -0.1474506,-0.139976 -0.061211,-0.189603 -0.1365821,-0.571946 -0.1365821,-0.692848 0,-0.07314 0.024742,-0.121805 0.095896,-0.188511 0.1425372,-0.133649 0.3743526,-0.282271 0.4155983,-0.266467 0.051371,0.01969 0.1428329,0.32733 0.159827,0.537559 0.012651,0.156658 0.00332,0.199809 -0.077565,0.35988 -0.079085,0.1565 -0.087143,0.192319 -0.057794,0.25665 0.037326,0.08185 0.1131422,0.10167 0.1131422,0.02959 0,-0.02484 0.03464,-0.113444 0.076971,-0.196888 0.065543,-0.129184 0.074342,-0.176072 0.059314,-0.31581 -0.055988,-0.52018 -0.057063,-0.640449 -0.00595,-0.660061 0.058355,-0.02237 0.2427648,0.159873 0.3610043,0.356737 0.061451,0.102319 0.072342,0.149374 0.058022,0.250482 -0.00971,0.06849 -0.00503,0.177545 0.010286,0.242382 0.024846,0.104932 0.019142,0.130364 -0.051988,0.231892 -0.043954,0.06272 -0.099542,0.144971 -0.1235533,0.182818 -0.026811,0.04226 -0.077988,0.07215 -0.1327651,0.07751 -0.070331,0.0069 -0.090868,0.02426 -0.097382,0.08239 -0.019497,0.1738 -0.036446,0.206286 -0.1077016,0.206286 -0.042046,0 -0.098469,-0.03424 -0.1395771,-0.0847 z M 7.9153457,12.152412 C 7.7555409,12.073418 7.6132915,11.90756 7.4779089,11.642414 7.3300579,11.352867 7.3272928,11.351299 6.9933972,11.370341 6.756976,11.383817 6.694028,11.377467 6.5950918,11.330674 6.4362701,11.25544 6.4025094,11.224269 6.2763511,11.036415 6.1355738,10.826804 6.1243628,10.663313 6.2489222,10.636781 6.3853901,10.607707 6.6763022,10.502925 6.8264847,10.428761 7.221053,10.233916 7.4370634,10.020322 7.4358283,9.8262453 7.4336562,9.4971967 6.9719923,8.9640158 6.7342797,9.0161692 6.6240175,9.0403496 6.3526703,9.2198105 6.0843752,9.4459855 L 5.8681817,9.6282334 5.7858852,9.5494768 C 5.6550632,9.4243149 5.5450182,9.1793277 5.5437158,9.0103418 5.5420058,8.7927258 5.5975198,8.7071838 5.8931872,8.471666 5.9125472,8.456235 5.9833012,8.415039 6.0504203,8.380107 6.2198704,8.291881 6.2325567,8.2376847 6.1639629,7.894416 6.0643629,7.3959222 6.1440779,7.0872931 6.3724414,7.0872931 c 0.125096,0 0.2202389,0.094544 0.3328785,0.3308301 0.1396563,0.2929126 0.229472,0.3903786 0.4299621,0.4665383 0.2441933,0.092787 0.5162484,0.091124 0.7018705,-0.00428 0.2086268,-0.1072285 0.2631867,-0.216658 0.2631867,-0.5278761 0,-0.319413 -0.060274,-0.4443769 -0.3779636,-0.7835047 L 7.4903431,6.3213256 7.6183191,6.2009619 C 7.8240555,6.0074867 7.9273122,5.9662992 8.1335623,5.9954203 c 0.2461578,0.03475 0.3673915,0.09304 0.4892761,0.2352802 l 0.1058624,0.123515 0.1578966,-0.119485 C 8.9734419,6.1690142 9.1614636,6.0554834 9.3044345,5.9824354 9.5257935,5.8693479 9.5902382,5.849633 9.7384887,5.849633 c 0.1873249,0 0.2780433,0.057221 0.3133243,0.1976081 0.02504,0.099683 -0.06288,0.3226354 -0.1943539,0.4928327 -0.2231641,0.2888984 -0.332318,0.6280183 -0.2843411,0.8834093 0.054343,0.2892784 0.567437,0.5027851 0.825504,0.3434825 0.156375,-0.096524 0.223301,-0.1936414 0.341781,-0.4960869 0.04268,-0.1089465 0.177712,-0.2340134 0.280421,-0.2597694 0.105804,-0.026516 0.17281,0.027102 0.267598,0.2141006 0.07828,0.1544333 0.08617,0.1956366 0.07922,0.4140918 -0.0075,0.2372517 -0.0058,0.2443301 0.08204,0.3224533 0.190639,0.169651 0.469015,0.6720165 0.470695,0.8494268 0.0011,0.091187 -0.169348,0.4567521 -0.212651,0.4567521 -0.0134,0 -0.06438,-0.045503 -0.113279,-0.101124 C 11.3531,8.8922821 10.923903,8.869701 10.66475,9.1179029 c -0.19561,0.1873232 -0.363883,0.4146224 -0.396489,0.5355958 -0.05757,0.2135068 0.06246,0.4821203 0.272959,0.6108843 0.111805,0.06838 0.446557,0.182208 0.536579,0.182446 0.150171,0 0.283175,0.06241 0.330684,0.15418 0.04447,0.08591 0.04435,0.09925 -0.0017,0.182818 -0.02738,0.04956 -0.108412,0.133428 -0.180057,0.186357 -0.112147,0.08281 -0.174603,0.102668 -0.448122,0.142502 -0.1748,0.02544 -0.345712,0.05957 -0.379826,0.07585 -0.03411,0.01628 -0.158468,0.188345 -0.276341,0.382366 -0.3379641,0.556293 -0.4038951,0.6079 -0.5816318,0.455208 -0.076045,-0.06534 -0.079816,-0.07835 -0.049153,-0.169445 0.055451,-0.164694 0.0348,-0.667661 -0.03304,-0.804628 -0.1898277,-0.383261 -0.6631727,-0.533546 -1.0664042,-0.338574 -0.2579411,0.124718 -0.3729692,0.438771 -0.3080212,0.840939 0.02016,0.124885 0.055303,0.279801 0.078092,0.344274 0.1035872,0.293238 0.015713,0.383562 -0.2468672,0.253744 z M 9.2469493,9.9931964 C 9.4747185,9.8818904 9.6650154,9.6867842 9.7771279,9.4495959 9.8593451,9.275709 9.8697681,9.2244978 9.8681334,9.0027171 9.8658503,8.6982844 9.7904769,8.4813651 9.6193121,8.2871537 9.1148359,7.7147488 8.2638128,7.7767913 7.8500774,8.4161239 7.5330054,8.9060904 7.6856565,9.6031899 8.179299,9.9195625 c 0.2143987,0.1374185 0.3585801,0.1740845 0.6462808,0.1643625 0.2060337,-0.007 0.2845013,-0.02386 0.4213695,-0.090729 z M 8.4691489,9.926435 C 7.6356794,9.6308541 7.5877715,8.4750627 8.3934575,8.1003531 8.6228495,7.9936789 8.9450759,8.0009789 9.1915325,8.1184369 9.4011644,8.2183811 9.5516782,8.3693386 9.6681,8.5964795 9.7819057,8.8184898 9.7831289,9.151236 9.6709618,9.3881472 9.5048936,9.7390168 9.1864843,9.9523573 8.8083947,9.966031 8.6764874,9.9707816 8.5538822,9.9565695 8.4690831,9.926435 Z M 8.9966987,9.6375287 C 9.3831882,9.5013534 9.5715754,9.0920121 9.4109136,8.7375083 9.2812459,8.4514523 9.1114065,8.3427037 8.7936948,8.3423474 c -0.1893353,0 -0.2389358,0.011069 -0.3434949,0.077957 -0.4706941,0.3011628 -0.4112319,0.964367 0.1074613,1.1988792 0.1581829,0.071504 0.2743985,0.076365 0.4390375,0.018345 z M 8.5612389,9.4692395 C 8.3255486,9.3527237 8.2005557,9.0517114 8.2901438,8.8163678 8.3825882,8.5735184 8.6702549,8.4186417 8.9162881,8.4792511 9.1010073,8.5247701 9.1928238,8.6000345 9.279543,8.7770568 9.349177,8.9192178 9.353142,8.9461853 9.324263,9.0807137 9.244995,9.4499284 8.8889285,9.6312342 8.5612389,9.4692395 Z m 1.4320024,2.5779955 c 0.010515,-0.02941 0.1178737,-0.222573 0.2387307,-0.429215 l 0.219758,-0.375715 h 0.139221 c 0.204777,0 0.47561,-0.05543 0.586946,-0.12011 0.177805,-0.10331 0.168867,-0.06775 -0.05034,0.200094 -0.280992,0.34334 -0.573185,0.57208 -0.871938,0.682531 -0.2707857,0.100126 -0.2835862,0.102185 -0.2623747,0.04242 z M 7.3167207,11.940299 C 7.228424,11.886594 7.0964374,11.799563 7.02342,11.746911 6.95038,11.694261 6.8542212,11.628796 6.8097078,11.601449 c -0.079246,-0.0487 -0.095451,-0.111552 -0.027247,-0.105717 0.018926,0.0016 0.1240457,0.0051 0.2335761,0.0075 l 0.1991646,0.0046 0.1819303,0.247862 c 0.2314959,0.31539 0.2112222,0.361954 -0.080411,0.184575 z M 6.1551967,10.402688 C 6.0523982,10.268081 5.971164,10.250274 5.8196101,10.329173 c -0.1517932,0.07902 -0.2242835,0.06823 -0.2362951,-0.03519 -0.00663,-0.05636 -0.033577,-0.08702 -0.095885,-0.108717 -0.047726,-0.01662 -0.086777,-0.03504 -0.086777,-0.04094 0,-0.0059 0.026103,-0.06468 0.057977,-0.130593 0.061599,-0.1273394 0.1050166,-0.1564208 0.2334841,-0.1564208 0.079144,0 0.2508793,-0.105637 0.768018,-0.4723577 0.1364568,-0.096777 0.2725474,-0.1759376 0.302422,-0.1759376 0.081668,0 0.1723421,0.1068404 0.1723421,0.2030792 0,0.08825 -0.2103542,0.3547097 -0.3309022,0.4191433 -0.032136,0.017181 -0.1963068,0.041053 -0.3648198,0.05308 -0.3110606,0.022161 -0.4254601,0.067791 -0.4254601,0.1696906 0,0.03034 0.030628,0.02464 0.1244563,-0.02317 0.1079647,-0.05502 0.1552449,-0.061037 0.3571864,-0.045487 l 0.2327298,0.01793 0.1665241,-0.1272675 C 6.78621,9.8060079 6.9182212,9.7112972 6.9879804,9.6655413 c 0.156296,-0.1025096 0.1944223,-0.076453 0.2373701,0.1622876 0.024662,0.1371491 0.021588,0.170514 -0.02,0.2169031 -0.066583,0.07424 -0.399037,0.238883 -0.600499,0.297378 -0.090353,0.02622 -0.1878735,0.07374 -0.2167302,0.10559 -0.076468,0.0844 -0.1440672,0.07135 -0.2329244,-0.04501 z m 5.1716813,-0.02902 c -0.0077,-0.0078 -0.110227,-0.02765 -0.227759,-0.04431 -0.268625,-0.03806 -0.526727,-0.161892 -0.619138,-0.297085 -0.05908,-0.086469 -0.06704,-0.1264684 -0.05422,-0.2730791 0.0082,-0.094473 0.02227,-0.1790017 0.03112,-0.1878378 0.0088,-0.00888 0.05356,0.015416 0.09938,0.053887 0.04579,0.038488 0.140377,0.095685 0.210171,0.1271016 0.11585,0.052153 0.147998,0.054077 0.369448,0.022098 0.333038,-0.048092 0.323598,-0.049889 0.458489,0.087545 0.134284,0.1368166 0.162433,0.1002688 0.04311,-0.055985 -0.143005,-0.1872677 -0.219495,-0.2136968 -0.618978,-0.2138155 -0.399061,0 -0.454523,-0.02437 -0.454523,-0.1987166 0,-0.1186774 0.123747,-0.2237601 0.336124,-0.2854226 0.30282,-0.087925 0.376568,-0.061488 0.715823,0.2565153 0.111097,0.1041485 0.241793,0.2023508 0.290422,0.2182336 0.09875,0.032241 0.128021,0.1254389 0.131164,0.4176871 l 0.0017,0.157925 -0.227245,-0.01062 -0.227233,-0.01061 -0.01884,0.09098 c -0.0104,0.05002 -0.02839,0.106397 -0.04004,0.125241 -0.02059,0.03325 -0.17065,0.0485 -0.198981,0.02021 z M 12.029022,8.774349 C 11.997103,8.4341127 11.867778,8.1515168 11.656923,7.9612404 11.543472,7.8588813 11.54082,7.8517475 11.505609,7.5532134 11.456844,7.1399133 11.370295,6.9827484 11.122115,6.8567393 c -0.09616,-0.048804 -0.149897,-0.1230557 -0.08909,-0.1230557 0.06259,0 0.346959,0.2029287 0.500933,0.3574887 0.198823,0.1995559 0.462421,0.5956748 0.542398,0.8150643 0.04799,0.1316306 0.06185,0.2419627 0.06372,0.5071319 0.0037,0.5195785 -0.07283,0.7682949 -0.111063,0.3609805 z M 5.6202751,8.3943346 C 5.6516464,8.1775499 5.7221944,7.951565 5.837416,7.6987631 5.9391522,7.4755019 6.0113919,7.3984634 5.9837925,7.5426434 c -0.00755,0.039754 0.00446,0.1624063 0.026892,0.2725722 0.08945,0.4401171 0.096342,0.4011386 -0.089737,0.5074803 -0.090742,0.051853 -0.1726496,0.1066504 -0.1820096,0.121781 -0.00937,0.015131 -0.044548,0.042217 -0.078194,0.060198 -0.059108,0.031607 -0.060479,0.027846 -0.040469,-0.1103403 z M 7.3332241,7.7173379 C 7.2080021,7.6663642 7.109842,7.5966495 6.9978429,7.4790806 6.8471357,7.3209102 6.5808407,6.9402386 6.5808407,6.8829783 c 0,-0.014798 0.034079,-0.067347 0.075725,-0.116785 L 6.7322788,6.6763204 6.6270569,6.5386882 C 6.504875,6.3788709 6.4961548,6.3288711 6.5882116,6.3157991 6.6456507,6.307644 6.6532968,6.2915316 6.644965,6.1958788 6.6337659,6.0680724 6.671239,6.0536227 6.7404044,6.159046 c 0.04816,0.07342 0.1944914,0.1059853 0.1944914,0.043286 0,-0.1363336 0.3937233,0.1174422 0.653949,0.4214949 0.086388,0.1009339 0.1649822,0.1901497 0.1746616,0.1982574 0.061588,0.051607 0.2082844,0.2905056 0.2327643,0.3791118 C 8.0595057,7.4298884 7.9098147,7.5948522 7.7399524,7.4836808 7.5902964,7.3857635 7.242779,7.0138092 7.2043784,6.9104921 7.1234653,6.6927257 7.0855451,6.6261226 6.9654204,6.4905649 6.8972039,6.4135739 6.8225867,6.3505892 6.7996162,6.3505892 c -0.058446,0 -0.052503,0.029446 0.03064,0.1516542 0.039805,0.058511 0.114799,0.1908782 0.1666501,0.2941399 0.1104334,0.2199833 0.352181,0.5268389 0.5760079,0.7311532 0.1962045,0.1790888 0.2123757,0.2682334 0.047977,0.264425 -0.060858,-0.00135 -0.1903191,-0.034988 -0.2876671,-0.074624 z M 10.004544,7.612168 C 9.924145,7.525969 9.926762,7.516001 10.055024,7.4203081 10.225835,7.2928897 10.242635,7.2633728 10.227767,7.11677 c -0.0073,-0.072937 -0.02165,-0.1591284 -0.03164,-0.1915432 -0.01463,-0.047514 0.02576,-0.093183 0.208434,-0.2356365 0.221576,-0.1727943 0.33194,-0.2943932 0.297975,-0.3283044 -0.02974,-0.029699 -0.585551,0.4096343 -0.614534,0.4857464 -0.0153,0.040222 -0.02519,0.1272917 -0.02196,0.1935227 0.0082,0.1692471 -0.02024,0.2361828 -0.1388908,0.3265862 -0.1420449,0.1081944 -0.1893013,0.066492 -0.1893013,-0.1670461 0,-0.2309017 0.1301014,-0.4713205 0.3614381,-0.6679151 0.04594,-0.039042 0.08114,-0.099018 0.08114,-0.1382735 0,-0.091124 0.05328,-0.1213297 0.100411,-0.056952 0.05174,0.070665 0.08555,0.051013 0.200731,-0.1165395 0.13201,-0.1920104 0.180456,-0.2211552 0.255267,-0.1535466 0.04758,0.043009 0.06998,0.046421 0.122044,0.018583 0.03507,-0.018749 0.08355,-0.0265 0.10776,-0.017229 0.05509,0.021116 0.03311,0.097228 -0.07914,0.2740132 -0.0727,0.114473 -0.07903,0.1420739 -0.05141,0.2241638 0.01734,0.05148 0.04284,0.1082103 0.05671,0.1260645 0.01538,0.019826 -0.01593,0.1016782 -0.08048,0.2102605 -0.07863,0.1323194 -0.135233,0.1911157 -0.221256,0.2298645 -0.120091,0.054085 -0.154513,0.139762 -0.06928,0.172438 0.02717,0.01038 0.04242,0.044022 0.03689,0.081259 -0.007,0.046999 -0.04432,0.07361 -0.143668,0.1024224 -0.07382,0.021425 -0.165747,0.072462 -0.204296,0.1134358 -0.08591,0.091338 -0.128398,0.093396 -0.20617,0.010047 z M 8.7505972,6.1461798 C 8.7412262,6.1309938 8.6972724,6.0994658 8.6529524,6.076093 8.4431254,5.9654283 8.2331034,5.8440432 8.2331034,5.8334415 c 0,-0.030839 0.1851647,-0.1001818 0.398318,-0.1491523 C 8.8780144,5.6276307 9.4346389,5.612793 9.6653,5.6567359 l 0.1168111,0.022248 -0.1803076,0.055669 c -0.099153,0.03061 -0.322752,0.1419314 -0.4968761,0.2473942 -0.174113,0.1054628 -0.3212434,0.1917333 -0.3269123,0.1917333 -0.00571,0 -0.018023,-0.012415 -0.027418,-0.027601 z M 4.5447956,14.792949 c -0.030159,-0.03629 -0.030856,-0.06983 -0.00332,-0.161535 0.033096,-0.110333 0.029863,-0.12247 -0.069371,-0.260427 -0.057258,-0.0796 -0.1040907,-0.15882 -0.1040907,-0.17608 0,-0.01725 0.055908,-0.06887 0.1242621,-0.114711 0.087016,-0.05838 0.1299182,-0.111037 0.1431753,-0.175755 0.019486,-0.09513 0.095279,-0.224275 0.3183753,-0.542397 0.132845,-0.189461 0.1391077,-0.22764 0.075315,-0.459476 -0.014138,-0.05138 0.00217,-0.07299 0.085096,-0.112248 0.1840215,-0.08722 0.69939,-0.563609 0.821904,-0.75976 0.04321,-0.06917 0.5414705,0.08449 0.5414705,0.166959 0,0.01485 -0.07968,0.08865 -0.1770391,0.164014 -0.2084207,0.161306 -0.2902145,0.30642 -0.3599175,0.638525 -0.055462,0.264259 -0.082742,0.306475 -0.2362611,0.36558 -0.2431421,0.09359 -0.4690261,0.229794 -0.5306716,0.31996 -0.035576,0.05203 -0.079679,0.170039 -0.09801,0.262231 -0.018343,0.09218 -0.058948,0.203547 -0.090229,0.247474 -0.079508,0.111583 -0.074948,0.200102 0.010286,0.200102 0.1637019,0 0.2926039,-0.182557 0.3495412,-0.495066 0.021554,-0.118305 0.059416,-0.232247 0.084148,-0.253189 0.024719,-0.02095 0.1539075,-0.08123 0.287084,-0.133935 0.1331534,-0.05272 0.2565355,-0.113198 0.2741583,-0.13441 0.0432,-0.05199 0.079417,-0.180331 0.1492794,-0.528976 0.032319,-0.161235 0.077496,-0.313855 0.1004218,-0.339152 0.064537,-0.0712 0.3721004,-0.217568 0.3969466,-0.188883 0.039177,0.04525 0.1500326,0.367513 0.1500326,0.436174 0,0.07343 -0.069234,0.146714 -0.1665018,0.176255 -0.050959,0.01547 -0.07032,0.05762 -0.099781,0.217125 -0.040195,0.217663 -0.069223,0.271598 -0.1462623,0.271598 -0.040617,0 -0.054857,0.03462 -0.06848,0.166492 -0.014342,0.138685 -0.034583,0.184251 -0.1212338,0.272881 -0.077931,0.07971 -0.099679,0.123016 -0.086707,0.172565 0.029988,0.11456 -0.035658,0.154235 -0.2551982,0.154235 -0.2245253,0 -0.2929011,0.04123 -0.2380788,0.143515 0.017348,0.0324 0.031542,0.08812 0.031542,0.123863 0,0.06059 -0.00994,0.06381 -0.1461473,0.0477 l -0.1461482,-0.01729 -0.1071427,0.145795 c -0.1180556,0.160625 -0.1555192,0.174465 -0.2349007,0.08686 -0.068079,-0.07514 -0.086971,-0.07407 -0.2011298,0.0113 -0.1312913,0.09821 -0.2104794,0.117371 -0.2564103,0.06209 z M 12.9396,14.513773 c -0.04687,-0.04886 -0.191233,-0.148827 -0.320832,-0.222152 l -0.235599,-0.133317 -0.0777,0.07434 c -0.09706,0.09287 -0.148227,0.09472 -0.148227,0.0054 0,-0.04687 -0.05803,-0.122105 -0.180959,-0.234559 -0.165496,-0.151409 -0.17937,-0.173436 -0.16249,-0.257703 0.01832,-0.0915 -0.02729,-0.343815 -0.0709,-0.392216 -0.01252,-0.01389 -0.06486,-0.03387 -0.116331,-0.04439 -0.08106,-0.01656 -0.10104,-0.04033 -0.149519,-0.17783 -0.0308,-0.0873 -0.06251,-0.165257 -0.0705,-0.173238 -0.008,-0.008 -0.05665,0.0029 -0.108159,0.02423 -0.09027,0.03735 -0.09716,0.03487 -0.192731,-0.06927 -0.11641,-0.126872 -0.127484,-0.234837 -0.04075,-0.397362 0.08092,-0.15163 0.132959,-0.212557 0.180947,-0.211899 0.02256,0 0.235187,0.195921 0.472534,0.434661 l 0.431518,0.434084 0.01681,0.21494 c 0.0112,0.142597 0.03745,0.248265 0.07813,0.314013 0.07804,0.126088 0.510957,0.50657 0.525791,0.462089 0.01227,-0.03674 -0.157553,-0.280252 -0.259941,-0.372738 -0.100868,-0.09111 -0.176433,-0.264307 -0.222673,-0.510386 -0.04775,-0.254148 -0.03969,-0.24437 -0.611002,-0.741478 -0.271747,-0.236468 -0.347209,-0.338914 -0.302683,-0.410885 0.01063,-0.01713 0.05537,-0.03116 0.09948,-0.03116 0.04411,0 0.109965,-0.02081 0.146342,-0.04625 0.06117,-0.04279 0.07387,-0.04148 0.169211,0.01738 0.05671,0.03499 0.137633,0.06742 0.179828,0.07204 0.08644,0.0095 0.11537,0.04423 0.160295,0.192588 0.01717,0.05674 0.09431,0.189342 0.171428,0.294686 0.138045,0.18859 0.142662,0.191765 0.299941,0.20627 l 0.159713,0.01473 0.05253,0.141725 c 0.02889,0.07796 0.132126,0.234117 0.229416,0.347014 0.0973,0.112905 0.176902,0.231155 0.176902,0.262786 0,0.03162 -0.03319,0.07922 -0.07376,0.105764 -0.04057,0.02655 -0.07376,0.06052 -0.07376,0.07551 0,0.015 0.04647,0.09616 0.103267,0.180395 0.120719,0.179042 0.122275,0.18886 0.04297,0.273166 -0.03314,0.03526 -0.07631,0.12791 -0.09588,0.205906 -0.01958,0.07801 -0.04951,0.146373 -0.06651,0.151932 -0.01699,0.0056 -0.06926,-0.02987 -0.116125,-0.07873 z M 6.4333211,13.635685 c 0,-0.12802 0.00766,-0.1438 0.084605,-0.172779 0.070149,-0.02644 0.091109,-0.05902 0.1226623,-0.190632 0.041372,-0.172549 0.1407075,-0.349342 0.1966159,-0.349912 0.043588,0 0.081485,0.234528 0.052936,0.328233 -0.035416,0.116223 -0.3712315,0.525968 -0.4310711,0.525968 -0.01416,0 -0.025748,-0.06339 -0.025748,-0.140878 z m 4.9383339,-0.07829 c -0.131861,-0.06585 -0.259609,-0.1365 -0.283884,-0.157022 -0.04792,-0.0405 -0.183599,-0.385953 -0.160604,-0.408922 0.0078,-0.0078 0.05443,0.02906 0.103736,0.08177 0.08184,0.08746 0.09645,0.09272 0.167646,0.06032 0.09779,-0.04452 0.121038,-0.03006 0.145072,0.09017 0.01327,0.06631 0.05424,0.120269 0.132148,0.174037 0.103417,0.07136 0.204502,0.246025 0.155998,0.269508 -0.0112,0.0055 -0.128249,-0.04401 -0.260112,-0.109857 z m 1.183891,-0.90652 c -0.18472,-0.131433 -0.279816,-0.241551 -0.298628,-0.345842 -0.02819,-0.156389 -0.05479,-0.192264 -0.18641,-0.251551 -0.121771,-0.05485 -0.156845,-0.103943 -0.07424,-0.103943 0.119416,0 0.426008,0.100839 0.500214,0.16452 0.06275,0.05386 0.09187,0.116334 0.118993,0.255439 0.01976,0.101274 0.04567,0.220601 0.05759,0.265177 0.02586,0.09678 0.0011,0.100245 -0.117519,0.0162 z m -7.5204104,-0.09009 c -0.03456,-0.183974 0.069062,-0.389294 0.2527525,-0.500877 0.053451,-0.03247 0.1738507,-0.06245 0.2897358,-0.07215 0.273838,-0.02293 0.289918,0.01766 0.082914,0.209374 -0.2048676,0.189738 -0.5459399,0.45965 -0.5808421,0.45965 -0.014595,0 -0.034641,-0.04321 -0.04456,-0.096 z m 9.2064664,-0.32045 c 0.06006,-0.166207 -0.0021,-1.440066 -0.0829,-1.699614 -0.02906,-0.09337 -0.02361,-0.104576 0.129198,-0.265217 0.210708,-0.221464 0.60479,-0.7181601 0.748922,-0.9438917 0.178676,-0.2798327 0.17994,-0.2765706 0.113975,0.2944962 -0.120373,1.0420155 -0.387474,1.9522335 -0.720039,2.4537205 -0.139771,0.210751 -0.237188,0.293427 -0.189155,0.160506 z M 3.1504042,11.956918 C 3.0746915,11.831305 2.9739827,11.642335 2.9266003,11.536991 2.8447042,11.354894 2.6202709,10.692054 2.5873458,10.535063 2.5788927,10.494548 2.5316427,10.282388 2.4824434,10.063584 2.4332321,9.8447805 2.3925698,9.6491914 2.3920783,9.6289222 c -0.00171,-0.067735 0.044137,-0.03787 0.099554,0.06494 0.030193,0.055978 0.076662,0.1255894 0.1032788,0.1547104 0.026605,0.029105 0.2129703,0.2509494 0.414112,0.4929834 l 0.3657235,0.440046 -0.036205,0.164045 c -0.064525,0.292311 -0.076194,0.849095 -0.021634,1.031343 0.057874,0.193285 0.058559,0.208296 0.0096,0.208296 -0.021108,0 -0.1003306,-0.10277 -0.1760449,-0.228368 z M 3.8303094,8.3675651 C 3.5671108,8.3038282 3.2449185,8.074502 3.1411132,7.8770285 3.0848624,7.7700059 3.0866675,7.7650653 3.18229,7.7650653 c 0.053691,0 0.1129131,0.031195 0.1677933,0.0884 0.075394,0.078598 0.1040454,0.088408 0.2582391,0.088408 0.095405,0 0.1972097,0.012692 0.2262385,0.028202 0.029017,0.015519 0.1810376,0.03038 0.3378141,0.033024 0.1631192,0.00277 0.2932896,0.018139 0.3043072,0.035962 0.01928,0.031156 -0.081234,0.128804 -0.29753,0.2890488 -0.1297011,0.096088 -0.1196221,0.09494 -0.3488428,0.039454 z M 13.33578,8.1981991 C 13.100924,8.1053808 12.973532,8.0175901 12.881691,7.8852153 12.802584,7.7712094 12.74423,7.5305531 12.795075,7.5280195 c 0.01431,-0.00111 0.120387,-0.012233 0.235747,-0.025598 0.230295,-0.026682 0.225519,-0.023056 0.585025,-0.4445985 l 0.138227,-0.1620738 h 0.441723 0.441712 l 0.09495,-0.1097938 c 0.106454,-0.1230795 0.209481,-0.1703715 0.369792,-0.1696905 0.225893,0.00111 0.238273,0.1041643 0.02639,0.2201021 -0.100374,0.054925 -0.140181,0.1056528 -0.179603,0.2288273 -0.01093,0.034109 -0.0467,0.051575 -0.105698,0.051575 -0.05698,0 -0.139514,0.038353 -0.228609,0.1063021 -0.181359,0.1382497 -0.247827,0.161385 -0.402797,0.1401657 -0.120319,-0.016477 -0.132159,-0.011552 -0.19665,0.081647 -0.03777,0.054544 -0.07311,0.1048452 -0.07855,0.111789 -0.0055,0.00697 -0.07359,0.00971 -0.15145,0.00618 -0.120423,-0.00546 -0.154798,0.00618 -0.23033,0.078289 -0.06015,0.057435 -0.147691,0.097799 -0.271575,0.1252411 -0.186662,0.04137 -0.208033,0.068226 -0.106606,0.1340454 0.0711,0.046152 0.213759,0.00222 0.431518,-0.1330241 0.170822,-0.1060487 0.191713,-0.1083527 0.289724,-0.031781 0.104399,0.081551 0.133793,0.073713 0.193176,-0.051567 0.06182,-0.1304588 0.121564,-0.1819629 0.212513,-0.1832535 0.07873,-0.00111 0.077,-0.015994 0.02283,0.1965472 -0.05226,0.2050982 -0.173426,0.3280273 -0.466076,0.4729357 -0.225668,0.1117256 -0.302342,0.1158032 -0.524683,0.027933 z M 3.9337595,7.869388 C 3.9120802,7.8307025 3.8490522,7.8152156 3.6607554,7.8023257 3.4303115,7.7865459 3.4131454,7.7806631 3.3682554,7.7018272 3.3420147,7.6557546 3.2940378,7.6170928 3.261559,7.6158814 3.0878447,7.6093889 3.0200055,7.5848601 2.951766,7.5040212 2.8824294,7.4218837 2.8700411,7.4181307 2.7452305,7.4415511 2.6722131,7.4552644 2.5792653,7.4585344 2.5386942,7.4489145 2.3818844,7.4114483 2.2236445,7.234711 2.3469125,7.234711 c 0.070068,0 0.05144,-0.087134 -0.024823,-0.1160882 C 2.2841017,7.1041889 2.1878394,7.0839119 2.108182,7.0735319 1.8681609,7.0422968 1.830584,7.0294544 1.830584,6.9786233 c 0,-0.026777 0.021726,-0.072652 0.048263,-0.1019474 0.0452,-0.049873 0.041337,-0.060902 -0.060788,-0.1738157 -0.059976,-0.066294 -0.1037934,-0.136199 -0.097371,-0.155328 0.00709,-0.021077 0.082753,-0.036294 0.1920782,-0.038583 0.2406965,-0.00507 0.3232213,-0.028828 0.3456782,-0.099445 0.042092,-0.1324619 0.1736112,-0.1370541 0.3108211,-0.010839 l 0.074822,0.068812 0.2291177,-0.1199124 c 0.1260227,-0.065946 0.2482846,-0.112565 0.2717015,-0.1035943 0.023418,0.00907 0.063519,0.068582 0.089108,0.1324619 0.037612,0.093863 0.073931,0.1279093 0.1893599,0.1774974 0.094135,0.040451 0.164604,0.096563 0.2067067,0.1646154 L 3.6939786,6.8217988 3.8337261,6.7041112 C 4.0016216,6.5627103 4.0595531,6.5573343 4.1259526,6.677025 4.2320441,6.868307 4.2332555,6.8690433 4.3237687,6.7979193 4.4921906,6.6656236 4.58851,6.7391942 4.7040859,7.0884566 4.827342,7.4609334 4.8281886,7.4601338 4.4933798,7.2889309 L 4.2057234,7.1418452 3.9161248,7.143587 C 3.7568472,7.1446955 3.6136362,7.1531674 3.5978645,7.1629615 3.5284946,7.2057879 3.3271468,7.1361999 3.1983812,7.0248939 3.1247026,6.9612045 3.013046,6.882915 2.9502574,6.8509199 2.7722814,6.7602393 2.4501921,6.7831846 2.4501921,6.8865492 c 0,0.022969 0.074285,0.02707 0.2483521,0.013705 l 0.2483647,-0.019058 0.232513,0.2184711 0.2325233,0.2184631 0.5149007,0.00994 c 0.444157,0.00852 0.5260991,0.017474 0.5963847,0.065075 0.1544109,0.104576 0.1436898,0.2917329 -0.024034,0.4194997 -0.085245,0.06494 -0.143999,0.082042 -0.3208097,0.093373 -0.182616,0.011702 -0.2208438,0.00602 -0.2446269,-0.036429 z M 14.458607,7.5303552 c 0,-0.031845 0.02656,-0.07209 0.05901,-0.089445 0.07059,-0.03772 0.08025,0.0138 0.01794,0.095772 -0.05123,0.067395 -0.07695,0.065281 -0.07695,-0.00625 z M 12.75719,7.32304 C 12.70336,7.266318 12.65921,7.2109265 12.65908,7.1999685 c -0.0012,-0.044529 0.301049,-0.4705446 0.345106,-0.4874329 0.0261,-0.01004 0.08188,0.00174 0.123966,0.026002 0.07207,0.041615 0.08305,0.039089 0.189369,-0.043515 0.144823,-0.1125095 0.311884,-0.1713375 0.381278,-0.1342513 0.04115,0.022003 0.05905,0.012225 0.08607,-0.046999 0.03048,-0.066817 0.05131,-0.074774 0.195839,-0.074774 0.136833,0 0.189484,-0.017482 0.341941,-0.1135942 0.311129,-0.1961117 0.429956,-0.2481147 0.477232,-0.2089303 0.02625,0.02175 0.03499,0.06137 0.02358,0.1068088 l -0.01816,0.072233 0.11056,-0.046136 c 0.152632,-0.063689 0.23931,-0.057759 0.294359,0.020166 0.04362,0.061757 0.04266,0.069715 -0.01385,0.1158665 -0.03337,0.027237 -0.131492,0.058369 -0.218066,0.069176 -0.153553,0.019169 -0.160133,0.023943 -0.270554,0.1970698 L 14.59457,6.8290998 14.379063,6.8108578 C 14.260529,6.8008092 14.067296,6.7848473 13.949651,6.775354 L 13.735744,6.758086 13.620876,6.871118 c -0.06318,0.062177 -0.185141,0.207909 -0.271027,0.3238468 l -0.15617,0.2108068 -0.169302,0.01015 c -0.160856,0.00971 -0.174205,0.00507 -0.267187,-0.092929 z M 4.2327299,6.6016492 c -0.023681,-0.09422 0.00342,-0.126872 0.070297,-0.084734 0.06505,0.040997 0.064822,0.1394848 0,0.1520105 -0.034035,0.00649 -0.056915,-0.015471 -0.069932,-0.067276 z M 13.13089,6.5913721 c 0,-0.027791 0.09084,-0.077949 0.22129,-0.1221689 l 0.0885,-0.030024 -0.102136,0.088345 c -0.09648,0.083428 -0.207656,0.1176163 -0.207656,0.063848 z M 3.5625279,6.5143891 C 3.3624033,6.3957434 3.3636258,6.3799477 3.5728138,6.3818084 c 0.1046614,0.00119 0.2415978,0.010839 0.3042953,0.022114 l 0.1139753,0.020396 -0.123998,0.081045 c -0.1459991,0.095399 -0.1582629,0.095764 -0.3045815,0.00897 z M 3.6510419,4.8698742 C 3.9918058,4.3378809 4.3747058,3.9706376 5.0332734,3.54421 5.3512935,3.3382805 6.1253688,2.9323437 6.2000193,2.9323437 c 0.017486,0 -0.014159,0.062993 -0.070307,0.1399758 -0.1381026,0.1893104 -0.5815278,0.914185 -0.5815278,0.9506219 0,0.016049 -0.00994,0.0292 -0.022126,0.029224 -0.012182,0 -0.059222,0.06597 -0.1045361,0.1465474 C 5.3074198,4.4016099 5.1899349,4.4507229 4.6150012,4.5357345 4.287266,4.5842141 3.9904907,4.6892256 3.8078747,4.821355 3.6846297,4.910515 3.6102647,4.933524 3.6510419,4.8698742 Z M 8.7726665,4.722535 C 8.7548146,4.6992572 8.7543921,4.5663915 8.771517,4.3615546 8.8095053,3.9070195 8.8096544,3.858041 8.7732293,3.7812638 8.702361,3.6315336 8.648762,3.3973618 8.6647611,3.3073859 8.6740188,3.2550821 8.7058467,3.139358 8.7354241,3.0502214 8.8696398,2.6456781 8.8784861,2.3021323 8.7596979,2.1070499 8.6721789,1.9633291 8.6362588,2.0280399 8.6762472,2.2574294 c 0.065463,0.3754459 0.06688,0.4365779 0.014433,0.6232439 -0.028399,0.1010923 -0.08297,0.2545676 -0.121267,0.3410439 l -0.069622,0.1572361 0.080525,0.2113373 c 0.074468,0.1954229 0.080537,0.2440451 0.080537,0.644582 0,0.2942507 -0.0112,0.4443926 -0.034902,0.4680505 -0.026869,0.026801 -0.074492,0.012732 -0.2065363,-0.060942 C 8.1947876,4.5166451 8.1445133,4.4699073 8.1445133,4.3864476 c 0,-0.049454 0.016788,-0.069105 0.059017,-0.069105 0.082091,0 0.077097,-0.1048373 -0.014903,-0.31258 -0.069383,-0.1566819 -0.070777,-0.1692156 -0.022709,-0.2043144 0.048583,-0.035479 0.048595,-0.042914 0,-0.1443304 -0.028067,-0.058828 -0.05105,-0.1203875 -0.05105,-0.1368404 0,-0.016437 -0.026617,-0.084909 -0.059143,-0.152153 L 7.996572,3.2448525 8.0885368,3.1500785 C 8.1391306,3.0979568 8.1717132,3.0411003 8.1609707,3.0237211 8.1502282,3.0063419 8.129119,2.9166668 8.114102,2.8244423 8.0841251,2.6405 8.1084973,2.5787267 8.2110611,2.5787267 c 0.054755,0 0.057943,-0.012898 0.040275,-0.1630398 -0.017348,-0.147442 -0.012217,-0.1700073 0.053611,-0.2357552 0.040023,-0.039984 0.087223,-0.0727 0.1048675,-0.0727 0.017635,0 0.0708,-0.086191 0.1181254,-0.1915432 0.047325,-0.1053361 0.097394,-0.1915433 0.1112682,-0.1915433 0.013862,0 0.063371,0.039786 0.1100219,0.0884 0.046628,0.048622 0.1140904,0.0884 0.1498844,0.0884 0.075634,0 0.1008911,0.050602 0.1008911,0.2021449 0,0.059889 0.020697,0.138408 0.046,0.1744649 0.038457,0.054845 0.064148,0.062668 0.157188,0.047807 C 9.3669977,2.299202 9.4150539,2.357539 9.374723,2.5336035 9.349318,2.6444503 9.352643,2.6870313 9.393307,2.7722091 9.439123,2.8681471 9.439238,2.882953 9.395017,2.970419 9.36872,3.022414 9.295634,3.1339972 9.2326184,3.2183991 9.1696004,3.3027851 9.1185843,3.3823494 9.119236,3.3952076 c 0.00115,0.012842 0.040491,0.069271 0.088513,0.1253836 0.048022,0.056112 0.087314,0.1141326 0.087314,0.1289227 0,0.044022 -0.1541247,0.3814 -0.214501,0.4695232 C 9.02478,4.2004621 9.024848,4.2010791 9.104894,4.3374844 9.173213,4.4539052 9.17879,4.4790516 9.142448,4.5063199 9.11895,4.5239369 9.0394078,4.5880849 8.9656944,4.6488609 8.8157189,4.772519 8.8119129,4.7739759 8.7724508,4.722535 Z M 9.3120916,4.4905327 c 0.015725,-0.1172758 0.00891,-0.1449559 -0.049097,-0.1989145 -0.037039,-0.034473 -0.078136,-0.062676 -0.091302,-0.062676 -0.042811,0 -0.02552,-0.054394 0.060171,-0.189358 C 9.3676109,3.8257845 9.426045,3.603418 9.3870625,3.4488263 9.3526855,3.3124452 9.3644675,3.2407273 9.4250505,3.2175207 c 0.022925,-0.0088 0.067612,0.059477 0.1190735,0.1818996 0.045302,0.1077668 0.101725,0.2397299 0.1253932,0.2932293 0.0848,0.1917254 0.082948,0.2911787 -0.00868,0.4688977 C 9.6139444,4.2524655 9.5121971,4.3943336 9.434711,4.4768036 L 9.2938212,4.6267634 Z M 7.8681575,4.3066459 C 7.7074617,4.0557679 7.6724906,3.9747706 7.6729591,3.8546919 c 0,-0.1441642 0.1329481,-0.5392617 0.1807071,-0.5392617 0.010629,0 0.062275,0.066991 0.1148791,0.1488672 l 0.095646,0.1488593 -0.077817,0.081124 c -0.0428,0.044624 -0.077817,0.091425 -0.077817,0.1039822 0,0.012581 0.048594,0.095985 0.1079886,0.1853438 0.1057356,0.1591126 0.1069588,0.1642116 0.059005,0.2452881 -0.026938,0.04555 -0.048982,0.1098174 -0.048982,0.142834 0,0.116397 -0.057235,0.092882 -0.1584114,-0.065083 z M 13.307918,4.4343018 C 13.169644,4.4098917 12.425489,4.3003434 12.245753,4.2779603 12.022268,4.250114 11.986966,4.2299795 11.966006,4.1183726 11.932269,3.9388167 11.836076,3.7129268 11.710064,3.5174089 11.555369,3.2774019 11.202742,2.9307998 10.992949,2.8125421 10.903064,2.7618852 10.829522,2.7070239 10.829522,2.6906265 c 0,-0.016389 0.02109,-0.021726 0.04684,-0.011853 0.02576,0.00992 0.232708,0.072549 0.459894,0.1392711 0.474283,0.1393106 0.562191,0.1837523 0.919161,0.4647884 0.355299,0.2797061 1.259031,1.1138597 1.259031,1.1620939 0,0.022779 -0.02456,0.021504 -0.206535,-0.010625 z"
       id="path174-3-2-9"
       inkscape:connector-curvature="0"
       sodipodi:nodetypes="sccscsccsccsssccscscccccccccccccccsccccccscccsscccscssccsscssccccccccscscssccsccsccccccccsccsccccccccccccscssccscccccccccsccsccscscscsscccccccsscscccccsccccccccccscccscscccccccccccscccsscccccccsscccccccccscccccccccccscsccccccccccscccsccccccccccccsccccscccsccccccccsccccsccscscsscsscscccccscccccccscccccsscsccccccccccccsccccccccccccscsccccccsccccccsccccscccccccccscscccccccccccccccccsccccssccccscccsccsccccccscssccccscsscccscsccccccccccscccccccccscccccccscscccccscccscssccccsscccssccccccccccccsccccccccscccccccccccccccccccscccscsccccccccsccccccccsccccscccccccssccssscccscssccccccccsccccccccccscccsscccsccccsccscccccccsccccssccccsccccccccccccscccsccscccccscsscscccccccccscccsccsscccscccccsccsssssscscccsccsccccccccsccccccsccscscccsccsssccccscccss" />
  </g>
</svg>
